
CASCADE Topology V3, (c) Open Cascade
Locations 0
Curve2ds 158
1 -30 -30 1 0 
1 -30 -30 1 0 
1 -30 30 0 -1 
1 -30 30 0 -1 
1 30 -30 0 1 
1 30 -30 0 1 
1 30 30 -1 0 
1 0 0 1 0 
2 -20 -20 1 0 -0 1 2
1 0 0 1 0 
2 -10 -20 1 0 -0 1 2
1 0 0 1 0 
2 -20 -10 1 0 -0 1 2
1 0 0 1 0 
2 -10 -10 1 0 -0 1 2
1 0 0 1 0 
2 0 -20 1 0 -0 1 2
1 0 0 1 0 
2 10 -20 1 0 -0 1 2
1 0 0 1 0 
2 20 -20 1 0 -0 1 2
1 0 0 1 0 
2 0 -10 1 0 -0 1 2
1 0 0 1 0 
2 10 -10 1 0 -0 1 2
1 0 0 1 0 
2 20 -10 1 0 -0 1 2
1 0 0 1 0 
2 -20 0 1 0 -0 1 2
1 0 0 1 0 
2 -20 10 1 0 -0 1 2
1 0 0 1 0 
2 -10 0 1 0 -0 1 2
1 0 0 1 0 
2 -10 10 1 0 -0 1 2
1 0 0 1 0 
2 -20 20 1 0 -0 1 2
1 0 0 1 0 
2 -10 20 1 0 -0 1 2
1 -10 -10 1 0 
1 10 -10 0 1 
1 10 10 -1 0 
1 -10 10 0 -1 
1 0 0 1 0 
2 20 0 1 0 -0 1 2
1 0 0 1 0 
2 20 10 1 0 -0 1 2
1 0 0 1 0 
2 0 20 1 0 -0 1 2
1 0 0 1 0 
2 10 20 1 0 -0 1 2
1 0 0 1 0 
2 20 20 1 0 -0 1 2
1 30 30 -1 0 
1 0 -20 1 0 
2 -20 -20 1 0 -0 1 2
1 0 -20 1 0 
2 -10 -20 1 0 -0 1 2
1 0 -20 1 0 
2 -20 -10 1 0 -0 1 2
1 0 -20 1 0 
2 -10 -10 1 0 -0 1 2
1 0 -20 1 0 
2 0 -20 1 0 -0 1 2
1 0 -20 1 0 
2 10 -20 1 0 -0 1 2
1 0 -20 1 0 
2 20 -20 1 0 -0 1 2
1 0 -20 1 0 
2 0 -10 1 0 -0 1 2
1 0 -20 1 0 
2 10 -10 1 0 -0 1 2
1 0 -20 1 0 
2 20 -10 1 0 -0 1 2
1 0 -20 1 0 
2 -20 0 1 0 -0 1 2
1 0 -20 1 0 
2 -20 10 1 0 -0 1 2
1 0 -20 1 0 
2 -10 0 1 0 -0 1 2
1 0 -20 1 0 
2 -10 10 1 0 -0 1 2
1 0 -20 1 0 
2 -20 20 1 0 -0 1 2
1 0 -20 1 0 
2 -10 20 1 0 -0 1 2
8 -17.5 2.5
1 15 -2.5 0 -1 
8 -17.5 2.5
1 2.5 -20 -1 0 
8 -12.5 7.5
1 7.5 15 1 0 
8 -12.5 7.5
1 7.5 -20 -1 0 
8 -12.5 7.5
1 -5 7.5 0 1 
8 -12.5 7.5
1 7.5 -20 -1 -0 
8 -17.5 2.5
1 -2.5 -5 -1 0 
8 -17.5 2.5
1 2.5 -20 -1 0 
1 0 -20 1 0 
2 20 0 1 0 -0 1 2
1 0 -20 1 0 
2 20 10 1 0 -0 1 2
1 0 -20 1 0 
2 0 20 1 0 -0 1 2
1 0 -20 1 0 
2 10 20 1 0 -0 1 2
1 0 -20 1 0 
2 20 20 1 0 -0 1 2
1 0 0 0 -1 
1 6.2831853071795862 0 0 -1 
1 0 0 0 -1 
1 6.2831853071795862 0 0 -1 
1 0 0 0 -1 
1 6.2831853071795862 0 0 -1 
1 0 0 0 -1 
1 6.2831853071795862 0 0 -1 
1 0 0 0 -1 
1 6.2831853071795862 0 0 -1 
1 0 0 0 -1 
1 6.2831853071795862 0 0 -1 
1 0 0 0 -1 
1 6.2831853071795862 0 0 -1 
1 0 0 0 -1 
1 6.2831853071795862 0 0 -1 
1 0 0 0 -1 
1 6.2831853071795862 0 0 -1 
1 0 0 0 -1 
1 6.2831853071795862 0 0 -1 
1 0 0 0 -1 
1 6.2831853071795862 0 0 -1 
1 0 0 0 -1 
1 6.2831853071795862 0 0 -1 
1 0 0 0 -1 
1 6.2831853071795862 0 0 -1 
1 0 0 0 -1 
1 6.2831853071795862 0 0 -1 
1 0 0 0 -1 
1 6.2831853071795862 0 0 -1 
1 0 0 0 -1 
1 6.2831853071795862 0 0 -1 
1 0 0 1 0 
2 0 0 1 0 -0 1 2
1 0 0 1 0 
2 10 0 1 0 -0 1 2
1 0 0 1 0 
2 0 10 1 0 -0 1 2
1 0 0 1 0 
2 10 10 1 0 -0 1 2
1 0 0 0 -1 
1 6.2831853071795862 0 0 -1 
1 0 0 0 -1 
1 6.2831853071795862 0 0 -1 
1 0 0 0 -1 
1 6.2831853071795862 0 0 -1 
1 0 0 0 -1 
1 6.2831853071795862 0 0 -1 
1 0 0 0 -1 
1 6.2831853071795862 0 0 -1 
1 10 -10 0 1 
1 10 10 -1 0 
1 -10 10 0 -1 
1 -10 -10 1 0 
Curves 95
1 0 0 0 0 0 1 
1 60 0 0 0 0 1 
1 0 0 0 1 0 0 
1 0 0 20 1 0 0 
1 0 60 0 0 0 1 
1 0 60 0 0 -1 0 
1 0 60 20 0 -1 0 
1 60 60 0 0 0 1 
1 60 0 0 0 1 0 
1 60 0 20 0 1 0 
1 60 60 0 -1 0 0 
2 10 10 0 0 0 1 1 0 -0 -0 1 0 2
2 20 10 0 0 0 1 1 0 -0 -0 1 0 2
2 10 20 0 0 0 1 1 0 -0 -0 1 0 2
2 20 20 0 0 0 1 1 0 -0 -0 1 0 2
2 30 10 0 0 0 1 1 0 -0 -0 1 0 2
2 40 10 0 0 0 1 1 0 -0 -0 1 0 2
2 50 10 0 0 0 1 1 0 -0 -0 1 0 2
2 30 20 0 0 0 1 1 0 -0 -0 1 0 2
2 40 20 0 0 0 1 1 0 -0 -0 1 0 2
2 50 20 0 0 0 1 1 0 -0 -0 1 0 2
2 10 30 0 0 0 1 1 0 -0 -0 1 0 2
2 10 40 0 0 0 1 1 0 -0 -0 1 0 2
2 20 30 0 0 0 1 1 0 -0 -0 1 0 2
2 20 40 0 0 0 1 1 0 -0 -0 1 0 2
2 10 50 0 0 0 1 1 0 -0 -0 1 0 2
2 20 50 0 0 0 1 1 0 -0 -0 1 0 2
1 25 25 0 1 0 0 
1 45 25 0 0 1 0 
1 45 45 0 -1 0 0 
1 25 45 0 0 -1 0 
2 50 30 0 0 0 1 1 0 -0 -0 1 0 2
2 50 40 0 0 0 1 1 0 -0 -0 1 0 2
2 30 50 0 0 0 1 1 0 -0 -0 1 0 2
2 40 50 0 0 0 1 1 0 -0 -0 1 0 2
2 50 50 0 0 0 1 1 0 -0 -0 1 0 2
1 60 60 20 -1 0 0 
2 10 10 20 0 0 1 1 0 -0 -0 1 0 2
2 20 10 20 0 0 1 1 0 -0 -0 1 0 2
2 10 20 20 0 0 1 1 0 -0 -0 1 0 2
2 20 20 20 0 0 1 1 0 -0 -0 1 0 2
2 30 10 20 0 0 1 1 0 -0 -0 1 0 2
2 40 10 20 0 0 1 1 0 -0 -0 1 0 2
2 50 10 20 0 0 1 1 0 -0 -0 1 0 2
2 30 20 20 0 0 1 1 0 -0 -0 1 0 2
2 40 20 20 0 0 1 1 0 -0 -0 1 0 2
2 50 20 20 0 0 1 1 0 -0 -0 1 0 2
2 10 30 20 0 0 1 1 0 -0 -0 1 0 2
2 10 40 20 0 0 1 1 0 -0 -0 1 0 2
2 20 30 20 0 0 1 1 0 -0 -0 1 0 2
2 20 40 20 0 0 1 1 0 -0 -0 1 0 2
2 10 50 20 0 0 1 1 0 -0 -0 1 0 2
2 20 50 20 0 0 1 1 0 -0 -0 1 0 2
1 45 27.5 20 0 -1 0 
1 37.5 45 20 1 0 -0 
1 25 37.5 20 -0 1 0 
1 27.5 25 20 -1 0 0 
2 50 30 20 0 0 1 1 0 -0 -0 1 0 2
2 50 40 20 0 0 1 1 0 -0 -0 1 0 2
2 30 50 20 0 0 1 1 0 -0 -0 1 0 2
2 40 50 20 0 0 1 1 0 -0 -0 1 0 2
2 50 50 20 0 0 1 1 0 -0 -0 1 0 2
1 12 10 0 0 0 1 
1 22 10 0 0 0 1 
1 12 20 0 0 0 1 
1 22 20 0 0 0 1 
1 32 10 0 0 0 1 
1 42 10 0 0 0 1 
1 52 10 0 0 0 1 
1 32 20 0 0 0 1 
1 42 20 0 0 0 1 
1 52 20 0 0 0 1 
1 12 30 0 0 0 1 
1 12 40 0 0 0 1 
1 22 30 0 0 0 1 
1 22 40 0 0 0 1 
1 12 50 0 0 0 1 
1 22 50 0 0 0 1 
2 30 30 0 0 0 1 1 0 -0 -0 1 0 2
2 40 30 0 0 0 1 1 0 -0 -0 1 0 2
2 30 40 0 0 0 1 1 0 -0 -0 1 0 2
2 40 40 0 0 0 1 1 0 -0 -0 1 0 2
1 52 30 0 0 0 1 
1 52 40 0 0 0 1 
1 32 50 0 0 0 1 
1 42 50 0 0 0 1 
1 52 50 0 0 0 1 
1 45 45 0 0 0 1 
1 45 25 25 0 1 0 
1 45 25 0 0 0 1 
1 25 45 0 0 0 1 
1 45 45 25 -1 0 0 
1 25 25 0 0 0 1 
1 25 45 25 0 -1 0 
1 25 25 25 1 0 0 
Polygon3D 0
PolygonOnTriangulations 0
Surfaces 37
1 0 0 0 0 1 0 1 0 0 0 0 -1 
1 30 30 0 0 0 1 1 0 -0 -0 1 0 
1 30 30 20 0 0 1 1 0 -0 -0 1 0 
1 0 60 0 1 0 -0 0 -1 0 0 -0 -1 
1 60 0 0 -1 0 0 0 1 0 0 0 -1 
2 10 10 0 -0 -0 -1 1 0 -0 -0 1 -0 2
2 20 10 0 -0 -0 -1 1 0 -0 -0 1 -0 2
2 10 20 0 -0 -0 -1 1 0 -0 -0 1 -0 2
2 20 20 0 -0 -0 -1 1 0 -0 -0 1 -0 2
2 30 10 0 -0 -0 -1 1 0 -0 -0 1 -0 2
2 40 10 0 -0 -0 -1 1 0 -0 -0 1 -0 2
2 50 10 0 -0 -0 -1 1 0 -0 -0 1 -0 2
2 30 20 0 -0 -0 -1 1 0 -0 -0 1 -0 2
2 40 20 0 -0 -0 -1 1 0 -0 -0 1 -0 2
2 50 20 0 -0 -0 -1 1 0 -0 -0 1 -0 2
2 10 30 0 -0 -0 -1 1 0 -0 -0 1 -0 2
2 10 40 0 -0 -0 -1 1 0 -0 -0 1 -0 2
2 20 30 0 -0 -0 -1 1 0 -0 -0 1 -0 2
2 20 40 0 -0 -0 -1 1 0 -0 -0 1 -0 2
2 10 50 0 -0 -0 -1 1 0 -0 -0 1 -0 2
2 20 50 0 -0 -0 -1 1 0 -0 -0 1 -0 2
1 35 35 0 0 0 1 1 0 -0 -0 1 0 
2 50 30 0 -0 -0 -1 1 0 -0 -0 1 -0 2
2 50 40 0 -0 -0 -1 1 0 -0 -0 1 -0 2
2 30 50 0 -0 -0 -1 1 0 -0 -0 1 -0 2
2 40 50 0 -0 -0 -1 1 0 -0 -0 1 -0 2
2 50 50 0 -0 -0 -1 1 0 -0 -0 1 -0 2
1 45 25 0 -1 0 0 0 1 0 0 0 -1 
1 45 45 0 0 -1 0 -1 0 0 -0 -0 -1 
1 25 45 0 1 0 -0 0 -1 0 0 -0 -1 
1 25 25 0 0 1 0 1 0 0 0 0 -1 
1 60 60 0 0 -1 0 -1 0 0 -0 -0 -1 
2 30 30 0 -0 -0 -1 1 0 -0 -0 1 -0 2
2 40 30 0 -0 -0 -1 1 0 -0 -0 1 -0 2
2 30 40 0 -0 -0 -1 1 0 -0 -0 1 -0 2
2 40 40 0 -0 -0 -1 1 0 -0 -0 1 -0 2
1 35 35 25 0 0 1 1 0 -0 -0 1 0 
Triangulations 0

TShapes 285
Ve
1e-07
0 0 0
0 0

0101101
*
Ve
1e-07
0 0 20
0 0

0101101
*
Ed
 1e-07 1 1 0
1  1 0 0 20
0

0101000
+285 0 -284 0 *
Ve
1e-07
60 0 0
0 0

0101101
*
Ve
1e-07
60 0 20
0 0

0101101
*
Ed
 1e-07 1 1 0
1  2 0 0 20
0

0101000
+282 0 -281 0 *
Ed
 1e-07 1 1 0
1  3 0 0 60
2  1 2 0 0 60
0

0101000
+285 0 -282 0 *
Ed
 1e-07 1 1 0
1  4 0 0 60
2  2 3 0 0 60
0

0101000
+284 0 -281 0 *
Wi

0101100
+283 0 -280 0 -279 0 +278 0 *
Fa
0  1e-07 1 0

0101000
+277 0 *
Ve
1e-07
0 60 0
0 0

0101101
*
Ve
1e-07
0 60 20
0 0

0101101
*
Ed
 1e-07 1 1 0
1  5 0 0 20
0

0101000
+275 0 -274 0 *
Ed
 1e-07 1 1 0
1  6 0 0 60
2  3 2 0 0 60
0

0101000
+275 0 -285 0 *
Ed
 1e-07 1 1 0
1  7 0 0 60
2  4 3 0 0 60
0

0101000
+274 0 -284 0 *
Wi

0101100
+273 0 -283 0 -272 0 +271 0 *
Fa
0  1e-07 4 0

0101000
+270 0 *
Ve
1e-07
60 60 0
0 0

0101101
*
Ve
1e-07
60 60 20
0 0

0101101
*
Ed
 1e-07 1 1 0
1  8 0 0 20
0

0101000
+268 0 -267 0 *
Ed
 1e-07 1 1 0
1  9 0 0 60
2  5 2 0 0 60
0

0101000
+282 0 -268 0 *
Ed
 1e-07 1 1 0
1  10 0 0 60
2  6 3 0 0 60
0

0101000
+281 0 -267 0 *
Wi

0101100
+280 0 -266 0 -265 0 +264 0 *
Fa
0  1e-07 5 0

0101000
+263 0 *
Ed
 1e-07 1 1 0
1  11 0 0 60
2  7 2 0 0 60
0

0101000
+268 0 -275 0 *
Wi

0101100
+279 0 +272 0 +265 0 +261 0 *
Ve
1e-07
12 10 0
0 0

0101101
*
Ed
 1e-07 1 1 0
1  12 0 0 6.28318530717959
2  8 6 0 0 6.28318530717959
2  9 2 0 0 6.28318530717959
0

0101000
+259 0 -259 0 *
Wi

0101100
-258 0 *
Ve
1e-07
22 10 0
0 0

0101101
*
Ed
 1e-07 1 1 0
1  13 0 0 6.28318530717959
2  10 7 0 0 6.28318530717959
2  11 2 0 0 6.28318530717959
0

0101000
+256 0 -256 0 *
Wi

0101100
-255 0 *
Ve
1e-07
12 20 0
0 0

0101101
*
Ed
 1e-07 1 1 0
1  14 0 0 6.28318530717959
2  12 8 0 0 6.28318530717959
2  13 2 0 0 6.28318530717959
0

0101000
+253 0 -253 0 *
Wi

0101100
-252 0 *
Ve
1e-07
22 20 0
0 0

0101101
*
Ed
 1e-07 1 1 0
1  15 0 0 6.28318530717959
2  14 9 0 0 6.28318530717959
2  15 2 0 0 6.28318530717959
0

0101000
+250 0 -250 0 *
Wi

0101100
-249 0 *
Ve
1e-07
32 10 0
0 0

0101101
*
Ed
 1e-07 1 1 0
1  16 0 0 6.28318530717959
2  16 10 0 0 6.28318530717959
2  17 2 0 0 6.28318530717959
0

0101000
+247 0 -247 0 *
Wi

0101100
-246 0 *
Ve
1e-07
42 10 0
0 0

0101101
*
Ed
 1e-07 1 1 0
1  17 0 0 6.28318530717959
2  18 11 0 0 6.28318530717959
2  19 2 0 0 6.28318530717959
0

0101000
+244 0 -244 0 *
Wi

0101100
-243 0 *
Ve
1e-07
52 10 0
0 0

0101101
*
Ed
 1e-07 1 1 0
1  18 0 0 6.28318530717959
2  20 12 0 0 6.28318530717959
2  21 2 0 0 6.28318530717959
0

0101000
+241 0 -241 0 *
Wi

0101100
-240 0 *
Ve
1e-07
32 20 0
0 0

0101101
*
Ed
 1e-07 1 1 0
1  19 0 0 6.28318530717959
2  22 13 0 0 6.28318530717959
2  23 2 0 0 6.28318530717959
0

0101000
+238 0 -238 0 *
Wi

0101100
-237 0 *
Ve
1e-07
42 20 0
0 0

0101101
*
Ed
 1e-07 1 1 0
1  20 0 0 6.28318530717959
2  24 14 0 0 6.28318530717959
2  25 2 0 0 6.28318530717959
0

0101000
+235 0 -235 0 *
Wi

0101100
-234 0 *
Ve
1e-07
52 20 0
0 0

0101101
*
Ed
 1e-07 1 1 0
1  21 0 0 6.28318530717959
2  26 15 0 0 6.28318530717959
2  27 2 0 0 6.28318530717959
0

0101000
+232 0 -232 0 *
Wi

0101100
-231 0 *
Ve
1e-07
12 30 0
0 0

0101101
*
Ed
 1e-07 1 1 0
1  22 0 0 6.28318530717959
2  28 16 0 0 6.28318530717959
2  29 2 0 0 6.28318530717959
0

0101000
+229 0 -229 0 *
Wi

0101100
-228 0 *
Ve
1e-07
12 40 0
0 0

0101101
*
Ed
 1e-07 1 1 0
1  23 0 0 6.28318530717959
2  30 17 0 0 6.28318530717959
2  31 2 0 0 6.28318530717959
0

0101000
+226 0 -226 0 *
Wi

0101100
-225 0 *
Ve
1e-07
22 30 0
0 0

0101101
*
Ed
 1e-07 1 1 0
1  24 0 0 6.28318530717959
2  32 18 0 0 6.28318530717959
2  33 2 0 0 6.28318530717959
0

0101000
+223 0 -223 0 *
Wi

0101100
-222 0 *
Ve
1e-07
22 40 0
0 0

0101101
*
Ed
 1e-07 1 1 0
1  25 0 0 6.28318530717959
2  34 19 0 0 6.28318530717959
2  35 2 0 0 6.28318530717959
0

0101000
+220 0 -220 0 *
Wi

0101100
-219 0 *
Ve
1e-07
12 50 0
0 0

0101101
*
Ed
 1e-07 1 1 0
1  26 0 0 6.28318530717959
2  36 20 0 0 6.28318530717959
2  37 2 0 0 6.28318530717959
0

0101000
+217 0 -217 0 *
Wi

0101100
-216 0 *
Ve
1e-07
22 50 0
0 0

0101101
*
Ed
 1e-07 1 1 0
1  27 0 0 6.28318530717959
2  38 21 0 0 6.28318530717959
2  39 2 0 0 6.28318530717959
0

0101000
+214 0 -214 0 *
Wi

0101100
-213 0 *
Ve
1e-07
25 25 0
0 0

0101101
*
Ve
1e-07
45 25 0
0 0

0101101
*
Ed
 1e-07 1 1 0
1  28 0 0 20
2  40 22 0 0 20
0

0101000
+211 0 -210 0 *
Ve
1e-07
45 45 0
0 0

0101101
*
Ed
 1e-07 1 1 0
1  29 0 0 20
2  41 22 0 0 20
0

0101000
+210 0 -208 0 *
Ve
1e-07
25 45 0
0 0

0101101
*
Ed
 1e-07 1 1 0
1  30 0 0 20
2  42 22 0 0 20
0

0101000
+208 0 -206 0 *
Ed
 1e-07 1 1 0
1  31 0 0 20
2  43 22 0 0 20
0

0101000
+206 0 -211 0 *
Wi

0101100
-209 0 -207 0 -205 0 -204 0 *
Ve
1e-07
52 30 0
0 0

0101101
*
Ed
 1e-07 1 1 0
1  32 0 0 6.28318530717959
2  44 23 0 0 6.28318530717959
2  45 2 0 0 6.28318530717959
0

0101000
+202 0 -202 0 *
Wi

0101100
-201 0 *
Ve
1e-07
52 40 0
0 0

0101101
*
Ed
 1e-07 1 1 0
1  33 0 0 6.28318530717959
2  46 24 0 0 6.28318530717959
2  47 2 0 0 6.28318530717959
0

0101000
+199 0 -199 0 *
Wi

0101100
-198 0 *
Ve
1e-07
32 50 0
0 0

0101101
*
Ed
 1e-07 1 1 0
1  34 0 0 6.28318530717959
2  48 25 0 0 6.28318530717959
2  49 2 0 0 6.28318530717959
0

0101000
+196 0 -196 0 *
Wi

0101100
-195 0 *
Ve
1e-07
42 50 0
0 0

0101101
*
Ed
 1e-07 1 1 0
1  35 0 0 6.28318530717959
2  50 26 0 0 6.28318530717959
2  51 2 0 0 6.28318530717959
0

0101000
+193 0 -193 0 *
Wi

0101100
-192 0 *
Ve
1e-07
52 50 0
0 0

0101101
*
Ed
 1e-07 1 1 0
1  36 0 0 6.28318530717959
2  52 27 0 0 6.28318530717959
2  53 2 0 0 6.28318530717959
0

0101000
+190 0 -190 0 *
Wi

0101100
-189 0 *
Fa
0  1e-07 2 0

0101000
+260 0 +257 0 +254 0 +251 0 +248 0 +245 0 +242 0 +239 0 +236 0 +233 0 
+230 0 +227 0 +224 0 +221 0 +218 0 +215 0 +212 0 +203 0 +200 0 +197 0 
+194 0 +191 0 +188 0 *
Ed
 1e-07 1 1 0
1  37 0 0 60
2  54 3 0 0 60
0

0101000
+267 0 -274 0 *
Wi

0101100
+278 0 +271 0 +264 0 +186 0 *
Ve
1e-07
12 10 20
0 0

0101101
*
Ed
 1e-07 1 1 0
1  38 0 0 6.28318530717959
2  55 6 0 0 6.28318530717959
2  56 3 0 0 6.28318530717959
0

0101000
+184 0 -184 0 *
Wi

0101100
-183 0 *
Ve
1e-07
22 10 20
0 0

0101101
*
Ed
 1e-07 1 1 0
1  39 0 0 6.28318530717959
2  57 7 0 0 6.28318530717959
2  58 3 0 0 6.28318530717959
0

0101000
+181 0 -181 0 *
Wi

0101100
-180 0 *
Ve
1e-07
12 20 20
0 0

0101101
*
Ed
 1e-07 1 1 0
1  40 0 0 6.28318530717959
2  59 8 0 0 6.28318530717959
2  60 3 0 0 6.28318530717959
0

0101000
+178 0 -178 0 *
Wi

0101100
-177 0 *
Ve
1e-07
22 20 20
0 0

0101101
*
Ed
 1e-07 1 1 0
1  41 0 0 6.28318530717959
2  61 9 0 0 6.28318530717959
2  62 3 0 0 6.28318530717959
0

0101000
+175 0 -175 0 *
Wi

0101100
-174 0 *
Ve
1e-07
32 10 20
0 0

0101101
*
Ed
 1e-07 1 1 0
1  42 0 0 6.28318530717959
2  63 10 0 0 6.28318530717959
2  64 3 0 0 6.28318530717959
0

0101000
+172 0 -172 0 *
Wi

0101100
-171 0 *
Ve
1e-07
42 10 20
0 0

0101101
*
Ed
 1e-07 1 1 0
1  43 0 0 6.28318530717959
2  65 11 0 0 6.28318530717959
2  66 3 0 0 6.28318530717959
0

0101000
+169 0 -169 0 *
Wi

0101100
-168 0 *
Ve
1e-07
52 10 20
0 0

0101101
*
Ed
 1e-07 1 1 0
1  44 0 0 6.28318530717959
2  67 12 0 0 6.28318530717959
2  68 3 0 0 6.28318530717959
0

0101000
+166 0 -166 0 *
Wi

0101100
-165 0 *
Ve
1e-07
32 20 20
0 0

0101101
*
Ed
 1e-07 1 1 0
1  45 0 0 6.28318530717959
2  69 13 0 0 6.28318530717959
2  70 3 0 0 6.28318530717959
0

0101000
+163 0 -163 0 *
Wi

0101100
-162 0 *
Ve
1e-07
42 20 20
0 0

0101101
*
Ed
 1e-07 1 1 0
1  46 0 0 6.28318530717959
2  71 14 0 0 6.28318530717959
2  72 3 0 0 6.28318530717959
0

0101000
+160 0 -160 0 *
Wi

0101100
-159 0 *
Ve
1e-07
52 20 20
0 0

0101101
*
Ed
 1e-07 1 1 0
1  47 0 0 6.28318530717959
2  73 15 0 0 6.28318530717959
2  74 3 0 0 6.28318530717959
0

0101000
+157 0 -157 0 *
Wi

0101100
-156 0 *
Ve
1e-07
12 30 20
0 0

0101101
*
Ed
 1e-07 1 1 0
1  48 0 0 6.28318530717959
2  75 16 0 0 6.28318530717959
2  76 3 0 0 6.28318530717959
0

0101000
+154 0 -154 0 *
Wi

0101100
-153 0 *
Ve
1e-07
12 40 20
0 0

0101101
*
Ed
 1e-07 1 1 0
1  49 0 0 6.28318530717959
2  77 17 0 0 6.28318530717959
2  78 3 0 0 6.28318530717959
0

0101000
+151 0 -151 0 *
Wi

0101100
-150 0 *
Ve
1e-07
22 30 20
0 0

0101101
*
Ed
 1e-07 1 1 0
1  50 0 0 6.28318530717959
2  79 18 0 0 6.28318530717959
2  80 3 0 0 6.28318530717959
0

0101000
+148 0 -148 0 *
Wi

0101100
-147 0 *
Ve
1e-07
22 40 20
0 0

0101101
*
Ed
 1e-07 1 1 0
1  51 0 0 6.28318530717959
2  81 19 0 0 6.28318530717959
2  82 3 0 0 6.28318530717959
0

0101000
+145 0 -145 0 *
Wi

0101100
-144 0 *
Ve
1e-07
12 50 20
0 0

0101101
*
Ed
 1e-07 1 1 0
1  52 0 0 6.28318530717959
2  83 20 0 0 6.28318530717959
2  84 3 0 0 6.28318530717959
0

0101000
+142 0 -142 0 *
Wi

0101100
-141 0 *
Ve
1e-07
22 50 20
0 0

0101101
*
Ed
 1e-07 1 1 0
1  53 0 0 6.28318530717959
2  85 21 0 0 6.28318530717959
2  86 3 0 0 6.28318530717959
0

0101000
+139 0 -139 0 *
Wi

0101100
-138 0 *
Ve
1.5e-07
45 45 20
0 0

0101101
*
Ve
1.5e-07
45 25 20
0 0

0101101
*
Ed
 1.5e-07 1 1 0
1  54 0 -17.5 2.5
2  87 3 0 -17.5 2.5
2  88 28 0 -17.5 2.5
0

0101000
+136 0 -135 0 *
Ve
1.5e-07
25 45 20
0 0

0101101
*
Ed
 1.5e-07 1 1 0
1  55 0 -12.5 7.5
2  89 3 0 -12.5 7.5
2  90 29 0 -12.5 7.5
0

0101000
+133 0 -136 0 *
Ve
1.5e-07
25 25 20
0 0

0101101
*
Ed
 1.5e-07 1 1 0
1  56 0 -12.5 7.5
2  91 3 0 -12.5 7.5
2  92 30 0 -12.5 7.5
0

0101000
+131 0 -133 0 *
Ed
 1.5e-07 1 1 0
1  57 0 -17.5 2.5
2  93 3 0 -17.5 2.5
2  94 31 0 -17.5 2.5
0

0101000
+135 0 -131 0 *
Wi

0101100
+134 0 +132 0 +130 0 +129 0 *
Ve
1e-07
52 30 20
0 0

0101101
*
Ed
 1e-07 1 1 0
1  58 0 0 6.28318530717959
2  95 23 0 0 6.28318530717959
2  96 3 0 0 6.28318530717959
0

0101000
+127 0 -127 0 *
Wi

0101100
-126 0 *
Ve
1e-07
52 40 20
0 0

0101101
*
Ed
 1e-07 1 1 0
1  59 0 0 6.28318530717959
2  97 24 0 0 6.28318530717959
2  98 3 0 0 6.28318530717959
0

0101000
+124 0 -124 0 *
Wi

0101100
-123 0 *
Ve
1e-07
32 50 20
0 0

0101101
*
Ed
 1e-07 1 1 0
1  60 0 0 6.28318530717959
2  99 25 0 0 6.28318530717959
2  100 3 0 0 6.28318530717959
0

0101000
+121 0 -121 0 *
Wi

0101100
-120 0 *
Ve
1e-07
42 50 20
0 0

0101101
*
Ed
 1e-07 1 1 0
1  61 0 0 6.28318530717959
2  101 26 0 0 6.28318530717959
2  102 3 0 0 6.28318530717959
0

0101000
+118 0 -118 0 *
Wi

0101100
-117 0 *
Ve
1e-07
52 50 20
0 0

0101101
*
Ed
 1e-07 1 1 0
1  62 0 0 6.28318530717959
2  103 27 0 0 6.28318530717959
2  104 3 0 0 6.28318530717959
0

0101000
+115 0 -115 0 *
Wi

0101100
-114 0 *
Fa
0  1e-07 3 0

0101000
+185 0 +182 0 +179 0 +176 0 +173 0 +170 0 +167 0 +164 0 +161 0 +158 0 
+155 0 +152 0 +149 0 +146 0 +143 0 +140 0 +137 0 +128 0 +125 0 +122 0 
+119 0 +116 0 +113 0 *
Wi

0101100
+266 0 -273 0 -261 0 +186 0 *
Fa
0  1e-07 32 0

0101000
+111 0 *
Ed
 1e-07 1 1 0
1  63 0 0 20
3  105 106CN 6 0 0 20
0

0101000
+259 0 -184 0 *
Wi

0101100
+109 0 -109 0 -258 0 +183 0 *
Fa
0  1e-07 6 0

0101000
+108 0 *
Ed
 1e-07 1 1 0
1  64 0 0 20
3  107 108CN 7 0 0 20
0

0101000
+256 0 -181 0 *
Wi

0101100
+106 0 -106 0 -255 0 +180 0 *
Fa
0  1e-07 7 0

0101000
+105 0 *
Ed
 1e-07 1 1 0
1  65 0 0 20
3  109 110CN 8 0 0 20
0

0101000
+253 0 -178 0 *
Wi

0101100
+103 0 -103 0 -252 0 +177 0 *
Fa
0  1e-07 8 0

0101000
+102 0 *
Ed
 1e-07 1 1 0
1  66 0 0 20
3  111 112CN 9 0 0 20
0

0101000
+250 0 -175 0 *
Wi

0101100
+100 0 -100 0 -249 0 +174 0 *
Fa
0  1e-07 9 0

0101000
+99 0 *
Ed
 1e-07 1 1 0
1  67 0 0 20
3  113 114CN 10 0 0 20
0

0101000
+247 0 -172 0 *
Wi

0101100
+97 0 -97 0 -246 0 +171 0 *
Fa
0  1e-07 10 0

0101000
+96 0 *
Ed
 1e-07 1 1 0
1  68 0 0 20
3  115 116CN 11 0 0 20
0

0101000
+244 0 -169 0 *
Wi

0101100
+94 0 -94 0 -243 0 +168 0 *
Fa
0  1e-07 11 0

0101000
+93 0 *
Ed
 1e-07 1 1 0
1  69 0 0 20
3  117 118CN 12 0 0 20
0

0101000
+241 0 -166 0 *
Wi

0101100
+91 0 -91 0 -240 0 +165 0 *
Fa
0  1e-07 12 0

0101000
+90 0 *
Ed
 1e-07 1 1 0
1  70 0 0 20
3  119 120CN 13 0 0 20
0

0101000
+238 0 -163 0 *
Wi

0101100
+88 0 -88 0 -237 0 +162 0 *
Fa
0  1e-07 13 0

0101000
+87 0 *
Ed
 1e-07 1 1 0
1  71 0 0 20
3  121 122CN 14 0 0 20
0

0101000
+235 0 -160 0 *
Wi

0101100
+85 0 -85 0 -234 0 +159 0 *
Fa
0  1e-07 14 0

0101000
+84 0 *
Ed
 1e-07 1 1 0
1  72 0 0 20
3  123 124CN 15 0 0 20
0

0101000
+232 0 -157 0 *
Wi

0101100
+82 0 -82 0 -231 0 +156 0 *
Fa
0  1e-07 15 0

0101000
+81 0 *
Ed
 1e-07 1 1 0
1  73 0 0 20
3  125 126CN 16 0 0 20
0

0101000
+229 0 -154 0 *
Wi

0101100
+79 0 -79 0 -228 0 +153 0 *
Fa
0  1e-07 16 0

0101000
+78 0 *
Ed
 1e-07 1 1 0
1  74 0 0 20
3  127 128CN 17 0 0 20
0

0101000
+226 0 -151 0 *
Wi

0101100
+76 0 -76 0 -225 0 +150 0 *
Fa
0  1e-07 17 0

0101000
+75 0 *
Ed
 1e-07 1 1 0
1  75 0 0 20
3  129 130CN 18 0 0 20
0

0101000
+223 0 -148 0 *
Wi

0101100
+73 0 -73 0 -222 0 +147 0 *
Fa
0  1e-07 18 0

0101000
+72 0 *
Ed
 1e-07 1 1 0
1  76 0 0 20
3  131 132CN 19 0 0 20
0

0101000
+220 0 -145 0 *
Wi

0101100
+70 0 -70 0 -219 0 +144 0 *
Fa
0  1e-07 19 0

0101000
+69 0 *
Ed
 1e-07 1 1 0
1  77 0 0 20
3  133 134CN 20 0 0 20
0

0101000
+217 0 -142 0 *
Wi

0101100
+67 0 -67 0 -216 0 +141 0 *
Fa
0  1e-07 20 0

0101000
+66 0 *
Ed
 1e-07 1 1 0
1  78 0 0 20
3  135 136CN 21 0 0 20
0

0101000
+214 0 -139 0 *
Wi

0101100
+64 0 -64 0 -213 0 +138 0 *
Fa
0  1e-07 21 0

0101000
+63 0 *
Wi

0101100
+204 0 +205 0 +207 0 +209 0 *
Ve
1e-07
32 30 0
0 0

0101101
*
Ed
 1e-07 1 1 0
1  79 0 0 6.28318530717959
2  137 33 0 0 6.28318530717959
2  138 2 0 0 6.28318530717959
0

0101000
+60 0 -60 0 *
Wi

0101100
-59 0 *
Ve
1e-07
42 30 0
0 0

0101101
*
Ed
 1e-07 1 1 0
1  80 0 0 6.28318530717959
2  139 34 0 0 6.28318530717959
2  140 2 0 0 6.28318530717959
0

0101000
+57 0 -57 0 *
Wi

0101100
-56 0 *
Ve
1e-07
32 40 0
0 0

0101101
*
Ed
 1e-07 1 1 0
1  81 0 0 6.28318530717959
2  141 35 0 0 6.28318530717959
2  142 2 0 0 6.28318530717959
0

0101000
+54 0 -54 0 *
Wi

0101100
-53 0 *
Ve
1e-07
42 40 0
0 0

0101101
*
Ed
 1e-07 1 1 0
1  82 0 0 6.28318530717959
2  143 36 0 0 6.28318530717959
2  144 2 0 0 6.28318530717959
0

0101000
+51 0 -51 0 *
Wi

0101100
-50 0 *
Fa
0  1e-07 2 0

0101000
+61 0 +58 0 +55 0 +52 0 +49 0 *
Ed
 1e-07 1 1 0
1  83 0 0 20
3  145 146CN 23 0 0 20
0

0101000
+202 0 -127 0 *
Wi

0101100
+47 0 -47 0 -201 0 +126 0 *
Fa
0  1e-07 23 0

0101000
+46 0 *
Ed
 1e-07 1 1 0
1  84 0 0 20
3  147 148CN 24 0 0 20
0

0101000
+199 0 -124 0 *
Wi

0101100
+44 0 -44 0 -198 0 +123 0 *
Fa
0  1e-07 24 0

0101000
+43 0 *
Ed
 1e-07 1 1 0
1  85 0 0 20
3  149 150CN 25 0 0 20
0

0101000
+196 0 -121 0 *
Wi

0101100
+41 0 -41 0 -195 0 +120 0 *
Fa
0  1e-07 25 0

0101000
+40 0 *
Ed
 1e-07 1 1 0
1  86 0 0 20
3  151 152CN 26 0 0 20
0

0101000
+193 0 -118 0 *
Wi

0101100
+38 0 -38 0 -192 0 +117 0 *
Fa
0  1e-07 26 0

0101000
+37 0 *
Ed
 1e-07 1 1 0
1  87 0 0 20
3  153 154CN 27 0 0 20
0

0101000
+190 0 -115 0 *
Wi

0101100
+35 0 -35 0 -189 0 +114 0 *
Fa
0  1e-07 27 0

0101000
+34 0 *
Ve
1e-07
45 45 25
0 0

0101101
*
Ed
 1e-07 1 1 0
1  88 0 20 25
0

0101000
+136 0 -32 0 *
Ve
1e-07
45 25 25
0 0

0101101
*
Ed
 1e-07 1 1 0
1  89 0 0 20
2  155 37 0 0 20
0

0101000
+30 0 -32 0 *
Ed
 1e-07 1 1 0
1  90 0 20 25
0

0101000
+135 0 -30 0 *
Wi

0101100
+134 0 -31 0 +29 0 +28 0 *
Fa
0  1e-07 28 0

0101000
+27 0 *
Ve
1e-07
25 45 25
0 0

0101101
*
Ed
 1e-07 1 1 0
1  91 0 20 25
0

0101000
+133 0 -25 0 *
Ed
 1e-07 1 1 0
1  92 0 0 20
2  156 37 0 0 20
0

0101000
+32 0 -25 0 *
Wi

0101100
+132 0 -24 0 +23 0 +31 0 *
Fa
0  1e-07 29 0

0101000
+22 0 *
Ve
1e-07
25 25 25
0 0

0101101
*
Ed
 1e-07 1 1 0
1  93 0 20 25
0

0101000
+131 0 -20 0 *
Ed
 1e-07 1 1 0
1  94 0 0 20
2  157 37 0 0 20
0

0101000
+25 0 -20 0 *
Wi

0101100
+130 0 -19 0 +18 0 +24 0 *
Fa
0  1e-07 30 0

0101000
+17 0 *
Ed
 1e-07 1 1 0
1  95 0 0 20
2  158 37 0 0 20
0

0101000
+20 0 -30 0 *
Wi

0101100
+129 0 -28 0 +15 0 +19 0 *
Fa
0  1e-07 31 0

0101000
+14 0 *
Wi

0101100
+59 0 *
Fa
0  1e-07 22 0

0101000
+12 0 *
Wi

0101100
+56 0 *
Fa
0  1e-07 22 0

0101000
+10 0 *
Wi

0101100
+53 0 *
Fa
0  1e-07 22 0

0101000
+8 0 *
Wi

0101100
+50 0 *
Fa
0  1e-07 22 0

0101000
+6 0 *
Wi

0101100
+15 0 +29 0 +23 0 +18 0 *
Fa
0  1e-07 37 0

0101000
+4 0 *
Sh

0101100
-276 0 -269 0 -262 0 -187 0 +112 0 -110 0 +107 0 +104 0 +101 0 +98 0 
+95 0 +92 0 +89 0 +86 0 +83 0 +80 0 +77 0 +74 0 +71 0 +68 0 
+65 0 +62 0 -48 0 +45 0 +42 0 +39 0 +36 0 +33 0 -26 0 -21 0 
-16 0 -13 0 -11 0 -9 0 -7 0 -5 0 +3 0 *
So

0100000
+2 0 *

+1 0 