
CASCADE Topology V3, (c) Open Cascade
Locations 0
Curve2ds 240
1 0 0 0 -1 
1 60 0 0 -1 
1 60 0 0 -1 
1 0 0 0 -1 
1 0 0 1 0 
1 -30 -30 1 0 
1 0 -20 1 0 
1 -30 -30 1 0 
1 60 0 0 -1 
1 0 -0 0 -1 
1 0 0 1 0 
1 30 -30 0 1 
1 0 -20 1 0 
1 30 -30 0 1 
1 60 0 0 -1 
1 0 0 0 -1 
1 0 -0 1 0 
1 30 30 -1 0 
1 0 -20 1 0 
1 30 30 -1 0 
1 0 0 1 0 
1 -30 30 0 -1 
1 0 -20 1 0 
1 -30 30 0 -1 
1 0 0 1 0 
2 -20 -20 1 0 -0 1 2
1 0 0 1 0 
2 -20 -10 1 0 -0 1 2
1 0 0 1 0 
2 -20 0 1 0 -0 1 2
1 0 0 1 0 
2 -20 10 1 0 -0 1 2
1 0 0 1 0 
2 -20 20 1 0 -0 1 2
1 0 0 1 0 
2 -10 -20 1 0 -0 1 2
1 0 0 1 0 
2 -10 -10 1 0 -0 1 2
1 0 0 1 0 
2 -10 0 1 0 -0 1 2
1 0 0 1 0 
2 -10 10 1 0 -0 1 2
1 0 0 1 0 
2 -10 20 1 0 -0 1 2
1 0 0 1 0 
2 0 -20 1 0 -0 1 2
1 0 0 1 0 
2 0 -10 1 0 -0 1 2
1 0 0 1 0 
2 0 0 1 0 -0 1 2
1 0 0 1 0 
2 0 10 1 0 -0 1 2
1 0 0 1 0 
2 0 20 1 0 -0 1 2
1 0 0 1 0 
2 10 -20 1 0 -0 1 2
1 0 0 1 0 
2 10 -10 1 0 -0 1 2
1 0 0 1 0 
2 10 0 1 0 -0 1 2
1 0 0 1 0 
2 10 10 1 0 -0 1 2
1 0 0 1 0 
2 10 20 1 0 -0 1 2
1 0 0 1 0 
2 20 -20 1 0 -0 1 2
1 0 0 1 0 
2 20 -10 1 0 -0 1 2
1 0 0 1 0 
2 20 0 1 0 -0 1 2
1 0 0 1 0 
2 20 10 1 0 -0 1 2
1 0 0 1 0 
2 20 20 1 0 -0 1 2
1 0 0 0 -1 
1 6.2831853071795862 0 0 -1 
1 0 -20 1 0 
2 -20 -20 1 0 -0 1 2
1 0 0 0 -1 
1 6.2831853071795862 0 0 -1 
1 0 -20 1 0 
2 -20 -10 1 0 -0 1 2
1 0 0 0 -1 
1 6.2831853071795862 0 0 -1 
1 0 -20 1 0 
2 -20 0 1 0 -0 1 2
1 0 0 0 -1 
1 6.2831853071795862 0 0 -1 
1 0 -20 1 0 
2 -20 10 1 0 -0 1 2
1 0 0 0 -1 
1 6.2831853071795862 0 0 -1 
1 0 -20 1 0 
2 -20 20 1 0 -0 1 2
1 0 0 0 -1 
1 6.2831853071795862 0 0 -1 
1 0 -20 1 0 
2 -10 -20 1 0 -0 1 2
1 0 0 0 -1 
1 6.2831853071795862 0 0 -1 
1 0 -20 1 0 
2 -10 -10 1 0 -0 1 2
1 0 0 0 -1 
1 6.2831853071795862 0 0 -1 
1 0 -20 1 0 
2 -10 0 1 0 -0 1 2
1 0 0 0 -1 
1 6.2831853071795862 0 0 -1 
1 0 -20 1 0 
2 -10 10 1 0 -0 1 2
1 0 0 0 -1 
1 6.2831853071795862 0 0 -1 
1 0 -20 1 0 
2 -10 20 1 0 -0 1 2
1 0 0 0 -1 
1 6.2831853071795862 0 0 -1 
1 0 -20 1 0 
2 0 -20 1 0 -0 1 2
1 0 0 0 -1 
1 6.2831853071795862 0 0 -1 
1 0 -20 1 0 
2 0 -10 1 0 -0 1 2
1 0 0 0 -1 
1 6.2831853071795862 0 0 -1 
1 0 -20 1 0 
2 0 0 1 0 -0 1 2
1 0 0 0 -1 
1 6.2831853071795862 0 0 -1 
1 0 -20 1 0 
2 0 10 1 0 -0 1 2
1 0 0 0 -1 
1 6.2831853071795862 0 0 -1 
1 0 -20 1 0 
2 0 20 1 0 -0 1 2
1 0 0 0 -1 
1 6.2831853071795862 0 0 -1 
1 0 -20 1 0 
2 10 -20 1 0 -0 1 2
1 0 0 0 -1 
1 6.2831853071795862 0 0 -1 
1 0 -20 1 0 
2 10 -10 1 0 -0 1 2
1 0 0 0 -1 
1 6.2831853071795862 0 0 -1 
1 0 -20 1 0 
2 10 0 1 0 -0 1 2
1 0 0 0 -1 
1 6.2831853071795862 0 0 -1 
1 0 -20 1 0 
2 10 10 1 0 -0 1 2
1 0 0 0 -1 
1 6.2831853071795862 0 0 -1 
1 0 -20 1 0 
2 10 20 1 0 -0 1 2
1 0 0 0 -1 
1 6.2831853071795862 0 0 -1 
1 0 -20 1 0 
2 20 -20 1 0 -0 1 2
1 0 0 0 -1 
1 6.2831853071795862 0 0 -1 
1 0 -20 1 0 
2 20 -10 1 0 -0 1 2
1 0 0 0 -1 
1 6.2831853071795862 0 0 -1 
1 0 -20 1 0 
2 20 0 1 0 -0 1 2
1 0 0 0 -1 
1 6.2831853071795862 0 0 -1 
1 0 -20 1 0 
2 20 10 1 0 -0 1 2
1 0 0 0 -1 
1 6.2831853071795862 0 0 -1 
1 0 -20 1 0 
2 20 20 1 0 -0 1 2
8 0 20
1 59.25 0 0 -1 
8 0 20
1 0.75 0 0 -1 
8 0 20
1 59.25 0 0 -1 
8 0 20
1 0.75 0 0 -1 
8 0 20
1 59.25 0 0 -1 
8 0 20
1 0.75 0 0 -1 
8 -20 0
1 0.75 0 0 1 
8 -20 0
1 59.25 0 -0 1 
8 -15 45
1 15 -0.75 1 0 
8 -15 45
1 -15 -29.25 1 0 
8 -15 45
1 15 -0.75 1 0 
8 -15 45
1 29.25 -15 0 1 
8 -15 45
1 15 -0.75 1 0 
8 -15 45
1 -29.25 15 0 -1 
8 -15 45
1 15 -0.75 1 0 
8 -15 45
1 15 29.25 -1 0 
1 6.2831853071795862 -0.75 -1 0 
2 20 -10 1 0 0 -1 2.75
1 6.2831853071795862 -0.75 -1 0 
2 20 -20 1 0 0 -1 2.75
1 6.2831853071795862 -0.75 -1 0 
2 10 20 1 0 0 -1 2.75
1 6.2831853071795862 -0.75 -1 0 
2 10 10 1 0 0 -1 2.75
1 6.2831853071795862 -0.75 -1 0 
2 10 0 1 0 0 -1 2.75
1 6.2831853071795862 -0.75 -1 0 
2 10 -10 1 0 0 -1 2.75
1 6.2831853071795862 -0.75 -1 0 
2 10 -20 1 0 0 -1 2.75
1 6.2831853071795862 -0.75 -1 0 
2 0 20 1 0 0 -1 2.75
1 6.2831853071795862 -0.75 -1 0 
2 0 10 1 0 0 -1 2.75
1 6.2831853071795862 -0.75 -1 0 
2 0 0 1 0 0 -1 2.75
1 6.2831853071795862 -0.75 -1 0 
2 0 -10 1 0 0 -1 2.75
1 6.2831853071795862 -0.75 -1 0 
2 0 -20 1 0 0 -1 2.75
1 6.2831853071795862 -0.75 -1 0 
2 -10 20 1 0 0 -1 2.75
1 6.2831853071795862 -0.75 -1 0 
2 -10 10 1 0 0 -1 2.75
1 6.2831853071795862 -0.75 -1 0 
2 -10 0 1 0 0 -1 2.75
1 6.2831853071795862 -0.75 -1 0 
2 -10 -10 1 0 0 -1 2.75
1 6.2831853071795862 -0.75 -1 0 
2 -10 -20 1 0 0 -1 2.75
1 6.2831853071795862 -0.75 -1 0 
2 -20 20 1 0 0 -1 2.75
1 6.2831853071795862 -0.75 -1 0 
2 -20 10 1 0 0 -1 2.75
1 6.2831853071795862 -0.75 -1 0 
2 -20 0 1 0 0 -1 2.75
1 6.2831853071795862 -0.75 -1 0 
2 -20 -10 1 0 0 -1 2.75
1 6.2831853071795862 -0.75 -1 0 
2 -20 -20 1 0 0 -1 2.75
1 6.2831853071795862 -0.75 -1 0 
2 20 0 1 0 0 -1 2.75
1 6.2831853071795862 -0.75 -1 0 
2 20 10 1 0 0 -1 2.75
1 6.2831853071795862 -0.75 -1 0 
2 20 20 1 0 0 -1 2.75
Curves 174
1 0 0 0 0 0 1 
1 60 0 0 0 0 1 
1 0 0 0 1 0 0 
1 0 0 20 1 0 0 
1 60 60 0 0 0 1 
1 60 0 0 0 1 0 
1 60 0 20 0 1 0 
1 0 60 0 0 0 1 
1 60 60 0 -1 0 0 
1 60 60 20 -1 0 0 
1 0 60 0 0 -1 0 
1 0 60 20 0 -1 0 
2 10 10 0 0 0 1 1 0 -0 -0 1 0 2
2 10 20 0 0 0 1 1 0 -0 -0 1 0 2
2 10 30 0 0 0 1 1 0 -0 -0 1 0 2
2 10 40 0 0 0 1 1 0 -0 -0 1 0 2
2 10 50 0 0 0 1 1 0 -0 -0 1 0 2
2 20 10 0 0 0 1 1 0 -0 -0 1 0 2
2 20 20 0 0 0 1 1 0 -0 -0 1 0 2
2 20 30 0 0 0 1 1 0 -0 -0 1 0 2
2 20 40 0 0 0 1 1 0 -0 -0 1 0 2
2 20 50 0 0 0 1 1 0 -0 -0 1 0 2
2 30 10 0 0 0 1 1 0 -0 -0 1 0 2
2 30 20 0 0 0 1 1 0 -0 -0 1 0 2
2 30 30 0 0 0 1 1 0 -0 -0 1 0 2
2 30 40 0 0 0 1 1 0 -0 -0 1 0 2
2 30 50 0 0 0 1 1 0 -0 -0 1 0 2
2 40 10 0 0 0 1 1 0 -0 -0 1 0 2
2 40 20 0 0 0 1 1 0 -0 -0 1 0 2
2 40 30 0 0 0 1 1 0 -0 -0 1 0 2
2 40 40 0 0 0 1 1 0 -0 -0 1 0 2
2 40 50 0 0 0 1 1 0 -0 -0 1 0 2
2 50 10 0 0 0 1 1 0 -0 -0 1 0 2
2 50 20 0 0 0 1 1 0 -0 -0 1 0 2
2 50 30 0 0 0 1 1 0 -0 -0 1 0 2
2 50 40 0 0 0 1 1 0 -0 -0 1 0 2
2 50 50 0 0 0 1 1 0 -0 -0 1 0 2
1 12 10 0 0 0 1 
2 10 10 20 0 0 1 1 0 -0 -0 1 0 2
1 12 20 0 0 0 1 
2 10 20 20 0 0 1 1 0 -0 -0 1 0 2
1 12 30 0 0 0 1 
2 10 30 20 0 0 1 1 0 -0 -0 1 0 2
1 12 40 0 0 0 1 
2 10 40 20 0 0 1 1 0 -0 -0 1 0 2
1 12 50 0 0 0 1 
2 10 50 20 0 0 1 1 0 -0 -0 1 0 2
1 22 10 0 0 0 1 
2 20 10 20 0 0 1 1 0 -0 -0 1 0 2
1 22 20 0 0 0 1 
2 20 20 20 0 0 1 1 0 -0 -0 1 0 2
1 22 30 0 0 0 1 
2 20 30 20 0 0 1 1 0 -0 -0 1 0 2
1 22 40 0 0 0 1 
2 20 40 20 0 0 1 1 0 -0 -0 1 0 2
1 22 50 0 0 0 1 
2 20 50 20 0 0 1 1 0 -0 -0 1 0 2
1 32 10 0 0 0 1 
2 30 10 20 0 0 1 1 0 -0 -0 1 0 2
1 32 20 0 0 0 1 
2 30 20 20 0 0 1 1 0 -0 -0 1 0 2
1 32 30 0 0 0 1 
2 30 30 20 0 0 1 1 0 -0 -0 1 0 2
1 32 40 0 0 0 1 
2 30 40 20 0 0 1 1 0 -0 -0 1 0 2
1 32 50 0 0 0 1 
2 30 50 20 0 0 1 1 0 -0 -0 1 0 2
1 42 10 0 0 0 1 
2 40 10 20 0 0 1 1 0 -0 -0 1 0 2
1 42 20 0 0 0 1 
2 40 20 20 0 0 1 1 0 -0 -0 1 0 2
1 42 30 0 0 0 1 
2 40 30 20 0 0 1 1 0 -0 -0 1 0 2
1 42 40 0 0 0 1 
2 40 40 20 0 0 1 1 0 -0 -0 1 0 2
1 42 50 0 0 0 1 
2 40 50 20 0 0 1 1 0 -0 -0 1 0 2
1 52 10 0 0 0 1 
2 50 10 20 0 0 1 1 0 -0 -0 1 0 2
1 52 20 0 0 0 1 
2 50 20 20 0 0 1 1 0 -0 -0 1 0 2
1 52 30 0 0 0 1 
2 50 30 20 0 0 1 1 0 -0 -0 1 0 2
1 52 40 0 0 0 1 
2 50 40 20 0 0 1 1 0 -0 -0 1 0 2
1 52 50 0 0 0 1 
2 50 50 20 0 0 1 1 0 -0 -0 1 0 2
1 60 59.25 20 -1 0 0 
1 59.25 0 20 0 1 0 
1 59.25 59.25 0 0 0 1 
1 0.75 60 20 0 -1 0 
1 0.75 59.25 0 0 0 1 
1 0 0.75 20 1 0 0 
1 59.25 0.75 0 0 -0 1 
1 0.75 0.75 0 -0 0 -1 
1 15 0.75 0.75 1 0 0 
1 59.25 15 0.75 0 1 -0 
1 0.75 45 0.75 0 -1 0 
1 45 59.25 0.75 -1 0 0 
2 50 20 0.75 0 -0 -1 1 0 -0 0 -1 0 2.75
1 52.75 20 0 0 0 1 
2 50 10 0.75 0 -0 -1 1 0 -0 0 -1 0 2.75
1 52.75 10 0 0 0 1 
2 40 50 0.75 0 -0 -1 1 0 -0 0 -1 0 2.75
1 42.75 50 0 0 0 1 
2 40 40 0.75 0 -0 -1 1 0 -0 0 -1 0 2.75
1 42.75 40 0 0 0 1 
2 40 30 0.75 0 -0 -1 1 0 -0 0 -1 0 2.75
1 42.75 30 0 0 0 1 
2 40 20 0.75 0 -0 -1 1 0 -0 0 -1 0 2.75
1 42.75 20 0 0 0 1 
2 40 10 0.75 0 -0 -1 1 0 -0 0 -1 0 2.75
1 42.75 10 0 0 0 1 
2 30 50 0.75 0 -0 -1 1 0 -0 0 -1 0 2.75
1 32.75 50 0 0 0 1 
2 30 40 0.75 0 -0 -1 1 0 -0 0 -1 0 2.75
1 32.75 40 0 0 0 1 
2 30 30 0.75 0 -0 -1 1 0 -0 0 -1 0 2.75
1 32.75 30 0 0 0 1 
2 30 20 0.75 0 -0 -1 1 0 -0 0 -1 0 2.75
1 32.75 20 0 0 0 1 
2 30 10 0.75 0 -0 -1 1 0 -0 0 -1 0 2.75
1 32.75 10 0 0 0 1 
2 20 50 0.75 0 -0 -1 1 0 -0 0 -1 0 2.75
1 22.75 50 0 0 0 1 
2 20 40 0.75 0 -0 -1 1 0 -0 0 -1 0 2.75
1 22.75 40 0 0 0 1 
2 20 30 0.75 0 -0 -1 1 0 -0 0 -1 0 2.75
1 22.75 30 0 0 0 1 
2 20 20 0.75 0 -0 -1 1 0 -0 0 -1 0 2.75
1 22.75 20 0 0 0 1 
2 20 10 0.75 0 -0 -1 1 0 -0 0 -1 0 2.75
1 22.75 10 0 0 0 1 
2 10 50 0.75 0 -0 -1 1 0 -0 0 -1 0 2.75
1 12.75 50 0 0 0 1 
2 10 40 0.75 0 -0 -1 1 0 -0 0 -1 0 2.75
1 12.75 40 0 0 0 1 
2 10 30 0.75 0 -0 -1 1 0 -0 0 -1 0 2.75
1 12.75 30 0 0 0 1 
2 10 20 0.75 0 -0 -1 1 0 -0 0 -1 0 2.75
1 12.75 20 0 0 0 1 
2 10 10 0.75 0 -0 -1 1 0 -0 0 -1 0 2.75
1 12.75 10 0 0 0 1 
2 50 30 0.75 0 -0 -1 1 0 -0 0 -1 0 2.75
1 52.75 30 0 0 0 1 
2 50 40 0.75 0 -0 -1 1 0 -0 0 -1 0 2.75
1 52.75 40 0 0 0 1 
2 50 50 0.75 0 -0 -1 1 0 -0 0 -1 0 2.75
1 52.75 50 0 0 0 1 
2 50 20 20 0 0 1 1 0 0 0 1 0 2.75
2 50 10 20 0 0 1 1 0 0 0 1 0 2.75
2 40 50 20 0 0 1 1 0 0 0 1 0 2.75
2 40 40 20 0 0 1 1 0 0 0 1 0 2.75
2 40 30 20 0 0 1 1 0 0 0 1 0 2.75
2 40 20 20 0 0 1 1 0 0 0 1 0 2.75
2 40 10 20 0 0 1 1 0 0 0 1 0 2.75
2 30 50 20 0 0 1 1 0 0 0 1 0 2.75
2 30 40 20 0 0 1 1 0 0 0 1 0 2.75
2 30 30 20 0 0 1 1 0 0 0 1 0 2.75
2 30 20 20 0 0 1 1 0 0 0 1 0 2.75
2 30 10 20 0 0 1 1 0 0 0 1 0 2.75
2 20 50 20 0 0 1 1 0 0 0 1 0 2.75
2 20 40 20 0 0 1 1 0 0 0 1 0 2.75
2 20 30 20 0 0 1 1 0 0 0 1 0 2.75
2 20 20 20 0 0 1 1 0 0 0 1 0 2.75
2 20 10 20 0 0 1 1 0 0 0 1 0 2.75
2 10 50 20 0 0 1 1 0 0 0 1 0 2.75
2 10 40 20 0 0 1 1 0 0 0 1 0 2.75
2 10 30 20 0 0 1 1 0 0 0 1 0 2.75
2 10 20 20 0 0 1 1 0 0 0 1 0 2.75
2 10 10 20 0 0 1 1 0 0 0 1 0 2.75
2 50 30 20 0 0 1 1 0 0 0 1 0 2.75
2 50 40 20 0 0 1 1 0 0 0 1 0 2.75
2 50 50 20 0 0 1 1 0 0 0 1 0 2.75
Polygon3D 0
PolygonOnTriangulations 0
Surfaces 61
1 0 0 0 0 1 0 1 0 0 0 0 -1 
1 0 60 0 1 0 -0 0 -1 0 0 -0 -1 
1 60 0 0 -1 0 0 0 1 0 0 0 -1 
1 30 30 0 0 0 1 1 0 -0 -0 1 0 
1 30 30 20 0 0 1 1 0 -0 -0 1 0 
1 60 60 0 0 -1 0 -1 0 0 -0 -0 -1 
2 10 10 0 -0 -0 -1 1 0 -0 -0 1 -0 2
2 10 20 0 -0 -0 -1 1 0 -0 -0 1 -0 2
2 10 30 0 -0 -0 -1 1 0 -0 -0 1 -0 2
2 10 40 0 -0 -0 -1 1 0 -0 -0 1 -0 2
2 10 50 0 -0 -0 -1 1 0 -0 -0 1 -0 2
2 20 10 0 -0 -0 -1 1 0 -0 -0 1 -0 2
2 20 20 0 -0 -0 -1 1 0 -0 -0 1 -0 2
2 20 30 0 -0 -0 -1 1 0 -0 -0 1 -0 2
2 20 40 0 -0 -0 -1 1 0 -0 -0 1 -0 2
2 20 50 0 -0 -0 -1 1 0 -0 -0 1 -0 2
2 30 10 0 -0 -0 -1 1 0 -0 -0 1 -0 2
2 30 20 0 -0 -0 -1 1 0 -0 -0 1 -0 2
2 30 30 0 -0 -0 -1 1 0 -0 -0 1 -0 2
2 30 40 0 -0 -0 -1 1 0 -0 -0 1 -0 2
2 30 50 0 -0 -0 -1 1 0 -0 -0 1 -0 2
2 40 10 0 -0 -0 -1 1 0 -0 -0 1 -0 2
2 40 20 0 -0 -0 -1 1 0 -0 -0 1 -0 2
2 40 30 0 -0 -0 -1 1 0 -0 -0 1 -0 2
2 40 40 0 -0 -0 -1 1 0 -0 -0 1 -0 2
2 40 50 0 -0 -0 -1 1 0 -0 -0 1 -0 2
2 50 10 0 -0 -0 -1 1 0 -0 -0 1 -0 2
2 50 20 0 -0 -0 -1 1 0 -0 -0 1 -0 2
2 50 30 0 -0 -0 -1 1 0 -0 -0 1 -0 2
2 50 40 0 -0 -0 -1 1 0 -0 -0 1 -0 2
2 50 50 0 -0 -0 -1 1 0 -0 -0 1 -0 2
1 60 59.25 0 0 -1 0 -1 0 0 -0 -0 -1 
1 59.25 0 0 -1 0 0 0 1 0 0 0 -1 
1 0.75 60 0 1 0 -0 0 -1 0 0 -0 -1 
1 0 0.75 0 0 1 0 1 0 0 0 0 -1 
1 30 30 0.75 0 0 1 1 0 -0 -0 1 0 
2 50 20 0 -0 -0 -1 1 0 -0 -0 1 -0 2.75
2 50 10 0 -0 -0 -1 1 0 -0 -0 1 -0 2.75
2 40 50 0 -0 -0 -1 1 0 -0 -0 1 -0 2.75
2 40 40 0 -0 -0 -1 1 0 -0 -0 1 -0 2.75
2 40 30 0 -0 -0 -1 1 0 -0 -0 1 -0 2.75
2 40 20 0 -0 -0 -1 1 0 -0 -0 1 -0 2.75
2 40 10 0 -0 -0 -1 1 0 -0 -0 1 -0 2.75
2 30 50 0 -0 -0 -1 1 0 -0 -0 1 -0 2.75
2 30 40 0 -0 -0 -1 1 0 -0 -0 1 -0 2.75
2 30 30 0 -0 -0 -1 1 0 -0 -0 1 -0 2.75
2 30 20 0 -0 -0 -1 1 0 -0 -0 1 -0 2.75
2 30 10 0 -0 -0 -1 1 0 -0 -0 1 -0 2.75
2 20 50 0 -0 -0 -1 1 0 -0 -0 1 -0 2.75
2 20 40 0 -0 -0 -1 1 0 -0 -0 1 -0 2.75
2 20 30 0 -0 -0 -1 1 0 -0 -0 1 -0 2.75
2 20 20 0 -0 -0 -1 1 0 -0 -0 1 -0 2.75
2 20 10 0 -0 -0 -1 1 0 -0 -0 1 -0 2.75
2 10 50 0 -0 -0 -1 1 0 -0 -0 1 -0 2.75
2 10 40 0 -0 -0 -1 1 0 -0 -0 1 -0 2.75
2 10 30 0 -0 -0 -1 1 0 -0 -0 1 -0 2.75
2 10 20 0 -0 -0 -1 1 0 -0 -0 1 -0 2.75
2 10 10 0 -0 -0 -1 1 0 -0 -0 1 -0 2.75
2 50 30 0 -0 -0 -1 1 0 -0 -0 1 -0 2.75
2 50 40 0 -0 -0 -1 1 0 -0 -0 1 -0 2.75
2 50 50 0 -0 -0 -1 1 0 -0 -0 1 -0 2.75
Triangulations 0

TShapes 540
Ve
1e-07
0 0 0
0 0

0101101
*
Ve
1e-07
0 0 20
0 0

0101101
*
Ed
 1e-07 1 1 0
1  1 0 0 20
2  1 1 0 0 20
2  2 2 0 0 20
0

0101000
+540 0 -539 0 *
Ve
1e-07
60 0 0
0 0

0101101
*
Ve
1e-07
60 0 20
0 0

0101101
*
Ed
 1e-07 1 1 0
1  2 0 0 20
2  3 1 0 0 20
2  4 3 0 0 20
0

0101000
+537 0 -536 0 *
Ed
 1e-07 1 1 0
1  3 0 0 60
2  5 1 0 0 60
2  6 4 0 0 60
0

0101000
+540 0 -537 0 *
Ed
 1e-07 1 1 0
1  4 0 0 60
2  7 1 0 0 60
2  8 5 0 0 60
0

0101000
+539 0 -536 0 *
Wi

0101100
+538 0 -535 0 -534 0 +533 0 *
Fa
0  1e-07 1 0

0101000
+532 0 *
Ve
1e-07
60 60 0
0 0

0101101
*
Ve
1e-07
60 60 20
0 0

0101101
*
Ed
 1e-07 1 1 0
1  5 0 0 20
2  9 3 0 0 20
2  10 6 0 0 20
0

0101000
+530 0 -529 0 *
Ed
 1e-07 1 1 0
1  6 0 0 60
2  11 3 0 0 60
2  12 4 0 0 60
0

0101000
+537 0 -530 0 *
Ed
 1e-07 1 1 0
1  7 0 0 60
2  13 3 0 0 60
2  14 5 0 0 60
0

0101000
+536 0 -529 0 *
Wi

0101100
+535 0 -528 0 -527 0 +526 0 *
Fa
0  1e-07 3 0

0101000
+525 0 *
Ve
1e-07
0 60 0
0 0

0101101
*
Ve
1e-07
0 60 20
0 0

0101101
*
Ed
 1e-07 1 1 0
1  8 0 0 20
2  15 6 0 0 20
2  16 2 0 0 20
0

0101000
+523 0 -522 0 *
Ed
 1e-07 1 1 0
1  9 0 0 60
2  17 6 0 0 60
2  18 4 0 0 60
0

0101000
+530 0 -523 0 *
Ed
 1e-07 1 1 0
1  10 0 0 60
2  19 6 0 0 60
2  20 5 0 0 60
0

0101000
+529 0 -522 0 *
Wi

0101100
+528 0 -521 0 -520 0 +519 0 *
Fa
0  1e-07 6 0

0101000
+518 0 *
Ed
 1e-07 1 1 0
1  11 0 0 60
2  21 2 0 0 60
2  22 4 0 0 60
0

0101000
+523 0 -540 0 *
Ed
 1e-07 1 1 0
1  12 0 0 60
2  23 2 0 0 60
2  24 5 0 0 60
0

0101000
+522 0 -539 0 *
Wi

0101100
+521 0 -538 0 -516 0 +515 0 *
Fa
0  1e-07 2 0

0101000
+514 0 *
Wi

0101100
+534 0 +527 0 +520 0 +516 0 *
Ve
1e-07
12 10 0
0 0

0101101
*
Ed
 1e-07 1 1 0
1  13 0 0 6.28318530717959
2  25 7 0 0 6.28318530717959
2  26 4 0 0 6.28318530717959
0

0101000
+511 0 -511 0 *
Wi

0101100
+510 0 *
Ve
1e-07
12 20 0
0 0

0101101
*
Ed
 1e-07 1 1 0
1  14 0 0 6.28318530717959
2  27 8 0 0 6.28318530717959
2  28 4 0 0 6.28318530717959
0

0101000
+508 0 -508 0 *
Wi

0101100
+507 0 *
Ve
1e-07
12 30 0
0 0

0101101
*
Ed
 1e-07 1 1 0
1  15 0 0 6.28318530717959
2  29 9 0 0 6.28318530717959
2  30 4 0 0 6.28318530717959
0

0101000
+505 0 -505 0 *
Wi

0101100
+504 0 *
Ve
1e-07
12 40 0
0 0

0101101
*
Ed
 1e-07 1 1 0
1  16 0 0 6.28318530717959
2  31 10 0 0 6.28318530717959
2  32 4 0 0 6.28318530717959
0

0101000
+502 0 -502 0 *
Wi

0101100
+501 0 *
Ve
1e-07
12 50 0
0 0

0101101
*
Ed
 1e-07 1 1 0
1  17 0 0 6.28318530717959
2  33 11 0 0 6.28318530717959
2  34 4 0 0 6.28318530717959
0

0101000
+499 0 -499 0 *
Wi

0101100
+498 0 *
Ve
1e-07
22 10 0
0 0

0101101
*
Ed
 1e-07 1 1 0
1  18 0 0 6.28318530717959
2  35 12 0 0 6.28318530717959
2  36 4 0 0 6.28318530717959
0

0101000
+496 0 -496 0 *
Wi

0101100
+495 0 *
Ve
1e-07
22 20 0
0 0

0101101
*
Ed
 1e-07 1 1 0
1  19 0 0 6.28318530717959
2  37 13 0 0 6.28318530717959
2  38 4 0 0 6.28318530717959
0

0101000
+493 0 -493 0 *
Wi

0101100
+492 0 *
Ve
1e-07
22 30 0
0 0

0101101
*
Ed
 1e-07 1 1 0
1  20 0 0 6.28318530717959
2  39 14 0 0 6.28318530717959
2  40 4 0 0 6.28318530717959
0

0101000
+490 0 -490 0 *
Wi

0101100
+489 0 *
Ve
1e-07
22 40 0
0 0

0101101
*
Ed
 1e-07 1 1 0
1  21 0 0 6.28318530717959
2  41 15 0 0 6.28318530717959
2  42 4 0 0 6.28318530717959
0

0101000
+487 0 -487 0 *
Wi

0101100
+486 0 *
Ve
1e-07
22 50 0
0 0

0101101
*
Ed
 1e-07 1 1 0
1  22 0 0 6.28318530717959
2  43 16 0 0 6.28318530717959
2  44 4 0 0 6.28318530717959
0

0101000
+484 0 -484 0 *
Wi

0101100
+483 0 *
Ve
1e-07
32 10 0
0 0

0101101
*
Ed
 1e-07 1 1 0
1  23 0 0 6.28318530717959
2  45 17 0 0 6.28318530717959
2  46 4 0 0 6.28318530717959
0

0101000
+481 0 -481 0 *
Wi

0101100
+480 0 *
Ve
1e-07
32 20 0
0 0

0101101
*
Ed
 1e-07 1 1 0
1  24 0 0 6.28318530717959
2  47 18 0 0 6.28318530717959
2  48 4 0 0 6.28318530717959
0

0101000
+478 0 -478 0 *
Wi

0101100
+477 0 *
Ve
1e-07
32 30 0
0 0

0101101
*
Ed
 1e-07 1 1 0
1  25 0 0 6.28318530717959
2  49 19 0 0 6.28318530717959
2  50 4 0 0 6.28318530717959
0

0101000
+475 0 -475 0 *
Wi

0101100
+474 0 *
Ve
1e-07
32 40 0
0 0

0101101
*
Ed
 1e-07 1 1 0
1  26 0 0 6.28318530717959
2  51 20 0 0 6.28318530717959
2  52 4 0 0 6.28318530717959
0

0101000
+472 0 -472 0 *
Wi

0101100
+471 0 *
Ve
1e-07
32 50 0
0 0

0101101
*
Ed
 1e-07 1 1 0
1  27 0 0 6.28318530717959
2  53 21 0 0 6.28318530717959
2  54 4 0 0 6.28318530717959
0

0101000
+469 0 -469 0 *
Wi

0101100
+468 0 *
Ve
1e-07
42 10 0
0 0

0101101
*
Ed
 1e-07 1 1 0
1  28 0 0 6.28318530717959
2  55 22 0 0 6.28318530717959
2  56 4 0 0 6.28318530717959
0

0101000
+466 0 -466 0 *
Wi

0101100
+465 0 *
Ve
1e-07
42 20 0
0 0

0101101
*
Ed
 1e-07 1 1 0
1  29 0 0 6.28318530717959
2  57 23 0 0 6.28318530717959
2  58 4 0 0 6.28318530717959
0

0101000
+463 0 -463 0 *
Wi

0101100
+462 0 *
Ve
1e-07
42 30 0
0 0

0101101
*
Ed
 1e-07 1 1 0
1  30 0 0 6.28318530717959
2  59 24 0 0 6.28318530717959
2  60 4 0 0 6.28318530717959
0

0101000
+460 0 -460 0 *
Wi

0101100
+459 0 *
Ve
1e-07
42 40 0
0 0

0101101
*
Ed
 1e-07 1 1 0
1  31 0 0 6.28318530717959
2  61 25 0 0 6.28318530717959
2  62 4 0 0 6.28318530717959
0

0101000
+457 0 -457 0 *
Wi

0101100
+456 0 *
Ve
1e-07
42 50 0
0 0

0101101
*
Ed
 1e-07 1 1 0
1  32 0 0 6.28318530717959
2  63 26 0 0 6.28318530717959
2  64 4 0 0 6.28318530717959
0

0101000
+454 0 -454 0 *
Wi

0101100
+453 0 *
Ve
1e-07
52 10 0
0 0

0101101
*
Ed
 1e-07 1 1 0
1  33 0 0 6.28318530717959
2  65 27 0 0 6.28318530717959
2  66 4 0 0 6.28318530717959
0

0101000
+451 0 -451 0 *
Wi

0101100
+450 0 *
Ve
1e-07
52 20 0
0 0

0101101
*
Ed
 1e-07 1 1 0
1  34 0 0 6.28318530717959
2  67 28 0 0 6.28318530717959
2  68 4 0 0 6.28318530717959
0

0101000
+448 0 -448 0 *
Wi

0101100
+447 0 *
Ve
1e-07
52 30 0
0 0

0101101
*
Ed
 1e-07 1 1 0
1  35 0 0 6.28318530717959
2  69 29 0 0 6.28318530717959
2  70 4 0 0 6.28318530717959
0

0101000
+445 0 -445 0 *
Wi

0101100
+444 0 *
Ve
1e-07
52 40 0
0 0

0101101
*
Ed
 1e-07 1 1 0
1  36 0 0 6.28318530717959
2  71 30 0 0 6.28318530717959
2  72 4 0 0 6.28318530717959
0

0101000
+442 0 -442 0 *
Wi

0101100
+441 0 *
Ve
1e-07
52 50 0
0 0

0101101
*
Ed
 1e-07 1 1 0
1  37 0 0 6.28318530717959
2  73 31 0 0 6.28318530717959
2  74 4 0 0 6.28318530717959
0

0101000
+439 0 -439 0 *
Wi

0101100
+438 0 *
Fa
0  1e-07 4 0

0101000
+512 0 -509 0 -506 0 -503 0 -500 0 -497 0 -494 0 -491 0 -488 0 -485 0 
-482 0 -479 0 -476 0 -473 0 -470 0 -467 0 -464 0 -461 0 -458 0 -455 0 
-452 0 -449 0 -446 0 -443 0 -440 0 -437 0 *
Ve
1e-07
12 10 20
0 0

0101101
*
Ed
 1e-07 1 1 0
1  38 0 0 20
3  75 76CN 7 0 0 20
0

0101000
+511 0 -435 0 *
Ed
 1e-07 1 1 0
1  39 0 0 6.28318530717959
2  77 7 0 0 6.28318530717959
2  78 5 0 0 6.28318530717959
0

0101000
+435 0 -435 0 *
Wi

0101100
+434 0 -434 0 -510 0 +433 0 *
Fa
0  1e-07 7 0

0101000
+432 0 *
Ve
1e-07
12 20 20
0 0

0101101
*
Ed
 1e-07 1 1 0
1  40 0 0 20
3  79 80CN 8 0 0 20
0

0101000
+508 0 -430 0 *
Ed
 1e-07 1 1 0
1  41 0 0 6.28318530717959
2  81 8 0 0 6.28318530717959
2  82 5 0 0 6.28318530717959
0

0101000
+430 0 -430 0 *
Wi

0101100
+429 0 -429 0 -507 0 +428 0 *
Fa
0  1e-07 8 0

0101000
+427 0 *
Ve
1e-07
12 30 20
0 0

0101101
*
Ed
 1e-07 1 1 0
1  42 0 0 20
3  83 84CN 9 0 0 20
0

0101000
+505 0 -425 0 *
Ed
 1e-07 1 1 0
1  43 0 0 6.28318530717959
2  85 9 0 0 6.28318530717959
2  86 5 0 0 6.28318530717959
0

0101000
+425 0 -425 0 *
Wi

0101100
+424 0 -424 0 -504 0 +423 0 *
Fa
0  1e-07 9 0

0101000
+422 0 *
Ve
1e-07
12 40 20
0 0

0101101
*
Ed
 1e-07 1 1 0
1  44 0 0 20
3  87 88CN 10 0 0 20
0

0101000
+502 0 -420 0 *
Ed
 1e-07 1 1 0
1  45 0 0 6.28318530717959
2  89 10 0 0 6.28318530717959
2  90 5 0 0 6.28318530717959
0

0101000
+420 0 -420 0 *
Wi

0101100
+419 0 -419 0 -501 0 +418 0 *
Fa
0  1e-07 10 0

0101000
+417 0 *
Ve
1e-07
12 50 20
0 0

0101101
*
Ed
 1e-07 1 1 0
1  46 0 0 20
3  91 92CN 11 0 0 20
0

0101000
+499 0 -415 0 *
Ed
 1e-07 1 1 0
1  47 0 0 6.28318530717959
2  93 11 0 0 6.28318530717959
2  94 5 0 0 6.28318530717959
0

0101000
+415 0 -415 0 *
Wi

0101100
+414 0 -414 0 -498 0 +413 0 *
Fa
0  1e-07 11 0

0101000
+412 0 *
Ve
1e-07
22 10 20
0 0

0101101
*
Ed
 1e-07 1 1 0
1  48 0 0 20
3  95 96CN 12 0 0 20
0

0101000
+496 0 -410 0 *
Ed
 1e-07 1 1 0
1  49 0 0 6.28318530717959
2  97 12 0 0 6.28318530717959
2  98 5 0 0 6.28318530717959
0

0101000
+410 0 -410 0 *
Wi

0101100
+409 0 -409 0 -495 0 +408 0 *
Fa
0  1e-07 12 0

0101000
+407 0 *
Ve
1e-07
22 20 20
0 0

0101101
*
Ed
 1e-07 1 1 0
1  50 0 0 20
3  99 100CN 13 0 0 20
0

0101000
+493 0 -405 0 *
Ed
 1e-07 1 1 0
1  51 0 0 6.28318530717959
2  101 13 0 0 6.28318530717959
2  102 5 0 0 6.28318530717959
0

0101000
+405 0 -405 0 *
Wi

0101100
+404 0 -404 0 -492 0 +403 0 *
Fa
0  1e-07 13 0

0101000
+402 0 *
Ve
1e-07
22 30 20
0 0

0101101
*
Ed
 1e-07 1 1 0
1  52 0 0 20
3  103 104CN 14 0 0 20
0

0101000
+490 0 -400 0 *
Ed
 1e-07 1 1 0
1  53 0 0 6.28318530717959
2  105 14 0 0 6.28318530717959
2  106 5 0 0 6.28318530717959
0

0101000
+400 0 -400 0 *
Wi

0101100
+399 0 -399 0 -489 0 +398 0 *
Fa
0  1e-07 14 0

0101000
+397 0 *
Ve
1e-07
22 40 20
0 0

0101101
*
Ed
 1e-07 1 1 0
1  54 0 0 20
3  107 108CN 15 0 0 20
0

0101000
+487 0 -395 0 *
Ed
 1e-07 1 1 0
1  55 0 0 6.28318530717959
2  109 15 0 0 6.28318530717959
2  110 5 0 0 6.28318530717959
0

0101000
+395 0 -395 0 *
Wi

0101100
+394 0 -394 0 -486 0 +393 0 *
Fa
0  1e-07 15 0

0101000
+392 0 *
Ve
1e-07
22 50 20
0 0

0101101
*
Ed
 1e-07 1 1 0
1  56 0 0 20
3  111 112CN 16 0 0 20
0

0101000
+484 0 -390 0 *
Ed
 1e-07 1 1 0
1  57 0 0 6.28318530717959
2  113 16 0 0 6.28318530717959
2  114 5 0 0 6.28318530717959
0

0101000
+390 0 -390 0 *
Wi

0101100
+389 0 -389 0 -483 0 +388 0 *
Fa
0  1e-07 16 0

0101000
+387 0 *
Ve
1e-07
32 10 20
0 0

0101101
*
Ed
 1e-07 1 1 0
1  58 0 0 20
3  115 116CN 17 0 0 20
0

0101000
+481 0 -385 0 *
Ed
 1e-07 1 1 0
1  59 0 0 6.28318530717959
2  117 17 0 0 6.28318530717959
2  118 5 0 0 6.28318530717959
0

0101000
+385 0 -385 0 *
Wi

0101100
+384 0 -384 0 -480 0 +383 0 *
Fa
0  1e-07 17 0

0101000
+382 0 *
Ve
1e-07
32 20 20
0 0

0101101
*
Ed
 1e-07 1 1 0
1  60 0 0 20
3  119 120CN 18 0 0 20
0

0101000
+478 0 -380 0 *
Ed
 1e-07 1 1 0
1  61 0 0 6.28318530717959
2  121 18 0 0 6.28318530717959
2  122 5 0 0 6.28318530717959
0

0101000
+380 0 -380 0 *
Wi

0101100
+379 0 -379 0 -477 0 +378 0 *
Fa
0  1e-07 18 0

0101000
+377 0 *
Ve
1e-07
32 30 20
0 0

0101101
*
Ed
 1e-07 1 1 0
1  62 0 0 20
3  123 124CN 19 0 0 20
0

0101000
+475 0 -375 0 *
Ed
 1e-07 1 1 0
1  63 0 0 6.28318530717959
2  125 19 0 0 6.28318530717959
2  126 5 0 0 6.28318530717959
0

0101000
+375 0 -375 0 *
Wi

0101100
+374 0 -374 0 -474 0 +373 0 *
Fa
0  1e-07 19 0

0101000
+372 0 *
Ve
1e-07
32 40 20
0 0

0101101
*
Ed
 1e-07 1 1 0
1  64 0 0 20
3  127 128CN 20 0 0 20
0

0101000
+472 0 -370 0 *
Ed
 1e-07 1 1 0
1  65 0 0 6.28318530717959
2  129 20 0 0 6.28318530717959
2  130 5 0 0 6.28318530717959
0

0101000
+370 0 -370 0 *
Wi

0101100
+369 0 -369 0 -471 0 +368 0 *
Fa
0  1e-07 20 0

0101000
+367 0 *
Ve
1e-07
32 50 20
0 0

0101101
*
Ed
 1e-07 1 1 0
1  66 0 0 20
3  131 132CN 21 0 0 20
0

0101000
+469 0 -365 0 *
Ed
 1e-07 1 1 0
1  67 0 0 6.28318530717959
2  133 21 0 0 6.28318530717959
2  134 5 0 0 6.28318530717959
0

0101000
+365 0 -365 0 *
Wi

0101100
+364 0 -364 0 -468 0 +363 0 *
Fa
0  1e-07 21 0

0101000
+362 0 *
Ve
1e-07
42 10 20
0 0

0101101
*
Ed
 1e-07 1 1 0
1  68 0 0 20
3  135 136CN 22 0 0 20
0

0101000
+466 0 -360 0 *
Ed
 1e-07 1 1 0
1  69 0 0 6.28318530717959
2  137 22 0 0 6.28318530717959
2  138 5 0 0 6.28318530717959
0

0101000
+360 0 -360 0 *
Wi

0101100
+359 0 -359 0 -465 0 +358 0 *
Fa
0  1e-07 22 0

0101000
+357 0 *
Ve
1e-07
42 20 20
0 0

0101101
*
Ed
 1e-07 1 1 0
1  70 0 0 20
3  139 140CN 23 0 0 20
0

0101000
+463 0 -355 0 *
Ed
 1e-07 1 1 0
1  71 0 0 6.28318530717959
2  141 23 0 0 6.28318530717959
2  142 5 0 0 6.28318530717959
0

0101000
+355 0 -355 0 *
Wi

0101100
+354 0 -354 0 -462 0 +353 0 *
Fa
0  1e-07 23 0

0101000
+352 0 *
Ve
1e-07
42 30 20
0 0

0101101
*
Ed
 1e-07 1 1 0
1  72 0 0 20
3  143 144CN 24 0 0 20
0

0101000
+460 0 -350 0 *
Ed
 1e-07 1 1 0
1  73 0 0 6.28318530717959
2  145 24 0 0 6.28318530717959
2  146 5 0 0 6.28318530717959
0

0101000
+350 0 -350 0 *
Wi

0101100
+349 0 -349 0 -459 0 +348 0 *
Fa
0  1e-07 24 0

0101000
+347 0 *
Ve
1e-07
42 40 20
0 0

0101101
*
Ed
 1e-07 1 1 0
1  74 0 0 20
3  147 148CN 25 0 0 20
0

0101000
+457 0 -345 0 *
Ed
 1e-07 1 1 0
1  75 0 0 6.28318530717959
2  149 25 0 0 6.28318530717959
2  150 5 0 0 6.28318530717959
0

0101000
+345 0 -345 0 *
Wi

0101100
+344 0 -344 0 -456 0 +343 0 *
Fa
0  1e-07 25 0

0101000
+342 0 *
Ve
1e-07
42 50 20
0 0

0101101
*
Ed
 1e-07 1 1 0
1  76 0 0 20
3  151 152CN 26 0 0 20
0

0101000
+454 0 -340 0 *
Ed
 1e-07 1 1 0
1  77 0 0 6.28318530717959
2  153 26 0 0 6.28318530717959
2  154 5 0 0 6.28318530717959
0

0101000
+340 0 -340 0 *
Wi

0101100
+339 0 -339 0 -453 0 +338 0 *
Fa
0  1e-07 26 0

0101000
+337 0 *
Ve
1e-07
52 10 20
0 0

0101101
*
Ed
 1e-07 1 1 0
1  78 0 0 20
3  155 156CN 27 0 0 20
0

0101000
+451 0 -335 0 *
Ed
 1e-07 1 1 0
1  79 0 0 6.28318530717959
2  157 27 0 0 6.28318530717959
2  158 5 0 0 6.28318530717959
0

0101000
+335 0 -335 0 *
Wi

0101100
+334 0 -334 0 -450 0 +333 0 *
Fa
0  1e-07 27 0

0101000
+332 0 *
Ve
1e-07
52 20 20
0 0

0101101
*
Ed
 1e-07 1 1 0
1  80 0 0 20
3  159 160CN 28 0 0 20
0

0101000
+448 0 -330 0 *
Ed
 1e-07 1 1 0
1  81 0 0 6.28318530717959
2  161 28 0 0 6.28318530717959
2  162 5 0 0 6.28318530717959
0

0101000
+330 0 -330 0 *
Wi

0101100
+329 0 -329 0 -447 0 +328 0 *
Fa
0  1e-07 28 0

0101000
+327 0 *
Ve
1e-07
52 30 20
0 0

0101101
*
Ed
 1e-07 1 1 0
1  82 0 0 20
3  163 164CN 29 0 0 20
0

0101000
+445 0 -325 0 *
Ed
 1e-07 1 1 0
1  83 0 0 6.28318530717959
2  165 29 0 0 6.28318530717959
2  166 5 0 0 6.28318530717959
0

0101000
+325 0 -325 0 *
Wi

0101100
+324 0 -324 0 -444 0 +323 0 *
Fa
0  1e-07 29 0

0101000
+322 0 *
Ve
1e-07
52 40 20
0 0

0101101
*
Ed
 1e-07 1 1 0
1  84 0 0 20
3  167 168CN 30 0 0 20
0

0101000
+442 0 -320 0 *
Ed
 1e-07 1 1 0
1  85 0 0 6.28318530717959
2  169 30 0 0 6.28318530717959
2  170 5 0 0 6.28318530717959
0

0101000
+320 0 -320 0 *
Wi

0101100
+319 0 -319 0 -441 0 +318 0 *
Fa
0  1e-07 30 0

0101000
+317 0 *
Ve
1e-07
52 50 20
0 0

0101101
*
Ed
 1e-07 1 1 0
1  86 0 0 20
3  171 172CN 31 0 0 20
0

0101000
+439 0 -315 0 *
Ed
 1e-07 1 1 0
1  87 0 0 6.28318530717959
2  173 31 0 0 6.28318530717959
2  174 5 0 0 6.28318530717959
0

0101000
+315 0 -315 0 *
Wi

0101100
+314 0 -314 0 -438 0 +313 0 *
Fa
0  1e-07 31 0

0101000
+312 0 *
Ve
2e-07
59.25 59.25 20
0.75 2 19 32 0
0.75 1 88 0
59.25 2 13 33 0
59.25 1 89 0
20 1 90 0
20 2 175 33 0
20 2 176 32 0
0 0

0101101
*
Ve
2e-07
0.75 59.25 20
0.75 2 23 34 0
0.75 1 91 0
59.25 2 19 32 0
59.25 1 88 0
20 1 92 0
20 2 177 32 0
20 2 178 34 0
0 0

0101101
*
Ed
 1e-07 1 1 0
2  19 32 0 0.75 59.25
1  88 0 0.75 59.25
0

0101000
+310 0 -309 0 *
Ve
2e-07
59.25 0.75 20
0.75 2 13 33 0
0.75 1 89 0
59.25 2 7 35 0
59.25 1 93 0
20 1 94 0
20 2 179 35 0
20 2 180 33 0
0 0

0101101
*
Ed
 1e-07 1 1 0
2  13 33 0 0.75 59.25
1  89 0 0.75 59.25
0

0101000
+307 0 -310 0 *
Ve
2e-07
0.75 0.75 20
59.25 2 23 34 0
59.25 1 91 0
0.75 2 7 35 0
0.75 1 93 0
-20 1 95 0
-20 2 181 35 0
-20 2 182 34 0
0 0

0101101
*
Ed
 1e-07 1 1 0
2  7 35 0 0.75 59.25
1  93 0 0.75 59.25
0

0101000
+305 0 -307 0 *
Ed
 1e-07 1 1 0
2  23 34 0 0.75 59.25
1  91 0 0.75 59.25
0

0101000
+309 0 -305 0 *
Wi

0101100
-308 0 -306 0 -304 0 -303 0 *
Wi

0101100
+533 0 +526 0 +519 0 +515 0 *
Fa
0  1e-07 5 0

0101000
+302 0 +301 0 *
Ve
2e-07
59.25 0.75 0.75
44.25 1 96 0
44.25 2 183 35 0
44.25 2 184 36 0
0.75 1 94 0
0.75 2 179 35 0
0.75 2 180 33 0
-14.25 1 97 0
-14.25 2 185 33 0
-14.25 2 186 36 0
0 0

0101101
*
Ed
 1e-07 1 1 0
1  94 0 0.75 20
2  179 35 0 0.75 20
2  180 33 0 0.75 20
0

0101000
+299 0 -307 0 *
Ve
2e-07
0.75 0.75 0.75
-14.25 1 96 0
-14.25 2 183 35 0
-14.25 2 184 36 0
-0.75 1 95 0
-0.75 2 181 35 0
-0.75 2 182 34 0
44.25 1 98 0
44.25 2 187 34 0
44.25 2 188 36 0
0 0

0101101
*
Ed
 1e-07 1 1 0
1  96 0 -14.25 44.25
2  183 35 0 -14.25 44.25
2  184 36 0 -14.25 44.25
0

0101000
+297 0 -299 0 *
Ed
 1e-07 1 1 0
1  95 0 -20 -0.75
2  181 35 0 -20 -0.75
2  182 34 0 -20 -0.75
0

0101000
+305 0 -297 0 *
Wi

0101100
+304 0 -298 0 -296 0 -295 0 *
Fa
0  1e-07 35 0

0101000
+294 0 *
Ve
2e-07
59.25 59.25 0.75
44.25 1 97 0
44.25 2 185 33 0
44.25 2 186 36 0
0.75 1 90 0
0.75 2 175 33 0
0.75 2 176 32 0
-14.25 1 99 0
-14.25 2 189 32 0
-14.25 2 190 36 0
0 0

0101101
*
Ed
 1e-07 1 1 0
1  90 0 0.75 20
2  175 33 0 0.75 20
2  176 32 0 0.75 20
0

0101000
+292 0 -310 0 *
Ed
 1e-07 1 1 0
1  97 0 -14.25 44.25
2  185 33 0 -14.25 44.25
2  186 36 0 -14.25 44.25
0

0101000
+299 0 -292 0 *
Wi

0101100
+306 0 -291 0 -290 0 +298 0 *
Fa
0  1e-07 33 0

0101000
+289 0 *
Ve
2e-07
0.75 59.25 0.75
44.25 1 99 0
44.25 2 189 32 0
44.25 2 190 36 0
0.75 1 92 0
0.75 2 177 32 0
0.75 2 178 34 0
-14.25 1 98 0
-14.25 2 187 34 0
-14.25 2 188 36 0
0 0

0101101
*
Ed
 1e-07 1 1 0
1  92 0 0.75 20
2  177 32 0 0.75 20
2  178 34 0 0.75 20
0

0101000
+287 0 -309 0 *
Ed
 1e-07 1 1 0
1  99 0 -14.25 44.25
2  189 32 0 -14.25 44.25
2  190 36 0 -14.25 44.25
0

0101000
+292 0 -287 0 *
Wi

0101100
+308 0 -286 0 -285 0 +291 0 *
Fa
0  1e-07 32 0

0101000
+284 0 *
Ed
 1e-07 1 1 0
1  98 0 -14.25 44.25
2  187 34 0 -14.25 44.25
2  188 36 0 -14.25 44.25
0

0101000
+287 0 -297 0 *
Wi

0101100
+303 0 +295 0 -282 0 +286 0 *
Fa
0  1e-07 34 0

0101000
+281 0 *
Wi

0101100
+296 0 +290 0 +285 0 +282 0 *
Ve
2e-07
52.75 20 0.75
6.28318530717959 1 100 0
6.28318530717959 2 191 37 0
6.28318530717959 2 192 36 0
0.75 1 101 0
0.75 2 159 37 0
0 0

0101101
*
Ed
 1e-07 1 1 0
1  100 0 0 6.28318530717959
2  191 37 0 0 6.28318530717959
2  192 36 0 0 6.28318530717959
0

0101000
+278 0 -278 0 *
Wi

0101100
+277 0 *
Ve
2e-07
52.75 10 0.75
6.28318530717959 1 102 0
6.28318530717959 2 193 38 0
6.28318530717959 2 194 36 0
0.75 1 103 0
0.75 2 155 38 0
0 0

0101101
*
Ed
 1e-07 1 1 0
1  102 0 0 6.28318530717959
2  193 38 0 0 6.28318530717959
2  194 36 0 0 6.28318530717959
0

0101000
+275 0 -275 0 *
Wi

0101100
+274 0 *
Ve
2e-07
42.75 50 0.75
6.28318530717959 1 104 0
6.28318530717959 2 195 39 0
6.28318530717959 2 196 36 0
0.75 1 105 0
0.75 2 151 39 0
0 0

0101101
*
Ed
 1e-07 1 1 0
1  104 0 0 6.28318530717959
2  195 39 0 0 6.28318530717959
2  196 36 0 0 6.28318530717959
0

0101000
+272 0 -272 0 *
Wi

0101100
+271 0 *
Ve
2e-07
42.75 40 0.75
6.28318530717959 1 106 0
6.28318530717959 2 197 40 0
6.28318530717959 2 198 36 0
0.75 1 107 0
0.75 2 147 40 0
0 0

0101101
*
Ed
 1e-07 1 1 0
1  106 0 0 6.28318530717959
2  197 40 0 0 6.28318530717959
2  198 36 0 0 6.28318530717959
0

0101000
+269 0 -269 0 *
Wi

0101100
+268 0 *
Ve
2e-07
42.75 30 0.75
6.28318530717959 1 108 0
6.28318530717959 2 199 41 0
6.28318530717959 2 200 36 0
0.75 1 109 0
0.75 2 143 41 0
0 0

0101101
*
Ed
 1e-07 1 1 0
1  108 0 0 6.28318530717959
2  199 41 0 0 6.28318530717959
2  200 36 0 0 6.28318530717959
0

0101000
+266 0 -266 0 *
Wi

0101100
+265 0 *
Ve
2e-07
42.75 20 0.75
6.28318530717959 1 110 0
6.28318530717959 2 201 42 0
6.28318530717959 2 202 36 0
0.75 1 111 0
0.75 2 139 42 0
0 0

0101101
*
Ed
 1e-07 1 1 0
1  110 0 0 6.28318530717959
2  201 42 0 0 6.28318530717959
2  202 36 0 0 6.28318530717959
0

0101000
+263 0 -263 0 *
Wi

0101100
+262 0 *
Ve
2e-07
42.75 10 0.75
6.28318530717959 1 112 0
6.28318530717959 2 203 43 0
6.28318530717959 2 204 36 0
0.75 1 113 0
0.75 2 135 43 0
0 0

0101101
*
Ed
 1e-07 1 1 0
1  112 0 0 6.28318530717959
2  203 43 0 0 6.28318530717959
2  204 36 0 0 6.28318530717959
0

0101000
+260 0 -260 0 *
Wi

0101100
+259 0 *
Ve
2e-07
32.75 50 0.75
6.28318530717959 1 114 0
6.28318530717959 2 205 44 0
6.28318530717959 2 206 36 0
0.75 1 115 0
0.75 2 131 44 0
0 0

0101101
*
Ed
 1e-07 1 1 0
1  114 0 0 6.28318530717959
2  205 44 0 0 6.28318530717959
2  206 36 0 0 6.28318530717959
0

0101000
+257 0 -257 0 *
Wi

0101100
+256 0 *
Ve
2e-07
32.75 40 0.75
6.28318530717959 1 116 0
6.28318530717959 2 207 45 0
6.28318530717959 2 208 36 0
0.75 1 117 0
0.75 2 127 45 0
0 0

0101101
*
Ed
 1e-07 1 1 0
1  116 0 0 6.28318530717959
2  207 45 0 0 6.28318530717959
2  208 36 0 0 6.28318530717959
0

0101000
+254 0 -254 0 *
Wi

0101100
+253 0 *
Ve
2e-07
32.75 30 0.75
6.28318530717959 1 118 0
6.28318530717959 2 209 46 0
6.28318530717959 2 210 36 0
0.75 1 119 0
0.75 2 123 46 0
0 0

0101101
*
Ed
 1e-07 1 1 0
1  118 0 0 6.28318530717959
2  209 46 0 0 6.28318530717959
2  210 36 0 0 6.28318530717959
0

0101000
+251 0 -251 0 *
Wi

0101100
+250 0 *
Ve
2e-07
32.75 20 0.75
6.28318530717959 1 120 0
6.28318530717959 2 211 47 0
6.28318530717959 2 212 36 0
0.75 1 121 0
0.75 2 119 47 0
0 0

0101101
*
Ed
 1e-07 1 1 0
1  120 0 0 6.28318530717959
2  211 47 0 0 6.28318530717959
2  212 36 0 0 6.28318530717959
0

0101000
+248 0 -248 0 *
Wi

0101100
+247 0 *
Ve
2e-07
32.75 10 0.75
6.28318530717959 1 122 0
6.28318530717959 2 213 48 0
6.28318530717959 2 214 36 0
0.75 1 123 0
0.75 2 115 48 0
0 0

0101101
*
Ed
 1e-07 1 1 0
1  122 0 0 6.28318530717959
2  213 48 0 0 6.28318530717959
2  214 36 0 0 6.28318530717959
0

0101000
+245 0 -245 0 *
Wi

0101100
+244 0 *
Ve
2e-07
22.75 50 0.75
6.28318530717959 1 124 0
6.28318530717959 2 215 49 0
6.28318530717959 2 216 36 0
0.75 1 125 0
0.75 2 111 49 0
0 0

0101101
*
Ed
 1e-07 1 1 0
1  124 0 0 6.28318530717959
2  215 49 0 0 6.28318530717959
2  216 36 0 0 6.28318530717959
0

0101000
+242 0 -242 0 *
Wi

0101100
+241 0 *
Ve
2e-07
22.75 40 0.75
6.28318530717959 1 126 0
6.28318530717959 2 217 50 0
6.28318530717959 2 218 36 0
0.75 1 127 0
0.75 2 107 50 0
0 0

0101101
*
Ed
 1e-07 1 1 0
1  126 0 0 6.28318530717959
2  217 50 0 0 6.28318530717959
2  218 36 0 0 6.28318530717959
0

0101000
+239 0 -239 0 *
Wi

0101100
+238 0 *
Ve
2e-07
22.75 30 0.75
6.28318530717959 1 128 0
6.28318530717959 2 219 51 0
6.28318530717959 2 220 36 0
0.75 1 129 0
0.75 2 103 51 0
0 0

0101101
*
Ed
 1e-07 1 1 0
1  128 0 0 6.28318530717959
2  219 51 0 0 6.28318530717959
2  220 36 0 0 6.28318530717959
0

0101000
+236 0 -236 0 *
Wi

0101100
+235 0 *
Ve
2e-07
22.75 20 0.75
6.28318530717959 1 130 0
6.28318530717959 2 221 52 0
6.28318530717959 2 222 36 0
0.75 1 131 0
0.75 2 99 52 0
0 0

0101101
*
Ed
 1e-07 1 1 0
1  130 0 0 6.28318530717959
2  221 52 0 0 6.28318530717959
2  222 36 0 0 6.28318530717959
0

0101000
+233 0 -233 0 *
Wi

0101100
+232 0 *
Ve
2e-07
22.75 10 0.75
6.28318530717959 1 132 0
6.28318530717959 2 223 53 0
6.28318530717959 2 224 36 0
0.75 1 133 0
0.75 2 95 53 0
0 0

0101101
*
Ed
 1e-07 1 1 0
1  132 0 0 6.28318530717959
2  223 53 0 0 6.28318530717959
2  224 36 0 0 6.28318530717959
0

0101000
+230 0 -230 0 *
Wi

0101100
+229 0 *
Ve
2e-07
12.75 50 0.75
6.28318530717959 1 134 0
6.28318530717959 2 225 54 0
6.28318530717959 2 226 36 0
0.75 1 135 0
0.75 2 91 54 0
0 0

0101101
*
Ed
 1e-07 1 1 0
1  134 0 0 6.28318530717959
2  225 54 0 0 6.28318530717959
2  226 36 0 0 6.28318530717959
0

0101000
+227 0 -227 0 *
Wi

0101100
+226 0 *
Ve
2e-07
12.75 40 0.75
6.28318530717959 1 136 0
6.28318530717959 2 227 55 0
6.28318530717959 2 228 36 0
0.75 1 137 0
0.75 2 87 55 0
0 0

0101101
*
Ed
 1e-07 1 1 0
1  136 0 0 6.28318530717959
2  227 55 0 0 6.28318530717959
2  228 36 0 0 6.28318530717959
0

0101000
+224 0 -224 0 *
Wi

0101100
+223 0 *
Ve
2e-07
12.75 30 0.75
6.28318530717959 1 138 0
6.28318530717959 2 229 56 0
6.28318530717959 2 230 36 0
0.75 1 139 0
0.75 2 83 56 0
0 0

0101101
*
Ed
 1e-07 1 1 0
1  138 0 0 6.28318530717959
2  229 56 0 0 6.28318530717959
2  230 36 0 0 6.28318530717959
0

0101000
+221 0 -221 0 *
Wi

0101100
+220 0 *
Ve
2e-07
12.75 20 0.75
6.28318530717959 1 140 0
6.28318530717959 2 231 57 0
6.28318530717959 2 232 36 0
0.75 1 141 0
0.75 2 79 57 0
0 0

0101101
*
Ed
 1e-07 1 1 0
1  140 0 0 6.28318530717959
2  231 57 0 0 6.28318530717959
2  232 36 0 0 6.28318530717959
0

0101000
+218 0 -218 0 *
Wi

0101100
+217 0 *
Ve
2e-07
12.75 10 0.75
6.28318530717959 1 142 0
6.28318530717959 2 233 58 0
6.28318530717959 2 234 36 0
0.75 1 143 0
0.75 2 75 58 0
0 0

0101101
*
Ed
 1e-07 1 1 0
1  142 0 0 6.28318530717959
2  233 58 0 0 6.28318530717959
2  234 36 0 0 6.28318530717959
0

0101000
+215 0 -215 0 *
Wi

0101100
+214 0 *
Ve
2e-07
52.75 30 0.75
6.28318530717959 1 144 0
6.28318530717959 2 235 59 0
6.28318530717959 2 236 36 0
0.75 1 145 0
0.75 2 163 59 0
0 0

0101101
*
Ed
 1e-07 1 1 0
1  144 0 0 6.28318530717959
2  235 59 0 0 6.28318530717959
2  236 36 0 0 6.28318530717959
0

0101000
+212 0 -212 0 *
Wi

0101100
+211 0 *
Ve
2e-07
52.75 40 0.75
6.28318530717959 1 146 0
6.28318530717959 2 237 60 0
6.28318530717959 2 238 36 0
0.75 1 147 0
0.75 2 167 60 0
0 0

0101101
*
Ed
 1e-07 1 1 0
1  146 0 0 6.28318530717959
2  237 60 0 0 6.28318530717959
2  238 36 0 0 6.28318530717959
0

0101000
+209 0 -209 0 *
Wi

0101100
+208 0 *
Ve
2e-07
52.75 50 0.75
6.28318530717959 1 148 0
6.28318530717959 2 239 61 0
6.28318530717959 2 240 36 0
0.75 1 149 0
0.75 2 171 61 0
0 0

0101101
*
Ed
 1e-07 1 1 0
1  148 0 0 6.28318530717959
2  239 61 0 0 6.28318530717959
2  240 36 0 0 6.28318530717959
0

0101000
+206 0 -206 0 *
Wi

0101100
+205 0 *
Fa
0  1e-07 36 0

0101000
+279 0 +276 0 +273 0 +270 0 +267 0 +264 0 +261 0 +258 0 +255 0 +252 0 
+249 0 +246 0 +243 0 +240 0 +237 0 +234 0 +231 0 +228 0 +225 0 +222 0 
+219 0 +216 0 +213 0 +210 0 +207 0 +204 0 *
Ve
1e-07
52.75 20 20
0 0

0101101
*
Ed
 1e-07 1 1 0
2  161 37 0 0 6.28318530717959
1  150 0 0 6.28318530717959
0

0101000
+202 0 -202 0 *
Wi

0101100
+201 0 *
Wi

0101100
-328 0 *
Fa
0  1e-07 5 0

0101000
+200 0 +199 0 *
Ed
 1e-07 1 1 0
1  101 0 0.75 20
3  159 160CN 37 0 0.75 20
0

0101000
+278 0 -202 0 *
Wi

0101100
-197 0 +277 0 +197 0 +201 0 *
Fa
0  1e-07 37 0

0101000
+196 0 *
Ve
1e-07
52.75 10 20
0 0

0101101
*
Ed
 1e-07 1 1 0
2  157 38 0 0 6.28318530717959
1  151 0 0 6.28318530717959
0

0101000
+194 0 -194 0 *
Wi

0101100
+193 0 *
Wi

0101100
-333 0 *
Fa
0  1e-07 5 0

0101000
+192 0 +191 0 *
Ed
 1e-07 1 1 0
1  103 0 0.75 20
3  155 156CN 38 0 0.75 20
0

0101000
+275 0 -194 0 *
Wi

0101100
-189 0 +274 0 +189 0 +193 0 *
Fa
0  1e-07 38 0

0101000
+188 0 *
Ve
1e-07
42.75 50 20
0 0

0101101
*
Ed
 1e-07 1 1 0
2  153 39 0 0 6.28318530717959
1  152 0 0 6.28318530717959
0

0101000
+186 0 -186 0 *
Wi

0101100
+185 0 *
Wi

0101100
-338 0 *
Fa
0  1e-07 5 0

0101000
+184 0 +183 0 *
Ed
 1e-07 1 1 0
1  105 0 0.75 20
3  151 152CN 39 0 0.75 20
0

0101000
+272 0 -186 0 *
Wi

0101100
-181 0 +271 0 +181 0 +185 0 *
Fa
0  1e-07 39 0

0101000
+180 0 *
Ve
1e-07
42.75 40 20
0 0

0101101
*
Ed
 1e-07 1 1 0
2  149 40 0 0 6.28318530717959
1  153 0 0 6.28318530717959
0

0101000
+178 0 -178 0 *
Wi

0101100
+177 0 *
Wi

0101100
-343 0 *
Fa
0  1e-07 5 0

0101000
+176 0 +175 0 *
Ed
 1e-07 1 1 0
1  107 0 0.75 20
3  147 148CN 40 0 0.75 20
0

0101000
+269 0 -178 0 *
Wi

0101100
-173 0 +268 0 +173 0 +177 0 *
Fa
0  1e-07 40 0

0101000
+172 0 *
Ve
1e-07
42.75 30 20
0 0

0101101
*
Ed
 1e-07 1 1 0
2  145 41 0 0 6.28318530717959
1  154 0 0 6.28318530717959
0

0101000
+170 0 -170 0 *
Wi

0101100
+169 0 *
Wi

0101100
-348 0 *
Fa
0  1e-07 5 0

0101000
+168 0 +167 0 *
Ed
 1e-07 1 1 0
1  109 0 0.75 20
3  143 144CN 41 0 0.75 20
0

0101000
+266 0 -170 0 *
Wi

0101100
-165 0 +265 0 +165 0 +169 0 *
Fa
0  1e-07 41 0

0101000
+164 0 *
Ve
1e-07
42.75 20 20
0 0

0101101
*
Ed
 1e-07 1 1 0
2  141 42 0 0 6.28318530717959
1  155 0 0 6.28318530717959
0

0101000
+162 0 -162 0 *
Wi

0101100
+161 0 *
Wi

0101100
-353 0 *
Fa
0  1e-07 5 0

0101000
+160 0 +159 0 *
Ed
 1e-07 1 1 0
1  111 0 0.75 20
3  139 140CN 42 0 0.75 20
0

0101000
+263 0 -162 0 *
Wi

0101100
-157 0 +262 0 +157 0 +161 0 *
Fa
0  1e-07 42 0

0101000
+156 0 *
Ve
1e-07
42.75 10 20
0 0

0101101
*
Ed
 1e-07 1 1 0
2  137 43 0 0 6.28318530717959
1  156 0 0 6.28318530717959
0

0101000
+154 0 -154 0 *
Wi

0101100
+153 0 *
Wi

0101100
-358 0 *
Fa
0  1e-07 5 0

0101000
+152 0 +151 0 *
Ed
 1e-07 1 1 0
1  113 0 0.75 20
3  135 136CN 43 0 0.75 20
0

0101000
+260 0 -154 0 *
Wi

0101100
-149 0 +259 0 +149 0 +153 0 *
Fa
0  1e-07 43 0

0101000
+148 0 *
Ve
1e-07
32.75 50 20
0 0

0101101
*
Ed
 1e-07 1 1 0
2  133 44 0 0 6.28318530717959
1  157 0 0 6.28318530717959
0

0101000
+146 0 -146 0 *
Wi

0101100
+145 0 *
Wi

0101100
-363 0 *
Fa
0  1e-07 5 0

0101000
+144 0 +143 0 *
Ed
 1e-07 1 1 0
1  115 0 0.75 20
3  131 132CN 44 0 0.75 20
0

0101000
+257 0 -146 0 *
Wi

0101100
-141 0 +256 0 +141 0 +145 0 *
Fa
0  1e-07 44 0

0101000
+140 0 *
Ve
1e-07
32.75 40 20
0 0

0101101
*
Ed
 1e-07 1 1 0
2  129 45 0 0 6.28318530717959
1  158 0 0 6.28318530717959
0

0101000
+138 0 -138 0 *
Wi

0101100
+137 0 *
Wi

0101100
-368 0 *
Fa
0  1e-07 5 0

0101000
+136 0 +135 0 *
Ed
 1e-07 1 1 0
1  117 0 0.75 20
3  127 128CN 45 0 0.75 20
0

0101000
+254 0 -138 0 *
Wi

0101100
-133 0 +253 0 +133 0 +137 0 *
Fa
0  1e-07 45 0

0101000
+132 0 *
Ve
1e-07
32.75 30 20
0 0

0101101
*
Ed
 1e-07 1 1 0
2  125 46 0 0 6.28318530717959
1  159 0 0 6.28318530717959
0

0101000
+130 0 -130 0 *
Wi

0101100
+129 0 *
Wi

0101100
-373 0 *
Fa
0  1e-07 5 0

0101000
+128 0 +127 0 *
Ed
 1e-07 1 1 0
1  119 0 0.75 20
3  123 124CN 46 0 0.75 20
0

0101000
+251 0 -130 0 *
Wi

0101100
-125 0 +250 0 +125 0 +129 0 *
Fa
0  1e-07 46 0

0101000
+124 0 *
Ve
1e-07
32.75 20 20
0 0

0101101
*
Ed
 1e-07 1 1 0
2  121 47 0 0 6.28318530717959
1  160 0 0 6.28318530717959
0

0101000
+122 0 -122 0 *
Wi

0101100
+121 0 *
Wi

0101100
-378 0 *
Fa
0  1e-07 5 0

0101000
+120 0 +119 0 *
Ed
 1e-07 1 1 0
1  121 0 0.75 20
3  119 120CN 47 0 0.75 20
0

0101000
+248 0 -122 0 *
Wi

0101100
-117 0 +247 0 +117 0 +121 0 *
Fa
0  1e-07 47 0

0101000
+116 0 *
Ve
1e-07
32.75 10 20
0 0

0101101
*
Ed
 1e-07 1 1 0
2  117 48 0 0 6.28318530717959
1  161 0 0 6.28318530717959
0

0101000
+114 0 -114 0 *
Wi

0101100
+113 0 *
Wi

0101100
-383 0 *
Fa
0  1e-07 5 0

0101000
+112 0 +111 0 *
Ed
 1e-07 1 1 0
1  123 0 0.75 20
3  115 116CN 48 0 0.75 20
0

0101000
+245 0 -114 0 *
Wi

0101100
-109 0 +244 0 +109 0 +113 0 *
Fa
0  1e-07 48 0

0101000
+108 0 *
Ve
1e-07
22.75 50 20
0 0

0101101
*
Ed
 1e-07 1 1 0
2  113 49 0 0 6.28318530717959
1  162 0 0 6.28318530717959
0

0101000
+106 0 -106 0 *
Wi

0101100
+105 0 *
Wi

0101100
-388 0 *
Fa
0  1e-07 5 0

0101000
+104 0 +103 0 *
Ed
 1e-07 1 1 0
1  125 0 0.75 20
3  111 112CN 49 0 0.75 20
0

0101000
+242 0 -106 0 *
Wi

0101100
-101 0 +241 0 +101 0 +105 0 *
Fa
0  1e-07 49 0

0101000
+100 0 *
Ve
1e-07
22.75 40 20
0 0

0101101
*
Ed
 1e-07 1 1 0
2  109 50 0 0 6.28318530717959
1  163 0 0 6.28318530717959
0

0101000
+98 0 -98 0 *
Wi

0101100
+97 0 *
Wi

0101100
-393 0 *
Fa
0  1e-07 5 0

0101000
+96 0 +95 0 *
Ed
 1e-07 1 1 0
1  127 0 0.75 20
3  107 108CN 50 0 0.75 20
0

0101000
+239 0 -98 0 *
Wi

0101100
-93 0 +238 0 +93 0 +97 0 *
Fa
0  1e-07 50 0

0101000
+92 0 *
Ve
1e-07
22.75 30 20
0 0

0101101
*
Ed
 1e-07 1 1 0
2  105 51 0 0 6.28318530717959
1  164 0 0 6.28318530717959
0

0101000
+90 0 -90 0 *
Wi

0101100
+89 0 *
Wi

0101100
-398 0 *
Fa
0  1e-07 5 0

0101000
+88 0 +87 0 *
Ed
 1e-07 1 1 0
1  129 0 0.75 20
3  103 104CN 51 0 0.75 20
0

0101000
+236 0 -90 0 *
Wi

0101100
-85 0 +235 0 +85 0 +89 0 *
Fa
0  1e-07 51 0

0101000
+84 0 *
Ve
1e-07
22.75 20 20
0 0

0101101
*
Ed
 1e-07 1 1 0
2  101 52 0 0 6.28318530717959
1  165 0 0 6.28318530717959
0

0101000
+82 0 -82 0 *
Wi

0101100
+81 0 *
Wi

0101100
-403 0 *
Fa
0  1e-07 5 0

0101000
+80 0 +79 0 *
Ed
 1e-07 1 1 0
1  131 0 0.75 20
3  99 100CN 52 0 0.75 20
0

0101000
+233 0 -82 0 *
Wi

0101100
-77 0 +232 0 +77 0 +81 0 *
Fa
0  1e-07 52 0

0101000
+76 0 *
Ve
1e-07
22.75 10 20
0 0

0101101
*
Ed
 1e-07 1 1 0
2  97 53 0 0 6.28318530717959
1  166 0 0 6.28318530717959
0

0101000
+74 0 -74 0 *
Wi

0101100
+73 0 *
Wi

0101100
-408 0 *
Fa
0  1e-07 5 0

0101000
+72 0 +71 0 *
Ed
 1e-07 1 1 0
1  133 0 0.75 20
3  95 96CN 53 0 0.75 20
0

0101000
+230 0 -74 0 *
Wi

0101100
-69 0 +229 0 +69 0 +73 0 *
Fa
0  1e-07 53 0

0101000
+68 0 *
Ve
1e-07
12.75 50 20
0 0

0101101
*
Ed
 1e-07 1 1 0
2  93 54 0 0 6.28318530717959
1  167 0 0 6.28318530717959
0

0101000
+66 0 -66 0 *
Wi

0101100
+65 0 *
Wi

0101100
-413 0 *
Fa
0  1e-07 5 0

0101000
+64 0 +63 0 *
Ed
 1e-07 1 1 0
1  135 0 0.75 20
3  91 92CN 54 0 0.75 20
0

0101000
+227 0 -66 0 *
Wi

0101100
-61 0 +226 0 +61 0 +65 0 *
Fa
0  1e-07 54 0

0101000
+60 0 *
Ve
1e-07
12.75 40 20
0 0

0101101
*
Ed
 1e-07 1 1 0
2  89 55 0 0 6.28318530717959
1  168 0 0 6.28318530717959
0

0101000
+58 0 -58 0 *
Wi

0101100
+57 0 *
Wi

0101100
-418 0 *
Fa
0  1e-07 5 0

0101000
+56 0 +55 0 *
Ed
 1e-07 1 1 0
1  137 0 0.75 20
3  87 88CN 55 0 0.75 20
0

0101000
+224 0 -58 0 *
Wi

0101100
-53 0 +223 0 +53 0 +57 0 *
Fa
0  1e-07 55 0

0101000
+52 0 *
Ve
1e-07
12.75 30 20
0 0

0101101
*
Ed
 1e-07 1 1 0
2  85 56 0 0 6.28318530717959
1  169 0 0 6.28318530717959
0

0101000
+50 0 -50 0 *
Wi

0101100
+49 0 *
Wi

0101100
-423 0 *
Fa
0  1e-07 5 0

0101000
+48 0 +47 0 *
Ed
 1e-07 1 1 0
1  139 0 0.75 20
3  83 84CN 56 0 0.75 20
0

0101000
+221 0 -50 0 *
Wi

0101100
-45 0 +220 0 +45 0 +49 0 *
Fa
0  1e-07 56 0

0101000
+44 0 *
Ve
1e-07
12.75 20 20
0 0

0101101
*
Ed
 1e-07 1 1 0
2  81 57 0 0 6.28318530717959
1  170 0 0 6.28318530717959
0

0101000
+42 0 -42 0 *
Wi

0101100
+41 0 *
Wi

0101100
-428 0 *
Fa
0  1e-07 5 0

0101000
+40 0 +39 0 *
Ed
 1e-07 1 1 0
1  141 0 0.75 20
3  79 80CN 57 0 0.75 20
0

0101000
+218 0 -42 0 *
Wi

0101100
-37 0 +217 0 +37 0 +41 0 *
Fa
0  1e-07 57 0

0101000
+36 0 *
Ve
1e-07
12.75 10 20
0 0

0101101
*
Ed
 1e-07 1 1 0
2  77 58 0 0 6.28318530717959
1  171 0 0 6.28318530717959
0

0101000
+34 0 -34 0 *
Wi

0101100
+33 0 *
Wi

0101100
-433 0 *
Fa
0  1e-07 5 0

0101000
+32 0 +31 0 *
Ed
 1e-07 1 1 0
1  143 0 0.75 20
3  75 76CN 58 0 0.75 20
0

0101000
+215 0 -34 0 *
Wi

0101100
-29 0 +214 0 +29 0 +33 0 *
Fa
0  1e-07 58 0

0101000
+28 0 *
Wi

0101100
-323 0 *
Ve
1e-07
52.75 30 20
0 0

0101101
*
Ed
 1e-07 1 1 0
2  165 59 0 0 6.28318530717959
1  172 0 0 6.28318530717959
0

0101000
+25 0 -25 0 *
Wi

0101100
+24 0 *
Fa
0  1e-07 5 0

0101000
+26 0 +23 0 *
Ed
 1e-07 1 1 0
1  145 0 0.75 20
3  163 164CN 59 0 0.75 20
0

0101000
+212 0 -25 0 *
Wi

0101100
-21 0 +211 0 +21 0 +24 0 *
Fa
0  1e-07 59 0

0101000
+20 0 *
Ve
1e-07
52.75 40 20
0 0

0101101
*
Ed
 1e-07 1 1 0
2  169 60 0 0 6.28318530717959
1  173 0 0 6.28318530717959
0

0101000
+18 0 -18 0 *
Wi

0101100
+17 0 *
Wi

0101100
-318 0 *
Fa
0  1e-07 5 0

0101000
+16 0 +15 0 *
Ed
 1e-07 1 1 0
1  147 0 0.75 20
3  167 168CN 60 0 0.75 20
0

0101000
+209 0 -18 0 *
Wi

0101100
-13 0 +208 0 +13 0 +17 0 *
Fa
0  1e-07 60 0

0101000
+12 0 *
Ve
1e-07
52.75 50 20
0 0

0101101
*
Ed
 1e-07 1 1 0
2  173 61 0 0 6.28318530717959
1  174 0 0 6.28318530717959
0

0101000
+10 0 -10 0 *
Wi

0101100
+9 0 *
Wi

0101100
-313 0 *
Fa
0  1e-07 5 0

0101000
+8 0 +7 0 *
Ed
 1e-07 1 1 0
1  149 0 0.75 20
3  171 172CN 61 0 0.75 20
0

0101000
+206 0 -10 0 *
Wi

0101100
-5 0 +205 0 +5 0 +9 0 *
Fa
0  1e-07 61 0

0101000
+4 0 *
Sh

0101100
-531 0 -524 0 -517 0 -513 0 -436 0 +431 0 +426 0 +421 0 +416 0 +411 0 
+406 0 +401 0 +396 0 +391 0 +386 0 +381 0 +376 0 +371 0 +366 0 +361 0 
+356 0 +351 0 +346 0 +341 0 +336 0 +331 0 +326 0 +321 0 +316 0 +311 0 
+300 0 +293 0 +288 0 +283 0 +280 0 +203 0 +198 0 -195 0 +190 0 -187 0 
+182 0 -179 0 +174 0 -171 0 +166 0 -163 0 +158 0 -155 0 +150 0 -147 0 
+142 0 -139 0 +134 0 -131 0 +126 0 -123 0 +118 0 -115 0 +110 0 -107 0 
+102 0 -99 0 +94 0 -91 0 +86 0 -83 0 +78 0 -75 0 +70 0 -67 0 
+62 0 -59 0 +54 0 -51 0 +46 0 -43 0 +38 0 -35 0 +30 0 -27 0 
+22 0 -19 0 +14 0 -11 0 +6 0 -3 0 *
So

1100100
+2 0 *

+1 0 