
CASCADE Topology V3, (c) Open Cascade
Locations 0
Curve2ds 17
8 0 18.284271247461902
1 6.2831853071795862 0 0 1 
1 0 0 0 1 
1 0 0 1 0 
2 -3.9222653880000267e-17 -5.1279004970228378e-16 0 -1 1 0 8
1 0 18.284271247461902 1 0 
7 0 0  10 254 29  -1.6653345369377348e-16 0  0.039846313123079555 0  0.079615928847057565 0  0.11931535312516338 0  0.15895072547889647 0  0.19852782880658049 0  0.23805209919357423 0  0.27752863572049147 0  0.31696221027322224 0  0.35635727735180889 0  0.41539833714361613 0  0.43507010118684053 0  0.45473379301535749 0  0.47438991139605685 0  0.49403893685187883 0  0.513681331669123 0  0.53331753988893327 0  0.55294798731512429 0  0.57257308150847008 0  0.60200327693072397 0  0.61181210136255126 0  0.62161973387604197 0  0.63142622221949896 0  0.64123161309746268 0  0.65103595217313659 0  0.66083928406535641 0  0.6706416523515627 0  0.6804430995654962 0  0.70004423483168254 0  0.70984392579789379 0  0.71964276927238091 0  0.72944082186803927 0  0.73923812555854351 0  0.74903470278471573 0  0.75883058151228822 0  0.7686258217914097 0  0.77842049411235792 0  0.79800858316285972 0  0.80780210547851539 0  0.8175950464526075 0  0.82738747382962285 0  0.83717944411786116 0  0.84697098007305516 0  0.85676209641453138 0  0.86655282535765976 0  0.87634321272044402 0  0.8959233359280766 0  0.90571307473527829 0  0.91550251908434765 0  0.92529169648790521 0  0.93508063363139637 0  0.9448693563752919 0  0.95465788975211785 0  0.96444625796960892 0  0.97423448440811311 0  1.0035988060504477 0  1.0231745449395928 0  1.0427499873462187 0  1.0623253010202001 0  1.0819006424070998 0  1.1014761566440259 0  1.1210519775655148 0  1.1406282276968005 0  1.1602050182599346 0  1.199359880078978 0  1.2189379537987233 0  1.2385167702161883 0  1.2580964205599203 0  1.2776769873980669 0  1.2972585446400617 0  1.3168411575352283 0  1.3364248826735261 0  1.356009767985406 0  1.3951819374979084 0  1.4147692295781391 0  1.4343577251158226 0  1.4539475914233453 0  1.4735386411176861 0  1.4931310559729185 0  1.5127249114242856 0  1.5323199191633845 0  1.5519164413320485 0  1.5911120301658335 0  1.6107112495921878 0  1.6303116509260187 0  1.6499135885373015 0  1.6695167531262523 0  1.6891211919241664 0  1.7087270492419968 0  1.7283340880861797 0  1.7479424189319992 0  1.7871615205907021 0  1.8067722989885036 0  1.8263842770078056 0  1.8459974251388034 0  1.8656117123056384 0  1.8852271058716574 0  1.9048435716323562 0  1.924461073822918 0  1.9440795751119191 0  2.0029379595921881 0  2.0421807280168509 0  2.0814270375905801 0  2.1206765766634539 0  2.1599290316781845 0  2.1991840926222439 0  2.2384414584840631 0  2.2777008427022603 0  2.3169619786235218 0  2.395487271281461 0  2.4347514273255757 0  2.4740168468751564 0  2.5132833079962058 0  2.5525506130313094 0  2.5918185885971985 0  2.631087085588995 0  2.6703559791748868 0  2.709625168801058 0  2.7881639875756785 0  2.8274336225725305 0  2.8667033433944078 0  2.9059733283043983 0  2.945242958824307 0  2.9845131874299824 0  3.0237828120010342 0  3.0630528895655558 0  3.1023227331063392 0  3.1808625740733087 0  3.2201324176136672 0  3.2594024951793714 0  3.2986721197484532 0  3.3379423483565844 0  3.3772119788739992 0  3.416481963786052 0  3.4557516846066414 0  3.4950213196040107 0  3.5735601383784781 0  3.6128293280048394 0  3.6520982215902862 0  3.6913667185829486 0  3.7306346941475477 0  3.7699019991840768 0  3.809168460303983 0  3.8484338798542201 0  3.887698035898064 0  3.9662233285561688 0  4.0054844644768659 0  4.0447438486966876 0  4.0840012145553981 0  4.1232562755037208 0  4.162508730514161 0  4.2017582695902327 0  4.2410045791622073 0  4.2802473475875384 0  4.3391057320675985 0  4.3587242333569574 0  4.3783417355465764 0  4.3979582013089145 0  4.4175735948729127 0  4.4371878820415906 0  4.4568010301713175 0  4.4764130081912645 0  4.4960237865888688 0  4.5352428882475655 0  4.5548512190936314 0  4.5744582579369375 0  4.5940641152565656 0  4.613668554052035 0  4.6332717186432957 0  4.6528736562530302 0  4.6724740575875883 0  4.6920732770137237 0  4.731268865847559 0  4.7508653880162148 0  4.7704603957551219 0  4.7900542512070805 0  4.8096466660613864 0  4.8292377157566779 0  4.8488275820635254 0  4.8684160776015224 0  4.8880033696816803 0  4.9271755391941587 0  4.9467604245061816 0  4.9663441496441418 0  4.9859267625398056 0  5.0055083197812333 0  5.0250888866199039 0  5.0446685369632558 0  5.0642473533808987 0  5.083825427100626 0  5.1229802889195968 0  5.1425570794831206 0  5.1621333296132139 0  5.1817091505369879 0  5.2012846647707356 0  5.2208600061610015 0  5.2404353198322875 0  5.2600107622404595 0  5.2795865011290601 0  5.3089508227714584 0  5.3187390492102509 0  5.3285274174266783 0  5.3383159508055646 0  5.3481046735469215 0  5.3578936106925328 0  5.3676827880948652 0  5.3774722324443971 0  5.3872619712515188 0  5.406842094459078 0  5.4166324818223224 0  5.4264232107640673 0  5.4362143271081127 0  5.4460058630599155 0  5.4557978333515118 0  5.4655902607259623 0  5.4753832017015549 0  5.4851767240165739 0  5.5047648130674318 0  5.5145594853872959 0  5.5243547256692498 0  5.5341506043919431 0  5.5439471816241657 0  5.5537444853091111 0  5.5635425379085595 0  5.5733413813812067 0  5.5831410723479564 0  5.6027422076141482 0  5.6125436548275758 0  5.6223460231152584 0  5.6321493550049446 0  5.6419536940836972 0  5.6517590849589032 0  5.6615655733041317 0  5.671373205816896 0  5.6811820302488032 0  5.7106122256714258 0  5.7302373198629102 0  5.7498677672942584 0  5.7695039755048887 0  5.7891463703338113 0  5.8087953957787031 0  5.8284515141669617 0  5.8481152059917116 0  5.8677869700361391 0  5.9268280298276323 0  5.9662230969066421 0  6.005656671458544 0  6.0451332079868276 0  6.0846574783721046 0  6.1242345817014296 0  6.1638699540539577 0  6.2035693783327543 0  6.243338994056427 0  6.2831853071795774 0 
 0 11 0.39269908169872436 9 0.58904862254808654 9 0.68722339297276758 9 0.78539816339744872 9 0.88357293382212987 9 0.9817477042468109 9 1.1780972450961731 9 1.3744467859455352 9 1.5707963267948974 9 1.7671458676442597 9 1.9634954084936218 9 2.3561944901923462 9 2.7488935718910703 9 3.1415926535897949 9 3.5342917352885195 9 3.9269908169872436 9 4.3196898986859678 9 4.51603943953533 9 4.7123889803846923 9 4.9087385212340546 9 5.105088062083416 9 5.3014376029327783 9 5.3996123733574599 9 5.4977871437821406 9 5.5959619142068213 9 5.6941366846315029 9 5.8904862254808652 9 6.2831853071795898 11
8 0 1
1 6.2831853071795862 0 0 1 
1 0 0 0 1 
1 0 1 1 0 
7 0 0  10 20 3  4.4408920985006262e-16 0  0.30961473055868222 0  0.62392791531208858 0  0.94003965237159648 0  1.2558471671668019 0  1.5706544370957789 0  1.8849596444728893 0  2.1991135259939849 0  2.5132743473956185 0  2.8274333882721892 0  3.4557519189073123 0  3.7699109597847142 0  4.0840717811838196 0  4.3982256627093905 0  4.7125308700810091 0  5.027338140014936 0  5.3431456548067322 0  5.6592573918680547 0  5.9735705766207401 0  6.2831853071795942 0 
 0 11 3.1415926535897949 9 6.2831853071795898 11
8 0 18.284271247461902
1 6.2831853071795862 0 0 1 
1 0 0 0 1 
1 0 18.284271247461902 1 0 
2 1.2018737010119477e-16 5.1279004970228378e-16 0 1 -1 0 8
1 6.2831853071795862 0 0 1 
1 6.2831853071795862 0 0 1 
1 6.2831853071795862 0 0 1 
Curves 14
1 -20 0 8 0.70710678118654691 0.70710678118654824 0 
2 -20 0 0 0.70710678118654691 0.70710678118654824 0 0 -0 1 0.70710678118654824 -0.70710678118654691 -0 8
2 -7.0710678118654862 12.928932188134539 0 0.70710678118654691 0.70710678118654824 0 0 -0 1 0.70710678118654824 -0.70710678118654691 -0 8
7 1 0  13 14 2  -7.0710678118654746 12.928932188134526 8  1.6690784610682365 -6.1698579078246434 13.830142092175716 8  1.669078461067991 -5.1753246625811 14.581150345544172 8  1.6690784610693248 -4.1044359563633837 15.181956948237882 8  1.6690784610653058 -2.974159669372082 15.632561900257395 8  1.6690784610739244 -1.8014636818391052 15.932965201609404 8  1.6690784610599043 -0.60331587399557696 16.083166852274111 8  1.6690784610776743 0.60331587400165099 16.083166852284641 8  1.6690784610598248 1.8014636818245522 15.932965201602201 8  1.6690784610741907 2.9741596693873542 15.632561900260407 8  1.6690784610648921 4.1044359563530621 15.181956948237534 8  1.6690784610697058 5.1753246625857292 14.581150345543765 8  1.6690784610677591 6.1698579078234594 13.830142092175949 8  1.6690784610683318 7.0710678118654782 12.928932188134526 8  1.6690784610682365
 0 14 1 14
7 1 1  6 6 2  7.0710678118654782 12.928932188134526 8  1.6690784610682365 -2.3280391958933326 3.5298251803757132 8.0000000000000053  1.0367296232096095 -3.6775909978104231 2.1802733784586223 -8.4363855243850665  1.0383466998475139 7.0710678118654418 12.928932188134489 -21.992935368067929  0.85353433019613967 17.819726621541413 23.677590997810466 -8.4363855243850789  1.0383466998475139 16.470174819624269 22.328039195893325 8.0000000000000142  1.036729623209609
 0 6 6.2831853071795862 6
1 7.0710678118654755 12.928932188134524 8 0.70710678118654757 -0.70710678118654757 0 
2 20 -1.7763568394002505e-15 0 0.70710678118654757 -0.70710678118654757 0 -0 0 1 -0.70710678118654757 -0.70710678118654757 0 8
2 -20 0 0 0.70710678118654691 0.70710678118654824 -0 0 0 1 0.70710678118654824 -0.70710678118654691 0 7
1 -20 1.2123384787296896e-15 7 0.70710678118654691 0.70710678118654824 0 
2 -7.0710678118654862 12.928932188134539 0 0.70710678118654691 0.70710678118654824 -0 0 0 1 0.70710678118654824 -0.70710678118654691 0 7
7 0 0  3 4 2  -7.0710678118654542 12.928932188134539 6.9999999999999876  -3.1658248943560094 16.834175105645834 7.0000000000001279  3.1658248943497527 16.834175105647478 6.9999999999999831  7.0710678118654737 12.928932188134528 6.9999999999999876 
 0 4 1 4
7 0 0  12 24 3  7.0710678118654737 12.928932188134521 6.9999999999999982  5.7939722045885578 11.651836580859095 7.0000000000003784  4.5010176628815834 10.358882039144396 6.4916475921429821  3.3113529061835347 9.1692172824680185 5.4540829061860379  2.3524383419477171 8.2103027181894355 3.9357139022974814  1.7349419343044408 7.5928063106103139 2.0585229492874575  1.5248425485985959 7.3827069248287795 0.00082430388893863177  1.738199660653982 7.5960640369555383 -2.053078952099856  2.3528542505529759 8.2107186268006185 -3.9170848374183431  3.2997901691853424 9.157654545465121 -5.4298286739330406  4.4793895378938808 10.337253914159227 -6.4766131441079544  5.7752269550733573 11.633091331342953 -6.999999999999825  8.3669086686575085 14.22477304492649 -7.000000000000167  9.6627460858362735 15.520610462104244 -6.4766131441073913  10.84234545455155 16.700209830824615 -5.4298286739320023  11.789281373161604 17.647145749422002 -3.9170848374230531  12.403935963105367 18.261800339387506 -2.0530789520919477  12.617293075097265 18.475157451351489 0.00082430388257227446  12.407193689459245 18.265058065741187 2.0585229492891326  11.789697281759542 17.647561658019992 3.9357139022993697  10.830782717560766 16.688647093834152 5.4540829061835083  9.6411179608436779 15.498982337111162 6.4916475921445365  8.3481634191439671 14.206027795413362 6.9999999999998757  7.0710678118654373 12.928932188134493 6.9999999999999991 
 0 13 3.1415926535897949 11 6.2831853071795898 13
2 20 -1.7763568394002505e-15 0 0.70710678118654757 -0.70710678118654757 0 0 0 1 -0.70710678118654757 -0.70710678118654757 0 7
1 7.0710678118654764 12.928932188134526 7 0.70710678118654757 -0.70710678118654757 0 
Polygon3D 0
PolygonOnTriangulations 0
Surfaces 8
10 0 6.2831853071795862 0 18.284271247461902
2 -20 0 0 0.70710678118654691 0.70710678118654824 0 0 -0 1 0.70710678118654824 -0.70710678118654691 -0 8
1 -20 -1.1093841813872445e-16 -5.1279004970228378e-16 0.70710678118654691 0.70710678118654813 0 0.70710678118654813 -0.70710678118654691 0 0 0 -1 
9 1 1 1 0 6 13 6 14 2 2 -7.0710678118654746 12.928932188134526 8  1.6690784610682365 -6.1698579078246434 13.830142092175716 8  1.669078461067991 -5.1753246625811 14.581150345544172 8  1.6690784610693248 -4.1044359563633837 15.181956948237882 8  1.6690784610653058 -2.974159669372082 15.632561900257395 8  1.6690784610739244 -1.8014636818391052 15.932965201609404 8  1.6690784610599043 -0.60331587399557685 16.083166852274111 8  1.6690784610776743 0.60331587400165099 16.083166852284641 8  1.6690784610598248 1.8014636818245524 15.932965201602201 8  1.6690784610741907 2.9741596693873542 15.632561900260409 8  1.6690784610648921 4.1044359563530621 15.181956948237534 8  1.6690784610697058 5.1753246625857292 14.581150345543765 8  1.6690784610677591 6.1698579078234594 13.830142092175949 8  1.6690784610683318 7.0710678118654782 12.928932188134526 8  1.6690784610682365 
2.3280391958933322 3.5298251803757132 8.0000000000000053  1.0367296232096095 2.0570211458600758 3.258807130341939 7.999999999999873  1.0367296232094578 1.7218334918877214 2.9968539893709725 8.0000000000005773  1.0367296232102878 1.3429195203208897 2.7805945304306157 7.9999999999985896  1.0367296232077479 0.94803863375042796 2.6286467428517657 8.0000000000024727  1.0367296232133119 0.56026600676114946 2.5392602456637423 7.9999999999968132  1.0367296232040193 0.18568957995929386 2.4976455146583483 8.0000000000030536  1.0367296232161949 -0.18568957996186275 2.497645514601647 7.9999999999980069  1.0367296232034273 -0.56026600675494687 2.5392602457092082 8.0000000000006821  1.0367296232142773 -0.9480386337570581 2.6286467428229674 8.0000000000001936  1.0367296232067904 -1.3429195203163256 2.7805945304445743 7.9999999999996074  1.0367296232109389 -1.7218334918897993 2.9968539893660822 8.0000000000002434  1.0367296232091467 -2.0570211458595375 3.2588071303429764 7.9999999999999396  1.0367296232097087 -2.3280391958933326 3.5298251803757132 8.0000000000000053  1.0367296232096095 
3.6775909978104231 2.1802733784586223 -8.4363855243850665  1.0383466998475139 3.238260963843504 1.7409433444914502 -8.4363855243848285  1.0383466998474165 2.7121480194058014 1.3335461869894871 -8.4363855243861554  1.0383466998479374 2.125067057650686 0.99996994733691125 -8.4363855243819756  1.0383466998463964 1.5111995577751944 0.76150584124657072 -8.4363855243916142  1.0383466998496089 0.89937019551091935 0.61615216289306574 -8.4363855243740673  1.0383466998446422 0.29897733498515361 0.54699586397073929 -8.4363855244001016  1.0383466998504165 -0.29897733498700862 0.54699586397351929 -8.4363855243682604  1.038346699845359 -0.89937019550649144 0.61615216289094654 -8.4363855244002703  1.0383466998486506 -1.511199557779817 0.76150584124790122 -8.4363855243741508  1.0383466998471333 -2.1250670576476032 0.99996994733618294 -8.4363855243910741  1.0383466998475572 -2.7121480194071648 1.3335461869897927 -8.4363855243827075  1.0383466998475395 -3.2382609638431541 1.7409433444913702 -8.4363855243856172  1.0383466998475022 -3.6775909978104231 2.1802733784586223 -8.4363855243850665  1.0383466998475139 
-7.0710678118654391 12.928932188134491 -21.992935368067929  0.85353433019613967 -6.1698579078239062 13.830142092175825 -21.992935368065162  0.85353433019611069 -5.1753246625837788 14.581150345543834 -21.99293536808036  0.85353433019625713 -4.1044359563575057 15.181956948237822 -21.992935368034438  0.85353433019584024 -2.9741596693804699 15.632561900258583 -21.992935368133477  0.85353433019666358 -1.8014636818312961 15.932965201606159 -21.992935367968542  0.85353433019555547 -0.60331587399881104 16.083166852278865 -21.992935368188  0.85353433019645486 0.60331587399873132 16.083166852279703 -21.992935367951063  0.85353433019628611 1.8014636818314882 15.932965201605514 -21.992935368159749  0.8535343301956565 2.974159669380227 15.632561900258988 -21.992935368010102  0.85353433019665947 4.1044359563577393 15.181956948237582 -21.992935368096376  0.85353433019579728 5.1753246625836429 14.581150345543961 -21.992935368057662  0.85353433019628555 6.1698579078239462 13.830142092175787 -21.992935368070174  0.8535343301961047 7.0710678118654418 12.928932188134489 -21.992935368067929  0.85353433019613967 
-17.81972662154141 23.677590997810462 -8.4363855243850789  1.0383466998475139 -15.577976779492012 25.919340839858378 -8.436385524384697  1.0383466998474165 -13.062797344571129 27.828754504106577 -8.436385524386818  1.0383466998479374 -10.333938970370802 29.363943949117505 -8.4363855243801762  1.0383466998463964 -7.4595188965289108 30.50361795931142 -8.4363855243953392  1.0383466998496089 -4.5022975591803407 31.249778240258927 -8.4363855243680366  1.0383466998446422 -1.5056090829795372 31.619337840659092 -8.4363855244081591  1.0383466998504165 1.5056090829855948 31.619337840516593 -8.4363855243594248  1.038346699845359 4.5022975591660055 31.249778240375022 -8.4363855244082817  1.0383466998486506 7.4595188965435186 30.503617959235122 -8.4363855243683741  1.0383466998471333 10.33393897036145 29.363943949156862 -8.4363855243942822  1.0383466998475572 13.062797344575074 27.828754504091656 -8.4363855243814729  1.0383466998475395 15.57797677949103 25.919340839861803 -8.4363855243859156  1.0383466998475022 17.819726621541413 23.677590997810466 -8.4363855243850789  1.0383466998475139 
-16.470174819624273 22.328039195893325 8.0000000000000142  1.036729623209609 -14.396736961509845 24.401477054008996 8.0000000000003979  1.0367296232094576 -12.072482817047796 26.165446701719453 7.9999999999983036  1.0367296232102798 -9.5517914330532605 27.58331936603955 8.0000000000046185  1.0367296232077892 -6.8963579724837718 28.636477057673801 7.9999999999909397  1.0367296232131813 -4.1631933704553408 29.326670157538935 8.0000000000139195  1.0367296232043048 -1.3923213279318418 29.668688189908757 7.9999999999829408  1.0367296232157222 1.392321327948068 29.668688189949666 8.0000000000169997  1.0367296232040351 4.163193370416284 29.32667015750939 7.9999999999863203  1.0367296232136605 6.896357972525057 28.636477057688396 8.0000000000088782  1.0367296232072734 9.551791433025226 27.583319366035489 7.9999999999955174  1.0367296232106551 12.072482817060424 26.1654467017195 8.0000000000016911  1.036729623209262 14.396736961506575 24.401477054009348 7.999999999999635  1.036729623209681 16.470174819624269 22.328039195893325 8.0000000000000142  1.036729623209609 

0 6
6.2831853071795862 6

0 14
1 14

10 0 6.2831853071795862 0 18.284271247461902
2 7.0710678118654755 12.928932188134524 0 0.70710678118654757 -0.70710678118654757 0 -0 0 1 -0.70710678118654757 -0.70710678118654757 0 8
1 20 -2.1162980570463786e-15 -5.1279004970228378e-16 0.70710678118654757 -0.70710678118654746 0 0.70710678118654746 0.70710678118654757 0 -0 0 1 
2 -20 0 0 0.70710678118654691 0.70710678118654824 0 0 -0 1 0.70710678118654824 -0.70710678118654691 -0 7
11 -1
9 1 1 1 0 6 13 6 14 2 2 -7.0710678118654746 12.928932188134526 8  1.6690784610682365 -6.1698579078246434 13.830142092175716 8  1.669078461067991 -5.1753246625811 14.581150345544172 8  1.6690784610693248 -4.1044359563633837 15.181956948237882 8  1.6690784610653058 -2.974159669372082 15.632561900257395 8  1.6690784610739244 -1.8014636818391052 15.932965201609404 8  1.6690784610599043 -0.60331587399557685 16.083166852274111 8  1.6690784610776743 0.60331587400165099 16.083166852284641 8  1.6690784610598248 1.8014636818245524 15.932965201602201 8  1.6690784610741907 2.9741596693873542 15.632561900260409 8  1.6690784610648921 4.1044359563530621 15.181956948237534 8  1.6690784610697058 5.1753246625857292 14.581150345543765 8  1.6690784610677591 6.1698579078234594 13.830142092175949 8  1.6690784610683318 7.0710678118654782 12.928932188134526 8  1.6690784610682365 
2.3280391958933322 3.5298251803757132 8.0000000000000053  1.0367296232096095 2.0570211458600758 3.258807130341939 7.999999999999873  1.0367296232094578 1.7218334918877214 2.9968539893709725 8.0000000000005773  1.0367296232102878 1.3429195203208897 2.7805945304306157 7.9999999999985896  1.0367296232077479 0.94803863375042796 2.6286467428517657 8.0000000000024727  1.0367296232133119 0.56026600676114946 2.5392602456637423 7.9999999999968132  1.0367296232040193 0.18568957995929386 2.4976455146583483 8.0000000000030536  1.0367296232161949 -0.18568957996186275 2.497645514601647 7.9999999999980069  1.0367296232034273 -0.56026600675494687 2.5392602457092082 8.0000000000006821  1.0367296232142773 -0.9480386337570581 2.6286467428229674 8.0000000000001936  1.0367296232067904 -1.3429195203163256 2.7805945304445743 7.9999999999996074  1.0367296232109389 -1.7218334918897993 2.9968539893660822 8.0000000000002434  1.0367296232091467 -2.0570211458595375 3.2588071303429764 7.9999999999999396  1.0367296232097087 -2.3280391958933326 3.5298251803757132 8.0000000000000053  1.0367296232096095 
3.6775909978104231 2.1802733784586223 -8.4363855243850665  1.0383466998475139 3.238260963843504 1.7409433444914502 -8.4363855243848285  1.0383466998474165 2.7121480194058014 1.3335461869894871 -8.4363855243861554  1.0383466998479374 2.125067057650686 0.99996994733691125 -8.4363855243819756  1.0383466998463964 1.5111995577751944 0.76150584124657072 -8.4363855243916142  1.0383466998496089 0.89937019551091935 0.61615216289306574 -8.4363855243740673  1.0383466998446422 0.29897733498515361 0.54699586397073929 -8.4363855244001016  1.0383466998504165 -0.29897733498700862 0.54699586397351929 -8.4363855243682604  1.038346699845359 -0.89937019550649144 0.61615216289094654 -8.4363855244002703  1.0383466998486506 -1.511199557779817 0.76150584124790122 -8.4363855243741508  1.0383466998471333 -2.1250670576476032 0.99996994733618294 -8.4363855243910741  1.0383466998475572 -2.7121480194071648 1.3335461869897927 -8.4363855243827075  1.0383466998475395 -3.2382609638431541 1.7409433444913702 -8.4363855243856172  1.0383466998475022 -3.6775909978104231 2.1802733784586223 -8.4363855243850665  1.0383466998475139 
-7.0710678118654391 12.928932188134491 -21.992935368067929  0.85353433019613967 -6.1698579078239062 13.830142092175825 -21.992935368065162  0.85353433019611069 -5.1753246625837788 14.581150345543834 -21.99293536808036  0.85353433019625713 -4.1044359563575057 15.181956948237822 -21.992935368034438  0.85353433019584024 -2.9741596693804699 15.632561900258583 -21.992935368133477  0.85353433019666358 -1.8014636818312961 15.932965201606159 -21.992935367968542  0.85353433019555547 -0.60331587399881104 16.083166852278865 -21.992935368188  0.85353433019645486 0.60331587399873132 16.083166852279703 -21.992935367951063  0.85353433019628611 1.8014636818314882 15.932965201605514 -21.992935368159749  0.8535343301956565 2.974159669380227 15.632561900258988 -21.992935368010102  0.85353433019665947 4.1044359563577393 15.181956948237582 -21.992935368096376  0.85353433019579728 5.1753246625836429 14.581150345543961 -21.992935368057662  0.85353433019628555 6.1698579078239462 13.830142092175787 -21.992935368070174  0.8535343301961047 7.0710678118654418 12.928932188134489 -21.992935368067929  0.85353433019613967 
-17.81972662154141 23.677590997810462 -8.4363855243850789  1.0383466998475139 -15.577976779492012 25.919340839858378 -8.436385524384697  1.0383466998474165 -13.062797344571129 27.828754504106577 -8.436385524386818  1.0383466998479374 -10.333938970370802 29.363943949117505 -8.4363855243801762  1.0383466998463964 -7.4595188965289108 30.50361795931142 -8.4363855243953392  1.0383466998496089 -4.5022975591803407 31.249778240258927 -8.4363855243680366  1.0383466998446422 -1.5056090829795372 31.619337840659092 -8.4363855244081591  1.0383466998504165 1.5056090829855948 31.619337840516593 -8.4363855243594248  1.038346699845359 4.5022975591660055 31.249778240375022 -8.4363855244082817  1.0383466998486506 7.4595188965435186 30.503617959235122 -8.4363855243683741  1.0383466998471333 10.33393897036145 29.363943949156862 -8.4363855243942822  1.0383466998475572 13.062797344575074 27.828754504091656 -8.4363855243814729  1.0383466998475395 15.57797677949103 25.919340839861803 -8.4363855243859156  1.0383466998475022 17.819726621541413 23.677590997810466 -8.4363855243850789  1.0383466998475139 
-16.470174819624273 22.328039195893325 8.0000000000000142  1.036729623209609 -14.396736961509845 24.401477054008996 8.0000000000003979  1.0367296232094576 -12.072482817047796 26.165446701719453 7.9999999999983036  1.0367296232102798 -9.5517914330532605 27.58331936603955 8.0000000000046185  1.0367296232077892 -6.8963579724837718 28.636477057673801 7.9999999999909397  1.0367296232131813 -4.1631933704553408 29.326670157538935 8.0000000000139195  1.0367296232043048 -1.3923213279318418 29.668688189908757 7.9999999999829408  1.0367296232157222 1.392321327948068 29.668688189949666 8.0000000000169997  1.0367296232040351 4.163193370416284 29.32667015750939 7.9999999999863203  1.0367296232136605 6.896357972525057 28.636477057688396 8.0000000000088782  1.0367296232072734 9.551791433025226 27.583319366035489 7.9999999999955174  1.0367296232106551 12.072482817060424 26.1654467017195 8.0000000000016911  1.036729623209262 14.396736961506575 24.401477054009348 7.999999999999635  1.036729623209681 16.470174819624269 22.328039195893325 8.0000000000000142  1.036729623209609 

0 6
6.2831853071795862 6

0 14
1 14

2 7.0710678118654755 12.928932188134524 0 0.70710678118654757 -0.70710678118654757 0 -0 0 1 -0.70710678118654757 -0.70710678118654757 0 7
Triangulations 0

TShapes 42
Ve
1.00000135737147e-07
-20 1.38552968997679e-15 8
0 0

0101101
*
Ve
1.00000135737147e-07
-7.07106781186548 12.9289321881345 8
0 0

0101101
*
Ed
 1e-07 1 1 0
1  1 0 0 18.2842712474619
3  1 2G1 1 0 0 18.2842712474619
0

0101000
+42 0 -41 0 *
Ed
 1e-07 1 1 0
1  2 0 0 6.28318530717959
2  3 1 0 0 6.28318530717959
2  4 2 0 0 6.28318530717959
0

0101000
+42 0 -42 0 *
Ed
 1e-07 1 1 0
1  3 0 0 6.28318530717959
2  5 1 0 0 6.28318530717959
2  6 3 0 0 6.28318530717959
4 G1 1 0 3 0
0

0101100
+41 0 -41 0 *
Wi

0101100
+40 0 +39 0 -40 0 -38 0 *
Fa
0  1e-07 1 0

0101000
+37 0 *
Ve
1.31596658275517e-07
7.07106781186548 12.9289321881345 8
0 0

0101101
*
Ed
 1e-07 1 1 0
1  4 0 0 1
3  7 8G1 3 0 0 1
0

0101000
+41 0 -35 0 *
Ed
 1e-07 1 1 0
1  5 0 0 6.28318530717959
2  9 3 0 0 6.28318530717959
2  10 4 0 0 6.28318530717959
4 G1 3 0 4 0
0

0101100
+35 0 -35 0 *
Wi

0101100
+34 0 +38 0 -34 0 -33 0 *
Fa
0  1e-07 3 0

0101000
+32 0 *
Ve
1.00000006240673e-07
20 0 8
0 0

0101101
*
Ed
 1e-07 1 1 0
1  6 0 0 18.2842712474619
3  11 12G1 4 0 0 18.2842712474619
0

0101000
+35 0 -30 0 *
Ed
 1e-07 1 1 0
1  7 0 0 6.28318530717959
2  13 4 0 0 6.28318530717959
2  14 5 0 0 6.28318530717959
0

0101000
+30 0 -30 0 *
Wi

0101100
+29 0 +33 0 -29 0 -28 0 *
Fa
0  1e-07 4 0

0101000
+27 0 *
Wi

0101100
+39 0 *
Ve
1.00000135737147e-07
-20 1.21233847872969e-15 7
0 0

0101101
*
Ed
 1e-07 1 1 0
2  3 6 0 0 6.28318530717959
1  8 0 0 6.28318530717959
0

0101000
+24 0 -24 0 *
Wi

0101100
-23 0 *
Fa
0  1e-07 2 0

0101000
+25 0 +22 0 *
Ve
1.31596658275517e-07
-7.07106781186549 12.9289321881345 7
0 0

0101101
*
Ed
 1e-07 1 1 0
1  9 0 0 18.2842712474619
3  15 2G1 6 0 0 18.2842712474619
0

0101000
+24 0 -20 0 *
Ed
 1e-07 1 1 0
2  5 6 0 0 6.28318530717959
1  10 0 0 6.28318530717959
2  6 7 0 0 6.28318530717959
4 G1 6 0 7 0
0

0101000
+20 0 -20 0 *
Wi

0101100
-19 0 +23 0 +19 0 -18 0 *
Fa
0  1e-07 6 0

0101000
+17 0 *
Ve
1.31596658275517e-07
7.07106781186548 12.9289321881345 7
0 0

0101101
*
Ed
 1e-07 1 1 0
3  16 8G1 7 0 0 1
1  11 0 0 1
0

0101000
+20 0 -15 0 *
Ed
 1.2872863620732e-07 1 1 0
2  10 8 0 0 6.28318530717959
2  9 7 0 0 6.28318530717959
1  12 0 0 6.28318530717959
4 G1 8 0 7 0
0

0101000
+15 0 -15 0 *
Wi

0101000
+14 0 +18 0 -14 0 -13 0 *
Fa
0  1e-07 7 0

0101000
+12 0 *
Wi

0101100
+28 0 *
Ve
1.00000006240673e-07
20 1.77635683940025e-15 7
0 0

0101101
*
Ed
 1e-07 1 1 0
2  13 8 0 0 6.28318530717959
1  13 0 0 6.28318530717959
0

0101000
+9 0 -9 0 *
Wi

0101100
-8 0 *
Fa
0  1e-07 5 0

0101000
+10 0 +7 0 *
Ed
 1e-07 1 1 0
1  14 0 0 18.2842712474619
3  17 12G1 8 0 0 18.2842712474619
0

0101000
+15 0 -9 0 *
Wi

0101100
-5 0 +13 0 +5 0 -8 0 *
Fa
0  1e-07 8 0

0101000
+4 0 *
Sh

0101100
+36 0 +31 0 +26 0 -21 0 -16 0 -11 0 +6 0 -3 0 *
So

1100100
+2 0 *

+1 0 