
CASCADE Topology V3, (c) Open Cascade
Locations 0
Curve2ds 87
8 0 1.2155545956159799
1 6.2831853071795862 1.5707963267948966 1 0 
2 1.3980152392638798e-15 1.0255800994045676e-15 0 1 -1 0 11.500299999999999
8 5.0676307115636003 6.2831853071795898
1 0 1.5707963267948966 1 0 
2 1.3980152392638798e-15 1.0255800994045676e-15 0 1 -1 0 11.500299999999999
8 0 1
7 0 0  6 22 5  4.9650692355267685 0  4.9650692355267685 0.086008005030351012  4.9657138132716616 0.17203808162099918  4.9670035998996456 0.25796736666200215  4.9689437090427679 0.3437527247092545  4.971551147025866 0.42934964944724263  4.9762429300197484 0.55091356450148599  4.9777666522535675 0.58713185177928884  4.9794158334960974 0.623295150431039  4.9811922211392545 0.6593993695422411  4.9830977326121069 0.69544071886427872  4.9881661773656081 0.78496640638171522  4.9914887079299257 0.83837103591355311  4.9951084847533886 0.89161305191426177  4.9990331808743695 0.944684082713243  5.0032708362833791 0.99757781588032202  5.0154450371643762 1.1383487077115797  5.0239568986915613 1.2259032098977527  5.0333998066937893 1.3129001207689419  5.0438111487696773 1.3993629657434563  5.0552233088598548 1.4853180288207222  5.0676307115636376 1.5707963267949001 
 0 7 0.32095203398163691 5 0.45742139761020723 5 0.66057188451112592 5 1 7
7 0 0  6 22 5  6.5080666151703319 -4.4996999999999998  6.5080666151703319 -4.1126897797649296  6.5493201183202956 -3.7255787788590213  6.6318643628559002 -3.3440831664810791  6.7544895079646672 -2.9735274196651922  6.915182721774741 -2.6189196390493974  7.1939781425952383 -2.1427730646390888  7.2834806968832062 -2.0044078393172651  7.3790779061609442 -1.8700723382690656  7.4805154045813644 -1.7400793523566493  7.5875167908235817 -1.6147162489884694  7.8669099186764377 -1.3149115092640002  8.0457132314873814 -1.1464124267581761  8.2352107265976091 -0.989619048632985  8.4343518002427924 -0.8452465238889868  8.6420323044614964 -0.71386637765592198  9.2164586818241112 -0.39884803922417511  9.5965009746439556 -0.2392480418677323  9.9918698056590074 -0.11918598887773513  10.397245280563777 -0.039451995837517018  10.807509539369796 1.7763568394002505e-15  11.217750694312452 0 
 0 7 0.32095203398163691 5 0.45742139761020723 5 0.66057188451112592 5 1 7
8 4.9650692355267703 6.2831853071795898
1 0 0 1 0 
8 4.9650692355267703 6.2831853071795898
1 0 -4.5003000000000002 1 0 
8 0 1.31811607165282
1 6.2831853071795862 0 1 0 
8 0 1.31811607165282
1 0 -4.5003000000000002 1 0 
8 0 1
7 0 0  6 22 5  7.601301378832404 0  7.601301378832404 0.086008005030603629  7.6006568010875082 0.17203808162164264  7.5993670144595136 0.2579673666627223  7.597426905316377 0.3437527247104647  7.5948194673332656 0.42934964944860599  7.5901276843393548 0.55091356450313855  7.5886039621055303 0.58713185178098315  7.586954780862996 0.62329515043270767  7.5851783932198344 0.65939936954388412  7.5832728817469759 0.69544071886596315  7.5782044369934605 0.78496640638340631  7.5748819064291375 0.83837103591519302  7.5712621296056639 0.89161305191592799  7.5673374334846759 0.94468408271494086  7.5630997780756593 0.99757781588197814  7.5509255771946622 1.138348707712953  7.5424137156674913 1.2259032098988498  7.5329708076652784 1.3129001207698181  7.522559465589433 1.3993629657439224  7.5111473054992732 1.4853180288210264  7.4987399027955348 1.5707963267949001 
 0 7 0.32095203398275868 5 0.457421397611258 5 0.66057188451224313 5 1 7
7 0 0  6 22 5  37.491933384829665 -4.4996999999999998  37.491933384829665 -4.1126897797637927  37.450679881679378 -3.7255787788560966  37.368135637143482 -3.3440831664779251  37.245510492033532 -2.973527419659951  37.084817278222715 -2.6189196390437424  36.806021857400729 -2.1427730646327507  36.716519303112413 -2.0044078393109181  36.620922093834508 -1.8700723382629576  36.519484595413928 -1.7400793523507971  36.41248320917137 -1.6147162489826483  36.133090081317974 -1.3149115092586054  35.954286768506883 -1.1464124267532192  35.764789273396296 -0.9896190486282741  35.565648199750747 -0.84524652388450505  35.357967695531961 -0.71386637765187189  34.783541318169924 -0.39884803922167578  34.403499025350982 -0.23924804186625437  34.008130194336943 -0.11918598887684517  33.602754719433996 -0.039451995837353593  33.192490460628747 1.7763568394002505e-15  32.78224930568755 0 
 0 7 0.32095203398275868 5 0.457421397611258 5 0.66057188451224313 5 1 7
1 6.2831853071795862 -3 -1 0 
2 0 -3.142785177400443e-15 0 1 1 -0 16
1 1.8234765819369749 -4.5003000000000002 0 1 
1 6.5080666151702982 -4.4996999999999998 -2.0128018576154292e-14 -1 
8 1.82347658193697 4.45970872524261
1 0 -4.5003000000000002 1 0 
1 0 0 1 0 
1 4.4597087252426109 -3 -0 -1 
1 37.491933384829736 -6 -2.1312019668869206e-14 1 
1 6.2831853071795862 -3 -1 0 
2 0 -3.142785177400443e-15 0 1 1 -0 16
1 4.9650692355267685 -3 -0 -1 
1 6.5080666151702484 -6 3.3152030596018818e-14 1 
1 0 0 -0 -1 
1 6.2831853071795862 0 -0 -1 
1 0 0 1 -0 
2 8.8301141903507925e-15 -8.4606548923589211e-15 -7.0943554427240229e-16 1 -1 -7.0943554427240229e-16 16.000000000000011
1 1.3181160716528177 -4.5003000000000002 0 1 
1 37.4919333848297 -4.4996999999999998 3.315203059601878e-14 -1 
7 0 0  6 22 5  1.8234765819369749 0  1.8234765819369749 0.08600800503062013  1.8241211596818714 0.17203808162157991  1.8254109463098651 0.25796736666282499  1.8273510554530004 0.34375272471038443  1.8299584934361146 0.42934964944863419  1.8346502764300237 0.55091356450314088  1.8361739986638483 0.58713185178098115  1.8378231799063824 0.62329515043270844  1.8395995675495442 0.65939936954388634  1.8415050790224028 0.69544071886595893  1.8465735237759173 0.78496640638338933  1.8498960543402418 0.83837103591520812  1.8535158311637152 0.89161305191593188  1.8574405272847019 0.94468408271492565  1.8616781826937192 0.99757781588198002  1.8738523835747167 1.138348707712961  1.8823642451018785 1.2259032098988352  1.8918071531041176 1.3129001207698301  1.9022184951799315 1.3993629657438955  1.9136306552701092 1.4853180288210506  1.9260380579738445 1.5707963267949001 
 0 7 0.32095203398272415 5 0.45742139761126022 5 0.66057188451222337 5 1 7
7 0 0  6 22 5  6.5080666151703319 -4.4996999999999998  6.5080666151703319 -4.1126897797637181  6.549320118320562 -3.725578778856363  6.6318643628566925 -3.344083166477505  6.7544895079662837 -2.9735274196602708  6.9151827217773523 -2.6189196390436313  7.1939781425992813 -2.1427730646327401  7.283480696887576 -2.0044078393109235  7.3790779061654916 -1.870072338262954  7.480515404586086 -1.7400793523507874  7.5875167908286123 -1.6147162489826625  7.8669099186819729 -1.3149115092586614  8.0457132314931563 -1.1464124267531943  8.2352107266037198 -0.98961904862825811  8.4343518002491962 -0.84524652388452992  8.6420323044680458 -0.71386637765186833  9.2164586818301046 -0.39884803922165801  9.5965009746488246 -0.23924804186624904  9.9918698056633311 -0.11918598887690379  10.397245280565761 -0.039451995837307408  10.80750953937137 1.7763568394002505e-15  11.217750694312452 0 
 0 7 0.32095203398272415 5 0.45742139761126022 5 0.66057188451222337 5 1 7
1 0 1.5707963267948966 1 0 
2 1.3980152392638798e-15 1.0255800994045676e-15 0 1 -1 0 11.500299999999999
7 0 0  6 22 5  4.4597087252426109 0  4.4597087252426109 0.086008005030367152  4.4590641474977213 0.17203808162094572  4.4577743608697329 0.25796736666209158  4.4558342517266123 0.34375272470917223  4.4532268137435134 0.42934964944727921  4.4485350307496319 0.55091356450147577  4.4470113085158109 0.58713185177930527  4.4453621272732819 0.62329515043104056  4.4435857396301257 0.65939936954222567  4.4416802281572725 0.69544071886428627  4.4366117834037713 0.78496640638172721  4.4332892528394536 0.83837103591354467  4.4296694760159907 0.89161305191425688  4.4257447798950125 0.94468408271325055  4.4215071244860011 0.9975778158803249  4.4093329236050041 1.1383487077115679  4.400821062077819 1.2259032098978262  4.3913781540755821 1.3129001207688606  4.3809668119997154 1.3993629657434576  4.3695546519095201 1.4853180288207568  4.3571472492057417 1.5707963267949001 
 0 7 0.32095203398155608 5 0.45742139761010897 5 0.66057188451108062 5 1 7
7 0 0  6 22 5  37.491933384829665 -4.4996999999999998  37.491933384829665 -4.1126897797648567  37.450679881679832 -3.7255787788592514  37.368135637143837 -3.3440831664807131  37.245510492035557 -2.9735274196655199  37.084817278225181 -2.6189196390492535  36.806021857404779 -2.1427730646391279  36.716519303116769 -2.0044078393172082  36.620922093839049 -1.8700723382690567  36.519484595418653 -1.7400793523567  36.412483209176393 -1.6147162489884437  36.13309008132353 -1.3149115092639594  35.954286768512638 -1.1464124267581948  35.764789273402407 -0.98961904863300276  35.565648199757199 -0.84524652388897081  35.357967695538491 -0.71386637765591487  34.783541318175935 -0.39884803922420176  34.403499025355949 -0.23924804186763282  34.008130194340815 -0.11918598887784526  33.602754719436575 -0.03945199583746728  33.19249046063004 1.7763568394002505e-15  32.78224930568755 0 
 0 7 0.32095203398155608 5 0.45742139761010897 5 0.66057188451108062 5 1 7
1 -22 -3.9999999999999929 1 -1.2111523905001707e-16 
1 0 0 1 0 
1 6.508066615170268 -6 1 0 
1 -15.491933384829732 -3.9999999999997549 1 -7.1664588082487339e-17 
1 -15.491933384829752 3.999999999999734 1 1.4332917616497449e-17 
1 37.49193338482975 -6 -1 -0 
1 0 0 1 0 
1 22 4.0000000000000009 -1 1.2111523905001707e-16 
1 0 -4.5003000000000002 1 0 
8 -4.5003006000000001 -2.3999999999999995
1 1.9106332362490182 0 0 1 
8 -4.5003006000000001 -2.3999999999999995
1 7.857864376269049 -9 0 -1 
7 0 0  7 26 5  7.8578643762690481 -4.4996999999999998  7.8578643762690481 -4.2665871687084467  7.8770788495149793 -4.0334300594682855  7.9155198697979605 -3.8021977967698213  7.972874733545491 -3.5747535690769685  8.0485811032921646 -3.3528637860340482  8.1418434951286276 -3.1381943676995827  8.3005304828705118 -2.8404778039845957  8.3527531493307983 -2.7503955322239197  8.4081684680300111 -2.6621793847088511  8.4666788761364042 -2.5759528906750577  8.5281804406190638 -2.4918313455498509  8.5925634094008121 -2.4099220820919336  8.7649341540809313 -2.2055976585271249  8.8769513609828756 -2.0865438834889933  8.9953199868776874 -1.9735478539127094  9.1195752051549945 -1.8669355156607363  9.2492365692455927 -1.7669788054190378  9.3838128229336899 -1.6739001331540737  9.7931627514889854 -1.4205536053118881  10.08023104581228 -1.2799234731426798  10.38037631156579 -1.1672666079497063  10.69004632688061 -1.0831090041583336  11.005868722181873 -1.0274834570446911  11.324668625425559 -0.99999999999999911  11.643509277269656 -1 
 0 8 0.28540215517163525 6 0.41267054686484261 6 0.61209699934015305 6 1 8
7 0 0  7 26 5  1.9106332362490179 0  1.9106332362490179 0.066609375458340253  1.9110602228692604 0.13323126565843321  1.9119144716039036 0.1997864842524171  1.91319552456396 0.26622431434926863  1.9149038716722555 0.3325038292446848  1.9170405267926651 0.39857792869986636  1.9207478419219233 0.49372302033279958  1.9219762782017251 0.52301493992570169  1.9232898204394238 0.55225176714243374  1.9246884988631765 0.58143002237654973  1.9261723465726415 0.6105466063872973  1.9277413849886942 0.63959857786627938  1.9319877382853647 0.71400070242928593  1.9347891142380422 0.75925370053045793  1.9377996645650502 0.80433006806763996  1.9410194387268374 0.84922188913305841  1.9444484375701554 0.89392378387710825  1.9480864426577835 0.93843150323430324  1.9594144571088483 1.0689256899694948  1.9676844692360438 1.1543590135916308  1.9767390210549969 1.2390185342086371  1.9865731485842171 1.3229375706374169  1.9971766684895007 1.4061619188668006  2.0085267546004753 1.4887524220592974  2.0205805926848068 1.5707963267949001 
 0 8 0.28540215517163525 6 0.41267054686484261 6 0.61209699934015305 6 1 8
8 -4.5003006000000001 -2.3999999999999995
1 4.3725520709305679 0 0 1 
8 -4.5003006000000001 -2.3999999999999995
1 36.142135623730951 -9 0 -1 
7 0 0  7 26 5  36.142135623730951 -4.4996999999999998  36.142135623730951 -4.2665871687134365  36.122921150485794 -4.033430059478273  36.084480130204561 -3.8021977967847924  36.027125266459464 -3.5747535690965071  35.951418896715886 -3.3528637860577493  35.858156504883418 -3.1381943677272992  35.699469517146944 -2.8404778040150918  35.64724685068763 -2.7503955322539473  35.591831531989349 -2.6621793847383586  35.533321123883866 -2.575952890704007  35.471819559402114 -2.4918313455782282  35.407436590621259 -2.4099220821197287  35.235065845943311 -2.2055976585532964  35.123048639042693 -2.0865438835141839  35.004680013149098 -1.9735478539368003  34.880424794872916 -1.8669355156836371  34.750763430783422 -1.7669788054407309  34.6161871770964 -1.6739001331745702  34.206837248539124 -1.4205536053256442  33.919768954212813 -1.2799234731517739  33.619623688453345 -1.1672666079558089  33.309953673136569 -1.0831090041604137  32.994131277827208 -1.0274834570458689  32.675331374580217 -0.99999999999999911  32.356490722730342 -1 
 0 8 0.28540215516554979 6 0.41267054685865689 6 0.61209699933378126 6 1 8
7 0 0  7 26 5  4.3725520709305679 0  4.3725520709305679 0.066609375456914227  4.3721250843103459 0.13323126565558358  4.3712708355757375 0.19978648424810566  4.3699897826157335 0.26622431434355937  4.3682814355075141 0.33250382923760785  4.3661447803871969 0.39857792869133474  4.3624374652580746 0.49372302032290843  4.3612090289782968 0.52301493991580716  4.3598954867406245 0.55225176713254021  4.3584968083168967 0.58143002236665897  4.3570129606074577 0.61054660637740577  4.3554439221914318 0.63959857785638441  4.3511975688948263 0.7140007024194015  4.3483961929421904 0.75925370052054808  4.3453856426152253 0.80433006805773422  4.3421658684534794 0.84922188912317431  4.3387368696102033 0.89392378386722904  4.3350988645226183 0.9384315032244025  4.323770850071547 1.0689256899611312  4.3155008379442901 1.1543590135847379  4.3064462861252242 1.2390185342029476  4.2966121585959147 1.3229375706334245  4.286008638690423 1.4061619188642247  4.2746585525793295 1.4887524220578097  4.2626047144947794 1.5707963267949001 
 0 8 0.28540215516554979 6 0.41267054685865689 6 0.61209699933378126 6 1 8
7 0 0  7 14 3  4.3725520709305856 -3.0000000000000022  4.3725520709305856 -2.9073809748256116  4.373259744611266 -2.8147332860615113  4.3746758779807662 -2.7230457552655798  4.3767994089633193 -2.6333258027640567  4.3796263887236284 -2.5466337251518758  4.3831486484536368 -2.4641239040824656  4.3925680125019246 -2.2915109304187036  4.3989003843090835 -2.2031253418196419  4.4062880305670129 -2.1263411526846268  4.4145756294077296 -2.0649720675601708  4.4235449258043262 -2.0221054116085764  4.4329347095705343 -2.0000000000000018  4.442456184551304 -2.0000000000000018 
 0 8 0.446264009595772 6 1 8
7 0 0  7 14 3  1.5707963267948966 29.634069008560772  1.6634153519692865 29.634069008560772  1.7560633754081263 29.637607403148916  1.8490474472132494 29.644687976633143  1.9426657106626013 29.655261145904657  2.0372202278353897 29.669217212964774  2.133042371612011 29.686382443427902  2.3514969418675125 29.731502657337199  2.4765973345782246 29.7613845075387  2.6047793694525492 29.795521540856004  2.7355369916141838 29.832738202099581  2.8686187837853927 29.871591529959652  3.0039422865936567 29.910679779707682  3.1415926535897931 29.94876567963076 
 0 8 0.446264009595772 6 1 8
1 1.5707963267948966 0 0 1 
1 6.2831853071795862 -2 -1 0 
2 0 -3.142785177400443e-15 0 1 1 -0 15
1 3.1415926535897931 0 0 1 
7 0 0  8 9 2  4.9823217762180736 -1.999999999999946  4.9976005537289883 -1.9999999999999463  5.012165906668864 -2.0557578540375716  5.0251433768313625 -2.1572296957852721  5.035961724168752 -2.2946976613165972  5.0441960328607234 -2.457974020115016  5.0496262936358765 -2.6367346430737837  5.0522258898387911 -2.8206443618657335  5.0522258898387911 -2.9999999999999463 
 0 9 1 9
7 0 0  8 9 2  1.5707963267948966 29.948765679630792  1.7916790509397691 29.887650569587137  2.0011832830815117 29.825531964862847  2.2031614708097758 29.766561784982933  2.3992408030004917 29.714858021305041  2.5907796317373673 29.674216933361667  2.7783260948304593 29.647067274964375  2.9622370154555808 29.634069008560804  3.1415926535897931 29.634069008560804 
 0 9 1 9
1 1.5707963267948966 0 0 1 
8 -4.5003006000000001 -2.3999999999999995
1 5.0522258898388115 0 0 1 
8 -4.5003006000000001 -2.3999999999999995
1 7.8578643762690508 -9 0 -1 
1 3.1415926535897931 0 0 1 
1 0 -4.5003000000000002 1 0 
1 0 0 1 0 
7 0 0  7 26 5  7.8578643762690481 -4.4996999999999998  7.8578643762690481 -4.2665871687048398  7.8770788495155513 -4.0334300594614501  7.9155198697997218 -3.8021977967592675  7.9728747335489567 -3.5747535690631125  8.0485811032978489 -3.3528637860174553  8.1418434951370955 -3.1381943676801152  8.3005304828828095 -2.8404778039631418  8.3527531493437444 -2.7503955322028455  8.4081684680436162 -2.6621793846881352  8.4666788761506755 -2.5759528906546931  8.5281804406339656 -2.4918313455298815  8.5925634094163055 -2.4099220820724208  8.7649341540979169 -2.2055976585087933  8.8769513610008861 -2.0865438834712582  8.9953199868965577 -1.9735478538957341  9.1195752051745949 -1.8669355156446552  9.2492365692659462 -1.7669788054038309  9.3838128229548694 -1.6739001331396512  9.7931627515094828 -1.4205536053017642  10.080231045827116 -1.2799234731369507  10.380376311584294 -1.1672666079453595  10.690046326887401 -1.0831090041563503  11.005868722191495 -1.027483457044204  11.324668625428622 -0.99999999999999911  11.643509277269654 -1 
 0 8 0.28540215517567802 6 0.41267054686887428 6 0.61209699934403528 6 1 8
7 0 0  7 26 5  5.0522258898388115 0  5.0522258898388115 0.066609375459370651  5.0526528764590681 0.13323126566039939  5.0535071251937351 0.19978648425544435  5.0547881781538306 0.26622431435330396  5.0564965252621779 0.33250382924965427  5.0586331803826541 0.39857792870585895  5.0623404955120055 0.49372302033975829  5.0635689317918251 0.52301493993264836  5.0648824740295408 0.55225176714938151  5.0662811524533122 0.58143002238350783  5.0677650001627947 0.61054660639425673  5.069334038578865 0.63959857787322516  5.0735803918755824 0.71400070243621028  5.076381767828293 0.75925370053743113  5.0793923181553282 0.80433006807461516  5.0826120923171425 0.84922188914000007  5.0860410911604896 0.89392378388404004  5.089679096248152 0.93843150324127045  5.1010071106992321 1.0689256899756074  5.1092771228263079 1.1543590135958417  5.1183316746453178 1.2390185342134854  5.1281658021743031 1.3229375706394384  5.1387693220796109 1.4061619188691798  5.1501194081903838 1.4887524220600861  5.1621732462745999 1.5707963267949001 
 0 8 0.28540215517567802 6 0.41267054686887428 6 0.61209699934403528 6 1 8
1 0 -4.5003000000000002 1 0 
1 6.2831853071795862 0 1 0 
8 -4.5003006000000001 -2.3999999999999995
1 1.2309594173407743 0 0 1 
8 -4.5003006000000001 -2.3999999999999995
1 36.142135623730951 -9 0 -1 
7 0 0  7 26 5  36.142135623730951 -4.4996999999999998  36.142135623730951 -4.2665871686934276  36.122921150482604 -4.0334300594383068  36.084480130194535 -3.8021977967250922  36.027125266439683 -3.5747535690183523  35.951418896683556 -3.3528637859626857  35.858156504835307 -3.1381943676165918  35.699469517077056 -2.840477803893092  35.647246850613918 -2.7503955321338887  35.591831531911893 -2.6621793846203587  35.533321123802708 -2.5759528905881743  35.47181955931736 -2.4918313454646825  35.407436590533017 -2.4099220820085945  35.235065845846272 -2.205597658448522  35.123048638940496 -2.0865438834135217  35.004680013041984 -1.9735478538405131  34.88042479476114 -1.8669355155919543  34.750763430667256 -1.7669788053538475  34.61618717697614 -1.6739001330926513  34.206837248426126 -1.4205536052702836  33.919768954114467 -1.2799234731151192  33.61962368837245 -1.1672666079332847  33.309953673073636 -1.0831090041497884  32.994131277786174 -1.027483457042178  32.675331374559029 -0.99999999999999911  32.356490722730342 -1 
 0 8 0.28540215518985612 6 0.41267054688328081 6 0.61209699935905204 6 1 8
7 0 0  7 26 5  7.5141447245203628 0  7.5141447245203628 0.066609375462631751  7.5137177379000599 0.133231265667001  7.5128634891653112 0.19978648426529125  7.5115824362050896 0.26622431436638888  7.5098740890965718 0.33250382926600131  7.5077374339758878 0.39857792872541131  7.5040301188462246 0.49372302036247867  7.5028016825663473 0.52301493995537496  7.5014881403285703 0.55225176717210889  7.5000894619047411 0.58143002240623276  7.4986056141951991 0.61054660641697944  7.4970365757790702 0.6395985778959471  7.4927902224821974 0.71400070245897262  7.4899888465293953 0.75925370056013264  7.4869782962022642 0.80433006809732033  7.4837585220403495 0.84922188916275443  7.4803295231969047 0.89392378390680205  7.4766915181091482 0.93843150326396896  7.465363503658085 1.0689256899947588  7.4570934915311087 1.1543590136124635  7.4480389397124656 1.2390185342248843  7.438204812183578 1.3229375706500166  7.4276012922787604 1.4061619188748369  7.4162512061683215 1.4887524220632633  7.4041973680845725 1.5707963267949001 
 0 8 0.28540215518985612 6 0.41267054688328081 6 0.61209699935905204 6 1 8
7 0 0  8 9 2  1.3008635309615131 -1.9999999999999978  1.285584753450606 -1.9999999999999976  1.271019400510724 -2.0557578540374224  1.2580419303481889 -2.1572296957859907  1.24722358301089 -2.2946976613156482  1.2389892743188242 -2.4579740201158375  1.2335590135437191 -2.6367346430735541  1.2309594173407952 -2.8206443618658144  1.2309594173407952 -2.9999999999999969 
 0 9 1 9
7 0 0  8 9 2  1.5707963267948966 1.0351010900287125  1.7916790509396574 1.0962162000723361  2.0011832830812488 1.1583348047967059  2.203161470811029 1.2173049846765651  2.3992408029985683 1.2690087483544192  2.5907796317388123 1.3096498362978759  2.7783260948299686 1.3367994946951178  2.9622370154556101 1.3497977610986962  3.1415926535897931 1.3497977610986958 
 0 9 1 9
1 6.2831853071795862 -2 -1 0 
2 0 -3.142785177400443e-15 0 1 1 -0 15
7 0 0  7 14 3  1.9106332362490011 -3  1.9106332362490011 -2.9073809748256427  1.90992556256832 -2.81473328606149  1.9085094291988203 -2.7230457552655603  1.9063858982162674 -2.6333258027640696  1.9035589184559571 -2.5466337251518913  1.9000366587259487 -2.4641239040824465  1.8906172946776607 -2.2915109304186752  1.884284922870503 -2.2031253418196757  1.8768972766125711 -2.1263411526845566  1.8686096777718602 -2.0649720675602352  1.8596403813752602 -2.0221054116085502  1.8502505976090504 -1.9999999999999998  1.8407291226282827 -1.9999999999999998 
 0 8 0.44626400959564932 6 1 8
7 0 0  7 14 3  1.5707963267948966 1.349797761098694  1.6634153519692536 1.349797761098694  1.7560633754081441 1.3462593665105287  1.8490474472132692 1.3391787930263293  1.9426657106625866 1.3286056237548112  2.0372202278353684 1.3146495566946732  2.1330423716120324 1.2974843262315594  2.3514969418675458 1.2523641123222617  2.4765973345781869 1.2224822621207341  2.6047793694526269 1.1883452288035083  2.7355369916141146 1.1511285675598439  2.8686187837853838 1.1122752396998326  3.0039422865936904 1.0731869899517703  3.1415926535897931 1.0351010900287019 
 0 8 0.44626400959564932 6 1 8
8 -21.782249305687479 -0.21775069431254046
1 10.999999999999998 -1 -1 0 
8 -21.782249305687479 -0.21775069431254046
1 -11 -4.9999999999999938 -1 1.2111523905001707e-16 
8 -21.782249305687799 -0.21775069431220118
1 11 -1 -1 -0 
8 -21.782249305687799 -0.21775069431220118
1 11.000000000000002 5.0000000000000027 1 -1.2111523905001707e-16 
1 0 1.5707963267948966 1 0 
1 6.2831853071795862 1.5707963267948966 1 0 
Curves 50
2 0 -9 0 0 -1 -0 1 0 0 0 -0 1 11.500299999999999
2 0 -9 0 0 -1 -0 1 0 0 0 -0 1 11.500299999999999
7 0 0  6 22 5  4.0000000000000009 -4.5003000000000002 -15.491933384829668  4.0000000000000009 -4.8873102202350704 -15.491933384829668  4.0000000000000009 -5.2744212211409787 -15.450679881679704  4.0000000000000009 -5.6559168335189209 -15.3681356371441  4.0000000000000009 -6.0264725803348078 -15.245510492035333  4.0000000000000009 -6.3810803609506026 -15.084817278225259  4.0000000000000009 -6.8572269353609112 -14.806021857404762  4.0000000000000009 -6.9955921606827349 -14.716519303116794  4.0000000000000009 -7.1299276617309344 -14.620922093839056  4.0000000000000009 -7.2599206476433507 -14.519484595418636  4.0000000000000009 -7.3852837510115306 -14.412483209176418  4.0000000000000009 -7.6850884907359998 -14.133090081323562  4.0000000000000009 -7.8535875732418239 -13.954286768512619  4.0000000000000009 -8.010380951367015 -13.764789273402391  4.0000000000000009 -8.1547534761110132 -13.565648199757208  4.0000000000000009 -8.286133622344078 -13.357967695538504  4.0000000000000009 -8.6011519607758249 -12.783541318175889  4.0000000000000009 -8.7607519581322677 -12.403499025356044  4.0000000000000009 -8.8808140111222649 -12.008130194340993  4.0000000000000009 -8.960548004162483 -11.602754719436223  4.0000000000000009 -9.0000000000000018 -11.192490460630204  4.0000000000000018 -9 -10.782249305687548 
 0 7 0.32095203398163691 5 0.45742139761020723 5 0.66057188451112592 5 1 7
2 0 -4.5003000000000002 0 0 -1 -0 1 0 0 0 -0 1 16
2 0 -4.5003000000000002 0 0 -1 -0 1 0 0 0 -0 1 16
7 0 0  6 22 5  4.0000000000000044 -4.5003000000000002 15.491933384829665  4.0000000000000044 -4.8873102202362073 15.491933384829665  4.0000000000000044 -5.2744212211439034 15.450679881679378  4.0000000000000044 -5.6559168335220749 15.368135637143482  4.0000000000000044 -6.026472580340049 15.245510492033532  4.0000000000000044 -6.3810803609562576 15.084817278222715  4.0000000000000044 -6.8572269353672493 14.806021857400729  4.0000000000000044 -6.9955921606890819 14.716519303112413  4.0000000000000044 -7.1299276617370424 14.620922093834508  4.0000000000000044 -7.2599206476492029 14.519484595413928  4.0000000000000044 -7.3852837510173517 14.41248320917137  4.0000000000000044 -7.6850884907413946 14.133090081317974  4.0000000000000044 -7.8535875732467808 13.954286768506883  4.0000000000000044 -8.0103809513717259 13.764789273396296  4.0000000000000044 -8.1547534761154949 13.565648199750747  4.0000000000000044 -8.2861336223481281 13.357967695531961  4.0000000000000044 -8.6011519607783242 12.783541318169924  4.0000000000000044 -8.7607519581337456 12.403499025350982  4.0000000000000044 -8.8808140111231548 12.008130194336943  4.0000000000000044 -8.9605480041626464 11.602754719433996  4.0000000000000044 -9.0000000000000018 11.192490460628747  4.0000000000000036 -9 10.78224930568755 
 0 7 0.32095203398275868 5 0.457421397611258 5 0.66057188451224313 5 1 7
2 0 -3 0 -0 1 0 1 0 0 0 0 -1 16
8 0 1.5003000000000002
1 -3.9999999999999902 -4.5003000000000002 15.491933384829702 1.5895214669698299e-13 1 2.0128018576154273e-14 
2 0 -4.5003000000000002 0 0 -1 -0 1 0 0 0 -0 1 16
8 0 1.5003000000000002
1 -3.999999999999754 -3 -15.491933384829732 -1.7049615735095383e-13 -1 2.1312019668869228e-14 
2 0 -3 0 -0 1 0 1 0 0 0 0 -1 16
8 0 1.5003000000000002
1 3.9999999999997375 -3 -15.491933384829752 1.7493616144863493e-13 -1 3.3152030596018799e-14 
8 0 4.5003000000000002
1 16 0 0 0 -1 0 
2 -9.4862349917634893e-15 0 -7.4320989510869135e-15 0 -1 0 1 0 7.0943554427240229e-16 -7.0943554427240229e-16 0 1 16.000000000000011
8 0 1.5003000000000002
1 4.0000000000000098 -4.5003000000000002 15.491933384829702 -1.8174416773174592e-13 1 3.3152030596018799e-14 
7 0 0  6 22 5  -3.9999999999999947 -4.5003000000000002 15.491933384829668  -3.9999999999999947 -4.8873102202362819 15.491933384829668  -3.9999999999999947 -5.274421221143637 15.450679881679438  -3.9999999999999947 -5.655916833522495 15.368135637143308  -3.9999999999999947 -6.0264725803397292 15.245510492033716  -3.9999999999999947 -6.3810803609563687 15.084817278222648  -3.9999999999999947 -6.8572269353672599 14.806021857400719  -3.9999999999999947 -6.9955921606890765 14.716519303112424  -3.9999999999999947 -7.129927661737046 14.620922093834508  -3.9999999999999947 -7.2599206476492126 14.519484595413914  -3.9999999999999947 -7.3852837510173375 14.412483209171388  -3.9999999999999947 -7.6850884907413386 14.133090081318027  -3.9999999999999947 -7.8535875732468057 13.954286768506844  -3.9999999999999947 -8.0103809513717419 13.76478927339628  -3.9999999999999947 -8.1547534761154701 13.565648199750804  -3.9999999999999947 -8.2861336223481317 13.357967695531954  -3.9999999999999951 -8.601151960778342 12.783541318169895  -3.9999999999999951 -8.760751958133751 12.403499025351175  -3.9999999999999951 -8.8808140111230962 12.008130194336669  -3.9999999999999951 -8.9605480041626926 11.602754719434239  -3.9999999999999951 -9.0000000000000018 11.19249046062863  -3.9999999999999951 -9 10.782249305687548 
 0 7 0.32095203398272415 5 0.45742139761126022 5 0.66057188451222337 5 1 7
2 0 -9 0 0 -1 -0 1 0 0 0 -0 1 11.500299999999999
7 0 0  6 22 5  -3.9999999999999982 -4.5003000000000002 -15.491933384829665  -3.9999999999999982 -4.8873102202351433 -15.491933384829665  -3.9999999999999982 -5.2744212211407486 -15.450679881679832  -3.9999999999999982 -5.6559168335192869 -15.368135637143837  -3.9999999999999982 -6.0264725803344801 -15.245510492035557  -3.9999999999999982 -6.3810803609507465 -15.084817278225181  -3.9999999999999982 -6.8572269353608721 -14.806021857404779  -3.9999999999999982 -6.9955921606827918 -14.716519303116769  -3.9999999999999982 -7.1299276617309433 -14.620922093839049  -3.9999999999999982 -7.2599206476433 -14.519484595418653  -3.9999999999999982 -7.3852837510115563 -14.412483209176393  -3.9999999999999982 -7.6850884907360406 -14.13309008132353  -3.9999999999999982 -7.8535875732418052 -13.954286768512638  -3.9999999999999982 -8.0103809513669972 -13.764789273402407  -3.9999999999999982 -8.1547534761110292 -13.565648199757199  -3.9999999999999982 -8.2861336223440851 -13.357967695538491  -3.9999999999999978 -8.6011519607757982 -12.783541318175935  -3.9999999999999978 -8.7607519581323672 -12.403499025355949  -3.9999999999999978 -8.8808140111221547 -12.008130194340815  -3.9999999999999978 -8.9605480041625327 -11.602754719436575  -3.9999999999999978 -9.0000000000000018 -11.19249046063004  -3.9999999999999978 -9 -10.78224930568755 
 0 7 0.32095203398155608 5 0.45742139761010897 5 0.66057188451108062 5 1 7
1 -3.9999999999999938 -9 22 -1.2111523905001707e-16 0 -1 
8 0 30.983866769659464
1 -3.9999999999997518 -3 15.491933384829732 -7.1664588082487339e-17 0 -1 
8 0 30.983866769659503
1 3.9999999999997371 -3 15.491933384829752 1.4332917616497449e-17 0 -1 
1 4 -9 -22 1.2111523905001707e-16 0 1 
2 0 0 0 0 -1 0 1 0 0 0 0 1 15
2 0 -4.5003000000000002 0 0 -1 0 1 0 0 0 0 1 15
1 -4.9999999999999947 0 14.142135623730951 -0 1 -0 
7 0 0  7 26 5  -4.9999999999999947 -4.5003000000000002 14.142135623730951  -4.9999999999999947 -4.7334128312915533 14.142135623730951  -4.9999999999999947 -4.9665699405317145 14.12292115048502  -4.9999999999999947 -5.1978022032301787 14.084480130202039  -4.9999999999999947 -5.4252464309230319 14.027125266454508  -4.9999999999999947 -5.6471362139659522 13.951418896707835  -4.9999999999999947 -5.8618056323004168 13.858156504871372  -4.9999999999999947 -6.1595221960154038 13.699469517129488  -4.9999999999999947 -6.2496044677760807 13.647246850669202  -4.9999999999999947 -6.3378206152911485 13.591831531969989  -4.9999999999999947 -6.4240471093249418 13.533321123863596  -4.9999999999999947 -6.5081686544501487 13.471819559380936  -4.9999999999999947 -6.5900779179080669 13.407436590599188  -4.9999999999999947 -6.7944023414728747 13.235065845919069  -4.9999999999999947 -6.9134561165110071 13.123048639017124  -4.9999999999999947 -7.0264521460872906 13.004680013122313  -4.9999999999999947 -7.1330644843392639 12.880424794845005  -4.9999999999999947 -7.2330211945809619 12.750763430754407  -4.9999999999999947 -7.3260998668459258 12.61618717706631  -4.9999999999999947 -7.5794463946881123 12.206837248511015  -4.9999999999999947 -7.7200765268573202 11.91976895418772  -4.9999999999999947 -7.8327333920502937 11.61962368843421  -4.9999999999999947 -7.9168909958416664 11.30995367311939  -4.9999999999999956 -7.9725165429553089 10.994131277818127  -4.9999999999999956 -8 10.675331374574441  -4.9999999999999956 -8 10.356490722730344 
 0 8 0.28540215517163525 6 0.41267054686484261 6 0.61209699934015305 6 1 8
1 -4.9999999999999982 0 -14.142135623730951 -0 1 -0 
7 0 0  7 26 5  -4.9999999999999982 -4.5003000000000002 -14.142135623730951  -4.9999999999999982 -4.7334128312865635 -14.142135623730951  -4.9999999999999982 -4.966569940521727 -14.122921150485794  -4.9999999999999982 -5.1978022032152076 -14.084480130204561  -4.9999999999999982 -5.4252464309034929 -14.027125266459464  -4.9999999999999982 -5.6471362139422503 -13.951418896715886  -4.9999999999999982 -5.8618056322727004 -13.858156504883418  -4.9999999999999982 -6.1595221959849082 -13.699469517146944  -4.9999999999999982 -6.2496044677460532 -13.64724685068763  -4.9999999999999982 -6.3378206152616414 -13.591831531989349  -4.9999999999999982 -6.4240471092959925 -13.533321123883866  -4.9999999999999982 -6.5081686544217714 -13.471819559402114  -4.9999999999999982 -6.5900779178802713 -13.407436590621259  -4.9999999999999982 -6.7944023414467036 -13.235065845943311  -4.9999999999999982 -6.9134561164858166 -13.123048639042693  -4.9999999999999982 -7.0264521460631997 -13.004680013149098  -4.9999999999999982 -7.1330644843163631 -12.880424794872916  -4.9999999999999982 -7.2330211945592691 -12.750763430783422  -4.9999999999999982 -7.3260998668254302 -12.6161871770964  -4.9999999999999982 -7.5794463946743562 -12.206837248539124  -4.9999999999999982 -7.7200765268482261 -11.919768954212813  -4.9999999999999982 -7.8327333920441911 -11.619623688453345  -4.9999999999999982 -7.9168909958395863 -11.309953673136569  -4.9999999999999973 -7.9725165429541311 -10.994131277827208  -4.9999999999999973 -8 -10.675331374580217  -4.9999999999999973 -8 -10.356490722730342 
 0 8 0.28540215516554979 6 0.41267054685865689 6 0.61209699933378126 6 1 8
7 0 0  7 14 3  -4.9999999999997504 -3.0000000000000022 -14.142135623731038  -4.9999999999997504 -2.9073809748256116 -14.142135623731038  -4.9899919891167572 -2.8147332860615104 -14.145674018319193  -4.9699648157609095 -2.7230457552655798 -14.152754591803406  -4.9399178135043016 -2.6333258027640576 -14.163327761074926  -4.89987505314991 -2.5466337251518758 -14.177283828135046  -4.8499063480073499 -2.4641239040824656 -14.194449058598172  -4.7160140009950231 -2.2915109304187036 -14.239569272507467  -4.6258498859708288 -2.2031253418196375 -14.269451122708968  -4.5204198579446846 -2.1263411526846401 -14.303588156026272  -4.4017961922710471 -2.0649720675601553 -14.340804817269847  -4.2729737749050427 -2.0221054116085839 -14.379658145129921  -4.1376503669958851 -2.0000000000000018 -14.418746394877951  -3.9999999999997486 -2.0000000000000018 -14.456832294801028 
 0 8 0.446264009595772 6 1 8
1 -4.9999999999999947 -3 15.491933384829732 -1.2111523905001707e-16 0 -1 
2 0 -2 0 -0 1 0 1 0 0 0 0 -1 15
1 -3.9999999999997518 -2 15.491933384829732 -7.1664588082487339e-17 0 -1 
7 0 0  8 9 2  3.9999999999996998 -1.9999999999999458 -14.456832294801039  4.2208827241445723 -1.999999999999946 -14.395717184757384  4.4303842253453638 -2.0557578540375658 -14.333598580033025  4.6159600613129967 -2.1572296957853005 -14.274628400153402  4.7698034933485998 -2.2946976613165511 -14.222924636474996  4.8864396021299719 -2.4579740201150493 -14.18228354853211  4.9632363789856129 -2.6367346430737744 -14.15513389013457  4.9999999999996962 -2.8206443618657335 -14.142135623731054  4.9999999999996962 -2.9999999999999463 -14.142135623731054 
 0 9 1 9
1 3.9999999999997371 -2 15.491933384829752 1.4332917616497449e-17 0 -1 
1 5.0000000000000009 0 -14.142135623730949 -0 1 -0 
1 5.0000000000000044 -3 15.49193338482975 -1.2111523905001707e-16 0 -1 
2 0 -4.5003000000000002 0 0 -1 0 1 0 0 0 0 1 15
7 0 0  7 26 5  5.0000000000000009 -4.5003000000000002 -14.142135623730951  5.0000000000000009 -4.7334128312951602 -14.142135623730951  5.0000000000000009 -4.9665699405385499 -14.122921150484448  5.0000000000000009 -5.1978022032407321 -14.084480130200278  5.0000000000000009 -5.4252464309368875 -14.027125266451044  5.0000000000000009 -5.6471362139825452 -13.951418896702151  5.0000000000000009 -5.8618056323198848 -13.858156504862905  5.0000000000000009 -6.1595221960368587 -13.699469517117191  5.0000000000000009 -6.2496044677971545 -13.647246850656256  5.0000000000000009 -6.3378206153118644 -13.591831531956384  5.0000000000000009 -6.4240471093453069 -13.533321123849325  5.0000000000000009 -6.5081686544701185 -13.471819559366034  5.0000000000000009 -6.5900779179275792 -13.407436590583695  5.0000000000000009 -6.7944023414912067 -13.235065845902083  5.0000000000000009 -6.9134561165287423 -13.123048638999114  5.0000000000000009 -7.0264521461042655 -13.004680013103442  5.0000000000000009 -7.1330644843553443 -12.880424794825405  5.0000000000000009 -7.2330211945961693 -12.750763430734054  5.0000000000000009 -7.326099866860349 -12.616187177045131  5.0000000000000009 -7.5794463946982358 -12.206837248490517  5.0000000000000009 -7.7200765268630498 -11.919768954172884  5.0000000000000009 -7.8327333920546405 -11.619623688415706  5.0000000000000009 -7.9168909958436497 -11.309953673112599  5.0000000000000018 -7.9725165429557965 -10.994131277808505  5.0000000000000018 -8 -10.675331374571378  5.0000000000000018 -8 -10.356490722730346 
 0 8 0.28540215517567802 6 0.41267054686887428 6 0.61209699934403528 6 1 8
1 15 0 -3.67394039744206e-15 0 -1 0 
2 0 -4.5003000000000002 0 0 -1 0 1 0 -2.4492935982947064e-16 2.4492935982947064e-16 0 1 15
1 5.0000000000000044 0 14.142135623730949 -0 1 -0 
7 0 0  7 26 5  5.0000000000000044 -4.5003000000000002 14.142135623730951  5.0000000000000044 -4.7334128313065724 14.142135623730951  5.0000000000000044 -4.9665699405616932 14.122921150482604  5.0000000000000044 -5.1978022032749074 14.084480130194535  5.0000000000000044 -5.4252464309816482 14.027125266439683  5.0000000000000044 -5.6471362140373138 13.951418896683556  5.0000000000000044 -5.8618056323834082 13.858156504835307  5.0000000000000044 -6.1595221961069075 13.699469517077056  5.0000000000000044 -6.2496044678661118 13.647246850613918  5.0000000000000044 -6.3378206153796413 13.591831531911893  5.0000000000000044 -6.4240471094118252 13.533321123802708  5.0000000000000044 -6.5081686545353179 13.47181955931736  5.0000000000000044 -6.5900779179914055 13.407436590533017  5.0000000000000044 -6.7944023415514785 13.235065845846272  5.0000000000000044 -6.9134561165864783 13.123048638940496  5.0000000000000044 -7.0264521461594871 13.004680013041984  5.0000000000000044 -7.1330644844080453 12.88042479476114  5.0000000000000044 -7.2330211946461525 12.750763430667256  5.0000000000000044 -7.3260998669073487 12.61618717697614  5.0000000000000044 -7.5794463947297164 12.206837248426126  5.0000000000000044 -7.7200765268848812 11.919768954114467  5.0000000000000044 -7.8327333920667153 11.61962368837245  5.0000000000000044 -7.9168909958502116 11.309953673073636  5.0000000000000036 -7.9725165429578215 10.994131277786174  5.0000000000000036 -8 10.675331374559029  5.0000000000000036 -8 10.356490722730342 
 0 8 0.28540215518985612 6 0.41267054688328081 6 0.61209699935905204 6 1 8
7 0 0  8 9 2  3.9999999999997233 -1.9999999999999978 14.456832294801041  4.2208827241444844 -1.9999999999999978 14.395717184757418  4.4303842253453531 -2.0557578540374766 14.333598580033073  4.6159600613135421 -2.1572296957858095 14.274628400153112  4.7698034933478146 -2.2946976613159151 14.222924636475428  4.8864396021305598 -2.4579740201156355 14.182283548531814  4.9632363789854868 -2.6367346430736212 14.155133890134648  4.999999999999722 -2.8206443618658144 14.142135623731054  4.999999999999722 -2.9999999999999969 14.142135623731054 
 0 9 1 9
2 0 -2 0 -0 1 0 1 0 0 0 0 -1 15
7 0 0  7 14 3  -4.9999999999997504 -3 14.142135623731038  -4.9999999999997504 -2.9073809748256427 14.142135623731038  -4.9899919891167537 -2.8147332860614935 14.145674018319204  -4.9699648157609033 -2.7230457552655571 14.152754591803401  -4.9399178135043016 -2.6333258027640669 14.163327761074919  -4.8998750531499136 -2.5466337251518953 14.17728382813506  -4.8499063480073374 -2.4641239040824465 14.19444905859817  -4.7160140009950036 -2.2915109304186752 14.23956927250747  -4.6258498859708572 -2.2031253418196806 14.269451122709002  -4.5204198579445949 -2.1263411526845433 14.303588156026214  -4.4017961922711377 -2.0649720675602508 14.340804817269898  -4.2729737749050303 -2.0221054116085426 14.379658145129897  -4.1376503669958531 -2 14.418746394877962  -3.9999999999997504 -2 14.45683229480103 
 0 8 0.44626400959564932 6 1 8
1 -4.9999999999999947 -8 11.000000000000002 1.2111523905001707e-16 -0 1 
2 0 -8 0 0 -1 0 1 0 0 0 0 1 11.500299999999999
1 5.0000000000000018 -8 -11 -1.2111523905001707e-16 0 -1 
2 0 -8 0 0 -1 0 1 0 0 0 0 1 11.500299999999999
2 0 -8 0 0 -1 0 1 0 -2.4492935982947064e-16 2.4492935982947064e-16 0 1 11.500299999999999
Polygon3D 0
PolygonOnTriangulations 0
Surfaces 19
10 3.1415926535897944 9.4247779607693811 0 6.2831853071795862
5 0 -4.5003000000000002 0 0 -1 -0 1 0 0 0 -0 1 11.500299999999999 4.4996999999999998
1 -1.0255800994045676e-15 -9 1.3980152392638798e-15 -0 -1 -0 0 0 -1 1 -0 0 
1 4 -9 -22 1 0 -1.2111523905001707e-16 1.2111523905001707e-16 0 1 0 -1 0 
2 0 0 0 -0 1 -0 1 0 0 -0 -0 1 16
1 3.142785177400443e-15 -3 0 -0 -1 -0 0 0 -1 1 -0 0 
1 -3.9999999999999938 -9 22 -1 0 1.2111523905001707e-16 -1.2111523905001707e-16 0 -1 -0 -1 0 
5 0 -4.5003000000000002 0 0 -1 -0 1 0 0 0 -0 1 11.500299999999999 4.4996999999999998
1 -1.0255800994045676e-15 0 1.3980152392638798e-15 -0 -1 -0 0 0 -1 1 -0 0 
1 -1.0255800994045676e-15 -9 1.3980152392638798e-15 -0 -1 -0 0 0 -1 1 -0 0 
2 0 0 0 -0 1 -0 1 0 0 -0 -0 1 15
5 0 -4.5003000000000002 0 0 -1 -0 1 0 0 0 -0 1 11.500299999999999 3.4996999999999998
1 -4.9999999999999938 -9 22 -1 0 1.2111523905001707e-16 -1.2111523905001707e-16 0 -1 -0 -1 0 
10 1.5707963267948966 3.1415926535897931 0 30.9838667696595
2 -3.9999999999997518 -3 15.491933384829732 -7.9563675739455041e-33 -7.1664588082487339e-17 -1 -1.1102230246251565e-16 -1 7.1664588082487339e-17 -1 1.1102230246251565e-16 0 1
1 3.142785177400443e-15 -2 0 -0 -1 -0 0 0 -1 1 -0 0 
10 1.5707963267948966 3.1415926535897931 0 30.9838667696595
2 3.9999999999997371 -2.9999999999999996 15.491933384829752 -1.7763568393997754e-15 1.7906897570162732e-15 -1 -1 1.1102230246251565e-16 1.7763568393997756e-15 1.1102230246251568e-16 1 1.7906897570162728e-15 1
1 5 -9 -22 1 0 -1.2111523905001707e-16 1.2111523905001707e-16 0 1 0 -1 0 
5 0 -4.5003000000000002 0 0 -1 -0 1 0 0 0 -0 1 11.500299999999999 3.4996999999999998
1 -1.0255800994045676e-15 -8 1.3980152392638798e-15 -0 -1 -0 0 0 -1 1 -0 0 
1 -1.0255800994045676e-15 -8 1.3980152392638798e-15 -0 -1 -0 0 0 -1 1 -0 0 
Triangulations 0

TShapes 125
Ve
1e-07
11.5003 -9 0
0 0

0101101
*
Ve
1.000001e-06
3.99999999999968 -9 10.7822493056878
0 0

0101101
*
Ed
 1e-07 1 1 0
1  1 0 0 1.21555459561598
2  1 1 0 0 1.21555459561598
2  2 2 0 0 1.21555459561598
0

0101000
+125 0 -124 0 *
Ve
1.000001e-06
3.99999999999967 -9 -10.7822493056878
0 0

0101101
*
Ed
 1e-07 1 1 0
1  2 0 5.0676307115636 6.28318530717959
2  3 1 0 5.0676307115636 6.28318530717959
2  4 2 0 5.0676307115636 6.28318530717959
0

0101000
+122 0 -125 0 *
Ve
1.0000000081811e-06
4 -4.5003 -15.4919333848297
0 0

0101101
*
Ed
 1.00000000640475e-06 1 1 0
1  3 0 0 1
2  5 1 0 0 1
2  6 3 0 0 1
0

0101000
+120 0 -122 0 *
Ve
1.00000015280799e-07
16 -4.5003 0
0 0

0101101
*
Ed
 1.00000015280799e-07 1 1 0
1  4 0 4.96506923552677 6.28318530717959
2  7 1 0 4.96506923552677 6.28318530717959
2  8 4 0 4.96506923552677 6.28318530717959
0

0101000
+120 0 -118 0 *
Ve
1.0000000081811e-06
4.00000000000001 -4.5003 15.4919333848297
0 0

0101101
*
Ed
 1.00000003552714e-07 1 1 0
1  5 0 0 1.31811607165282
2  9 1 0 0 1.31811607165282
2  10 4 0 0 1.31811607165282
0

0101000
+118 0 -116 0 *
Ed
 1.00000000640475e-06 1 1 0
1  6 0 0 1
2  11 1 0 0 1
2  12 3 0 0 1
0

0101000
+116 0 -124 0 *
Wi

0101100
-123 0 -121 0 -119 0 +117 0 +115 0 +114 0 *
Fa
0  1e-07 1 0

0101000
+113 0 *
Ve
1.50000251193204e-07
-3.99999999999975 -3 15.4919333848297
0 0

0101101
*
Ve
1.50000280609567e-07
3.99999999999974 -3 15.4919333848298
0 0

0101101
*
Ed
 1.5e-07 1 1 0
1  7 0 4.45970872524263 4.96506923552675
2  13 4 0 4.45970872524263 4.96506923552675
2  14 5 0 4.45970872524263 4.96506923552675
0

0101000
+111 0 -110 0 *
Ve
1.00000000778911e-06
-3.99999999999999 -4.5003 15.4919333848297
0 0

0101101
*
Ed
 1e-07 1 1 0
1  8 0 0 1.5003
2  15 4 0 0 1.5003
2  16 6 0 0 1.5003
0

0101000
+108 0 -111 0 *
Ve
1.00000000732411e-06
-4.00000000000001 -4.5003 -15.4919333848297
0 0

0101101
*
Ed
 1.00000071054274e-07 1 1 0
1  9 0 1.82347658193697 4.45970872524261
2  17 4 0 1.82347658193697 4.45970872524261
2  18 7 0 1.82347658193697 4.45970872524261
0

0101000
+108 0 -106 0 *
Ve
1.50000252481803e-07
-3.99999999999975 -3 -15.4919333848297
0 0

0101101
*
Ed
 1e-07 1 1 0
1  10 0 0 1.5003
2  19 4 0 0 1.5003
2  20 6 0 0 1.5003
0

0101000
+104 0 -106 0 *
Ve
1.50000276804406e-07
3.99999999999974 -3 -15.4919333848298
0 0

0101101
*
Ed
 1.5e-07 1 1 0
1  11 0 1.31811607165284 1.82347658193696
2  21 4 0 1.31811607165284 1.82347658193696
2  22 5 0 1.31811607165284 1.82347658193696
0

0101000
+102 0 -104 0 *
Ed
 1e-07 1 1 0
1  12 0 0 1.5003
2  23 4 0 0 1.5003
2  24 3 0 0 1.5003
0

0101000
+102 0 -120 0 *
Ve
2.00001e-07
16 0 0
0 0

0101101
*
Ed
 1e-07 1 1 0
1  13 0 0 4.5003
3  25 26C0 4 0 0 4.5003
0

0101000
+99 0 -118 0 *
Ed
 1e-07 1 1 0
1  14 0 0 6.28318530717959
2  27 4 0 0 6.28318530717959
2  28 8 0 0 6.28318530717959
0

0101000
+99 0 -99 0 *
Ed
 1e-07 1 1 0
1  15 0 0 1.5003
2  29 4 0 0 1.5003
2  30 3 0 0 1.5003
0

0101000
+116 0 -110 0 *
Wi

0101100
-109 0 -107 0 +105 0 -103 0 -101 0 +100 0 +117 0 -98 0 -97 0 +98 0 
+115 0 +96 0 *
Fa
0  1e-07 4 0

0101000
+95 0 *
Ve
1.000001e-06
-4.00000000000023 -9 10.7822493056874
0 0

0101101
*
Ed
 1.00000000595808e-06 1 1 0
1  16 0 0 1
2  31 7 0 0 1
2  32 6 0 0 1
0

0101000
+108 0 -93 0 *
Ve
1.000001e-06
-4.00000000000024 -9 -10.7822493056874
0 0

0101101
*
Ed
 1e-07 1 1 0
1  17 0 1.92603805797387 4.35714724920572
2  33 7 0 1.92603805797387 4.35714724920572
2  34 9 0 1.92603805797387 4.35714724920572
4 G1 7 0 9 0
0

0101000
+93 0 -91 0 *
Ed
 1.00000000397205e-06 1 1 0
1  18 0 0 1
2  35 7 0 0 1
2  36 6 0 0 1
0

0101000
+106 0 -91 0 *
Wi

0101100
-92 0 -90 0 +89 0 +105 0 *
Fa
0  1e-07 7 0

0101000
+88 0 *
Ed
 1e-07 1 1 0
1  19 0 11.2177506943126 32.7822493056874
2  37 9 0 11.2177506943126 32.7822493056874
2  38 6 0 11.2177506943126 32.7822493056874
0

0101000
+93 0 -91 0 *
Wi

0101100
-86 0 +90 0 *
Fa
0  1e-07 9 0

0101000
+85 0 *
Ed
 1e-07 1 1 0
1  20 0 0 30.9838667696595
2  39 6 0 0 30.9838667696595
2  40 5 0 0 30.9838667696595
0

0101000
+111 0 -104 0 *
Wi

0101100
+107 0 +83 0 +103 0 +89 0 -86 0 -92 0 *
Fa
0  1e-07 6 0

0101000
+82 0 *
Ed
 1e-07 1 1 0
1  21 0 0 30.9838667696595
2  41 5 0 0 30.9838667696595
2  42 3 0 0 30.9838667696595
0

0101000
+110 0 -102 0 *
Wi

0101100
-101 0 -80 0 -109 0 +83 0 *
Fa
0  1e-07 5 0

0101000
+79 0 *
Ed
 1e-07 1 1 0
1  22 0 11.2177506943122 32.7822493056878
2  43 3 0 11.2177506943122 32.7822493056878
2  44 2 0 11.2177506943122 32.7822493056878
0

0101000
+122 0 -124 0 *
Wi

0101100
-100 0 -80 0 -96 0 +114 0 -77 0 -119 0 *
Fa
0  1e-07 3 0

0101000
+76 0 *
Wi

0101100
+121 0 -77 0 +123 0 *
Fa
0  1e-07 2 0

0101000
+74 0 *
Wi

0101100
+97 0 *
Ve
2.00001e-07
15 0 -3.67394039744206e-15
0 0

0101101
*
Ed
 1e-07 1 1 0
2  27 10 0 0 6.28318530717959
1  23 0 0 6.28318530717959
0

0101000
+71 0 -71 0 *
Wi

0101100
-70 0 *
Fa
0  1e-07 8 0

0101000
+72 0 +69 0 *
Ve
1.10000007356642e-06
-4.99999999999999 -4.5003 14.142135623731
-4.5003 1 25 0
-4.5003 2 46 10 0
-4.5003 2 47 12 0
1.91063323624902 2 45 10 0
1.91063323624902 1 24 0
1.91063323624902 2 18 11 0
0 1 26 0
0 2 48 12 0
0 2 49 11 0
0 0

0101101
*
Ve
1.10000007105427e-06
-5 -4.5003 -14.142135623731
-4.5003 1 27 0
-4.5003 2 50 10 0
-4.5003 2 51 12 0
4.37255207093057 2 45 10 0
4.37255207093057 1 24 0
4.37255207093057 2 18 11 0
0 1 28 0
0 2 52 12 0
0 2 53 11 0
0 0

0101101
*
Ed
 1.00000071054274e-07 1 1 0
2  45 10 0 1.91063323624902 4.37255207093057
1  24 0 1.91063323624902 4.37255207093057
2  18 11 0 1.91063323624902 4.37255207093057
4 G1 10 0 11 0
0

0101000
+67 0 -66 0 *
Ve
1.00000117446546e-06
-4.99999999999992 -3 -14.142135623731
-3 1 27 0
-3 2 50 10 0
-3 2 51 12 0
0 1 29 0
0 2 54 10 0
0 2 55 13 0
29.6340690085607 2 39 12 0
29.6340690085607 1 30 0
29.6340690085607 2 56 13 0
0 0

0101101
*
Ed
 1e-07 1 1 0
1  27 0 -4.5003 -3
2  50 10 0 -4.5003 -3
2  51 12 0 -4.5003 -3
0

0101000
+66 0 -64 0 *
Ve
1.00000100307674e-06
-3.99999999999975 -2 -14.456832294801
1 1 29 0
1 2 54 10 0
1 2 55 13 0
1.84072912262828 1 31 0
1.84072912262828 2 57 10 0
1.84072912262828 2 58 14 0
29.9487656796308 2 40 14 0
29.9487656796308 1 32 0
29.9487656796308 2 59 13 0
0 0

0101101
*
Ed
 1e-07 1 1 0
1  29 0 0 1
2  54 10 0 0 1
2  55 13 0 0 1
0

0101000
+64 0 -62 0 *
Ve
1.00000105084046e-06
3.99999999999972 -1.99999999999998 -14.456832294801
1.30086353096151 1 31 0
1.30086353096151 2 57 10 0
1.30086353096151 2 58 14 0
0 1 33 0
0 2 60 10 0
0 2 61 15 0
29.9487656796308 2 41 14 0
29.9487656796308 1 34 0
29.9487656796308 2 62 15 0
0 0

0101101
*
Ed
 1e-07 1 1 0
1  31 0 1.30086353096151 1.84072912262828
2  57 10 0 1.30086353096151 1.84072912262828
2  58 14 0 1.30086353096151 1.84072912262828
0

0101000
+60 0 -62 0 *
Ve
1.00000122479908e-06
4.9999999999999 -2.99999999999998 -14.142135623731
-3 1 35 0
-3 2 63 10 0
-3 2 64 16 0
1 1 33 0
1 2 60 10 0
1 2 61 15 0
29.6340690085607 2 42 16 0
29.6340690085607 1 36 0
29.6340690085607 2 65 15 0
0 0

0101101
*
Ed
 1e-07 1 1 0
1  33 0 0 1
2  60 10 0 0 1
2  61 15 0 0 1
0

0101000
+60 0 -58 0 *
Ve
1.1000000152808e-06
5 -4.5003 -14.142135623731
-4.5003 1 35 0
-4.5003 2 63 10 0
-4.5003 2 64 16 0
5.05222588983881 2 66 10 0
5.05222588983881 1 37 0
5.05222588983881 2 67 17 0
0 1 38 0
0 2 68 16 0
0 2 69 17 0
0 0

0101101
*
Ed
 1e-07 1 1 0
1  35 0 -4.5003 -3
2  63 10 0 -4.5003 -3
2  64 16 0 -4.5003 -3
0

0101000
+56 0 -58 0 *
Ve
1.00000015280799e-07
15 -4.5003 4.96167647845655e-14
0 0

0101101
*
Ed
 1.00000015280799e-07 1 1 0
2  66 10 0 5.05222588983881 6.28318530717959
1  37 0 5.05222588983881 6.28318530717959
2  67 17 0 5.05222588983881 6.28318530717959
0

0101000
+56 0 -54 0 *
Ed
 1e-07 1 1 0
1  39 0 0 4.5003
3  25 26C0 10 0 0 4.5003
0

0101000
+71 0 -54 0 *
Ve
1.10000002295082e-06
5 -4.5003 14.142135623731
-4.5003 1 41 0
-4.5003 2 72 10 0
-4.5003 2 73 16 0
1.23095941734078 2 70 10 0
1.23095941734078 1 40 0
1.23095941734078 2 71 17 0
0 1 42 0
0 2 74 16 0
0 2 75 17 0
0 0

0101101
*
Ed
 1.00000003552714e-07 1 1 0
2  70 10 0 0 1.23095941734078
1  40 0 0 1.23095941734078
2  71 17 0 0 1.23095941734078
0

0101000
+54 0 -51 0 *
Ve
1.00000119315635e-06
4.99999999999991 -3 14.142135623731
-3 1 41 0
-3 2 72 10 0
-3 2 73 16 0
1 1 43 0
1 2 76 10 0
1 2 77 15 0
1.3497977610988 2 42 16 0
1.3497977610988 1 36 0
1.3497977610988 2 65 15 0
0 0

0101101
*
Ed
 1e-07 1 1 0
1  41 0 -4.5003 -3
2  72 10 0 -4.5003 -3
2  73 16 0 -4.5003 -3
0

0101000
+51 0 -49 0 *
Ve
1.00000101433693e-06
3.99999999999973 -2 14.456832294801
4.98232177621807 1 44 0
4.98232177621807 2 78 10 0
4.98232177621807 2 79 14 0
0 1 43 0
0 2 76 10 0
0 2 77 15 0
1.03510109002871 2 41 14 0
1.03510109002871 1 34 0
1.03510109002871 2 62 15 0
0 0

0101101
*
Ed
 1e-07 1 1 0
1  43 0 0 1
2  76 10 0 0 1
2  77 15 0 0 1
0

0101000
+47 0 -49 0 *
Ve
1.00000101378824e-06
-3.99999999999976 -2 14.456832294801
1 1 45 0
1 2 80 10 0
1 2 81 13 0
4.4424561845513 1 44 0
4.4424561845513 2 78 10 0
4.4424561845513 2 79 14 0
1.0351010900287 2 40 14 0
1.0351010900287 1 32 0
1.0351010900287 2 59 13 0
0 0

0101101
*
Ed
 1e-07 1 1 0
1  44 0 4.4424561845513 4.98232177621807
2  78 10 0 4.4424561845513 4.98232177621807
2  79 14 0 4.4424561845513 4.98232177621807
0

0101000
+45 0 -47 0 *
Ve
1.00000117278438e-06
-4.99999999999991 -3 14.142135623731
-3 1 25 0
-3 2 46 10 0
-3 2 47 12 0
0 1 45 0
0 2 80 10 0
0 2 81 13 0
1.34979776109878 2 39 12 0
1.34979776109878 1 30 0
1.34979776109878 2 56 13 0
0 0

0101101
*
Ed
 1e-07 1 1 0
1  45 0 0 1
2  80 10 0 0 1
2  81 13 0 0 1
0

0101000
+43 0 -45 0 *
Ed
 1e-07 1 1 0
1  25 0 -4.5003 -3
2  46 10 0 -4.5003 -3
2  47 12 0 -4.5003 -3
0

0101000
+67 0 -43 0 *
Wi

0101100
+65 0 +63 0 +61 0 -59 0 +57 0 -55 0 +53 0 -52 0 -70 0 +52 0 
+50 0 +48 0 -46 0 -44 0 -42 0 -41 0 *
Fa
0  1e-07 10 0

0101000
+40 0 *
Ed
 1e-07 1 1 0
2  40 14 0 1.0351010900287 29.9487656796308
1  32 0 1.0351010900287 29.9487656796308
2  59 13 0 1.0351010900287 29.9487656796308
4 G1 14 0 13 0
0

0101000
+45 0 -62 0 *
Ed
 1e-07 1 1 0
2  41 14 0 1.03510109002871 29.9487656796308
1  34 0 1.03510109002871 29.9487656796308
2  62 15 0 1.03510109002871 29.9487656796308
4 G1 14 0 15 0
0

0101000
+47 0 -60 0 *
Wi

0101100
+38 0 -59 0 -37 0 -44 0 *
Fa
0  1e-07 14 0

0101000
+36 0 *
Ed
 1e-07 1 1 0
2  39 12 0 1.34979776109878 29.6340690085607
1  30 0 1.34979776109878 29.6340690085607
2  56 13 0 1.34979776109878 29.6340690085607
4 G1 13 0 12 0
0

0101000
+43 0 -64 0 *
Wi

0101100
-34 0 +42 0 +38 0 -61 0 *
Fa
0  1e-07 13 0

0101000
+33 0 *
Ve
1.1000000050243e-06
-5 -8 10.3564907227304
-0.64350927726964 1 46 0
-0.64350927726964 2 82 12 0
-0.64350927726964 2 83 18 0
0.999999999999998 1 26 0
0.999999999999998 2 48 12 0
0.999999999999998 2 49 11 0
2.02058059268481 2 34 18 0
2.02058059268481 1 47 0
2.02058059268481 2 33 11 0
0 0

0101101
*
Ed
 1e-06 1 1 0
1  26 0 0 0.999999999999998
2  48 12 0 0 0.999999999999998
2  49 11 0 0 0.999999999999998
0

0101000
+67 0 -31 0 *
Ve
1.1e-06
-5 -8 -10.3564907227304
-21.3564907227304 1 46 0
-21.3564907227304 2 82 12 0
-21.3564907227304 2 83 18 0
0.999999999999998 1 28 0
0.999999999999998 2 52 12 0
0.999999999999998 2 53 11 0
4.26260471449478 2 34 18 0
4.26260471449478 1 47 0
4.26260471449478 2 33 11 0
0 0

0101101
*
Ed
 1e-06 1 1 0
1  28 0 0 0.999999999999998
2  52 12 0 0 0.999999999999998
2  53 11 0 0 0.999999999999998
0

0101000
+66 0 -29 0 *
Ed
 1e-07 1 1 0
1  46 0 -21.3564907227304 -0.64350927726964
2  82 12 0 -21.3564907227304 -0.64350927726964
2  83 18 0 -21.3564907227304 -0.64350927726964
0

0101000
+29 0 -31 0 *
Wi

0101100
-30 0 +41 0 +34 0 -63 0 +28 0 +27 0 *
Fa
0  1e-07 12 0

0101000
+26 0 *
Ve
1.10000000716072e-06
5 -8 -10.3564907227304
-0.643509277269644 1 48 0
-0.643509277269644 2 84 16 0
-0.643509277269644 2 85 19 0
0.999999999999998 1 38 0
0.999999999999998 2 68 16 0
0.999999999999998 2 69 17 0
5.1621732462746 2 4 19 0
5.1621732462746 1 49 0
5.1621732462746 2 86 17 0
0 0

0101101
*
Ed
 1e-06 1 1 0
1  38 0 0 0.999999999999998
2  68 16 0 0 0.999999999999998
2  69 17 0 0 0.999999999999998
0

0101000
+56 0 -24 0 *
Ed
 1e-07 1 1 0
2  42 16 0 1.3497977610988 29.6340690085607
1  36 0 1.3497977610988 29.6340690085607
2  65 15 0 1.3497977610988 29.6340690085607
4 G1 16 0 15 0
0

0101000
+49 0 -58 0 *
Ve
1.10000000478299e-06
5 -8 10.3564907227304
-21.3564907227304 1 48 0
-21.3564907227304 2 84 16 0
-21.3564907227304 2 85 19 0
0.999999999999998 1 42 0
0.999999999999998 2 74 16 0
0.999999999999998 2 75 17 0
1.12101206090499 2 2 19 0
1.12101206090499 1 50 0
1.12101206090499 2 87 17 0
0 0

0101101
*
Ed
 1e-06 1 1 0
1  42 0 0 0.999999999999998
2  74 16 0 0 0.999999999999998
2  75 17 0 0 0.999999999999998
0

0101000
+51 0 -21 0 *
Ed
 1e-07 1 1 0
1  48 0 -21.3564907227304 -0.643509277269644
2  84 16 0 -21.3564907227304 -0.643509277269644
2  85 19 0 -21.3564907227304 -0.643509277269644
0

0101000
+21 0 -24 0 *
Wi

0101100
-23 0 +55 0 -22 0 -48 0 +20 0 +19 0 *
Fa
0  1e-07 16 0

0101000
+18 0 *
Ve
1e-07
11.5003 -8 3.80405120034625e-14
0 0

0101101
*
Ed
 1e-07 1 1 0
2  4 19 0 5.1621732462746 6.28318530717959
1  49 0 5.1621732462746 6.28318530717959
2  86 17 0 5.1621732462746 6.28318530717959
0

0101000
+24 0 -16 0 *
Ed
 1e-07 1 1 0
2  2 19 0 0 1.12101206090499
1  50 0 0 1.12101206090499
2  87 17 0 0 1.12101206090499
0

0101000
+16 0 -21 0 *
Wi

0101100
+15 0 +14 0 +19 0 *
Fa
0  1e-07 19 0

0101000
+13 0 *
Ed
 1e-07 1 1 0
2  34 18 0 2.02058059268481 4.26260471449478
1  47 0 2.02058059268481 4.26260471449478
2  33 11 0 2.02058059268481 4.26260471449478
4 G1 18 0 11 0
0

0101000
+31 0 -29 0 *
Wi

0101100
+11 0 +27 0 *
Fa
0  1e-07 18 0

0101000
+10 0 *
Wi

0101100
-37 0 +46 0 +22 0 -57 0 *
Fa
0  1e-07 15 0

0101000
+8 0 *
Wi

0101100
-11 0 -30 0 +65 0 +28 0 *
Fa
0  1e-07 11 0

0101000
+6 0 *
Wi

0101100
-14 0 -15 0 -23 0 +53 0 +50 0 +20 0 *
Fa
0  1e-07 17 0

0101000
+4 0 *
Sh

0101100
+112 0 -94 0 +87 0 +84 0 -81 0 +78 0 -75 0 +73 0 -68 0 +39 0 
-35 0 +32 0 +25 0 +17 0 -12 0 -9 0 +7 0 -5 0 -3 0 *
So

1100100
+2 0 *

+1 0 