
CASCADE Topology V3, (c) Open Cascade
Locations 0
Curve2ds 158
1 30 -30 0 1 
1 30 -30 0 1 
1 30 30 -1 0 
1 30 30 -1 0 
1 -30 30 0 -1 
1 -30 30 0 -1 
1 -30 -30 1 0 
1 -30 -30 1 0 
1 0 0 0 -1 
1 6.2831853071795862 0 0 -1 
1 0 0 1 0 
2 20 -20 0 1 -1 0 2
1 0 -20 1 0 
2 20 -20 0 1 -1 0 2
1 0 0 0 -1 
1 6.2831853071795862 0 0 -1 
1 0 0 1 0 
2 10 -20 0 1 -1 0 2
1 0 -20 1 0 
2 10 -20 0 1 -1 0 2
1 0 0 0 -1 
1 6.2831853071795862 0 0 -1 
1 0 0 1 0 
2 0 -20 0 1 -1 0 2
1 0 -20 1 0 
2 0 -20 0 1 -1 0 2
1 0 0 0 -1 
1 6.2831853071795862 0 0 -1 
1 0 0 1 0 
2 -10 -20 0 1 -1 0 2
1 0 -20 1 0 
2 -10 -20 0 1 -1 0 2
1 0 0 0 -1 
1 6.2831853071795862 0 0 -1 
1 0 0 1 0 
2 -20 -20 0 1 -1 0 2
1 0 -20 1 0 
2 -20 -20 0 1 -1 0 2
1 0 0 0 -1 
1 6.2831853071795862 0 0 -1 
1 0 0 1 0 
2 20 -10 0 1 -1 0 2
1 0 -20 1 0 
2 20 -10 0 1 -1 0 2
1 0 0 0 -1 
1 6.2831853071795862 0 0 -1 
1 0 0 1 0 
2 10 -10 0 1 -1 0 2
1 0 -20 1 0 
2 10 -10 0 1 -1 0 2
1 0 0 0 -1 
1 6.2831853071795862 0 0 -1 
1 0 0 1 0 
2 0 -10 0 1 -1 0 2
1 0 -20 1 0 
2 0 -10 0 1 -1 0 2
1 0 0 0 -1 
1 6.2831853071795862 0 0 -1 
1 0 0 1 0 
2 -10 -10 0 1 -1 0 2
1 0 -20 1 0 
2 -10 -10 0 1 -1 0 2
1 0 0 0 -1 
1 6.2831853071795862 0 0 -1 
1 0 0 1 0 
2 -20 -10 0 1 -1 0 2
1 0 -20 1 0 
2 -20 -10 0 1 -1 0 2
1 0 0 0 -1 
1 6.2831853071795862 0 0 -1 
1 0 0 1 0 
2 20 0 0 1 -1 0 2
1 0 -20 1 0 
2 20 0 0 1 -1 0 2
1 0 0 0 -1 
1 6.2831853071795862 0 0 -1 
1 0 0 1 0 
2 10 0 0 1 -1 0 2
1 0 -20 1 0 
2 10 0 0 1 -1 0 2
1 0 0 0 -1 
1 6.2831853071795862 0 0 -1 
1 0 0 1 0 
2 0 0 0 1 -1 0 2
1 0 -20 1 0 
2 0 0 0 1 -1 0 2
1 0 0 0 -1 
1 6.2831853071795862 0 0 -1 
1 0 0 1 0 
2 -10 0 0 1 -1 0 2
1 0 -20 1 0 
2 -10 0 0 1 -1 0 2
1 0 0 0 -1 
1 6.2831853071795862 0 0 -1 
1 0 0 1 0 
2 -20 0 0 1 -1 0 2
1 0 -20 1 0 
2 -20 0 0 1 -1 0 2
1 0 0 0 -1 
1 6.2831853071795862 0 0 -1 
1 0 0 1 0 
2 20 10 0 1 -1 0 2
1 0 -20 1 0 
2 20 10 0 1 -1 0 2
1 0 0 0 -1 
1 6.2831853071795862 0 0 -1 
1 0 0 1 0 
2 10 10 0 1 -1 0 2
1 0 -20 1 0 
2 10 10 0 1 -1 0 2
1 0 0 0 -1 
1 6.2831853071795862 0 0 -1 
1 0 0 1 0 
2 0 10 0 1 -1 0 2
1 0 -20 1 0 
2 0 10 0 1 -1 0 2
1 0 0 0 -1 
1 6.2831853071795862 0 0 -1 
1 0 0 1 0 
2 -10 10 0 1 -1 0 2
1 0 -20 1 0 
2 -10 10 0 1 -1 0 2
1 0 0 0 -1 
1 6.2831853071795862 0 0 -1 
1 0 0 1 0 
2 -20 10 0 1 -1 0 2
1 0 -20 1 0 
2 -20 10 0 1 -1 0 2
1 0 0 0 -1 
1 6.2831853071795862 0 0 -1 
1 0 0 1 0 
2 20 20 0 1 -1 0 2
1 0 -20 1 0 
2 20 20 0 1 -1 0 2
1 0 0 0 -1 
1 6.2831853071795862 0 0 -1 
1 0 0 1 0 
2 10 20 0 1 -1 0 2
1 0 -20 1 0 
2 10 20 0 1 -1 0 2
1 0 0 0 -1 
1 6.2831853071795862 0 0 -1 
1 0 0 1 0 
2 0 20 0 1 -1 0 2
1 0 -20 1 0 
2 0 20 0 1 -1 0 2
1 0 0 0 -1 
1 6.2831853071795862 0 0 -1 
1 0 0 1 0 
2 -10 20 0 1 -1 0 2
1 0 -20 1 0 
2 -10 20 0 1 -1 0 2
1 0 0 0 -1 
1 6.2831853071795862 0 0 -1 
1 0 0 1 0 
2 -20 20 0 1 -1 0 2
1 0 -20 1 0 
2 -20 20 0 1 -1 0 2
Curves 87
1 1234 -4557 123 0 -1 0 
1 1294 -4557 123 0 -1 0 
1 1234 -4557 123 1 0 0 
1 1234 -4577 123 1 0 0 
1 1294 -4557 183 0 -1 0 
1 1294 -4557 123 0 0 1 
1 1294 -4577 123 0 0 1 
1 1234 -4557 183 0 -1 0 
1 1294 -4557 183 -1 0 0 
1 1294 -4577 183 -1 0 0 
1 1234 -4557 183 0 0 -1 
1 1234 -4577 183 0 0 -1 
1 1246 -4557 133 0 -1 0 
2 1244 -4557 133 0 -1 0 1 0 0 -0 0 1 2
2 1244 -4577 133 0 -1 0 1 0 0 -0 0 1 2
1 1246 -4557 143 0 -1 0 
2 1244 -4557 143 0 -1 0 1 0 0 -0 0 1 2
2 1244 -4577 143 0 -1 0 1 0 0 -0 0 1 2
1 1246 -4557 153 0 -1 0 
2 1244 -4557 153 0 -1 0 1 0 0 -0 0 1 2
2 1244 -4577 153 0 -1 0 1 0 0 -0 0 1 2
1 1246 -4557 163 0 -1 0 
2 1244 -4557 163 0 -1 0 1 0 0 -0 0 1 2
2 1244 -4577 163 0 -1 0 1 0 0 -0 0 1 2
1 1246 -4557 173 0 -1 0 
2 1244 -4557 173 0 -1 0 1 0 0 -0 0 1 2
2 1244 -4577 173 0 -1 0 1 0 0 -0 0 1 2
1 1256 -4557 133 0 -1 0 
2 1254 -4557 133 0 -1 0 1 0 0 -0 0 1 2
2 1254 -4577 133 0 -1 0 1 0 0 -0 0 1 2
1 1256 -4557 143 0 -1 0 
2 1254 -4557 143 0 -1 0 1 0 0 -0 0 1 2
2 1254 -4577 143 0 -1 0 1 0 0 -0 0 1 2
1 1256 -4557 153 0 -1 0 
2 1254 -4557 153 0 -1 0 1 0 0 -0 0 1 2
2 1254 -4577 153 0 -1 0 1 0 0 -0 0 1 2
1 1256 -4557 163 0 -1 0 
2 1254 -4557 163 0 -1 0 1 0 0 -0 0 1 2
2 1254 -4577 163 0 -1 0 1 0 0 -0 0 1 2
1 1256 -4557 173 0 -1 0 
2 1254 -4557 173 0 -1 0 1 0 0 -0 0 1 2
2 1254 -4577 173 0 -1 0 1 0 0 -0 0 1 2
1 1266 -4557 133 0 -1 0 
2 1264 -4557 133 0 -1 0 1 0 0 -0 0 1 2
2 1264 -4577 133 0 -1 0 1 0 0 -0 0 1 2
1 1266 -4557 143 0 -1 0 
2 1264 -4557 143 0 -1 0 1 0 0 -0 0 1 2
2 1264 -4577 143 0 -1 0 1 0 0 -0 0 1 2
1 1266 -4557 153 0 -1 0 
2 1264 -4557 153 0 -1 0 1 0 0 -0 0 1 2
2 1264 -4577 153 0 -1 0 1 0 0 -0 0 1 2
1 1266 -4557 163 0 -1 0 
2 1264 -4557 163 0 -1 0 1 0 0 -0 0 1 2
2 1264 -4577 163 0 -1 0 1 0 0 -0 0 1 2
1 1266 -4557 173 0 -1 0 
2 1264 -4557 173 0 -1 0 1 0 0 -0 0 1 2
2 1264 -4577 173 0 -1 0 1 0 0 -0 0 1 2
1 1276 -4557 133 0 -1 0 
2 1274 -4557 133 0 -1 0 1 0 0 -0 0 1 2
2 1274 -4577 133 0 -1 0 1 0 0 -0 0 1 2
1 1276 -4557 143 0 -1 0 
2 1274 -4557 143 0 -1 0 1 0 0 -0 0 1 2
2 1274 -4577 143 0 -1 0 1 0 0 -0 0 1 2
1 1276 -4557 153 0 -1 0 
2 1274 -4557 153 0 -1 0 1 0 0 -0 0 1 2
2 1274 -4577 153 0 -1 0 1 0 0 -0 0 1 2
1 1276 -4557 163 0 -1 0 
2 1274 -4557 163 0 -1 0 1 0 0 -0 0 1 2
2 1274 -4577 163 0 -1 0 1 0 0 -0 0 1 2
1 1276 -4557 173 0 -1 0 
2 1274 -4557 173 0 -1 0 1 0 0 -0 0 1 2
2 1274 -4577 173 0 -1 0 1 0 0 -0 0 1 2
1 1286 -4557 133 0 -1 0 
2 1284 -4557 133 0 -1 0 1 0 0 -0 0 1 2
2 1284 -4577 133 0 -1 0 1 0 0 -0 0 1 2
1 1286 -4557 143 0 -1 0 
2 1284 -4557 143 0 -1 0 1 0 0 -0 0 1 2
2 1284 -4577 143 0 -1 0 1 0 0 -0 0 1 2
1 1286 -4557 153 0 -1 0 
2 1284 -4557 153 0 -1 0 1 0 0 -0 0 1 2
2 1284 -4577 153 0 -1 0 1 0 0 -0 0 1 2
1 1286 -4557 163 0 -1 0 
2 1284 -4557 163 0 -1 0 1 0 0 -0 0 1 2
2 1284 -4577 163 0 -1 0 1 0 0 -0 0 1 2
1 1286 -4557 173 0 -1 0 
2 1284 -4557 173 0 -1 0 1 0 0 -0 0 1 2
2 1284 -4577 173 0 -1 0 1 0 0 -0 0 1 2
Polygon3D 0
PolygonOnTriangulations 0
Surfaces 31
1 1234 -4557 123 -0 0 1 1 0 0 0 1 -0 
1 1264 -4557 153 -0 -1 -0 0 0 -1 1 -0 0 
1 1264 -4577 153 -0 -1 -0 0 0 -1 1 -0 0 
1 1294 -4557 123 -1 0 0 0 0 1 0 1 -0 
1 1294 -4557 183 -0 -0 -1 -1 0 0 0 1 -0 
1 1234 -4557 183 1 0 0 0 0 -1 -0 1 0 
2 1244 -4557 133 -0 1 -0 1 0 0 -0 0 1 2
2 1244 -4557 143 -0 1 -0 1 0 0 -0 0 1 2
2 1244 -4557 153 -0 1 -0 1 0 0 -0 0 1 2
2 1244 -4557 163 -0 1 -0 1 0 0 -0 0 1 2
2 1244 -4557 173 -0 1 -0 1 0 0 -0 0 1 2
2 1254 -4557 133 -0 1 -0 1 0 0 -0 0 1 2
2 1254 -4557 143 -0 1 -0 1 0 0 -0 0 1 2
2 1254 -4557 153 -0 1 -0 1 0 0 -0 0 1 2
2 1254 -4557 163 -0 1 -0 1 0 0 -0 0 1 2
2 1254 -4557 173 -0 1 -0 1 0 0 -0 0 1 2
2 1264 -4557 133 -0 1 -0 1 0 0 -0 0 1 2
2 1264 -4557 143 -0 1 -0 1 0 0 -0 0 1 2
2 1264 -4557 153 -0 1 -0 1 0 0 -0 0 1 2
2 1264 -4557 163 -0 1 -0 1 0 0 -0 0 1 2
2 1264 -4557 173 -0 1 -0 1 0 0 -0 0 1 2
2 1274 -4557 133 -0 1 -0 1 0 0 -0 0 1 2
2 1274 -4557 143 -0 1 -0 1 0 0 -0 0 1 2
2 1274 -4557 153 -0 1 -0 1 0 0 -0 0 1 2
2 1274 -4557 163 -0 1 -0 1 0 0 -0 0 1 2
2 1274 -4557 173 -0 1 -0 1 0 0 -0 0 1 2
2 1284 -4557 133 -0 1 -0 1 0 0 -0 0 1 2
2 1284 -4557 143 -0 1 -0 1 0 0 -0 0 1 2
2 1284 -4557 153 -0 1 -0 1 0 0 -0 0 1 2
2 1284 -4557 163 -0 1 -0 1 0 0 -0 0 1 2
2 1284 -4557 173 -0 1 -0 1 0 0 -0 0 1 2
Triangulations 0

TShapes 259
Ve
1e-07
1234 -4557 123
0 0

0101101
*
Ve
1e-07
1234 -4577 123
0 0

0101101
*
Ed
 1e-07 1 1 0
1  1 0 0 20
0

0101000
+259 0 -258 0 *
Ve
1e-07
1294 -4557 123
0 0

0101101
*
Ve
1e-07
1294 -4577 123
0 0

0101101
*
Ed
 1e-07 1 1 0
1  2 0 0 20
0

0101000
+256 0 -255 0 *
Ed
 1e-07 1 1 0
1  3 0 0 60
2  1 2 0 0 60
0

0101000
+259 0 -256 0 *
Ed
 1e-07 1 1 0
1  4 0 0 60
2  2 3 0 0 60
0

0101000
+258 0 -255 0 *
Wi

0101100
+257 0 -254 0 -253 0 +252 0 *
Fa
0  1e-07 1 0

0101000
+251 0 *
Ve
1e-07
1294 -4557 183
0 0

0101101
*
Ve
1e-07
1294 -4577 183
0 0

0101101
*
Ed
 1e-07 1 1 0
1  5 0 0 20
0

0101000
+249 0 -248 0 *
Ed
 1e-07 1 1 0
1  6 0 0 60
2  3 2 0 0 60
0

0101000
+256 0 -249 0 *
Ed
 1e-07 1 1 0
1  7 0 0 60
2  4 3 0 0 60
0

0101000
+255 0 -248 0 *
Wi

0101100
+254 0 -247 0 -246 0 +245 0 *
Fa
0  1e-07 4 0

0101000
+244 0 *
Ve
1e-07
1234 -4557 183
0 0

0101101
*
Ve
1e-07
1234 -4577 183
0 0

0101101
*
Ed
 1e-07 1 1 0
1  8 0 0 20
0

0101000
+242 0 -241 0 *
Ed
 1e-07 1 1 0
1  9 0 0 60
2  5 2 0 0 60
0

0101000
+249 0 -242 0 *
Ed
 1e-07 1 1 0
1  10 0 0 60
2  6 3 0 0 60
0

0101000
+248 0 -241 0 *
Wi

0101100
+247 0 -240 0 -239 0 +238 0 *
Fa
0  1e-07 5 0

0101000
+237 0 *
Ed
 1e-07 1 1 0
1  11 0 0 60
2  7 2 0 0 60
0

0101000
+242 0 -259 0 *
Ed
 1e-07 1 1 0
1  12 0 0 60
2  8 3 0 0 60
0

0101000
+241 0 -258 0 *
Wi

0101100
+240 0 -257 0 -235 0 +234 0 *
Fa
0  1e-07 6 0

0101000
+233 0 *
Ve
1e-07
1246 -4557 133
0 0

0101101
*
Ve
1e-07
1246 -4577 133
0 0

0101101
*
Ed
 1e-07 1 1 0
1  13 0 0 20
3  9 10CN 7 0 0 20
0

0101000
+231 0 -230 0 *
Ed
 1e-07 1 1 0
1  14 0 0 6.28318530717959
2  11 7 0 0 6.28318530717959
2  12 2 0 0 6.28318530717959
0

0101000
+231 0 -231 0 *
Ed
 1e-07 1 1 0
1  15 0 0 6.28318530717959
2  13 7 0 0 6.28318530717959
2  14 3 0 0 6.28318530717959
0

0101000
+230 0 -230 0 *
Wi

0101100
+229 0 -229 0 -228 0 +227 0 *
Fa
0  1e-07 7 0

0101000
+226 0 *
Ve
1e-07
1246 -4557 143
0 0

0101101
*
Ve
1e-07
1246 -4577 143
0 0

0101101
*
Ed
 1e-07 1 1 0
1  16 0 0 20
3  15 16CN 8 0 0 20
0

0101000
+224 0 -223 0 *
Ed
 1e-07 1 1 0
1  17 0 0 6.28318530717959
2  17 8 0 0 6.28318530717959
2  18 2 0 0 6.28318530717959
0

0101000
+224 0 -224 0 *
Ed
 1e-07 1 1 0
1  18 0 0 6.28318530717959
2  19 8 0 0 6.28318530717959
2  20 3 0 0 6.28318530717959
0

0101000
+223 0 -223 0 *
Wi

0101100
+222 0 -222 0 -221 0 +220 0 *
Fa
0  1e-07 8 0

0101000
+219 0 *
Ve
1e-07
1246 -4557 153
0 0

0101101
*
Ve
1e-07
1246 -4577 153
0 0

0101101
*
Ed
 1e-07 1 1 0
1  19 0 0 20
3  21 22CN 9 0 0 20
0

0101000
+217 0 -216 0 *
Ed
 1e-07 1 1 0
1  20 0 0 6.28318530717959
2  23 9 0 0 6.28318530717959
2  24 2 0 0 6.28318530717959
0

0101000
+217 0 -217 0 *
Ed
 1e-07 1 1 0
1  21 0 0 6.28318530717959
2  25 9 0 0 6.28318530717959
2  26 3 0 0 6.28318530717959
0

0101000
+216 0 -216 0 *
Wi

0101100
+215 0 -215 0 -214 0 +213 0 *
Fa
0  1e-07 9 0

0101000
+212 0 *
Ve
1e-07
1246 -4557 163
0 0

0101101
*
Ve
1e-07
1246 -4577 163
0 0

0101101
*
Ed
 1e-07 1 1 0
1  22 0 0 20
3  27 28CN 10 0 0 20
0

0101000
+210 0 -209 0 *
Ed
 1e-07 1 1 0
1  23 0 0 6.28318530717959
2  29 10 0 0 6.28318530717959
2  30 2 0 0 6.28318530717959
0

0101000
+210 0 -210 0 *
Ed
 1e-07 1 1 0
1  24 0 0 6.28318530717959
2  31 10 0 0 6.28318530717959
2  32 3 0 0 6.28318530717959
0

0101000
+209 0 -209 0 *
Wi

0101100
+208 0 -208 0 -207 0 +206 0 *
Fa
0  1e-07 10 0

0101000
+205 0 *
Ve
1e-07
1246 -4557 173
0 0

0101101
*
Ve
1e-07
1246 -4577 173
0 0

0101101
*
Ed
 1e-07 1 1 0
1  25 0 0 20
3  33 34CN 11 0 0 20
0

0101000
+203 0 -202 0 *
Ed
 1e-07 1 1 0
1  26 0 0 6.28318530717959
2  35 11 0 0 6.28318530717959
2  36 2 0 0 6.28318530717959
0

0101000
+203 0 -203 0 *
Ed
 1e-07 1 1 0
1  27 0 0 6.28318530717959
2  37 11 0 0 6.28318530717959
2  38 3 0 0 6.28318530717959
0

0101000
+202 0 -202 0 *
Wi

0101100
+201 0 -201 0 -200 0 +199 0 *
Fa
0  1e-07 11 0

0101000
+198 0 *
Ve
1e-07
1256 -4557 133
0 0

0101101
*
Ve
1e-07
1256 -4577 133
0 0

0101101
*
Ed
 1e-07 1 1 0
1  28 0 0 20
3  39 40CN 12 0 0 20
0

0101000
+196 0 -195 0 *
Ed
 1e-07 1 1 0
1  29 0 0 6.28318530717959
2  41 12 0 0 6.28318530717959
2  42 2 0 0 6.28318530717959
0

0101000
+196 0 -196 0 *
Ed
 1e-07 1 1 0
1  30 0 0 6.28318530717959
2  43 12 0 0 6.28318530717959
2  44 3 0 0 6.28318530717959
0

0101000
+195 0 -195 0 *
Wi

0101100
+194 0 -194 0 -193 0 +192 0 *
Fa
0  1e-07 12 0

0101000
+191 0 *
Ve
1e-07
1256 -4557 143
0 0

0101101
*
Ve
1e-07
1256 -4577 143
0 0

0101101
*
Ed
 1e-07 1 1 0
1  31 0 0 20
3  45 46CN 13 0 0 20
0

0101000
+189 0 -188 0 *
Ed
 1e-07 1 1 0
1  32 0 0 6.28318530717959
2  47 13 0 0 6.28318530717959
2  48 2 0 0 6.28318530717959
0

0101000
+189 0 -189 0 *
Ed
 1e-07 1 1 0
1  33 0 0 6.28318530717959
2  49 13 0 0 6.28318530717959
2  50 3 0 0 6.28318530717959
0

0101000
+188 0 -188 0 *
Wi

0101100
+187 0 -187 0 -186 0 +185 0 *
Fa
0  1e-07 13 0

0101000
+184 0 *
Ve
1e-07
1256 -4557 153
0 0

0101101
*
Ve
1e-07
1256 -4577 153
0 0

0101101
*
Ed
 1e-07 1 1 0
1  34 0 0 20
3  51 52CN 14 0 0 20
0

0101000
+182 0 -181 0 *
Ed
 1e-07 1 1 0
1  35 0 0 6.28318530717959
2  53 14 0 0 6.28318530717959
2  54 2 0 0 6.28318530717959
0

0101000
+182 0 -182 0 *
Ed
 1e-07 1 1 0
1  36 0 0 6.28318530717959
2  55 14 0 0 6.28318530717959
2  56 3 0 0 6.28318530717959
0

0101000
+181 0 -181 0 *
Wi

0101100
+180 0 -180 0 -179 0 +178 0 *
Fa
0  1e-07 14 0

0101000
+177 0 *
Ve
1e-07
1256 -4557 163
0 0

0101101
*
Ve
1e-07
1256 -4577 163
0 0

0101101
*
Ed
 1e-07 1 1 0
1  37 0 0 20
3  57 58CN 15 0 0 20
0

0101000
+175 0 -174 0 *
Ed
 1e-07 1 1 0
1  38 0 0 6.28318530717959
2  59 15 0 0 6.28318530717959
2  60 2 0 0 6.28318530717959
0

0101000
+175 0 -175 0 *
Ed
 1e-07 1 1 0
1  39 0 0 6.28318530717959
2  61 15 0 0 6.28318530717959
2  62 3 0 0 6.28318530717959
0

0101000
+174 0 -174 0 *
Wi

0101100
+173 0 -173 0 -172 0 +171 0 *
Fa
0  1e-07 15 0

0101000
+170 0 *
Ve
1e-07
1256 -4557 173
0 0

0101101
*
Ve
1e-07
1256 -4577 173
0 0

0101101
*
Ed
 1e-07 1 1 0
1  40 0 0 20
3  63 64CN 16 0 0 20
0

0101000
+168 0 -167 0 *
Ed
 1e-07 1 1 0
1  41 0 0 6.28318530717959
2  65 16 0 0 6.28318530717959
2  66 2 0 0 6.28318530717959
0

0101000
+168 0 -168 0 *
Ed
 1e-07 1 1 0
1  42 0 0 6.28318530717959
2  67 16 0 0 6.28318530717959
2  68 3 0 0 6.28318530717959
0

0101000
+167 0 -167 0 *
Wi

0101100
+166 0 -166 0 -165 0 +164 0 *
Fa
0  1e-07 16 0

0101000
+163 0 *
Ve
1e-07
1266 -4557 133
0 0

0101101
*
Ve
1e-07
1266 -4577 133
0 0

0101101
*
Ed
 1e-07 1 1 0
1  43 0 0 20
3  69 70CN 17 0 0 20
0

0101000
+161 0 -160 0 *
Ed
 1e-07 1 1 0
1  44 0 0 6.28318530717959
2  71 17 0 0 6.28318530717959
2  72 2 0 0 6.28318530717959
0

0101000
+161 0 -161 0 *
Ed
 1e-07 1 1 0
1  45 0 0 6.28318530717959
2  73 17 0 0 6.28318530717959
2  74 3 0 0 6.28318530717959
0

0101000
+160 0 -160 0 *
Wi

0101100
+159 0 -159 0 -158 0 +157 0 *
Fa
0  1e-07 17 0

0101000
+156 0 *
Ve
1e-07
1266 -4557 143
0 0

0101101
*
Ve
1e-07
1266 -4577 143
0 0

0101101
*
Ed
 1e-07 1 1 0
1  46 0 0 20
3  75 76CN 18 0 0 20
0

0101000
+154 0 -153 0 *
Ed
 1e-07 1 1 0
1  47 0 0 6.28318530717959
2  77 18 0 0 6.28318530717959
2  78 2 0 0 6.28318530717959
0

0101000
+154 0 -154 0 *
Ed
 1e-07 1 1 0
1  48 0 0 6.28318530717959
2  79 18 0 0 6.28318530717959
2  80 3 0 0 6.28318530717959
0

0101000
+153 0 -153 0 *
Wi

0101100
+152 0 -152 0 -151 0 +150 0 *
Fa
0  1e-07 18 0

0101000
+149 0 *
Ve
1e-07
1266 -4557 153
0 0

0101101
*
Ve
1e-07
1266 -4577 153
0 0

0101101
*
Ed
 1e-07 1 1 0
1  49 0 0 20
3  81 82CN 19 0 0 20
0

0101000
+147 0 -146 0 *
Ed
 1e-07 1 1 0
1  50 0 0 6.28318530717959
2  83 19 0 0 6.28318530717959
2  84 2 0 0 6.28318530717959
0

0101000
+147 0 -147 0 *
Ed
 1e-07 1 1 0
1  51 0 0 6.28318530717959
2  85 19 0 0 6.28318530717959
2  86 3 0 0 6.28318530717959
0

0101000
+146 0 -146 0 *
Wi

0101100
+145 0 -145 0 -144 0 +143 0 *
Fa
0  1e-07 19 0

0101000
+142 0 *
Ve
1e-07
1266 -4557 163
0 0

0101101
*
Ve
1e-07
1266 -4577 163
0 0

0101101
*
Ed
 1e-07 1 1 0
1  52 0 0 20
3  87 88CN 20 0 0 20
0

0101000
+140 0 -139 0 *
Ed
 1e-07 1 1 0
1  53 0 0 6.28318530717959
2  89 20 0 0 6.28318530717959
2  90 2 0 0 6.28318530717959
0

0101000
+140 0 -140 0 *
Ed
 1e-07 1 1 0
1  54 0 0 6.28318530717959
2  91 20 0 0 6.28318530717959
2  92 3 0 0 6.28318530717959
0

0101000
+139 0 -139 0 *
Wi

0101100
+138 0 -138 0 -137 0 +136 0 *
Fa
0  1e-07 20 0

0101000
+135 0 *
Ve
1e-07
1266 -4557 173
0 0

0101101
*
Ve
1e-07
1266 -4577 173
0 0

0101101
*
Ed
 1e-07 1 1 0
1  55 0 0 20
3  93 94CN 21 0 0 20
0

0101000
+133 0 -132 0 *
Ed
 1e-07 1 1 0
1  56 0 0 6.28318530717959
2  95 21 0 0 6.28318530717959
2  96 2 0 0 6.28318530717959
0

0101000
+133 0 -133 0 *
Ed
 1e-07 1 1 0
1  57 0 0 6.28318530717959
2  97 21 0 0 6.28318530717959
2  98 3 0 0 6.28318530717959
0

0101000
+132 0 -132 0 *
Wi

0101100
+131 0 -131 0 -130 0 +129 0 *
Fa
0  1e-07 21 0

0101000
+128 0 *
Ve
1e-07
1276 -4557 133
0 0

0101101
*
Ve
1e-07
1276 -4577 133
0 0

0101101
*
Ed
 1e-07 1 1 0
1  58 0 0 20
3  99 100CN 22 0 0 20
0

0101000
+126 0 -125 0 *
Ed
 1e-07 1 1 0
1  59 0 0 6.28318530717959
2  101 22 0 0 6.28318530717959
2  102 2 0 0 6.28318530717959
0

0101000
+126 0 -126 0 *
Ed
 1e-07 1 1 0
1  60 0 0 6.28318530717959
2  103 22 0 0 6.28318530717959
2  104 3 0 0 6.28318530717959
0

0101000
+125 0 -125 0 *
Wi

0101100
+124 0 -124 0 -123 0 +122 0 *
Fa
0  1e-07 22 0

0101000
+121 0 *
Ve
1e-07
1276 -4557 143
0 0

0101101
*
Ve
1e-07
1276 -4577 143
0 0

0101101
*
Ed
 1e-07 1 1 0
1  61 0 0 20
3  105 106CN 23 0 0 20
0

0101000
+119 0 -118 0 *
Ed
 1e-07 1 1 0
1  62 0 0 6.28318530717959
2  107 23 0 0 6.28318530717959
2  108 2 0 0 6.28318530717959
0

0101000
+119 0 -119 0 *
Ed
 1e-07 1 1 0
1  63 0 0 6.28318530717959
2  109 23 0 0 6.28318530717959
2  110 3 0 0 6.28318530717959
0

0101000
+118 0 -118 0 *
Wi

0101100
+117 0 -117 0 -116 0 +115 0 *
Fa
0  1e-07 23 0

0101000
+114 0 *
Ve
1e-07
1276 -4557 153
0 0

0101101
*
Ve
1e-07
1276 -4577 153
0 0

0101101
*
Ed
 1e-07 1 1 0
1  64 0 0 20
3  111 112CN 24 0 0 20
0

0101000
+112 0 -111 0 *
Ed
 1e-07 1 1 0
1  65 0 0 6.28318530717959
2  113 24 0 0 6.28318530717959
2  114 2 0 0 6.28318530717959
0

0101000
+112 0 -112 0 *
Ed
 1e-07 1 1 0
1  66 0 0 6.28318530717959
2  115 24 0 0 6.28318530717959
2  116 3 0 0 6.28318530717959
0

0101000
+111 0 -111 0 *
Wi

0101100
+110 0 -110 0 -109 0 +108 0 *
Fa
0  1e-07 24 0

0101000
+107 0 *
Ve
1e-07
1276 -4557 163
0 0

0101101
*
Ve
1e-07
1276 -4577 163
0 0

0101101
*
Ed
 1e-07 1 1 0
1  67 0 0 20
3  117 118CN 25 0 0 20
0

0101000
+105 0 -104 0 *
Ed
 1e-07 1 1 0
1  68 0 0 6.28318530717959
2  119 25 0 0 6.28318530717959
2  120 2 0 0 6.28318530717959
0

0101000
+105 0 -105 0 *
Ed
 1e-07 1 1 0
1  69 0 0 6.28318530717959
2  121 25 0 0 6.28318530717959
2  122 3 0 0 6.28318530717959
0

0101000
+104 0 -104 0 *
Wi

0101100
+103 0 -103 0 -102 0 +101 0 *
Fa
0  1e-07 25 0

0101000
+100 0 *
Ve
1e-07
1276 -4557 173
0 0

0101101
*
Ve
1e-07
1276 -4577 173
0 0

0101101
*
Ed
 1e-07 1 1 0
1  70 0 0 20
3  123 124CN 26 0 0 20
0

0101000
+98 0 -97 0 *
Ed
 1e-07 1 1 0
1  71 0 0 6.28318530717959
2  125 26 0 0 6.28318530717959
2  126 2 0 0 6.28318530717959
0

0101000
+98 0 -98 0 *
Ed
 1e-07 1 1 0
1  72 0 0 6.28318530717959
2  127 26 0 0 6.28318530717959
2  128 3 0 0 6.28318530717959
0

0101000
+97 0 -97 0 *
Wi

0101100
+96 0 -96 0 -95 0 +94 0 *
Fa
0  1e-07 26 0

0101000
+93 0 *
Ve
1e-07
1286 -4557 133
0 0

0101101
*
Ve
1e-07
1286 -4577 133
0 0

0101101
*
Ed
 1e-07 1 1 0
1  73 0 0 20
3  129 130CN 27 0 0 20
0

0101000
+91 0 -90 0 *
Ed
 1e-07 1 1 0
1  74 0 0 6.28318530717959
2  131 27 0 0 6.28318530717959
2  132 2 0 0 6.28318530717959
0

0101000
+91 0 -91 0 *
Ed
 1e-07 1 1 0
1  75 0 0 6.28318530717959
2  133 27 0 0 6.28318530717959
2  134 3 0 0 6.28318530717959
0

0101000
+90 0 -90 0 *
Wi

0101100
+89 0 -89 0 -88 0 +87 0 *
Fa
0  1e-07 27 0

0101000
+86 0 *
Ve
1e-07
1286 -4557 143
0 0

0101101
*
Ve
1e-07
1286 -4577 143
0 0

0101101
*
Ed
 1e-07 1 1 0
1  76 0 0 20
3  135 136CN 28 0 0 20
0

0101000
+84 0 -83 0 *
Ed
 1e-07 1 1 0
1  77 0 0 6.28318530717959
2  137 28 0 0 6.28318530717959
2  138 2 0 0 6.28318530717959
0

0101000
+84 0 -84 0 *
Ed
 1e-07 1 1 0
1  78 0 0 6.28318530717959
2  139 28 0 0 6.28318530717959
2  140 3 0 0 6.28318530717959
0

0101000
+83 0 -83 0 *
Wi

0101100
+82 0 -82 0 -81 0 +80 0 *
Fa
0  1e-07 28 0

0101000
+79 0 *
Ve
1e-07
1286 -4557 153
0 0

0101101
*
Ve
1e-07
1286 -4577 153
0 0

0101101
*
Ed
 1e-07 1 1 0
1  79 0 0 20
3  141 142CN 29 0 0 20
0

0101000
+77 0 -76 0 *
Ed
 1e-07 1 1 0
1  80 0 0 6.28318530717959
2  143 29 0 0 6.28318530717959
2  144 2 0 0 6.28318530717959
0

0101000
+77 0 -77 0 *
Ed
 1e-07 1 1 0
1  81 0 0 6.28318530717959
2  145 29 0 0 6.28318530717959
2  146 3 0 0 6.28318530717959
0

0101000
+76 0 -76 0 *
Wi

0101100
+75 0 -75 0 -74 0 +73 0 *
Fa
0  1e-07 29 0

0101000
+72 0 *
Ve
1e-07
1286 -4557 163
0 0

0101101
*
Ve
1e-07
1286 -4577 163
0 0

0101101
*
Ed
 1e-07 1 1 0
1  82 0 0 20
3  147 148CN 30 0 0 20
0

0101000
+70 0 -69 0 *
Ed
 1e-07 1 1 0
1  83 0 0 6.28318530717959
2  149 30 0 0 6.28318530717959
2  150 2 0 0 6.28318530717959
0

0101000
+70 0 -70 0 *
Ed
 1e-07 1 1 0
1  84 0 0 6.28318530717959
2  151 30 0 0 6.28318530717959
2  152 3 0 0 6.28318530717959
0

0101000
+69 0 -69 0 *
Wi

0101100
+68 0 -68 0 -67 0 +66 0 *
Fa
0  1e-07 30 0

0101000
+65 0 *
Ve
1e-07
1286 -4557 173
0 0

0101101
*
Ve
1e-07
1286 -4577 173
0 0

0101101
*
Ed
 1e-07 1 1 0
1  85 0 0 20
3  153 154CN 31 0 0 20
0

0101000
+63 0 -62 0 *
Ed
 1e-07 1 1 0
1  86 0 0 6.28318530717959
2  155 31 0 0 6.28318530717959
2  156 2 0 0 6.28318530717959
0

0101000
+63 0 -63 0 *
Ed
 1e-07 1 1 0
1  87 0 0 6.28318530717959
2  157 31 0 0 6.28318530717959
2  158 3 0 0 6.28318530717959
0

0101000
+62 0 -62 0 *
Wi

0101100
+61 0 -61 0 -60 0 +59 0 *
Fa
0  1e-07 31 0

0101000
+58 0 *
Wi

0101100
+253 0 +246 0 +239 0 +235 0 *
Wi

0101100
+228 0 *
Wi

0101100
+221 0 *
Wi

0101100
+214 0 *
Wi

0101100
+207 0 *
Wi

0101100
+200 0 *
Wi

0101100
+193 0 *
Wi

0101100
+186 0 *
Wi

0101100
+179 0 *
Wi

0101100
+172 0 *
Wi

0101100
+165 0 *
Wi

0101100
+158 0 *
Wi

0101100
+151 0 *
Wi

0101100
+144 0 *
Wi

0101100
+137 0 *
Wi

0101100
+130 0 *
Wi

0101100
+123 0 *
Wi

0101100
+116 0 *
Wi

0101100
+109 0 *
Wi

0101100
+102 0 *
Wi

0101100
+95 0 *
Wi

0101100
+88 0 *
Wi

0101100
+81 0 *
Wi

0101100
+74 0 *
Wi

0101100
+67 0 *
Wi

0101100
+60 0 *
Fa
0  1e-07 2 0

0101000
+56 0 -55 0 -54 0 -53 0 -52 0 -51 0 -50 0 -49 0 -48 0 -47 0 
-46 0 -45 0 -44 0 -43 0 -42 0 -41 0 -40 0 -39 0 -38 0 -37 0 
-36 0 -35 0 -34 0 -33 0 -32 0 -31 0 *
Wi

0101100
+252 0 +245 0 +238 0 +234 0 *
Wi

0101100
+227 0 *
Wi

0101100
+220 0 *
Wi

0101100
+213 0 *
Wi

0101100
+206 0 *
Wi

0101100
+199 0 *
Wi

0101100
+192 0 *
Wi

0101100
+185 0 *
Wi

0101100
+178 0 *
Wi

0101100
+171 0 *
Wi

0101100
+164 0 *
Wi

0101100
+157 0 *
Wi

0101100
+150 0 *
Wi

0101100
+143 0 *
Wi

0101100
+136 0 *
Wi

0101100
+129 0 *
Wi

0101100
+122 0 *
Wi

0101100
+115 0 *
Wi

0101100
+108 0 *
Wi

0101100
+101 0 *
Wi

0101100
+94 0 *
Wi

0101100
+87 0 *
Wi

0101100
+80 0 *
Wi

0101100
+73 0 *
Wi

0101100
+66 0 *
Wi

0101100
+59 0 *
Fa
0  1e-07 3 0

0101000
+29 0 -28 0 -27 0 -26 0 -25 0 -24 0 -23 0 -22 0 -21 0 -20 0 
-19 0 -18 0 -17 0 -16 0 -15 0 -14 0 -13 0 -12 0 -11 0 -10 0 
-9 0 -8 0 -7 0 -6 0 -5 0 -4 0 *
Sh

0101100
+250 0 +243 0 +236 0 +232 0 -225 0 -218 0 -211 0 -204 0 -197 0 -190 0 
-183 0 -176 0 -169 0 -162 0 -155 0 -148 0 -141 0 -134 0 -127 0 -120 0 
-113 0 -106 0 -99 0 -92 0 -85 0 -78 0 -71 0 -64 0 -57 0 +30 0 
-3 0 *
So

1100000
-2 0 *

+1 0 