
CASCADE Topology V3, (c) Open Cascade
Locations 0
Curve2ds 287
1 -30 -30 1 0 
1 -30 -30 1 0 
1 -30 30 0 -1 
1 -30 30 0 -1 
1 30 -30 0 1 
1 30 -30 0 1 
1 -30 -30 1 0 
1 30 30 -1 0 
1 0 -10 1 0 
2 -20 -20 1 0 -0 1 2
1 0 -10 1 0 
2 -20 -10 1 0 -0 1 2
1 0 -10 1 0 
2 -20 0 1 0 -0 1 2
1 0 -10 1 0 
2 -20 10 1 0 -0 1 2
1 0 -10 1 0 
2 -20 20 1 0 -0 1 2
1 0 -10 1 0 
2 -10 -20 1 0 -0 1 2
1 0 -10 1 0 
2 -10 -10 1 0 -0 1 2
1 0 -10 1 0 
2 -10 0 1 0 -0 1 2
1 0 -10 1 0 
2 -10 10 1 0 -0 1 2
1 0 -10 1 0 
2 -10 20 1 0 -0 1 2
1 0 -10 1 0 
2 0 -20 1 0 -0 1 2
1 0 -10 1 0 
2 0 -10 1 0 -0 1 2
1 0 -10 1 0 
2 0 0 1 0 -0 1 2
1 0 -10 1 0 
2 0 10 1 0 -0 1 2
1 0 -10 1 0 
2 0 20 1 0 -0 1 2
1 0 -10 1 0 
2 10 -20 1 0 -0 1 2
1 0 -10 1 0 
2 10 -10 1 0 -0 1 2
1 0 -10 1 0 
2 10 0 1 0 -0 1 2
1 0 -10 1 0 
2 10 10 1 0 -0 1 2
1 0 -10 1 0 
2 10 20 1 0 -0 1 2
1 0 -10 1 0 
2 20 -20 1 0 -0 1 2
1 0 -10 1 0 
2 20 -10 1 0 -0 1 2
1 0 -10 1 0 
2 20 0 1 0 -0 1 2
1 0 -10 1 0 
2 20 10 1 0 -0 1 2
1 0 -10 1 0 
2 20 20 1 0 -0 1 2
1 30 30 -1 0 
1 -30 30 0 -1 
1 30 -30 0 1 
1 30 30 -1 0 
1 0 -10 1 0 
2 -20 -20 1 0 -0 1 2
1 0 -10 1 0 
2 -20 -10 1 0 -0 1 2
1 0 -10 1 0 
2 -20 0 1 0 -0 1 2
1 0 -10 1 0 
2 -20 10 1 0 -0 1 2
1 0 -10 1 0 
2 -20 20 1 0 -0 1 2
1 0 -10 1 0 
2 -10 -20 1 0 -0 1 2
1 0 -10 1 0 
2 -10 -10 1 0 -0 1 2
1 0 -10 1 0 
2 -10 0 1 0 -0 1 2
1 0 -10 1 0 
2 -10 10 1 0 -0 1 2
1 0 -10 1 0 
2 -10 20 1 0 -0 1 2
1 0 -10 1 0 
2 0 -20 1 0 -0 1 2
1 0 -10 1 0 
2 0 -10 1 0 -0 1 2
1 0 -10 1 0 
2 0 0 1 0 -0 1 2
1 0 -10 1 0 
2 0 10 1 0 -0 1 2
1 0 -10 1 0 
2 0 20 1 0 -0 1 2
1 0 -10 1 0 
2 10 -20 1 0 -0 1 2
1 0 -10 1 0 
2 10 -10 1 0 -0 1 2
1 0 -10 1 0 
2 10 0 1 0 -0 1 2
1 0 -10 1 0 
2 10 10 1 0 -0 1 2
1 0 -10 1 0 
2 10 20 1 0 -0 1 2
1 0 -10 1 0 
2 20 -20 1 0 -0 1 2
1 0 -10 1 0 
2 20 -10 1 0 -0 1 2
1 0 -10 1 0 
2 20 0 1 0 -0 1 2
1 0 -10 1 0 
2 20 10 1 0 -0 1 2
1 0 -10 1 0 
2 20 20 1 0 -0 1 2
1 0 0 0 -1 
1 6.2831853071795862 0 0 -1 
1 0 0 1 0 
2 -20 -20 1 0 -0 1 2
8 0 6.2831853071795862
1 0 0 1 0 
1 0 0 0 -1 
1 6.2831853071795862 0 0 -1 
1 0 0 1 0 
2 -20 -10 1 0 -0 1 2
8 0 6.2831853071795862
1 0 0 1 0 
1 0 0 0 -1 
1 6.2831853071795862 0 0 -1 
1 0 0 1 0 
2 -20 0 1 0 -0 1 2
8 0 6.2831853071795862
1 0 0 1 0 
1 0 0 0 -1 
1 6.2831853071795862 0 0 -1 
1 0 0 1 0 
2 -20 10 1 0 -0 1 2
8 0 6.2831853071795862
1 0 0 1 0 
1 0 0 0 -1 
1 6.2831853071795862 0 0 -1 
1 0 0 1 0 
2 -20 20 1 0 -0 1 2
8 0 6.2831853071795862
1 0 0 1 0 
1 0 0 0 -1 
1 6.2831853071795862 0 0 -1 
1 0 0 1 0 
2 -10 -20 1 0 -0 1 2
8 0 6.2831853071795862
1 0 0 1 0 
1 0 0 0 -1 
1 6.2831853071795862 0 0 -1 
1 0 0 1 0 
2 -10 -10 1 0 -0 1 2
8 0 6.2831853071795862
1 0 0 1 0 
1 0 0 0 -1 
1 6.2831853071795862 0 0 -1 
1 0 0 1 0 
2 -10 0 1 0 -0 1 2
8 0 6.2831853071795862
1 0 0 1 0 
1 0 0 0 -1 
1 6.2831853071795862 0 0 -1 
1 0 0 1 0 
2 -10 10 1 0 -0 1 2
8 0 6.2831853071795862
1 0 0 1 0 
1 0 0 0 -1 
1 6.2831853071795862 0 0 -1 
1 0 0 1 0 
2 -10 20 1 0 -0 1 2
8 0 6.2831853071795862
1 0 0 1 0 
1 0 0 0 -1 
1 6.2831853071795862 0 0 -1 
1 0 0 1 0 
2 0 -20 1 0 -0 1 2
8 0 6.2831853071795862
1 0 0 1 0 
1 0 0 0 -1 
1 6.2831853071795862 0 0 -1 
1 0 0 1 0 
2 0 -10 1 0 -0 1 2
8 0 6.2831853071795862
1 0 0 1 0 
1 0 0 0 -1 
1 6.2831853071795862 0 0 -1 
1 0 0 1 0 
2 0 0 1 0 -0 1 2
8 0 6.2831853071795862
1 0 0 1 0 
1 0 0 0 -1 
1 6.2831853071795862 0 0 -1 
1 0 0 1 0 
2 0 10 1 0 -0 1 2
8 0 6.2831853071795862
1 0 0 1 0 
1 0 0 0 -1 
1 6.2831853071795862 0 0 -1 
1 0 0 1 0 
2 0 20 1 0 -0 1 2
8 0 6.2831853071795862
1 0 0 1 0 
1 0 0 0 -1 
1 6.2831853071795862 0 0 -1 
1 0 0 1 0 
2 10 -20 1 0 -0 1 2
8 0 6.2831853071795862
1 0 0 1 0 
1 0 0 0 -1 
1 6.2831853071795862 0 0 -1 
1 0 0 1 0 
2 10 -10 1 0 -0 1 2
8 0 6.2831853071795862
1 0 0 1 0 
1 0 0 0 -1 
1 6.2831853071795862 0 0 -1 
1 0 0 1 0 
2 10 0 1 0 -0 1 2
8 0 6.2831853071795862
1 0 0 1 0 
1 0 0 0 -1 
1 6.2831853071795862 0 0 -1 
1 0 0 1 0 
2 10 10 1 0 -0 1 2
8 0 6.2831853071795862
1 0 0 1 0 
1 0 0 0 -1 
1 6.2831853071795862 0 0 -1 
1 0 0 1 0 
2 10 20 1 0 -0 1 2
8 0 6.2831853071795862
1 0 0 1 0 
1 0 0 0 -1 
1 6.2831853071795862 0 0 -1 
1 0 0 1 0 
2 20 -20 1 0 -0 1 2
8 0 6.2831853071795862
1 0 0 1 0 
1 0 0 0 -1 
1 6.2831853071795862 0 0 -1 
1 0 0 1 0 
2 20 -10 1 0 -0 1 2
8 0 6.2831853071795862
1 0 0 1 0 
1 0 0 0 -1 
1 6.2831853071795862 0 0 -1 
1 0 0 1 0 
2 20 0 1 0 -0 1 2
8 0 6.2831853071795862
1 0 0 1 0 
1 0 0 0 -1 
1 6.2831853071795862 0 0 -1 
1 0 0 1 0 
2 20 10 1 0 -0 1 2
8 0 6.2831853071795862
1 0 0 1 0 
1 0 0 0 -1 
1 6.2831853071795862 0 0 -1 
1 0 0 1 0 
2 20 20 1 0 -0 1 2
8 0 6.2831853071795862
1 0 0 1 0 
1 0 0 0 -1 
1 6.2831853071795862 0 0 -1 
1 0 0 0 -1 
1 6.2831853071795862 0 0 -1 
1 0 0 0 -1 
1 6.2831853071795862 0 0 -1 
1 0 0 0 -1 
1 6.2831853071795862 0 0 -1 
1 0 0 0 -1 
1 6.2831853071795862 0 0 -1 
1 0 0 0 -1 
1 6.2831853071795862 0 0 -1 
1 0 0 0 -1 
1 6.2831853071795862 0 0 -1 
1 0 0 0 -1 
1 6.2831853071795862 0 0 -1 
1 0 0 0 -1 
1 6.2831853071795862 0 0 -1 
1 0 0 0 -1 
1 6.2831853071795862 0 0 -1 
1 0 0 0 -1 
1 6.2831853071795862 0 0 -1 
1 0 0 0 -1 
1 6.2831853071795862 0 0 -1 
1 0 0 0 -1 
1 6.2831853071795862 0 0 -1 
1 0 0 0 -1 
1 6.2831853071795862 0 0 -1 
1 0 0 0 -1 
1 6.2831853071795862 0 0 -1 
1 0 0 0 -1 
1 6.2831853071795862 0 0 -1 
1 0 0 0 -1 
1 6.2831853071795862 0 0 -1 
1 0 0 0 -1 
1 6.2831853071795862 0 0 -1 
1 0 0 0 -1 
1 6.2831853071795862 0 0 -1 
1 0 0 0 -1 
1 6.2831853071795862 0 0 -1 
1 0 0 0 -1 
1 6.2831853071795862 0 0 -1 
1 0 0 0 -1 
1 6.2831853071795862 0 0 -1 
1 0 0 0 -1 
1 6.2831853071795862 0 0 -1 
1 0 0 0 -1 
1 6.2831853071795862 0 0 -1 
1 0 0 0 -1 
1 6.2831853071795862 0 0 -1 
Curves 145
1 0 0 0 -0 -0 -1 
1 60 0 0 -0 -0 -1 
1 0 0 0 1 0 0 
1 0 0 -10 1 0 0 
1 0 60 0 -0 -0 -1 
1 0 60 0 0 -1 0 
1 0 60 -10 0 -1 0 
1 60 60 0 -0 -0 -1 
1 60 0 0 0 1 0 
1 60 0 -10 0 1 0 
1 0 0 0 0 0 1 
1 60 0 0 0 0 1 
1 0 0 10 1 0 0 
1 60 60 -10 -1 0 0 
2 10 10 -10 0 0 1 1 0 -0 -0 1 0 2
2 10 20 -10 0 0 1 1 0 -0 -0 1 0 2
2 10 30 -10 0 0 1 1 0 -0 -0 1 0 2
2 10 40 -10 0 0 1 1 0 -0 -0 1 0 2
2 10 50 -10 0 0 1 1 0 -0 -0 1 0 2
2 20 10 -10 0 0 1 1 0 -0 -0 1 0 2
2 20 20 -10 0 0 1 1 0 -0 -0 1 0 2
2 20 30 -10 0 0 1 1 0 -0 -0 1 0 2
2 20 40 -10 0 0 1 1 0 -0 -0 1 0 2
2 20 50 -10 0 0 1 1 0 -0 -0 1 0 2
2 30 10 -10 0 0 1 1 0 -0 -0 1 0 2
2 30 20 -10 0 0 1 1 0 -0 -0 1 0 2
2 30 30 -10 0 0 1 1 0 -0 -0 1 0 2
2 30 40 -10 0 0 1 1 0 -0 -0 1 0 2
2 30 50 -10 0 0 1 1 0 -0 -0 1 0 2
2 40 10 -10 0 0 1 1 0 -0 -0 1 0 2
2 40 20 -10 0 0 1 1 0 -0 -0 1 0 2
2 40 30 -10 0 0 1 1 0 -0 -0 1 0 2
2 40 40 -10 0 0 1 1 0 -0 -0 1 0 2
2 40 50 -10 0 0 1 1 0 -0 -0 1 0 2
2 50 10 -10 0 0 1 1 0 -0 -0 1 0 2
2 50 20 -10 0 0 1 1 0 -0 -0 1 0 2
2 50 30 -10 0 0 1 1 0 -0 -0 1 0 2
2 50 40 -10 0 0 1 1 0 -0 -0 1 0 2
2 50 50 -10 0 0 1 1 0 -0 -0 1 0 2
1 60 60 0 -1 0 0 
1 0 60 0 0 0 1 
1 0 60 10 0 -1 0 
1 60 60 0 0 0 1 
1 60 0 10 0 1 0 
1 60 60 10 -1 0 0 
2 10 10 10 0 0 1 1 0 -0 -0 1 0 2
2 10 20 10 0 0 1 1 0 -0 -0 1 0 2
2 10 30 10 0 0 1 1 0 -0 -0 1 0 2
2 10 40 10 0 0 1 1 0 -0 -0 1 0 2
2 10 50 10 0 0 1 1 0 -0 -0 1 0 2
2 20 10 10 0 0 1 1 0 -0 -0 1 0 2
2 20 20 10 0 0 1 1 0 -0 -0 1 0 2
2 20 30 10 0 0 1 1 0 -0 -0 1 0 2
2 20 40 10 0 0 1 1 0 -0 -0 1 0 2
2 20 50 10 0 0 1 1 0 -0 -0 1 0 2
2 30 10 10 0 0 1 1 0 -0 -0 1 0 2
2 30 20 10 0 0 1 1 0 -0 -0 1 0 2
2 30 30 10 0 0 1 1 0 -0 -0 1 0 2
2 30 40 10 0 0 1 1 0 -0 -0 1 0 2
2 30 50 10 0 0 1 1 0 -0 -0 1 0 2
2 40 10 10 0 0 1 1 0 -0 -0 1 0 2
2 40 20 10 0 0 1 1 0 -0 -0 1 0 2
2 40 30 10 0 0 1 1 0 -0 -0 1 0 2
2 40 40 10 0 0 1 1 0 -0 -0 1 0 2
2 40 50 10 0 0 1 1 0 -0 -0 1 0 2
2 50 10 10 0 0 1 1 0 -0 -0 1 0 2
2 50 20 10 0 0 1 1 0 -0 -0 1 0 2
2 50 30 10 0 0 1 1 0 -0 -0 1 0 2
2 50 40 10 0 0 1 1 0 -0 -0 1 0 2
2 50 50 10 0 0 1 1 0 -0 -0 1 0 2
1 12 10 0 -0 -0 -1 
2 10 10 0 0 0 1 1 0 -0 -0 1 0 2
1 12 20 0 -0 -0 -1 
2 10 20 0 0 0 1 1 0 -0 -0 1 0 2
1 12 30 0 -0 -0 -1 
2 10 30 0 0 0 1 1 0 -0 -0 1 0 2
1 12 40 0 -0 -0 -1 
2 10 40 0 0 0 1 1 0 -0 -0 1 0 2
1 12 50 0 -0 -0 -1 
2 10 50 0 0 0 1 1 0 -0 -0 1 0 2
1 22 10 0 -0 -0 -1 
2 20 10 0 0 0 1 1 0 -0 -0 1 0 2
1 22 20 0 -0 -0 -1 
2 20 20 0 0 0 1 1 0 -0 -0 1 0 2
1 22 30 0 -0 -0 -1 
2 20 30 0 0 0 1 1 0 -0 -0 1 0 2
1 22 40 0 -0 -0 -1 
2 20 40 0 0 0 1 1 0 -0 -0 1 0 2
1 22 50 0 -0 -0 -1 
2 20 50 0 0 0 1 1 0 -0 -0 1 0 2
1 32 10 0 -0 -0 -1 
2 30 10 0 0 0 1 1 0 -0 -0 1 0 2
1 32 20 0 -0 -0 -1 
2 30 20 0 0 0 1 1 0 -0 -0 1 0 2
1 32 30 0 -0 -0 -1 
2 30 30 0 0 0 1 1 0 -0 -0 1 0 2
1 32 40 0 -0 -0 -1 
2 30 40 0 0 0 1 1 0 -0 -0 1 0 2
1 32 50 0 -0 -0 -1 
2 30 50 0 0 0 1 1 0 -0 -0 1 0 2
1 42 10 0 -0 -0 -1 
2 40 10 0 0 0 1 1 0 -0 -0 1 0 2
1 42 20 0 -0 -0 -1 
2 40 20 0 0 0 1 1 0 -0 -0 1 0 2
1 42 30 0 -0 -0 -1 
2 40 30 0 0 0 1 1 0 -0 -0 1 0 2
1 42 40 0 -0 -0 -1 
2 40 40 0 0 0 1 1 0 -0 -0 1 0 2
1 42 50 0 -0 -0 -1 
2 40 50 0 0 0 1 1 0 -0 -0 1 0 2
1 52 10 0 -0 -0 -1 
2 50 10 0 0 0 1 1 0 -0 -0 1 0 2
1 52 20 0 -0 -0 -1 
2 50 20 0 0 0 1 1 0 -0 -0 1 0 2
1 52 30 0 -0 -0 -1 
2 50 30 0 0 0 1 1 0 -0 -0 1 0 2
1 52 40 0 -0 -0 -1 
2 50 40 0 0 0 1 1 0 -0 -0 1 0 2
1 52 50 0 -0 -0 -1 
2 50 50 0 0 0 1 1 0 -0 -0 1 0 2
1 12 10 0 0 0 1 
1 12 20 0 0 0 1 
1 12 30 0 0 0 1 
1 12 40 0 0 0 1 
1 12 50 0 0 0 1 
1 22 10 0 0 0 1 
1 22 20 0 0 0 1 
1 22 30 0 0 0 1 
1 22 40 0 0 0 1 
1 22 50 0 0 0 1 
1 32 10 0 0 0 1 
1 32 20 0 0 0 1 
1 32 30 0 0 0 1 
1 32 40 0 0 0 1 
1 32 50 0 0 0 1 
1 42 10 0 0 0 1 
1 42 20 0 0 0 1 
1 42 30 0 0 0 1 
1 42 40 0 0 0 1 
1 42 50 0 0 0 1 
1 52 10 0 0 0 1 
1 52 20 0 0 0 1 
1 52 30 0 0 0 1 
1 52 40 0 0 0 1 
1 52 50 0 0 0 1 
Polygon3D 0
PolygonOnTriangulations 0
Surfaces 61
1 0 0 0 0 -1 0 1 0 0 -0 0 1 
1 30 30 0 0 0 1 1 0 -0 -0 1 0 
1 30 30 -10 0 0 1 1 0 -0 -0 1 0 
1 0 60 0 -1 0 0 0 -1 0 0 0 1 
1 60 0 0 1 0 0 -0 1 0 0 -0 1 
1 0 0 0 0 1 0 1 0 0 0 0 -1 
1 30 30 10 0 0 1 1 0 -0 -0 1 0 
2 10 10 0 0 0 1 1 0 -0 -0 1 0 2
2 10 20 0 0 0 1 1 0 -0 -0 1 0 2
2 10 30 0 0 0 1 1 0 -0 -0 1 0 2
2 10 40 0 0 0 1 1 0 -0 -0 1 0 2
2 10 50 0 0 0 1 1 0 -0 -0 1 0 2
2 20 10 0 0 0 1 1 0 -0 -0 1 0 2
2 20 20 0 0 0 1 1 0 -0 -0 1 0 2
2 20 30 0 0 0 1 1 0 -0 -0 1 0 2
2 20 40 0 0 0 1 1 0 -0 -0 1 0 2
2 20 50 0 0 0 1 1 0 -0 -0 1 0 2
2 30 10 0 0 0 1 1 0 -0 -0 1 0 2
2 30 20 0 0 0 1 1 0 -0 -0 1 0 2
2 30 30 0 0 0 1 1 0 -0 -0 1 0 2
2 30 40 0 0 0 1 1 0 -0 -0 1 0 2
2 30 50 0 0 0 1 1 0 -0 -0 1 0 2
2 40 10 0 0 0 1 1 0 -0 -0 1 0 2
2 40 20 0 0 0 1 1 0 -0 -0 1 0 2
2 40 30 0 0 0 1 1 0 -0 -0 1 0 2
2 40 40 0 0 0 1 1 0 -0 -0 1 0 2
2 40 50 0 0 0 1 1 0 -0 -0 1 0 2
2 50 10 0 0 0 1 1 0 -0 -0 1 0 2
2 50 20 0 0 0 1 1 0 -0 -0 1 0 2
2 50 30 0 0 0 1 1 0 -0 -0 1 0 2
2 50 40 0 0 0 1 1 0 -0 -0 1 0 2
2 50 50 0 0 0 1 1 0 -0 -0 1 0 2
1 60 60 0 0 1 -0 -1 0 0 0 0 1 
1 0 60 0 1 0 -0 0 -1 0 0 -0 -1 
1 60 0 0 -1 0 0 0 1 0 0 0 -1 
2 10 10 0 -0 -0 -1 1 0 -0 -0 1 0 2
2 10 20 0 -0 -0 -1 1 0 -0 -0 1 0 2
2 10 30 0 -0 -0 -1 1 0 -0 -0 1 0 2
2 10 40 0 -0 -0 -1 1 0 -0 -0 1 0 2
2 10 50 0 -0 -0 -1 1 0 -0 -0 1 0 2
2 20 10 0 -0 -0 -1 1 0 -0 -0 1 0 2
2 20 20 0 -0 -0 -1 1 0 -0 -0 1 0 2
2 20 30 0 -0 -0 -1 1 0 -0 -0 1 0 2
2 20 40 0 -0 -0 -1 1 0 -0 -0 1 0 2
2 20 50 0 -0 -0 -1 1 0 -0 -0 1 0 2
2 30 10 0 -0 -0 -1 1 0 -0 -0 1 0 2
2 30 20 0 -0 -0 -1 1 0 -0 -0 1 0 2
2 30 30 0 -0 -0 -1 1 0 -0 -0 1 0 2
2 30 40 0 -0 -0 -1 1 0 -0 -0 1 0 2
2 30 50 0 -0 -0 -1 1 0 -0 -0 1 0 2
2 40 10 0 -0 -0 -1 1 0 -0 -0 1 0 2
2 40 20 0 -0 -0 -1 1 0 -0 -0 1 0 2
2 40 30 0 -0 -0 -1 1 0 -0 -0 1 0 2
2 40 40 0 -0 -0 -1 1 0 -0 -0 1 0 2
2 40 50 0 -0 -0 -1 1 0 -0 -0 1 0 2
2 50 10 0 -0 -0 -1 1 0 -0 -0 1 0 2
2 50 20 0 -0 -0 -1 1 0 -0 -0 1 0 2
2 50 30 0 -0 -0 -1 1 0 -0 -0 1 0 2
2 50 40 0 -0 -0 -1 1 0 -0 -0 1 0 2
2 50 50 0 -0 -0 -1 1 0 -0 -0 1 0 2
1 60 60 0 0 -1 0 -1 0 0 -0 -0 -1 
Triangulations 0

TShapes 404
Ve
1e-07
0 0 0
0 0

0101101
*
Ve
1e-07
0 0 -10
0 0

0101101
*
Ed
 1e-07 1 1 0
1  1 0 0 10
0

0101000
+404 0 -403 0 *
Ve
1e-07
60 0 0
0 0

0101101
*
Ve
1e-07
60 0 -10
0 0

0101101
*
Ed
 1e-07 1 1 0
1  2 0 0 10
0

0101000
+401 0 -400 0 *
Ed
 1e-07 1 1 0
1  3 0 0 60
2  1 2 0 0 60
0

0101000
+404 0 -401 0 *
Ed
 1e-07 1 1 0
1  4 0 0 60
2  2 3 0 0 60
0

0101000
+403 0 -400 0 *
Wi

0101100
+402 0 -399 0 -398 0 +397 0 *
Fa
0  1e-07 1 0

0101000
+396 0 *
Ve
1e-07
0 60 0
0 0

0101101
*
Ve
1e-07
0 60 -10
0 0

0101101
*
Ed
 1e-07 1 1 0
1  5 0 0 10
0

0101000
+394 0 -393 0 *
Ed
 1e-07 1 1 0
1  6 0 0 60
2  3 2 0 0 60
0

0101000
+394 0 -404 0 *
Ed
 1e-07 1 1 0
1  7 0 0 60
2  4 3 0 0 60
0

0101000
+393 0 -403 0 *
Wi

0101100
+392 0 -402 0 -391 0 +390 0 *
Fa
0  1e-07 4 0

0101000
+389 0 *
Ve
1e-07
60 60 0
0 0

0101101
*
Ve
1e-07
60 60 -10
0 0

0101101
*
Ed
 1e-07 1 1 0
1  8 0 0 10
0

0101000
+387 0 -386 0 *
Ed
 1e-07 1 1 0
1  9 0 0 60
2  5 2 0 0 60
0

0101000
+401 0 -387 0 *
Ed
 1e-07 1 1 0
1  10 0 0 60
2  6 3 0 0 60
0

0101000
+400 0 -386 0 *
Wi

0101100
+399 0 -385 0 -384 0 +383 0 *
Fa
0  1e-07 5 0

0101000
+382 0 *
Ve
1e-07
0 0 10
0 0

0101101
*
Ed
 1e-07 1 1 0
1  11 0 0 10
0

0101000
+404 0 -380 0 *
Ve
1e-07
60 0 10
0 0

0101101
*
Ed
 1e-07 1 1 0
1  12 0 0 10
0

0101000
+401 0 -378 0 *
Ed
 1e-07 1 1 0
1  13 0 0 60
2  7 7 0 0 60
0

0101000
+380 0 -378 0 *
Wi

0101100
+379 0 -377 0 -398 0 +376 0 *
Fa
0  1e-07 6 0

0101000
+375 0 *
Ed
 1e-07 1 1 0
1  14 0 0 60
2  8 3 0 0 60
0

0101000
+386 0 -393 0 *
Wi

0101100
+397 0 +383 0 +373 0 +390 0 *
Ve
1e-07
12 10 -10
0 0

0101101
*
Ed
 1e-07 1 1 0
1  15 0 0 6.28318530717959
2  9 8 0 0 6.28318530717959
2  10 3 0 0 6.28318530717959
0

0101000
+371 0 -371 0 *
Wi

0101100
+370 0 *
Ve
1e-07
12 20 -10
0 0

0101101
*
Ed
 1e-07 1 1 0
1  16 0 0 6.28318530717959
2  11 9 0 0 6.28318530717959
2  12 3 0 0 6.28318530717959
0

0101000
+368 0 -368 0 *
Wi

0101100
+367 0 *
Ve
1e-07
12 30 -10
0 0

0101101
*
Ed
 1e-07 1 1 0
1  17 0 0 6.28318530717959
2  13 10 0 0 6.28318530717959
2  14 3 0 0 6.28318530717959
0

0101000
+365 0 -365 0 *
Wi

0101100
+364 0 *
Ve
1e-07
12 40 -10
0 0

0101101
*
Ed
 1e-07 1 1 0
1  18 0 0 6.28318530717959
2  15 11 0 0 6.28318530717959
2  16 3 0 0 6.28318530717959
0

0101000
+362 0 -362 0 *
Wi

0101100
+361 0 *
Ve
1e-07
12 50 -10
0 0

0101101
*
Ed
 1e-07 1 1 0
1  19 0 0 6.28318530717959
2  17 12 0 0 6.28318530717959
2  18 3 0 0 6.28318530717959
0

0101000
+359 0 -359 0 *
Wi

0101100
+358 0 *
Ve
1e-07
22 10 -10
0 0

0101101
*
Ed
 1e-07 1 1 0
1  20 0 0 6.28318530717959
2  19 13 0 0 6.28318530717959
2  20 3 0 0 6.28318530717959
0

0101000
+356 0 -356 0 *
Wi

0101100
+355 0 *
Ve
1e-07
22 20 -10
0 0

0101101
*
Ed
 1e-07 1 1 0
1  21 0 0 6.28318530717959
2  21 14 0 0 6.28318530717959
2  22 3 0 0 6.28318530717959
0

0101000
+353 0 -353 0 *
Wi

0101100
+352 0 *
Ve
1e-07
22 30 -10
0 0

0101101
*
Ed
 1e-07 1 1 0
1  22 0 0 6.28318530717959
2  23 15 0 0 6.28318530717959
2  24 3 0 0 6.28318530717959
0

0101000
+350 0 -350 0 *
Wi

0101100
+349 0 *
Ve
1e-07
22 40 -10
0 0

0101101
*
Ed
 1e-07 1 1 0
1  23 0 0 6.28318530717959
2  25 16 0 0 6.28318530717959
2  26 3 0 0 6.28318530717959
0

0101000
+347 0 -347 0 *
Wi

0101100
+346 0 *
Ve
1e-07
22 50 -10
0 0

0101101
*
Ed
 1e-07 1 1 0
1  24 0 0 6.28318530717959
2  27 17 0 0 6.28318530717959
2  28 3 0 0 6.28318530717959
0

0101000
+344 0 -344 0 *
Wi

0101100
+343 0 *
Ve
1e-07
32 10 -10
0 0

0101101
*
Ed
 1e-07 1 1 0
1  25 0 0 6.28318530717959
2  29 18 0 0 6.28318530717959
2  30 3 0 0 6.28318530717959
0

0101000
+341 0 -341 0 *
Wi

0101100
+340 0 *
Ve
1e-07
32 20 -10
0 0

0101101
*
Ed
 1e-07 1 1 0
1  26 0 0 6.28318530717959
2  31 19 0 0 6.28318530717959
2  32 3 0 0 6.28318530717959
0

0101000
+338 0 -338 0 *
Wi

0101100
+337 0 *
Ve
1e-07
32 30 -10
0 0

0101101
*
Ed
 1e-07 1 1 0
1  27 0 0 6.28318530717959
2  33 20 0 0 6.28318530717959
2  34 3 0 0 6.28318530717959
0

0101000
+335 0 -335 0 *
Wi

0101100
+334 0 *
Ve
1e-07
32 40 -10
0 0

0101101
*
Ed
 1e-07 1 1 0
1  28 0 0 6.28318530717959
2  35 21 0 0 6.28318530717959
2  36 3 0 0 6.28318530717959
0

0101000
+332 0 -332 0 *
Wi

0101100
+331 0 *
Ve
1e-07
32 50 -10
0 0

0101101
*
Ed
 1e-07 1 1 0
1  29 0 0 6.28318530717959
2  37 22 0 0 6.28318530717959
2  38 3 0 0 6.28318530717959
0

0101000
+329 0 -329 0 *
Wi

0101100
+328 0 *
Ve
1e-07
42 10 -10
0 0

0101101
*
Ed
 1e-07 1 1 0
1  30 0 0 6.28318530717959
2  39 23 0 0 6.28318530717959
2  40 3 0 0 6.28318530717959
0

0101000
+326 0 -326 0 *
Wi

0101100
+325 0 *
Ve
1e-07
42 20 -10
0 0

0101101
*
Ed
 1e-07 1 1 0
1  31 0 0 6.28318530717959
2  41 24 0 0 6.28318530717959
2  42 3 0 0 6.28318530717959
0

0101000
+323 0 -323 0 *
Wi

0101100
+322 0 *
Ve
1e-07
42 30 -10
0 0

0101101
*
Ed
 1e-07 1 1 0
1  32 0 0 6.28318530717959
2  43 25 0 0 6.28318530717959
2  44 3 0 0 6.28318530717959
0

0101000
+320 0 -320 0 *
Wi

0101100
+319 0 *
Ve
1e-07
42 40 -10
0 0

0101101
*
Ed
 1e-07 1 1 0
1  33 0 0 6.28318530717959
2  45 26 0 0 6.28318530717959
2  46 3 0 0 6.28318530717959
0

0101000
+317 0 -317 0 *
Wi

0101100
+316 0 *
Ve
1e-07
42 50 -10
0 0

0101101
*
Ed
 1e-07 1 1 0
1  34 0 0 6.28318530717959
2  47 27 0 0 6.28318530717959
2  48 3 0 0 6.28318530717959
0

0101000
+314 0 -314 0 *
Wi

0101100
+313 0 *
Ve
1e-07
52 10 -10
0 0

0101101
*
Ed
 1e-07 1 1 0
1  35 0 0 6.28318530717959
2  49 28 0 0 6.28318530717959
2  50 3 0 0 6.28318530717959
0

0101000
+311 0 -311 0 *
Wi

0101100
+310 0 *
Ve
1e-07
52 20 -10
0 0

0101101
*
Ed
 1e-07 1 1 0
1  36 0 0 6.28318530717959
2  51 29 0 0 6.28318530717959
2  52 3 0 0 6.28318530717959
0

0101000
+308 0 -308 0 *
Wi

0101100
+307 0 *
Ve
1e-07
52 30 -10
0 0

0101101
*
Ed
 1e-07 1 1 0
1  37 0 0 6.28318530717959
2  53 30 0 0 6.28318530717959
2  54 3 0 0 6.28318530717959
0

0101000
+305 0 -305 0 *
Wi

0101100
+304 0 *
Ve
1e-07
52 40 -10
0 0

0101101
*
Ed
 1e-07 1 1 0
1  38 0 0 6.28318530717959
2  55 31 0 0 6.28318530717959
2  56 3 0 0 6.28318530717959
0

0101000
+302 0 -302 0 *
Wi

0101100
+301 0 *
Ve
1e-07
52 50 -10
0 0

0101101
*
Ed
 1e-07 1 1 0
1  39 0 0 6.28318530717959
2  57 32 0 0 6.28318530717959
2  58 3 0 0 6.28318530717959
0

0101000
+299 0 -299 0 *
Wi

0101100
+298 0 *
Fa
0  1e-07 3 0

0101000
+372 0 -369 0 -366 0 -363 0 -360 0 -357 0 -354 0 -351 0 -348 0 -345 0 
-342 0 -339 0 -336 0 -333 0 -330 0 -327 0 -324 0 -321 0 -318 0 -315 0 
-312 0 -309 0 -306 0 -303 0 -300 0 -297 0 *
Ed
 1e-07 1 1 0
1  40 0 0 60
2  59 2 0 0 60
0

0101000
+387 0 -394 0 *
Wi

0101100
+385 0 -392 0 -295 0 +373 0 *
Fa
0  1e-07 33 0

0101000
+294 0 *
Ve
1e-07
0 60 10
0 0

0101101
*
Ed
 1e-07 1 1 0
1  41 0 0 10
0

0101000
+394 0 -292 0 *
Ed
 1e-07 1 1 0
1  42 0 0 60
2  60 7 0 0 60
0

0101000
+292 0 -380 0 *
Wi

0101100
+291 0 -379 0 -391 0 +290 0 *
Fa
0  1e-07 34 0

0101000
+289 0 *
Ve
1e-07
60 60 10
0 0

0101101
*
Ed
 1e-07 1 1 0
1  43 0 0 10
0

0101000
+387 0 -287 0 *
Ed
 1e-07 1 1 0
1  44 0 0 60
2  61 7 0 0 60
0

0101000
+378 0 -287 0 *
Wi

0101100
+377 0 -286 0 -384 0 +285 0 *
Fa
0  1e-07 35 0

0101000
+284 0 *
Ed
 1e-07 1 1 0
1  45 0 0 60
2  62 7 0 0 60
0

0101000
+287 0 -292 0 *
Wi

0101100
+376 0 +285 0 +282 0 +290 0 *
Ve
1e-07
12 10 10
0 0

0101101
*
Ed
 1e-07 1 1 0
1  46 0 0 6.28318530717959
2  63 36 0 0 6.28318530717959
2  64 7 0 0 6.28318530717959
0

0101000
+280 0 -280 0 *
Wi

0101100
+279 0 *
Ve
1e-07
12 20 10
0 0

0101101
*
Ed
 1e-07 1 1 0
1  47 0 0 6.28318530717959
2  65 37 0 0 6.28318530717959
2  66 7 0 0 6.28318530717959
0

0101000
+277 0 -277 0 *
Wi

0101100
+276 0 *
Ve
1e-07
12 30 10
0 0

0101101
*
Ed
 1e-07 1 1 0
1  48 0 0 6.28318530717959
2  67 38 0 0 6.28318530717959
2  68 7 0 0 6.28318530717959
0

0101000
+274 0 -274 0 *
Wi

0101100
+273 0 *
Ve
1e-07
12 40 10
0 0

0101101
*
Ed
 1e-07 1 1 0
1  49 0 0 6.28318530717959
2  69 39 0 0 6.28318530717959
2  70 7 0 0 6.28318530717959
0

0101000
+271 0 -271 0 *
Wi

0101100
+270 0 *
Ve
1e-07
12 50 10
0 0

0101101
*
Ed
 1e-07 1 1 0
1  50 0 0 6.28318530717959
2  71 40 0 0 6.28318530717959
2  72 7 0 0 6.28318530717959
0

0101000
+268 0 -268 0 *
Wi

0101100
+267 0 *
Ve
1e-07
22 10 10
0 0

0101101
*
Ed
 1e-07 1 1 0
1  51 0 0 6.28318530717959
2  73 41 0 0 6.28318530717959
2  74 7 0 0 6.28318530717959
0

0101000
+265 0 -265 0 *
Wi

0101100
+264 0 *
Ve
1e-07
22 20 10
0 0

0101101
*
Ed
 1e-07 1 1 0
1  52 0 0 6.28318530717959
2  75 42 0 0 6.28318530717959
2  76 7 0 0 6.28318530717959
0

0101000
+262 0 -262 0 *
Wi

0101100
+261 0 *
Ve
1e-07
22 30 10
0 0

0101101
*
Ed
 1e-07 1 1 0
1  53 0 0 6.28318530717959
2  77 43 0 0 6.28318530717959
2  78 7 0 0 6.28318530717959
0

0101000
+259 0 -259 0 *
Wi

0101100
+258 0 *
Ve
1e-07
22 40 10
0 0

0101101
*
Ed
 1e-07 1 1 0
1  54 0 0 6.28318530717959
2  79 44 0 0 6.28318530717959
2  80 7 0 0 6.28318530717959
0

0101000
+256 0 -256 0 *
Wi

0101100
+255 0 *
Ve
1e-07
22 50 10
0 0

0101101
*
Ed
 1e-07 1 1 0
1  55 0 0 6.28318530717959
2  81 45 0 0 6.28318530717959
2  82 7 0 0 6.28318530717959
0

0101000
+253 0 -253 0 *
Wi

0101100
+252 0 *
Ve
1e-07
32 10 10
0 0

0101101
*
Ed
 1e-07 1 1 0
1  56 0 0 6.28318530717959
2  83 46 0 0 6.28318530717959
2  84 7 0 0 6.28318530717959
0

0101000
+250 0 -250 0 *
Wi

0101100
+249 0 *
Ve
1e-07
32 20 10
0 0

0101101
*
Ed
 1e-07 1 1 0
1  57 0 0 6.28318530717959
2  85 47 0 0 6.28318530717959
2  86 7 0 0 6.28318530717959
0

0101000
+247 0 -247 0 *
Wi

0101100
+246 0 *
Ve
1e-07
32 30 10
0 0

0101101
*
Ed
 1e-07 1 1 0
1  58 0 0 6.28318530717959
2  87 48 0 0 6.28318530717959
2  88 7 0 0 6.28318530717959
0

0101000
+244 0 -244 0 *
Wi

0101100
+243 0 *
Ve
1e-07
32 40 10
0 0

0101101
*
Ed
 1e-07 1 1 0
1  59 0 0 6.28318530717959
2  89 49 0 0 6.28318530717959
2  90 7 0 0 6.28318530717959
0

0101000
+241 0 -241 0 *
Wi

0101100
+240 0 *
Ve
1e-07
32 50 10
0 0

0101101
*
Ed
 1e-07 1 1 0
1  60 0 0 6.28318530717959
2  91 50 0 0 6.28318530717959
2  92 7 0 0 6.28318530717959
0

0101000
+238 0 -238 0 *
Wi

0101100
+237 0 *
Ve
1e-07
42 10 10
0 0

0101101
*
Ed
 1e-07 1 1 0
1  61 0 0 6.28318530717959
2  93 51 0 0 6.28318530717959
2  94 7 0 0 6.28318530717959
0

0101000
+235 0 -235 0 *
Wi

0101100
+234 0 *
Ve
1e-07
42 20 10
0 0

0101101
*
Ed
 1e-07 1 1 0
1  62 0 0 6.28318530717959
2  95 52 0 0 6.28318530717959
2  96 7 0 0 6.28318530717959
0

0101000
+232 0 -232 0 *
Wi

0101100
+231 0 *
Ve
1e-07
42 30 10
0 0

0101101
*
Ed
 1e-07 1 1 0
1  63 0 0 6.28318530717959
2  97 53 0 0 6.28318530717959
2  98 7 0 0 6.28318530717959
0

0101000
+229 0 -229 0 *
Wi

0101100
+228 0 *
Ve
1e-07
42 40 10
0 0

0101101
*
Ed
 1e-07 1 1 0
1  64 0 0 6.28318530717959
2  99 54 0 0 6.28318530717959
2  100 7 0 0 6.28318530717959
0

0101000
+226 0 -226 0 *
Wi

0101100
+225 0 *
Ve
1e-07
42 50 10
0 0

0101101
*
Ed
 1e-07 1 1 0
1  65 0 0 6.28318530717959
2  101 55 0 0 6.28318530717959
2  102 7 0 0 6.28318530717959
0

0101000
+223 0 -223 0 *
Wi

0101100
+222 0 *
Ve
1e-07
52 10 10
0 0

0101101
*
Ed
 1e-07 1 1 0
1  66 0 0 6.28318530717959
2  103 56 0 0 6.28318530717959
2  104 7 0 0 6.28318530717959
0

0101000
+220 0 -220 0 *
Wi

0101100
+219 0 *
Ve
1e-07
52 20 10
0 0

0101101
*
Ed
 1e-07 1 1 0
1  67 0 0 6.28318530717959
2  105 57 0 0 6.28318530717959
2  106 7 0 0 6.28318530717959
0

0101000
+217 0 -217 0 *
Wi

0101100
+216 0 *
Ve
1e-07
52 30 10
0 0

0101101
*
Ed
 1e-07 1 1 0
1  68 0 0 6.28318530717959
2  107 58 0 0 6.28318530717959
2  108 7 0 0 6.28318530717959
0

0101000
+214 0 -214 0 *
Wi

0101100
+213 0 *
Ve
1e-07
52 40 10
0 0

0101101
*
Ed
 1e-07 1 1 0
1  69 0 0 6.28318530717959
2  109 59 0 0 6.28318530717959
2  110 7 0 0 6.28318530717959
0

0101000
+211 0 -211 0 *
Wi

0101100
+210 0 *
Ve
1e-07
52 50 10
0 0

0101101
*
Ed
 1e-07 1 1 0
1  70 0 0 6.28318530717959
2  111 60 0 0 6.28318530717959
2  112 7 0 0 6.28318530717959
0

0101000
+208 0 -208 0 *
Wi

0101100
+207 0 *
Fa
0  1e-07 7 0

0101000
+281 0 -278 0 -275 0 -272 0 -269 0 -266 0 -263 0 -260 0 -257 0 -254 0 
-251 0 -248 0 -245 0 -242 0 -239 0 -236 0 -233 0 -230 0 -227 0 -224 0 
-221 0 -218 0 -215 0 -212 0 -209 0 -206 0 *
Ve
1.00000001776357e-07
12 10 0
0 0

0101101
*
Ed
 1e-07 1 1 0
1  71 0 0 10
3  113 114CN 8 0 0 10
0

0101000
+204 0 -371 0 *
Ed
 1.00000001776357e-07 1 1 0
1  72 0 0 6.28318530717959
2  115 8 0 0 6.28318530717959
2  116 2 0 0 6.28318530717959
2  117 36 0 0 6.28318530717959
0

0101000
+204 0 -204 0 *
Wi

0101100
+203 0 -203 0 -202 0 +370 0 *
Fa
0  1e-07 8 0

0101000
+201 0 *
Ve
1.00000001776357e-07
12 20 0
0 0

0101101
*
Ed
 1e-07 1 1 0
1  73 0 0 10
3  118 119CN 9 0 0 10
0

0101000
+199 0 -368 0 *
Ed
 1.00000001776357e-07 1 1 0
1  74 0 0 6.28318530717959
2  120 9 0 0 6.28318530717959
2  121 2 0 0 6.28318530717959
2  122 37 0 0 6.28318530717959
0

0101000
+199 0 -199 0 *
Wi

0101100
+198 0 -198 0 -197 0 +367 0 *
Fa
0  1e-07 9 0

0101000
+196 0 *
Ve
1.00000001776357e-07
12 30 0
0 0

0101101
*
Ed
 1e-07 1 1 0
1  75 0 0 10
3  123 124CN 10 0 0 10
0

0101000
+194 0 -365 0 *
Ed
 1.00000001776357e-07 1 1 0
1  76 0 0 6.28318530717959
2  125 10 0 0 6.28318530717959
2  126 2 0 0 6.28318530717959
2  127 38 0 0 6.28318530717959
0

0101000
+194 0 -194 0 *
Wi

0101100
+193 0 -193 0 -192 0 +364 0 *
Fa
0  1e-07 10 0

0101000
+191 0 *
Ve
1.00000001776357e-07
12 40 0
0 0

0101101
*
Ed
 1e-07 1 1 0
1  77 0 0 10
3  128 129CN 11 0 0 10
0

0101000
+189 0 -362 0 *
Ed
 1.00000001776357e-07 1 1 0
1  78 0 0 6.28318530717959
2  130 11 0 0 6.28318530717959
2  131 2 0 0 6.28318530717959
2  132 39 0 0 6.28318530717959
0

0101000
+189 0 -189 0 *
Wi

0101100
+188 0 -188 0 -187 0 +361 0 *
Fa
0  1e-07 11 0

0101000
+186 0 *
Ve
1.00000001776357e-07
12 50 0
0 0

0101101
*
Ed
 1e-07 1 1 0
1  79 0 0 10
3  133 134CN 12 0 0 10
0

0101000
+184 0 -359 0 *
Ed
 1.00000001776357e-07 1 1 0
1  80 0 0 6.28318530717959
2  135 12 0 0 6.28318530717959
2  136 2 0 0 6.28318530717959
2  137 40 0 0 6.28318530717959
0

0101000
+184 0 -184 0 *
Wi

0101100
+183 0 -183 0 -182 0 +358 0 *
Fa
0  1e-07 12 0

0101000
+181 0 *
Ve
1.00000001776357e-07
22 10 0
0 0

0101101
*
Ed
 1e-07 1 1 0
1  81 0 0 10
3  138 139CN 13 0 0 10
0

0101000
+179 0 -356 0 *
Ed
 1.00000001776357e-07 1 1 0
1  82 0 0 6.28318530717959
2  140 13 0 0 6.28318530717959
2  141 2 0 0 6.28318530717959
2  142 41 0 0 6.28318530717959
0

0101000
+179 0 -179 0 *
Wi

0101100
+178 0 -178 0 -177 0 +355 0 *
Fa
0  1e-07 13 0

0101000
+176 0 *
Ve
1.00000003552714e-07
22 20 0
0 0

0101101
*
Ed
 1e-07 1 1 0
1  83 0 0 10
3  143 144CN 14 0 0 10
0

0101000
+174 0 -353 0 *
Ed
 1.00000003552714e-07 1 1 0
1  84 0 0 6.28318530717959
2  145 14 0 0 6.28318530717959
2  146 2 0 0 6.28318530717959
2  147 42 0 0 6.28318530717959
0

0101000
+174 0 -174 0 *
Wi

0101100
+173 0 -173 0 -172 0 +352 0 *
Fa
0  1e-07 14 0

0101000
+171 0 *
Ve
1.00000003552714e-07
22 30 0
0 0

0101101
*
Ed
 1e-07 1 1 0
1  85 0 0 10
3  148 149CN 15 0 0 10
0

0101000
+169 0 -350 0 *
Ed
 1.00000003552714e-07 1 1 0
1  86 0 0 6.28318530717959
2  150 15 0 0 6.28318530717959
2  151 2 0 0 6.28318530717959
2  152 43 0 0 6.28318530717959
0

0101000
+169 0 -169 0 *
Wi

0101100
+168 0 -168 0 -167 0 +349 0 *
Fa
0  1e-07 15 0

0101000
+166 0 *
Ve
1.00000003552714e-07
22 40 0
0 0

0101101
*
Ed
 1e-07 1 1 0
1  87 0 0 10
3  153 154CN 16 0 0 10
0

0101000
+164 0 -347 0 *
Ed
 1.00000003552714e-07 1 1 0
1  88 0 0 6.28318530717959
2  155 16 0 0 6.28318530717959
2  156 2 0 0 6.28318530717959
2  157 44 0 0 6.28318530717959
0

0101000
+164 0 -164 0 *
Wi

0101100
+163 0 -163 0 -162 0 +346 0 *
Fa
0  1e-07 16 0

0101000
+161 0 *
Ve
1.00000003552714e-07
22 50 0
0 0

0101101
*
Ed
 1e-07 1 1 0
1  89 0 0 10
3  158 159CN 17 0 0 10
0

0101000
+159 0 -344 0 *
Ed
 1.00000003552714e-07 1 1 0
1  90 0 0 6.28318530717959
2  160 17 0 0 6.28318530717959
2  161 2 0 0 6.28318530717959
2  162 45 0 0 6.28318530717959
0

0101000
+159 0 -159 0 *
Wi

0101100
+158 0 -158 0 -157 0 +343 0 *
Fa
0  1e-07 17 0

0101000
+156 0 *
Ve
1.00000001776357e-07
32 10 0
0 0

0101101
*
Ed
 1e-07 1 1 0
1  91 0 0 10
3  163 164CN 18 0 0 10
0

0101000
+154 0 -341 0 *
Ed
 1.00000001776357e-07 1 1 0
1  92 0 0 6.28318530717959
2  165 18 0 0 6.28318530717959
2  166 2 0 0 6.28318530717959
2  167 46 0 0 6.28318530717959
0

0101000
+154 0 -154 0 *
Wi

0101100
+153 0 -153 0 -152 0 +340 0 *
Fa
0  1e-07 18 0

0101000
+151 0 *
Ve
1.00000003552714e-07
32 20 0
0 0

0101101
*
Ed
 1e-07 1 1 0
1  93 0 0 10
3  168 169CN 19 0 0 10
0

0101000
+149 0 -338 0 *
Ed
 1.00000003552714e-07 1 1 0
1  94 0 0 6.28318530717959
2  170 19 0 0 6.28318530717959
2  171 2 0 0 6.28318530717959
2  172 47 0 0 6.28318530717959
0

0101000
+149 0 -149 0 *
Wi

0101100
+148 0 -148 0 -147 0 +337 0 *
Fa
0  1e-07 19 0

0101000
+146 0 *
Ve
1.00000003552714e-07
32 30 0
0 0

0101101
*
Ed
 1e-07 1 1 0
1  95 0 0 10
3  173 174CN 20 0 0 10
0

0101000
+144 0 -335 0 *
Ed
 1.00000003552714e-07 1 1 0
1  96 0 0 6.28318530717959
2  175 20 0 0 6.28318530717959
2  176 2 0 0 6.28318530717959
2  177 48 0 0 6.28318530717959
0

0101000
+144 0 -144 0 *
Wi

0101100
+143 0 -143 0 -142 0 +334 0 *
Fa
0  1e-07 20 0

0101000
+141 0 *
Ve
1.00000003552714e-07
32 40 0
0 0

0101101
*
Ed
 1e-07 1 1 0
1  97 0 0 10
3  178 179CN 21 0 0 10
0

0101000
+139 0 -332 0 *
Ed
 1.00000003552714e-07 1 1 0
1  98 0 0 6.28318530717959
2  180 21 0 0 6.28318530717959
2  181 2 0 0 6.28318530717959
2  182 49 0 0 6.28318530717959
0

0101000
+139 0 -139 0 *
Wi

0101100
+138 0 -138 0 -137 0 +331 0 *
Fa
0  1e-07 21 0

0101000
+136 0 *
Ve
1.00000003552714e-07
32 50 0
0 0

0101101
*
Ed
 1e-07 1 1 0
1  99 0 0 10
3  183 184CN 22 0 0 10
0

0101000
+134 0 -329 0 *
Ed
 1.00000003552714e-07 1 1 0
1  100 0 0 6.28318530717959
2  185 22 0 0 6.28318530717959
2  186 2 0 0 6.28318530717959
2  187 50 0 0 6.28318530717959
0

0101000
+134 0 -134 0 *
Wi

0101100
+133 0 -133 0 -132 0 +328 0 *
Fa
0  1e-07 22 0

0101000
+131 0 *
Ve
1.00000001776357e-07
42 10 0
0 0

0101101
*
Ed
 1e-07 1 1 0
1  101 0 0 10
3  188 189CN 23 0 0 10
0

0101000
+129 0 -326 0 *
Ed
 1.00000001776357e-07 1 1 0
1  102 0 0 6.28318530717959
2  190 23 0 0 6.28318530717959
2  191 2 0 0 6.28318530717959
2  192 51 0 0 6.28318530717959
0

0101000
+129 0 -129 0 *
Wi

0101100
+128 0 -128 0 -127 0 +325 0 *
Fa
0  1e-07 23 0

0101000
+126 0 *
Ve
1e-07
42 20 0
0 0

0101101
*
Ed
 1e-07 1 1 0
1  103 0 0 10
3  193 194CN 24 0 0 10
0

0101000
+124 0 -323 0 *
Ed
 1e-07 1 1 0
1  104 0 0 6.28318530717959
2  195 24 0 0 6.28318530717959
2  196 2 0 0 6.28318530717959
2  197 52 0 0 6.28318530717959
0

0101000
+124 0 -124 0 *
Wi

0101100
+123 0 -123 0 -122 0 +322 0 *
Fa
0  1e-07 24 0

0101000
+121 0 *
Ve
1e-07
42 30 0
0 0

0101101
*
Ed
 1e-07 1 1 0
1  105 0 0 10
3  198 199CN 25 0 0 10
0

0101000
+119 0 -320 0 *
Ed
 1e-07 1 1 0
1  106 0 0 6.28318530717959
2  200 25 0 0 6.28318530717959
2  201 2 0 0 6.28318530717959
2  202 53 0 0 6.28318530717959
0

0101000
+119 0 -119 0 *
Wi

0101100
+118 0 -118 0 -117 0 +319 0 *
Fa
0  1e-07 25 0

0101000
+116 0 *
Ve
1e-07
42 40 0
0 0

0101101
*
Ed
 1e-07 1 1 0
1  107 0 0 10
3  203 204CN 26 0 0 10
0

0101000
+114 0 -317 0 *
Ed
 1e-07 1 1 0
1  108 0 0 6.28318530717959
2  205 26 0 0 6.28318530717959
2  206 2 0 0 6.28318530717959
2  207 54 0 0 6.28318530717959
0

0101000
+114 0 -114 0 *
Wi

0101100
+113 0 -113 0 -112 0 +316 0 *
Fa
0  1e-07 26 0

0101000
+111 0 *
Ve
1e-07
42 50 0
0 0

0101101
*
Ed
 1e-07 1 1 0
1  109 0 0 10
3  208 209CN 27 0 0 10
0

0101000
+109 0 -314 0 *
Ed
 1e-07 1 1 0
1  110 0 0 6.28318530717959
2  210 27 0 0 6.28318530717959
2  211 2 0 0 6.28318530717959
2  212 55 0 0 6.28318530717959
0

0101000
+109 0 -109 0 *
Wi

0101100
+108 0 -108 0 -107 0 +313 0 *
Fa
0  1e-07 27 0

0101000
+106 0 *
Ve
1.00000001776357e-07
52 10 0
0 0

0101101
*
Ed
 1e-07 1 1 0
1  111 0 0 10
3  213 214CN 28 0 0 10
0

0101000
+104 0 -311 0 *
Ed
 1.00000001776357e-07 1 1 0
1  112 0 0 6.28318530717959
2  215 28 0 0 6.28318530717959
2  216 2 0 0 6.28318530717959
2  217 56 0 0 6.28318530717959
0

0101000
+104 0 -104 0 *
Wi

0101100
+103 0 -103 0 -102 0 +310 0 *
Fa
0  1e-07 28 0

0101000
+101 0 *
Ve
1e-07
52 20 0
0 0

0101101
*
Ed
 1e-07 1 1 0
1  113 0 0 10
3  218 219CN 29 0 0 10
0

0101000
+99 0 -308 0 *
Ed
 1e-07 1 1 0
1  114 0 0 6.28318530717959
2  220 29 0 0 6.28318530717959
2  221 2 0 0 6.28318530717959
2  222 57 0 0 6.28318530717959
0

0101000
+99 0 -99 0 *
Wi

0101100
+98 0 -98 0 -97 0 +307 0 *
Fa
0  1e-07 29 0

0101000
+96 0 *
Ve
1e-07
52 30 0
0 0

0101101
*
Ed
 1e-07 1 1 0
1  115 0 0 10
3  223 224CN 30 0 0 10
0

0101000
+94 0 -305 0 *
Ed
 1e-07 1 1 0
1  116 0 0 6.28318530717959
2  225 30 0 0 6.28318530717959
2  226 2 0 0 6.28318530717959
2  227 58 0 0 6.28318530717959
0

0101000
+94 0 -94 0 *
Wi

0101100
+93 0 -93 0 -92 0 +304 0 *
Fa
0  1e-07 30 0

0101000
+91 0 *
Ve
1e-07
52 40 0
0 0

0101101
*
Ed
 1e-07 1 1 0
1  117 0 0 10
3  228 229CN 31 0 0 10
0

0101000
+89 0 -302 0 *
Ed
 1e-07 1 1 0
1  118 0 0 6.28318530717959
2  230 31 0 0 6.28318530717959
2  231 2 0 0 6.28318530717959
2  232 59 0 0 6.28318530717959
0

0101000
+89 0 -89 0 *
Wi

0101100
+88 0 -88 0 -87 0 +301 0 *
Fa
0  1e-07 31 0

0101000
+86 0 *
Ve
1e-07
52 50 0
0 0

0101101
*
Ed
 1e-07 1 1 0
1  119 0 0 10
3  233 234CN 32 0 0 10
0

0101000
+84 0 -299 0 *
Ed
 1e-07 1 1 0
1  120 0 0 6.28318530717959
2  235 32 0 0 6.28318530717959
2  236 2 0 0 6.28318530717959
2  237 60 0 0 6.28318530717959
0

0101000
+84 0 -84 0 *
Wi

0101100
+83 0 -83 0 -82 0 +298 0 *
Fa
0  1e-07 32 0

0101000
+81 0 *
Wi

0101100
+286 0 -291 0 -295 0 +282 0 *
Fa
0  1e-07 61 0

0101000
+79 0 *
Ed
 1e-07 1 1 0
1  121 0 0 10
3  238 239CN 36 0 0 10
0

0101000
+204 0 -280 0 *
Wi

0101100
+77 0 -77 0 -202 0 +279 0 *
Fa
0  1e-07 36 0

0101000
+76 0 *
Ed
 1e-07 1 1 0
1  122 0 0 10
3  240 241CN 37 0 0 10
0

0101000
+199 0 -277 0 *
Wi

0101100
+74 0 -74 0 -197 0 +276 0 *
Fa
0  1e-07 37 0

0101000
+73 0 *
Ed
 1e-07 1 1 0
1  123 0 0 10
3  242 243CN 38 0 0 10
0

0101000
+194 0 -274 0 *
Wi

0101100
+71 0 -71 0 -192 0 +273 0 *
Fa
0  1e-07 38 0

0101000
+70 0 *
Ed
 1e-07 1 1 0
1  124 0 0 10
3  244 245CN 39 0 0 10
0

0101000
+189 0 -271 0 *
Wi

0101100
+68 0 -68 0 -187 0 +270 0 *
Fa
0  1e-07 39 0

0101000
+67 0 *
Ed
 1e-07 1 1 0
1  125 0 0 10
3  246 247CN 40 0 0 10
0

0101000
+184 0 -268 0 *
Wi

0101100
+65 0 -65 0 -182 0 +267 0 *
Fa
0  1e-07 40 0

0101000
+64 0 *
Ed
 1e-07 1 1 0
1  126 0 0 10
3  248 249CN 41 0 0 10
0

0101000
+179 0 -265 0 *
Wi

0101100
+62 0 -62 0 -177 0 +264 0 *
Fa
0  1e-07 41 0

0101000
+61 0 *
Ed
 1e-07 1 1 0
1  127 0 0 10
3  250 251CN 42 0 0 10
0

0101000
+174 0 -262 0 *
Wi

0101100
+59 0 -59 0 -172 0 +261 0 *
Fa
0  1e-07 42 0

0101000
+58 0 *
Ed
 1e-07 1 1 0
1  128 0 0 10
3  252 253CN 43 0 0 10
0

0101000
+169 0 -259 0 *
Wi

0101100
+56 0 -56 0 -167 0 +258 0 *
Fa
0  1e-07 43 0

0101000
+55 0 *
Ed
 1e-07 1 1 0
1  129 0 0 10
3  254 255CN 44 0 0 10
0

0101000
+164 0 -256 0 *
Wi

0101100
+53 0 -53 0 -162 0 +255 0 *
Fa
0  1e-07 44 0

0101000
+52 0 *
Ed
 1e-07 1 1 0
1  130 0 0 10
3  256 257CN 45 0 0 10
0

0101000
+159 0 -253 0 *
Wi

0101100
+50 0 -50 0 -157 0 +252 0 *
Fa
0  1e-07 45 0

0101000
+49 0 *
Ed
 1e-07 1 1 0
1  131 0 0 10
3  258 259CN 46 0 0 10
0

0101000
+154 0 -250 0 *
Wi

0101100
+47 0 -47 0 -152 0 +249 0 *
Fa
0  1e-07 46 0

0101000
+46 0 *
Ed
 1e-07 1 1 0
1  132 0 0 10
3  260 261CN 47 0 0 10
0

0101000
+149 0 -247 0 *
Wi

0101100
+44 0 -44 0 -147 0 +246 0 *
Fa
0  1e-07 47 0

0101000
+43 0 *
Ed
 1e-07 1 1 0
1  133 0 0 10
3  262 263CN 48 0 0 10
0

0101000
+144 0 -244 0 *
Wi

0101100
+41 0 -41 0 -142 0 +243 0 *
Fa
0  1e-07 48 0

0101000
+40 0 *
Ed
 1e-07 1 1 0
1  134 0 0 10
3  264 265CN 49 0 0 10
0

0101000
+139 0 -241 0 *
Wi

0101100
+38 0 -38 0 -137 0 +240 0 *
Fa
0  1e-07 49 0

0101000
+37 0 *
Ed
 1e-07 1 1 0
1  135 0 0 10
3  266 267CN 50 0 0 10
0

0101000
+134 0 -238 0 *
Wi

0101100
+35 0 -35 0 -132 0 +237 0 *
Fa
0  1e-07 50 0

0101000
+34 0 *
Ed
 1e-07 1 1 0
1  136 0 0 10
3  268 269CN 51 0 0 10
0

0101000
+129 0 -235 0 *
Wi

0101100
+32 0 -32 0 -127 0 +234 0 *
Fa
0  1e-07 51 0

0101000
+31 0 *
Ed
 1e-07 1 1 0
1  137 0 0 10
3  270 271CN 52 0 0 10
0

0101000
+124 0 -232 0 *
Wi

0101100
+29 0 -29 0 -122 0 +231 0 *
Fa
0  1e-07 52 0

0101000
+28 0 *
Ed
 1e-07 1 1 0
1  138 0 0 10
3  272 273CN 53 0 0 10
0

0101000
+119 0 -229 0 *
Wi

0101100
+26 0 -26 0 -117 0 +228 0 *
Fa
0  1e-07 53 0

0101000
+25 0 *
Ed
 1e-07 1 1 0
1  139 0 0 10
3  274 275CN 54 0 0 10
0

0101000
+114 0 -226 0 *
Wi

0101100
+23 0 -23 0 -112 0 +225 0 *
Fa
0  1e-07 54 0

0101000
+22 0 *
Ed
 1e-07 1 1 0
1  140 0 0 10
3  276 277CN 55 0 0 10
0

0101000
+109 0 -223 0 *
Wi

0101100
+20 0 -20 0 -107 0 +222 0 *
Fa
0  1e-07 55 0

0101000
+19 0 *
Ed
 1e-07 1 1 0
1  141 0 0 10
3  278 279CN 56 0 0 10
0

0101000
+104 0 -220 0 *
Wi

0101100
+17 0 -17 0 -102 0 +219 0 *
Fa
0  1e-07 56 0

0101000
+16 0 *
Ed
 1e-07 1 1 0
1  142 0 0 10
3  280 281CN 57 0 0 10
0

0101000
+99 0 -217 0 *
Wi

0101100
+14 0 -14 0 -97 0 +216 0 *
Fa
0  1e-07 57 0

0101000
+13 0 *
Ed
 1e-07 1 1 0
1  143 0 0 10
3  282 283CN 58 0 0 10
0

0101000
+94 0 -214 0 *
Wi

0101100
+11 0 -11 0 -92 0 +213 0 *
Fa
0  1e-07 58 0

0101000
+10 0 *
Ed
 1e-07 1 1 0
1  144 0 0 10
3  284 285CN 59 0 0 10
0

0101000
+89 0 -211 0 *
Wi

0101100
+8 0 -8 0 -87 0 +210 0 *
Fa
0  1e-07 59 0

0101000
+7 0 *
Ed
 1e-07 1 1 0
1  145 0 0 10
3  286 287CN 60 0 0 10
0

0101000
+84 0 -208 0 *
Wi

0101100
+5 0 -5 0 -82 0 +207 0 *
Fa
0  1e-07 60 0

0101000
+4 0 *
Sh

0101100
+395 0 +388 0 +381 0 -374 0 -296 0 +293 0 -288 0 -283 0 +205 0 -200 0 
-195 0 -190 0 -185 0 -180 0 -175 0 -170 0 -165 0 -160 0 -155 0 -150 0 
-145 0 -140 0 -135 0 -130 0 -125 0 -120 0 -115 0 -110 0 -105 0 -100 0 
-95 0 -90 0 -85 0 -80 0 -78 0 +75 0 +72 0 +69 0 +66 0 +63 0 
+60 0 +57 0 +54 0 +51 0 +48 0 +45 0 +42 0 +39 0 +36 0 +33 0 
+30 0 +27 0 +24 0 +21 0 +18 0 +15 0 +12 0 +9 0 +6 0 +3 0 
*
So

0100000
+2 0 *

+1 0 