
CASCADE Topology V3, (c) Open Cascade
Locations 0
Curve2ds 12
1 10 -10 0 1 
1 10 -10 0 1 
1 -10 -10 1 0 
1 -10 -10 1 0 
1 10 10 -1 0 
1 10 10 -1 0 
1 10 -10 0 1 
1 -10 10 0 -1 
1 -10 10 0 -1 
1 -10 -10 1 0 
1 10 10 -1 0 
1 -10 10 0 -1 
Curves 20
1 1234 -4567 123 0 -1 0 
1 1254 -4567 123 0 -1 0 
1 1234 -4567 123 1 0 0 
1 1234 -4577 123 1 0 0 
1 1234 -4567 143 0 -1 0 
1 1234 -4567 143 0 0 -1 
1 1234 -4577 143 0 0 -1 
1 1254 -4567 143 0 -1 0 
1 1254 -4567 123 0 0 1 
1 1254 -4577 123 0 0 1 
1 1234 -4567 123 -0 1 -0 
1 1254 -4567 123 -0 1 -0 
1 1234 -4557 123 1 0 0 
1 1254 -4577 143 -1 0 0 
1 1254 -4567 143 -1 0 0 
1 1234 -4567 143 -0 1 -0 
1 1234 -4557 143 0 0 -1 
1 1254 -4567 143 -0 1 -0 
1 1254 -4557 123 0 0 1 
1 1254 -4557 143 -1 0 0 
Polygon3D 0
PolygonOnTriangulations 0
Surfaces 11
1 1234 -4567 123 -0 0 1 1 0 0 0 1 -0 
1 1244 -4567 133 -0 -1 -0 0 0 -1 1 -0 0 
1 1244 -4577 133 -0 -1 -0 0 0 -1 1 -0 0 
1 1234 -4567 143 1 0 0 0 0 -1 -0 1 0 
1 1254 -4567 123 -1 0 0 0 0 1 0 1 -0 
1 1234 -4567 123 0 0 -1 1 0 0 0 -1 0 
1 1244 -4557 133 -0 -1 -0 0 0 -1 1 -0 0 
1 1254 -4567 143 -0 -0 -1 -1 0 0 0 1 -0 
1 1234 -4567 143 -1 -0 -0 0 0 -1 0 -1 0 
1 1254 -4567 123 1 0 -0 0 0 1 0 -1 0 
1 1254 -4567 143 0 0 1 -1 0 0 0 -1 0 
Triangulations 0

TShapes 54
Ve
1e-07
1234 -4567 123
0 0

0101101
*
Ve
1e-07
1234 -4577 123
0 0

0101101
*
Ed
 1e-07 1 1 0
1  1 0 0 10
0

0101000
+54 0 -53 0 *
Ve
1e-07
1254 -4567 123
0 0

0101101
*
Ve
1e-07
1254 -4577 123
0 0

0101101
*
Ed
 1e-07 1 1 0
1  2 0 0 10
0

0101000
+51 0 -50 0 *
Ed
 1e-07 1 1 0
1  3 0 0 20
2  1 2 0 0 20
0

0101000
+54 0 -51 0 *
Ed
 1e-07 1 1 0
1  4 0 0 20
2  2 3 0 0 20
0

0101000
+53 0 -50 0 *
Wi

0101100
+52 0 -49 0 -48 0 +47 0 *
Fa
0  1e-07 1 0

0101000
+46 0 *
Ve
1e-07
1234 -4567 143
0 0

0101101
*
Ve
1e-07
1234 -4577 143
0 0

0101101
*
Ed
 1e-07 1 1 0
1  5 0 0 10
0

0101000
+44 0 -43 0 *
Ed
 1e-07 1 1 0
1  6 0 0 20
2  3 2 0 0 20
0

0101000
+44 0 -54 0 *
Ed
 1e-07 1 1 0
1  7 0 0 20
2  4 3 0 0 20
0

0101000
+43 0 -53 0 *
Wi

0101100
+42 0 -52 0 -41 0 +40 0 *
Fa
0  1e-07 4 0

0101000
+39 0 *
Ve
1e-07
1254 -4567 143
0 0

0101101
*
Ve
1e-07
1254 -4577 143
0 0

0101101
*
Ed
 1e-07 1 1 0
1  8 0 0 10
0

0101000
+37 0 -36 0 *
Ed
 1e-07 1 1 0
1  9 0 0 20
2  5 2 0 0 20
0

0101000
+51 0 -37 0 *
Ed
 1e-07 1 1 0
1  10 0 0 20
2  6 3 0 0 20
0

0101000
+50 0 -36 0 *
Wi

0101100
+49 0 -35 0 -34 0 +33 0 *
Fa
0  1e-07 5 0

0101000
+32 0 *
Ve
1e-07
1234 -4557 123
0 0

0101101
*
Ed
 1e-07 1 1 0
1  11 0 0 10
0

0101000
+54 0 -30 0 *
Ve
1e-07
1254 -4557 123
0 0

0101101
*
Ed
 1e-07 1 1 0
1  12 0 0 10
0

0101000
+51 0 -28 0 *
Ed
 1e-07 1 1 0
1  13 0 0 20
2  7 7 0 0 20
0

0101000
+30 0 -28 0 *
Wi

0101100
+29 0 -27 0 -48 0 +26 0 *
Fa
0  1e-07 6 0

0101000
+25 0 *
Ed
 1e-07 1 1 0
1  14 0 0 20
2  8 3 0 0 20
0

0101000
+36 0 -43 0 *
Wi

0101100
+47 0 +33 0 +23 0 +40 0 *
Fa
0  1e-07 3 0

0101000
+22 0 *
Ed
 1e-07 1 1 0
1  15 0 0 20
2  9 2 0 0 20
0

0101000
+37 0 -44 0 *
Wi

0101100
+35 0 -42 0 -20 0 +23 0 *
Fa
0  1e-07 8 0

0101000
+19 0 *
Ve
1e-07
1234 -4557 143
0 0

0101101
*
Ed
 1e-07 1 1 0
1  16 0 0 10
0

0101000
+44 0 -17 0 *
Ed
 1e-07 1 1 0
1  17 0 0 20
2  10 7 0 0 20
0

0101000
+17 0 -30 0 *
Wi

0101100
+16 0 -29 0 -41 0 +15 0 *
Fa
0  1e-07 9 0

0101000
+14 0 *
Ve
1e-07
1254 -4557 143
0 0

0101101
*
Ed
 1e-07 1 1 0
1  18 0 0 10
0

0101000
+37 0 -12 0 *
Ed
 1e-07 1 1 0
1  19 0 0 20
2  11 7 0 0 20
0

0101000
+28 0 -12 0 *
Wi

0101100
+27 0 -11 0 -34 0 +10 0 *
Fa
0  1e-07 10 0

0101000
+9 0 *
Ed
 1e-07 1 1 0
1  20 0 0 20
2  12 7 0 0 20
0

0101000
+12 0 -17 0 *
Wi

0101100
+26 0 +10 0 +7 0 +15 0 *
Fa
0  1e-07 7 0

0101000
+6 0 *
Wi

0101100
+11 0 -16 0 -20 0 +7 0 *
Fa
0  1e-07 11 0

0101000
+4 0 *
Sh

0101100
-45 0 -38 0 -31 0 +24 0 +21 0 -18 0 +13 0 +8 0 -5 0 +3 0 
*
So

0100000
+2 0 *

+1 0 