DBRep_DrawableShape

CASCADE Topology V3, (c) Open Cascade
Locations 0
Curve2ds 80
1 0 0 0 1 
1 0 0 1 0 
1 1 0 0 1 
1 0 1 1 0 
1 0 0 0 1 
1 0 0 1 0 
1 1 0 0 1 
1 0 1 1 0 
1 0 0 0 1 
1 0 0 1 0 
1 1 0 0 1 
1 0 1 1 0 
1 0 0 0 1 
1 0 0 1 0 
1 1 0 0 1 
1 0 1 1 0 
1 0 0 0 1 
1 0 0 1 0 
1 1 0 0 1 
1 0 1 1 0 
1 0 0 0 1 
1 0 0 1 0 
1 1 0 0 1 
1 0 1 1 0 
1 0 0 0 1 
1 0 0 1 0 
1 1 0 0 1 
1 0 1 1 0 
1 0 0 0 1 
1 0 0 1 0 
1 1 0 0 1 
1 0 1 1 0 
1 0 0 0 1 
1 0 0 1 0 
1 1 0 0 1 
1 0 1 1 0 
1 0 0 0 1 
1 0 0 1 0 
1 1 0 0 1 
1 0 1 1 0 
1 0 0 0 1 
1 0 0 1 0 
1 1 0 0 1 
1 0 1 1 0 
1 0 0 0 1 
1 0 0 1 0 
1 1 0 0 1 
1 0 1 1 0 
1 0 0 0 1 
1 0 0 1 0 
1 1 0 0 1 
1 0 1 1 0 
1 0 0 0 1 
1 0 0 1 0 
1 1 0 0 1 
1 0 1 1 0 
1 0 0 0 1 
1 0 0 1 0 
1 1 0 0 1 
1 0 1 1 0 
1 0 0 0 1 
1 0 0 1 0 
1 1 0 0 1 
1 0 1 1 0 
1 0 0 0 1 
1 0 0 1 0 
1 1 0 0 1 
1 0 1 1 0 
1 0 0 0 1 
1 0 0 1 0 
1 1 0 0 1 
1 0 1 1 0 
1 8 0 0 1 
1 0 0 0 1 
1 0 0 1 0 
1 0 1 1 0 
1 8 0 0 1 
1 0 0 0 1 
1 0 0 1 0 
1 0 1 1 0 
Curves 78
6 0 8 0 0 0  0 0.875 0  0 1.75 0  0 2.625 0  0 3.5 0  0 4.375 0  0 5.25 0  0 6.125 0  0 7 0  
6 0 2 0 0 0  2.5 0 0.40000000000000002  5 0 4.8985871965894131e-17  
6 0 8 5 0 4.8985871965894131e-17  5 0.875 0.026250000000000044  5 1.75 0.052500000000000033  5 2.625 0.078750000000000014  5 3.5 0.105  5 4.375 0.13124999999999998  5 5.25 0.15749999999999997  5 6.125 0.18374999999999994  5 7 0.20999999999999994  
6 0 2 0 7 0  2.5 7 -0.31  5 7 0.20999999999999994  
7 0 0  8 9 2  20 0 0  20 0.875 0  20 1.75 0  20 2.625 0  20 3.5 0  20 4.375 0  20 5.25 0  20 6.125 0  20 7 0 
 0 9 1 9
7 0 0  2 3 2  20 0 0  22.5 0 0.40000000000000002  25 0 4.8985871965894131e-17 
 0 3 1 3
7 0 0  8 9 2  25 0 4.8985871965894131e-17  25 0.875 0.026250000000000044  25 1.75 0.052500000000000033  25 2.625 0.078750000000000014  25 3.5 0.105  25 4.375 0.13124999999999998  25 5.25 0.15749999999999997  25 6.125 0.18374999999999994  25 7 0.20999999999999994 
 0 9 1 9
7 0 0  2 3 2  20 7 0  22.5 7 -0.31  25 7 0.20999999999999994 
 0 3 1 3
7 0 0  8 12 4  40 0 0  40 0.63636363636363635 0  40 1.2727272727272727 0  40 1.9090909090909089 0  40 2.5454545454545454 0  40 3.1818181818181817 0  40 3.8181818181818179 0  40 4.4545454545454541 0  40 5.0909090909090908 0  40 5.7272727272727275 0  40 6.3636363636363633 0  40 7 0 
 0 9 0.37 2 0.70999999999999996 1 1 9
7 0 0  2 5 4  40 0 0  41.25 0 0.28284271247461901  42.5 0 0.40000000000000002  43.75 0 0.28284271247461906  45 0 4.8985871965894131e-17 
 0 3 0.37 1 0.70999999999999996 1 1 3
7 0 0  8 12 4  45 0 4.8985871965894131e-17  45 0.63636363636363635 0.019090909090909138  45 1.2727272727272727 0.03818181818181822  45 1.9090909090909089 0.057272727272727295  45 2.5454545454545454 0.076363636363636384  45 3.1818181818181817 0.095454545454545459  45 3.8181818181818179 0.11454545454545451  45 4.4545454545454541 0.13363636363636361  45 5.0909090909090908 0.15272727272727268  45 5.7272727272727275 0.17181818181818179  45 6.3636363636363633 0.19090909090909083  45 7 0.20999999999999994 
 0 9 0.37 2 0.70999999999999996 1 1 9
7 0 0  2 5 4  40 7 0  41.25 7 -0.241592712474619  42.5 7 -0.31  43.75 7 -0.13659271247461907  45 7 0.20999999999999994 
 0 3 0.37 1 0.70999999999999996 1 1 3
6 1 8 60 0 0  1 60 0.875 0  1.0149859414545486 60 1.75 0  1.0298876264947199 60 2.625 0  1.0446212724263491 60 3.5 0  1.0591040413322679 59.999999999999993 4.375 0  1.0732545058172096 60.000000000000007 5.25 0  1.086993106822246 60 6.125 0  1.1002426009347597 60 7 0  1.112928494679007 
6 1 2 60 0 0  1 62.5 0 0.40000000000000002  1.1502560810280587 65 0 4.8985871965894137e-17  1.1983329620904937 
6 1 8 65 0 4.8985871965894137e-17  1.1983329620904937 65 0.875 0.026250000000000041  1.214594556011459 65 1.75 0.05250000000000004  1.2297550405950601 65 2.625 0.078750000000000014  1.2438345974027456 65 3.4999999999999996 0.10500000000000001  1.2568594853651363 65 4.375 0.13124999999999998  1.2688618931447635 65 5.25 0.15749999999999997  1.2798797581596997 65 6.125 0.18374999999999994  1.2899565532855923 65 6.9999999999999991 0.20999999999999994  1.299141042435344 
6 1 2 60 7 0  1.112928494679007 62.499999999999993 7 -0.31  1.2735425982075177 65 6.9999999999999991 0.20999999999999994  1.299141042435344 
7 1 0  8 9 2  80 0 0  1 80 0.875 0  1.0149859414545486 80 1.75 0  1.0298876264947199 80 2.625 0  1.0446212724263491 80 3.5 0  1.0591040413322679 80 4.375 0  1.0732545058172096 80 5.25 0  1.086993106822246 80 6.125 0  1.1002426009347597 80 7 0  1.112928494679007
 0 9 1 9
7 1 0  2 3 2  80 0 0  1 82.5 0 0.40000000000000002  1.1502560810280587 85 0 4.8985871965894137e-17  1.1983329620904937
 0 3 1 3
7 1 0  8 9 2  85 0 4.8985871965894137e-17  1.1983329620904937 85 0.875 0.026250000000000041  1.214594556011459 85 1.75 0.05250000000000004  1.2297550405950601 85 2.625 0.078750000000000014  1.2438345974027456 85 3.4999999999999996 0.10500000000000001  1.2568594853651363 85 4.375 0.13124999999999998  1.2688618931447635 85 5.25 0.15749999999999997  1.2798797581596997 85 6.125 0.18374999999999994  1.2899565532855923 85 6.9999999999999991 0.20999999999999994  1.299141042435344
 0 9 1 9
7 1 0  2 3 2  80 7 0  1.112928494679007 82.5 7 -0.31  1.2735425982075177 85 6.9999999999999991 0.20999999999999994  1.299141042435344
 0 3 1 3
7 1 0  8 12 4  100 0 0  1 100 0.63636363636363635 0  1.0109036822471815 100 1.2727272727272727 0  1.0217749318292035 100 1.9090909090909089 0  1.0325814125508652 100 2.5454545454545454 0  1.0432909808699347 100 3.1818181818181817 0  1.0538717815071197 100 3.8181818181818175 0  1.0642923421986108 100 4.4545454545454541 0  1.0745216673093536 100 5.0909090909090908 0  1.0845293300286065 100 5.7272727272727275 0  1.0942855628735466 100 6.3636363636363633 0  1.1037613462317255 100 7 0  1.112928494679007
 0 9 0.37 2 0.70999999999999996 1 1 9
7 1 0  2 5 4  100 0 0  1 101.25 0 0.28284271247461901  1.082464156348685 102.5 0 0.40000000000000002  1.1502560810280587 103.75 0 0.28284271247461906  1.1913140630081971 105 0 4.8985871965894137e-17  1.1983329620904937
 0 3 0.37 1 0.70999999999999996 1 1 3
7 1 0  8 12 4  105 0 4.8985871965894137e-17  1.1983329620904937 105 0.63636363636363635 0.019090909090909138  1.2102694786750581 105 1.2727272727272727 0.03818181818181822  1.2216211161486301 105 1.9090909090909089 0.057272727272727295  1.2323946703584234 105 2.5454545454545454 0.076363636363636384  1.2425986566424163 105.00000000000001 3.1818181818181817 0.095454545454545459  1.2522432845007438 105.00000000000001 3.8181818181818179 0.11454545454545451  1.2613404272278543 104.99999999999999 4.4545454545454541 0.13363636363636361  1.2699035865957635 105 5.0909090909090908 0.15272727272727268  1.2779478526934518 105 5.7272727272727275 0.17181818181818179  1.2854898590418615 104.99999999999999 6.3636363636363624 0.19090909090909083  1.2925477331180049 105 6.9999999999999991 0.20999999999999994  1.299141042435344
 0 9 0.37 2 0.70999999999999996 1 1 9
7 1 0  2 5 4  100 7 0  1.112928494679007 101.25 7 -0.241592712474619  1.2084428378948187 102.5 7 -0.31  1.2735425982075177 103.75 7 -0.13659271247461907  1.3033171563219388 105 6.9999999999999991 0.20999999999999994  1.299141042435344
 0 3 0.37 1 0.70999999999999996 1 1 3
6 0 2 120 0 0  120 3.5 0  120 7 0  
6 0 8 120 0 0  120.625 0 0.15307337294603593  121.25 0 0.28284271247461901  121.875 0 0.36955181300451473  122.5 0 0.40000000000000002  123.125 0 0.36955181300451473  123.75 0 0.28284271247461906  124.375 0 0.15307337294603596  125 0 4.8985871965894131e-17  
6 0 2 125 0 4.8985871965894131e-17  125 3.5 0.105  125 7 0.20999999999999994  
6 0 8 120 7 0  120.625 7 -0.13338587294603593  121.25 7 -0.241592712474619  121.875 7 -0.30486431300451478  122.5 7 -0.31  123.125 7 -0.25236431300451473  123.75 7 -0.13659271247461907  124.375 7 0.024114127053964048  125 7 0.20999999999999994  
7 0 0  2 3 2  140 0 0  140 3.5 0  140 7 0 
 0 3 1 3
7 0 0  8 9 2  140 0 0  140.625 0 0.15307337294603593  141.25 0 0.28284271247461901  141.875 0 0.36955181300451473  142.5 0 0.40000000000000002  143.125 0 0.36955181300451473  143.75 0 0.28284271247461906  144.375 0 0.15307337294603596  145 0 4.8985871965894131e-17 
 0 9 1 9
7 0 0  2 3 2  145 0 4.8985871965894131e-17  145 3.5 0.105  145 7 0.20999999999999994 
 0 3 1 3
7 0 0  8 9 2  140 7 0  140.625 7 -0.13338587294603593  141.25 7 -0.241592712474619  141.875 7 -0.30486431300451478  142.5 7 -0.31  143.125 7 -0.25236431300451473  143.75 7 -0.13659271247461907  144.375 7 0.024114127053964048  145 7 0.20999999999999994 
 0 9 1 9
7 0 0  2 5 4  160 0 0  160 1.75 0  160 3.5 0  160 5.25 0  160 7 0 
 0 3 0.37 1 0.70999999999999996 1 1 3
7 0 0  8 12 4  160 0 0  160.45454545454547 0 0.11269302273657188  160.90909090909091 0 0.21625632698223904  161.36363636363637 0 0.30229982974170333  161.81818181818181 0 0.36385279814180738  162.27272727272728 0 0.39592857675237308  162.72727272727272 0 0.39592857675237314  163.18181818181819 0 0.36385279814180738  163.63636363636363 0 0.30229982974170333  164.09090909090909 0 0.21625632698223898  164.54545454545453 0 0.11269302273657203  165 0 4.8985871965894131e-17 
 0 9 0.37 2 0.70999999999999996 1 1 9
7 0 0  2 5 4  165 0 4.8985871965894131e-17  165 1.75 0.052500000000000033  165 3.5 0.105  165 5.25 0.15749999999999997  165 7 0.20999999999999994 
 0 3 0.37 1 0.70999999999999996 1 1 3
7 0 0  8 12 4  160 7 0  160.45454545454547 7 -0.09856079133161319  160.90909090909091 7 -0.1870001286351316  161.36363636363637 7 -0.25692792891525706  161.81818181818181 7 -0.30137345929883214  162.27272727272728 7 -0.31535006435567886  162.72727272727272 7 -0.29625915526476987  163.18181818181819 7 -0.24410073202610488  163.63636363636363 7 -0.16147338346071161  164.09090909090909 7 -0.053363764998767903  164.54545454545453 7 0.073257390486568458  165 7 0.20999999999999994 
 0 9 0.37 2 0.70999999999999996 1 1 9
6 1 2 180 0 0  1 180 3.5 0  1.0591040413322679 180 7 0  1.112928494679007 
6 1 8 180 0 0  1 180.625 0 0.15307337294603593  1.0421808646298214 181.25 0 0.28284271247461901  1.082464156348685 181.875 0 0.36955181300451473  1.1190376675643379 182.5 0 0.40000000000000002  1.1502560810280587 183.125 0 0.36955181300451473  1.1747149870334141 183.75 0 0.28284271247461906  1.1913140630081971 184.375 0 0.15307337294603596  1.1993065732656665 185 0 4.8985871965894137e-17  1.1983329620904937 
6 1 2 185 0 4.8985871965894137e-17  1.1983329620904937 185 3.4999999999999996 0.10500000000000001  1.2568594853651363 185 6.9999999999999991 0.20999999999999994  1.299141042435344 
6 1 8 180 7 0  1.112928494679007 180.625 7 -0.13338587294603593  1.1639517310521426 181.25 7 -0.241592712474619  1.2084428378948187 181.875 7 -0.30486431300451478  1.2452438108021613 182.5 7 -0.31  1.2735425982075177 183.125 7 -0.25236431300451473  1.2929096328065683 183.75 7 -0.13659271247461907  1.3033171563219388 184.375 7 0.024114127053964048  1.3051404682532119 185 6.9999999999999991 0.20999999999999994  1.299141042435344 
7 1 0  2 3 2  200 0 0  1 200 3.5 0  1.0591040413322679 200 7 0  1.112928494679007
 0 3 1 3
7 1 0  8 9 2  200 0 0  1 200.625 0 0.15307337294603593  1.0421808646298214 201.25 0 0.28284271247461901  1.082464156348685 201.875 0 0.36955181300451473  1.1190376675643379 202.5 0 0.40000000000000002  1.1502560810280587 203.125 0 0.36955181300451473  1.1747149870334141 203.75 0 0.28284271247461906  1.1913140630081971 204.375 0 0.15307337294603596  1.1993065732656665 205 0 4.8985871965894137e-17  1.1983329620904937
 0 9 1 9
7 1 0  2 3 2  205 0 4.8985871965894137e-17  1.1983329620904937 205 3.4999999999999996 0.10500000000000001  1.2568594853651363 205 6.9999999999999991 0.20999999999999994  1.299141042435344
 0 3 1 3
7 1 0  8 9 2  200 7 0  1.112928494679007 200.625 7 -0.13338587294603593  1.1639517310521426 201.25 7 -0.241592712474619  1.2084428378948187 201.875 7 -0.30486431300451478  1.2452438108021613 202.5 7 -0.31  1.2735425982075177 203.12499999999997 7 -0.25236431300451473  1.2929096328065683 203.75 7 -0.13659271247461907  1.3033171563219388 204.375 7 0.024114127053964048  1.3051404682532119 205 6.9999999999999991 0.20999999999999994  1.299141042435344
 0 9 1 9
7 1 0  2 5 4  220 0 0  1 220 1.75 0  1.0298876264947199 220 3.5 0  1.0591040413322679 220 5.25 0  1.086993106822246 220 7 0  1.112928494679007
 0 3 0.37 1 0.70999999999999996 1 1 3
7 1 0  8 12 4  220 0 0  1 220.45454545454547 0 0.11269302273657188  1.0307861974415797 220.90909090909091 0 0.21625632698223904  1.0608385505429219 221.36363636363637 0 0.30229982974170333  1.0894407074623902 221.81818181818181 0 0.36385279814180738  1.1159108843904133 222.27272727272728 0 0.39592857675237308  1.1396181170917816 222.72727272727272 0 0.39592857675237314  1.1599973010720674 223.18181818181819 0 0.36385279814180738  1.1765626618587659 223.6363636363636 0 0.30229982974170333  1.1889193343088085 224.09090909090909 0 0.21625632698223896  1.1967727749288375 224.5454545454545 0 0.11269302273657204  1.1999357828486796 225 0 4.8985871965894137e-17  1.1983329620904937
 0 9 0.37 2 0.70999999999999996 1 1 9
7 1 0  2 5 4  225 0 4.8985871965894137e-17  1.1983329620904937 225 1.75 0.05250000000000004  1.2297550405950601 225 3.4999999999999996 0.10500000000000001  1.2568594853651363 225.00000000000003 5.25 0.15749999999999997  1.2798797581596997 224.99999999999997 6.9999999999999991 0.20999999999999994  1.299141042435344
 0 3 0.37 1 0.70999999999999996 1 1 3
7 1 0  8 12 4  220 7 0  1.112928494679007 220.45454545454547 7 -0.09856079133161319  1.1506278767073523 220.90909090909091 7 -0.1870001286351316  1.1850618198415788 221.3636363636364 7 -0.25692792891525706  1.215734576400145 221.81818181818181 7.0000000000000009 -0.30137345929883214  1.2422400533425655 222.27272727272728 7 -0.31535006435567886  1.2642714922268004 222.72727272727272 7.0000000000000009 -0.29625915526476987  1.2816287813479785 223.18181818181819 6.9999999999999991 -0.24410073202610488  1.2942232257604946 223.6363636363636 6.9999999999999991 -0.16147338346071161  1.3020796614814263 224.09090909090907 7 -0.053363764998767903  1.3053358634794348 224.5454545454545 7.0000000000000009 0.073257390486568458  1.3042392615607996 224.99999999999997 6.9999999999999991 0.20999999999999994  1.299141042435344
 0 9 0.37 2 0.70999999999999996 1 1 9
6 0 3 240 0 0  240 2.333333333333333 0  240 4.6666666666666661 0  240 7 0  
6 0 3 240 0 0  241.66666666666666 0 0.34641016151377546  243.33333333333334 0 0.34641016151377552  245 0 4.8985871965894131e-17  
6 0 3 245 0 4.8985871965894131e-17  245 2.333333333333333 0.070000000000000021  245 4.6666666666666661 0.13999999999999996  245 7 0.20999999999999994  
6 0 3 240 7 0  241.66666666666666 7 -0.28974349484710882  243.33333333333334 7 -0.21974349484710887  245 7 0.20999999999999994  
7 0 0  3 4 2  260 0 0  260 2.333333333333333 0  260 4.6666666666666661 0  260 7 0 
 0 4 1 4
7 0 0  3 4 2  260 0 0  261.66666666666669 0 0.34641016151377546  263.33333333333331 0 0.34641016151377552  265 0 4.8985871965894131e-17 
 0 4 1 4
7 0 0  3 4 2  265 0 4.8985871965894131e-17  265 2.333333333333333 0.070000000000000021  265 4.6666666666666661 0.13999999999999996  265 7 0.20999999999999994 
 0 4 1 4
7 0 0  3 4 2  260 7 0  261.66666666666669 7 -0.28974349484710882  263.33333333333331 7 -0.21974349484710887  265 7 0.20999999999999994 
 0 4 1 4
7 0 0  3 7 4  280 0 0  280 1.1666666666666665 0  280 2.333333333333333 0  280 3.5 0  280 4.6666666666666661 0  280 5.8333333333333339 0  280 7 0 
 0 4 0.37 2 0.70999999999999996 1 1 4
7 0 0  3 7 4  280 0 0  280.83333333333331 0 0.19999999999999998  281.66666666666669 0 0.34641016151377546  282.5 0 0.40000000000000002  283.33333333333331 0 0.34641016151377552  284.16666666666669 0 0.19999999999999998  285 0 4.8985871965894131e-17 
 0 4 0.37 2 0.70999999999999996 1 1 4
7 0 0  3 7 4  285 0 4.8985871965894131e-17  285 1.1666666666666665 0.035000000000000038  285 2.333333333333333 0.070000000000000021  285 3.5 0.105  285 4.6666666666666661 0.13999999999999996  285 5.8333333333333339 0.17499999999999996  285 7 0.20999999999999994 
 0 4 0.37 2 0.70999999999999996 1 1 4
7 0 0  3 7 4  280 7 0  280.83333333333331 7 -0.17333333333333331  281.66666666666669 7 -0.28974349484710882  282.5 7 -0.31  283.33333333333331 7 -0.21974349484710887  284.16666666666669 7 -0.033333333333333312  285 7 0.20999999999999994 
 0 4 0.37 2 0.70999999999999996 1 1 4
6 1 3 300 0 0  1 300 2.333333333333333 0  1.0397338661590123 300 4.6666666666666661 0  1.0778836684617301 300 7 0  1.112928494679007 
6 1 3 300 0 0  1 301.66666666666669 0 0.34641016151377546  1.1073645438787922 303.33333333333331 0 0.34641016151377552  1.1811658723194762 305 0 4.8985871965894137e-17  1.1983329620904937 
6 1 3 305 0 4.8985871965894137e-17  1.1983329620904937 305 2.333333333333333 0.070000000000000021  1.239260017537483 305 4.6666666666666661 0.13999999999999996  1.2726418733297749 305 6.9999999999999991 0.20999999999999994  1.299141042435344 
6 1 3 300 7 0  1.112928494679007 301.66666666666669 7 -0.28974349484710882  1.2338889958507511 303.33333333333331 7.0000000000000009 -0.21974349484710887  1.2973639830766261 305 6.9999999999999991 0.20999999999999994  1.299141042435344 
7 1 0  3 4 2  320 0 0  1 320 2.333333333333333 0  1.0397338661590123 320 4.6666666666666661 0  1.0778836684617301 320 7 0  1.112928494679007
 0 4 1 4
7 1 0  3 4 2  320 0 0  1 321.66666666666669 0 0.34641016151377546  1.1073645438787922 323.33333333333331 0 0.34641016151377552  1.1811658723194762 325 0 4.8985871965894137e-17  1.1983329620904937
 0 4 1 4
7 1 0  3 4 2  325 0 4.8985871965894137e-17  1.1983329620904937 325 2.333333333333333 0.070000000000000021  1.239260017537483 325 4.6666666666666661 0.13999999999999996  1.2726418733297749 325 6.9999999999999991 0.20999999999999994  1.299141042435344
 0 4 1 4
7 1 0  3 4 2  320 7 0  1.112928494679007 321.66666666666669 7 -0.28974349484710882  1.2338889958507511 323.33333333333331 7.0000000000000009 -0.21974349484710887  1.2973639830766261 325 6.9999999999999991 0.20999999999999994  1.299141042435344
 0 4 1 4
7 1 0  3 7 4  340 0 0  1 340 1.1666666666666665 0  1.0199666833293657 340 2.333333333333333 0  1.0397338661590123 340 3.5 0  1.0591040413322679 340 4.6666666666666661 0  1.0778836684617301 340 5.8333333333333339 0  1.0958851077208407 340 7 0  1.112928494679007
 0 4 0.37 2 0.70999999999999996 1 1 4
7 1 0  3 7 4  340 0 0  1 340.83333333333331 0 0.19999999999999998  1.0559115250903284 341.66666666666669 0 0.34641016151377546  1.1073645438787922 342.5 0 0.40000000000000002  1.1502560810280587 343.33333333333331 0 0.34641016151377552  1.1811658723194762 344.16666666666669 0 0.19999999999999998  1.1976291039415914 345 0 4.8985871965894137e-17  1.1983329620904937
 0 4 0.37 2 0.70999999999999996 1 1 4
7 1 0  3 7 4  345 0 4.8985871965894137e-17  1.1983329620904937 345 1.1666666666666665 0.035000000000000038  1.2197695261756389 345 2.333333333333333 0.070000000000000021  1.239260017537483 345 3.4999999999999996 0.10500000000000001  1.2568594853651363 345 4.6666666666666661 0.13999999999999996  1.2726418733297749 345 5.8333333333333339 0.17499999999999996  1.2866992807639179 345 6.9999999999999991 0.20999999999999994  1.299141042435344
 0 4 0.37 2 0.70999999999999996 1 1 4
7 1 0  3 7 4  340 7 0  1.112928494679007 340.83333333333331 7 -0.17333333333333331  1.1795716860469145 341.66666666666669 7 -0.28974349484710882  1.2338889958507511 342.5 7 -0.31  1.2735425982075177 343.33333333333331 7.0000000000000009 -0.21974349484710887  1.2973639830766261 344.16666666666669 7 -0.033333333333333312  1.3054471357854318 345 6.9999999999999991 0.20999999999999994  1.299141042435344
 0 4 0.37 2 0.70999999999999996 1 1 4
7 0 0  2 3 2  362.55228474983085 2.5522847498307932 -0.06666666666666668  362.55228474983085 2.5522847498307932 2.5  362.55228474983085 2.5522847498307932 5.0666666666666664 
 0 3 1 3
7 0 1  3 8 9  364 0 0  362.82842712474621 2.8284271247461898 -0.10000000000000001  360 4 -1.2246467991473533e-17  357.17157287525379 2.8284271247461903 0.10000000000000001  356 4.8985871965894128e-16 2.4492935982947065e-17  357.17157287525379 -2.8284271247461898 -0.10000000000000001  360 -4 -3.6739403974420595e-17  362.82842712474621 -2.8284271247461907 0.10000000000000001 
 0 1 1 1 2 1 3 1 4 1 5 1 6 1 7 1 8 1
7 0 1  3 8 9  364 0 5  362.82842712474621 2.8284271247461898 5.0999999999999996  360 4 5  357.17157287525379 2.8284271247461903 4.9000000000000004  356 4.8985871965894128e-16 5  357.17157287525379 -2.8284271247461898 5.0999999999999996  360 -4 5  362.82842712474621 -2.8284271247461907 4.9000000000000004 
 0 1 1 1 2 1 3 1 4 1 5 1 6 1 7 1 8 1
7 1 0  2 3 2  382.52606888138888 2.5788359147459241 -0.066686903598994471  1.0418646024779952 382.52485972870778 2.5804436650180023 2.5  1.1067111990209759 382.5254227314029 2.5801808813028555 5.0667290809100765  1.1628630427970661
 0 3 1 3
7 1 1  3 8 9  384 0 0  1 382.82842712474621 2.8284271247461898 -0.10000000000000001  1.0421808646298214 380 4 -1.2246467991473533e-17  1.082464156348685 377.17157287525379 2.8284271247461903 0.10000000000000001  1.1190376675643379 376 4.8985871965894128e-16 2.4492935982947065e-17  1.1502560810280587 377.17157287525379 -2.8284271247461898 -0.10000000000000001  1.1747149870334141 380 -4 -3.6739403974420595e-17  1.1913140630081971 382.82842712474621 -2.8284271247461907 0.10000000000000001  1.1993065732656665
 0 1 1 1 2 1 3 1 4 1 5 1 6 1 7 1 8 1
7 1 1  3 8 9  384 0 5  1.112928494679007 382.82842712474621 2.8284271247461898 5.0999999999999996  1.1639517310521426 380 4 5  1.2084428378948187 377.17157287525379 2.8284271247461903 4.9000000000000004  1.2452438108021613 376 4.8985871965894128e-16 5  1.2735425982075177 377.17157287525379 -2.8284271247461898 5.0999999999999996  1.2929096328065683 380 -4 5  1.3033171563219388 382.82842712474621 -2.8284271247461907 4.9000000000000004  1.3051404682532119
 0 1 1 1 2 1 3 1 4 1 5 1 6 1 7 1 8 1
Polygon3D 0
PolygonOnTriangulations 0
Surfaces 20
8 0 0 2 8 0 0 0  0 0.875 0  0 1.75 0  0 2.625 0  0 3.5 0  0 4.375 0  0 5.25 0  0 6.125 0  0 7 0  
2.5 0 0.40000000000000002  2.5 0.875 0.38080181300451477  2.5 1.75 0.30534271247461903  2.5 2.625 0.18682337294603596  2.5 3.5 0.045000000000000026  2.5 4.375 -0.096823372946035907  2.5 5.25 -0.215342712474619  2.5 6.125 -0.29080181300451474  2.5 7 -0.31  
5 0 4.8985871965894131e-17  5 0.875 0.026250000000000044  5 1.75 0.052500000000000033  5 2.625 0.078750000000000014  5 3.5 0.105  5 4.375 0.13124999999999998  5 5.25 0.15749999999999997  5 6.125 0.18374999999999994  5 7 0.20999999999999994  

9 0 0 0 0 2 8 3 9 2 2 20 0 0  20 0.875 0  20 1.75 0  20 2.625 0  20 3.5 0  20 4.375 0  20 5.25 0  20 6.125 0  20 7 0  
22.5 0 0.40000000000000002  22.5 0.875 0.38080181300451477  22.5 1.75 0.30534271247461903  22.5 2.625 0.18682337294603596  22.5 3.5 0.045000000000000026  22.5 4.375 -0.096823372946035907  22.5 5.25 -0.215342712474619  22.5 6.125 -0.29080181300451474  22.5 7 -0.31  
25 0 4.8985871965894131e-17  25 0.875 0.026250000000000044  25 1.75 0.052500000000000033  25 2.625 0.078750000000000014  25 3.5 0.105  25 4.375 0.13124999999999998  25 5.25 0.15749999999999997  25 6.125 0.18374999999999994  25 7 0.20999999999999994  

0 3
1 3

0 9
1 9

9 0 0 0 0 2 8 5 12 4 4 40 0 0  40 0.63636363636363635 0  40 1.2727272727272727 0  40 1.9090909090909089 0  40 2.5454545454545454 0  40 3.1818181818181817 0  40 3.8181818181818179 0  40 4.4545454545454541 0  40 5.0909090909090908 0  40 5.7272727272727275 0  40 6.3636363636363633 0  40 7 0  
41.25 0 0.28284271247461901  41.25 0.63636363636363635 0.27513559525746251  41.25 1.2727272727272727 0.24544243110482722  41.25 1.9090909090909089 0.19647258628220426  41.25 2.5454545454545454 0.13249710908013268  41.25 3.1818181818181817 0.059002714882602746  41.25 3.8181818181818179 -0.017752714882602657  41.25 4.4545454545454541 -0.091247109080132657  41.25 5.0909090909090908 -0.15522258628220423  41.25 5.7272727272727275 -0.20419243110482727  41.25 6.3636363636363633 -0.23388559525746247  41.25 7 -0.241592712474619  
42.5 0 0.40000000000000002  42.5 0.63636363636363635 0.39197900762761717  42.5 1.2727272727272727 0.35286504949610886  42.5 1.9090909090909089 0.28648974812356859  42.5 2.5454545454545454 0.19889327792802733  42.5 3.1818181818181817 0.09783502621840505  42.5 3.8181818181818179 -0.0078350262184049193  42.5 4.4545454545454541 -0.10889327792802725  42.5 5.0909090909090908 -0.19648974812356856  42.5 5.7272727272727275 -0.26286504949610895  42.5 6.3636363636363633 -0.30197900762761715  42.5 7 -0.31  
43.75 0 0.28284271247461906  43.75 0.63636363636363635 0.28468104980291709  43.75 1.2727272727272727 0.26453334019573643  43.75 1.9090909090909089 0.22510894991856792  43.75 2.5454545454545454 0.17067892726195089  43.75 3.1818181818181817 0.10672998760987547  43.75 3.8181818181818179 0.039520012390124606  43.75 4.4545454545454541 -0.02442892726195086  43.75 5.0909090909090908 -0.078858949918567886  43.75 5.7272727272727275 -0.11828334019573641  43.75 6.3636363636363633 -0.13843104980291704  43.75 7 -0.13659271247461907  
45 0 4.8985871965894131e-17  45 0.63636363636363635 0.019090909090909138  45 1.2727272727272727 0.03818181818181822  45 1.9090909090909089 0.057272727272727295  45 2.5454545454545454 0.076363636363636384  45 3.1818181818181817 0.095454545454545459  45 3.8181818181818179 0.11454545454545451  45 4.4545454545454541 0.13363636363636361  45 5.0909090909090908 0.15272727272727268  45 5.7272727272727275 0.17181818181818179  45 6.3636363636363633 0.19090909090909083  45 7 0.20999999999999994  

0 3
0.37 1
0.70999999999999996 1
1 3

0 9
0.37 2
0.70999999999999996 1
1 9

8 1 1 2 8 60 0 0  1 60 0.875 0  1.0149859414545486 60 1.75 0  1.0298876264947199 60 2.625 0  1.0446212724263491 60 3.5 0  1.0591040413322679 60 4.375 0  1.0732545058172096 60 5.25 0  1.086993106822246 60 6.125 0  1.1002426009347597 60 7 0  1.112928494679007 
62.5 0 0.40000000000000002  1.1502560810280587 62.5 0.875 0.38080181300451477  1.1690991526397627 62.5 1.75 0.30534271247461903  1.1870441969615795 62.5 2.625 0.18682337294603596  1.2040430300867577 62.5 3.5 0.045000000000000026  1.2200527880521044 62.5 4.375 -0.096823372946035907  1.2350361678347745 62.5 5.25 -0.215342712474619  1.2489616370834384 62.5 6.125 -0.29080181300451474  1.2618036114046312 62.5 7 -0.31  1.2735425982075177 
65 0 4.8985871965894131e-17  1.1983329620904937 65 0.875 0.026250000000000044  1.214594556011459 65 1.75 0.052500000000000033  1.2297550405950601 65 2.625 0.078750000000000014  1.2438345974027456 65 3.5 0.105  1.2568594853651363 65 4.375 0.13124999999999998  1.2688618931447635 65 5.25 0.15749999999999997  1.2798797581596997 65 6.125 0.18374999999999994  1.2899565532855923 65 7 0.20999999999999994  1.299141042435344 

9 1 1 0 0 2 8 3 9 2 2 80 0 0  1 80 0.875 0  1.0149859414545486 80 1.75 0  1.0298876264947199 80 2.625 0  1.0446212724263491 80 3.5 0  1.0591040413322679 80 4.375 0  1.0732545058172096 80 5.25 0  1.086993106822246 80 6.125 0  1.1002426009347597 80 7 0  1.112928494679007 
82.5 0 0.40000000000000002  1.1502560810280587 82.5 0.875 0.38080181300451477  1.1690991526397627 82.5 1.75 0.30534271247461903  1.1870441969615795 82.5 2.625 0.18682337294603596  1.2040430300867577 82.5 3.5 0.045000000000000026  1.2200527880521044 82.5 4.375 -0.096823372946035907  1.2350361678347745 82.5 5.25 -0.215342712474619  1.2489616370834384 82.5 6.125 -0.29080181300451474  1.2618036114046312 82.5 7 -0.31  1.2735425982075177 
85 0 4.8985871965894131e-17  1.1983329620904937 85 0.875 0.026250000000000044  1.214594556011459 85 1.75 0.052500000000000033  1.2297550405950601 85 2.625 0.078750000000000014  1.2438345974027456 85 3.5 0.105  1.2568594853651363 85 4.375 0.13124999999999998  1.2688618931447635 85 5.25 0.15749999999999997  1.2798797581596997 85 6.125 0.18374999999999994  1.2899565532855923 85 7 0.20999999999999994  1.299141042435344 

0 3
1 3

0 9
1 9

9 1 1 0 0 2 8 5 12 4 4 100 0 0  1 100 0.63636363636363635 0  1.0109036822471815 100 1.2727272727272727 0  1.0217749318292035 100 1.9090909090909089 0  1.0325814125508652 100 2.5454545454545454 0  1.0432909808699347 100 3.1818181818181817 0  1.0538717815071197 100 3.8181818181818179 0  1.0642923421986108 100 4.4545454545454541 0  1.0745216673093536 100 5.0909090909090908 0  1.0845293300286065 100 5.7272727272727275 0  1.0942855628735466 100 6.3636363636363633 0  1.1037613462317255 100 7 0  1.112928494679007 
101.25 0 0.28284271247461901  1.082464156348685 101.25 0.63636363636363635 0.27513559525746251  1.0956842805772016 101.25 1.2727272727272727 0.24544243110482722  1.1086299351117952 101.25 1.9090909090909089 0.19647258628220426  1.1212727537393079 101.25 2.5454545454545454 0.13249710908013268  1.1335852710226075 101.25 3.1818181818181817 0.059002714882602746  1.1455410039956815 101.25 3.8181818181818179 -0.017752714882602657  1.1571145309363986 101.25 4.4545454545454541 -0.091247109080132657  1.1682815669826336 101.25 5.0909090909090908 -0.15522258628220423  1.1790190363668385 101.25 5.7272727272727275 -0.20419243110482727  1.1893051410541968 101.25 6.3636363636363633 -0.23388559525746247  1.1991194255802058 101.25 7 -0.241592712474619  1.2084428378948187 
102.5 0 0.40000000000000002  1.1502560810280587 102.5 0.63636363636363635 0.39197900762761717  1.1640470433276575 102.5 1.2727272727272727 0.35286504949610886  1.1773703332480445 102.5 1.9090909090909089 0.28648974812356859  1.1902066015466315 102.5 2.5454545454545454 0.19889327792802733  1.2025379476115612 102.5 3.1818181818181817 0.09783502621840505  1.2143479727065238 102.5 3.8181818181818179 -0.0078350262184049193  1.2256218287482885 102.5 4.4545454545454541 -0.10889327792802725  1.2363462624718689 102.5 5.0909090909090908 -0.19648974812356856  1.2465096548519481 102.5 5.7272727272727275 -0.26286504949610895  1.2561020556633105 102.5 6.3636363636363633 -0.30197900762761715  1.2651152130774779 102.5 7 -0.31  1.2735425982075177 
103.75 0 0.28284271247461906  1.1913140630081971 103.75 0.63636363636363635 0.28468104980291709  1.2044352486059582 103.75 1.2727272727272727 0.26453334019573643  1.2169787685940521 103.75 1.9090909090909089 0.22510894991856792  1.2289377333667353 103.75 2.5454545454545454 0.17067892726195089  1.2403069920596488 103.75 3.1818181818181817 0.10672998760987547  1.251083147870905 103.75 3.8181818181818179 0.039520012390124606  1.2612645681647694 103.75 4.4545454545454541 -0.02442892726195086  1.2708513893278852 103.75 5.0909090909090908 -0.078858949918567886  1.2798455163635953 103.75 5.7272727272727275 -0.11828334019573641  1.288250617225569 103.75 6.3636363636363633 -0.13843104980291704  1.2960721119075871 103.75 7 -0.13659271247461907  1.3033171563219388 
105 0 4.8985871965894131e-17  1.1983329620904937 105 0.63636363636363635 0.019090909090909138  1.2102694786750581 105 1.2727272727272727 0.03818181818181822  1.2216211161486301 105 1.9090909090909089 0.057272727272727295  1.2323946703584234 105 2.5454545454545454 0.076363636363636384  1.2425986566424163 105 3.1818181818181817 0.095454545454545459  1.2522432845007438 105 3.8181818181818179 0.11454545454545451  1.2613404272278543 105 4.4545454545454541 0.13363636363636361  1.2699035865957635 105 5.0909090909090908 0.15272727272727268  1.2779478526934518 105 5.7272727272727275 0.17181818181818179  1.2854898590418615 105 6.3636363636363633 0.19090909090909083  1.2925477331180049 105 7 0.20999999999999994  1.299141042435344 

0 3
0.37 1
0.70999999999999996 1
1 3

0 9
0.37 2
0.70999999999999996 1
1 9

8 0 0 8 2 120 0 0  120 3.5 0  120 7 0  
120.625 0 0.15307337294603593  120.625 3.5 0.0098437500000000087  120.625 7 -0.13338587294603593  
121.25 0 0.28284271247461901  121.25 3.5 0.020625000000000018  121.25 7 -0.241592712474619  
121.875 0 0.36955181300451473  121.875 3.5 0.032343750000000018  121.875 7 -0.30486431300451478  
122.5 0 0.40000000000000002  122.5 3.5 0.045000000000000026  122.5 7 -0.31  
123.125 0 0.36955181300451473  123.125 3.5 0.058593750000000021  123.125 7 -0.25236431300451473  
123.75 0 0.28284271247461906  123.75 3.5 0.073125000000000009  123.75 7 -0.13659271247461907  
124.375 0 0.15307337294603596  124.375 3.5 0.088593750000000013  124.375 7 0.024114127053964048  
125 0 4.8985871965894131e-17  125 3.5 0.105  125 7 0.20999999999999994  

9 0 0 0 0 8 2 9 3 2 2 140 0 0  140 3.5 0  140 7 0  
140.625 0 0.15307337294603593  140.625 3.5 0.0098437500000000087  140.625 7 -0.13338587294603593  
141.25 0 0.28284271247461901  141.25 3.5 0.020625000000000018  141.25 7 -0.241592712474619  
141.875 0 0.36955181300451473  141.875 3.5 0.032343750000000018  141.875 7 -0.30486431300451478  
142.5 0 0.40000000000000002  142.5 3.5 0.045000000000000026  142.5 7 -0.31  
143.125 0 0.36955181300451473  143.125 3.5 0.058593750000000021  143.125 7 -0.25236431300451473  
143.75 0 0.28284271247461906  143.75 3.5 0.073125000000000009  143.75 7 -0.13659271247461907  
144.375 0 0.15307337294603596  144.375 3.5 0.088593750000000013  144.375 7 0.024114127053964048  
145 0 4.8985871965894131e-17  145 3.5 0.105  145 7 0.20999999999999994  

0 9
1 9

0 3
1 3

9 0 0 0 0 8 2 12 5 4 4 160 0 0  160 1.75 0  160 3.5 0  160 5.25 0  160 7 0  
160.45454545454547 0 0.11269302273657188  160.45454545454547 1.75 0.083219058420679434  160.45454545454547 3.5 0.0070661157024793451  160.45454545454547 5.25 -0.069086827015720748  160.45454545454547 7 -0.09856079133161319  
160.90909090909091 0 0.21625632698223904  160.90909090909091 1.75 0.16023036487041342  160.90909090909091 3.5 0.014628099173553732  160.90909090909091 5.25 -0.13097416652330598  160.90909090909091 7 -0.1870001286351316  
161.36363636363637 0 0.30229982974170333  161.36363636363637 1.75 0.22510123476850877  161.36363636363637 3.5 0.022685950413223153  161.36363636363637 5.25 -0.17972933394206247  161.36363636363637 7 -0.25692792891525706  
161.81818181818181 0 0.36385279814180738  161.81818181818181 1.75 0.27290261563051582  161.81818181818181 3.5 0.031239669421487624  161.81818181818181 5.25 -0.21042327678754064  161.81818181818181 7 -0.30137345929883214  
162.27272727272728 0 0.39592857675237308  162.27272727272728 1.75 0.30010840958631502  162.27272727272728 3.5 0.040289256198347126  162.27272727272728 5.25 -0.21952989718962079  162.27272727272728 7 -0.31535006435567886  
162.72727272727272 0 0.39592857675237314  162.72727272727272 1.75 0.30488113685904233  162.72727272727272 3.5 0.049834710743801663  162.72727272727272 5.25 -0.20521171537143901  162.72727272727272 7 -0.29625915526476987  
163.18181818181819 0 0.36385279814180738  163.18181818181819 1.75 0.28722079744869766  163.18181818181819 3.5 0.059876033057851254  163.18181818181819 5.25 -0.16746873133299517  163.18181818181819 7 -0.24410073202610488  
163.63636363636363 0 0.30229982974170333  163.63636363636363 1.75 0.24896487113214513  163.63636363636363 3.5 0.07041322314049589  163.63636363636363 5.25 -0.10813842485115338  163.63636363636363 7 -0.16147338346071161  
164.09090909090909 0 0.21625632698223898  164.09090909090909 1.75 0.19363945577950431  164.09090909090909 3.5 0.081446280991735551  164.09090909090909 5.25 -0.030746893796033223  164.09090909090909 7 -0.053363764998767903  
164.54545454545453 0 0.11269302273657203  164.54545454545453 1.75 0.12617360387522497  164.54545454545453 3.5 0.092975206611570244  164.54545454545453 5.25 0.059776809347915509  164.54545454545453 7 0.073257390486568458  
165 0 4.8985871965894131e-17  165 1.75 0.052500000000000033  165 3.5 0.105  165 5.25 0.15749999999999997  165 7 0.20999999999999994  

0 9
0.37 2
0.70999999999999996 1
1 9

0 3
0.37 1
0.70999999999999996 1
1 3

8 1 1 8 2 180 0 0  1 180 3.5 0  1.0591040413322679 180 7 0  1.112928494679007 
180.625 0 0.15307337294603593  1.0421808646298214 180.625 3.5 0.0098437500000000087  1.1074465160652296 180.625 7 -0.13338587294603593  1.1639517310521426 
181.25 0 0.28284271247461901  1.082464156348685 181.25 3.5 0.020625000000000018  1.15137708853267 181.25 7 -0.241592712474619  1.2084428378948187 
181.875 0 0.36955181300451473  1.1190376675643379 181.875 3.5 0.032343750000000018  1.1893412216521386 181.875 7 -0.30486431300451478  1.2452438108021613 
182.5 0 0.40000000000000002  1.1502560810280587 182.5 3.5 0.045000000000000026  1.2200527880521044 182.5 7 -0.31  1.2735425982075177 
183.125 0 0.36955181300451473  1.1747149870334141 183.125 3.5 0.058593750000000021  1.2425519285459723 183.125 7 -0.25236431300451473  1.2929096328065683 
183.75 0 0.28284271247461906  1.1913140630081971 183.75 3.5 0.073125000000000009  1.2562482329157605 183.75 7 -0.13659271247461907  1.3033171563219388 
184.375 0 0.15307337294603596  1.1993065732656665 184.375 3.5 0.088593750000000013  1.2609473004495806 184.375 7 0.024114127053964048  1.3051404682532119 
185 0 4.8985871965894131e-17  1.1983329620904937 185 3.5 0.105  1.2568594853651363 185 7 0.20999999999999994  1.299141042435344 

9 1 1 0 0 8 2 9 3 2 2 200 0 0  1 200 3.5 0  1.0591040413322679 200 7 0  1.112928494679007 
200.625 0 0.15307337294603593  1.0421808646298214 200.625 3.5 0.0098437500000000087  1.1074465160652296 200.625 7 -0.13338587294603593  1.1639517310521426 
201.25 0 0.28284271247461901  1.082464156348685 201.25 3.5 0.020625000000000018  1.15137708853267 201.25 7 -0.241592712474619  1.2084428378948187 
201.875 0 0.36955181300451473  1.1190376675643379 201.875 3.5 0.032343750000000018  1.1893412216521386 201.875 7 -0.30486431300451478  1.2452438108021613 
202.5 0 0.40000000000000002  1.1502560810280587 202.5 3.5 0.045000000000000026  1.2200527880521044 202.5 7 -0.31  1.2735425982075177 
203.125 0 0.36955181300451473  1.1747149870334141 203.125 3.5 0.058593750000000021  1.2425519285459723 203.125 7 -0.25236431300451473  1.2929096328065683 
203.75 0 0.28284271247461906  1.1913140630081971 203.75 3.5 0.073125000000000009  1.2562482329157605 203.75 7 -0.13659271247461907  1.3033171563219388 
204.375 0 0.15307337294603596  1.1993065732656665 204.375 3.5 0.088593750000000013  1.2609473004495806 204.375 7 0.024114127053964048  1.3051404682532119 
205 0 4.8985871965894131e-17  1.1983329620904937 205 3.5 0.105  1.2568594853651363 205 7 0.20999999999999994  1.299141042435344 

0 9
1 9

0 3
1 3

9 1 1 0 0 8 2 12 5 4 4 220 0 0  1 220 1.75 0  1.0298876264947199 220 3.5 0  1.0591040413322679 220 5.25 0  1.086993106822246 220 7 0  1.112928494679007 
220.45454545454547 0 0.11269302273657188  1.0307861974415797 220.45454545454547 1.75 0.083219058420679434  1.0633810063902005 220.45454545454547 3.5 0.0070661157024793451  1.094628975408894 220.45454545454547 5.25 -0.069086827015720748  1.1239049033123787 220.45454545454547 7 -0.09856079133161319  1.1506278767073523 
220.90909090909091 0 0.21625632698223904  1.0608385505429219 220.90909090909091 1.75 0.16023036487041342  1.0954448479078889 220.90909090909091 3.5 0.014628099173553732  1.1280607814202366 220.90909090909091 5.25 -0.13097416652330598  1.1581069891935665 220.90909090909091 7 -0.1870001286351316  1.1850618198415788 
221.36363636363637 0 0.30229982974170333  1.0894407074623902 221.36363636363637 1.75 0.22510123476850877  1.1253961135731199 221.36363636363637 3.5 0.022685950413223153  1.1587650758077408 221.36363636363637 5.25 -0.17972933394206247  1.1890278817104403 221.36363636363637 7 -0.25692792891525706  1.215734576400145 
221.81818181818181 0 0.36385279814180738  1.1159108843904133 221.81818181818181 1.75 0.27290261563051582  1.1526021229530676 221.81818181818181 3.5 0.031239669421487624  1.1861724901538699 221.81818181818181 5.25 -0.21042327678754064  1.2161743112479249 221.81818181818181 7 -0.30137345929883214  1.2422400533425655 
222.27272727272728 0 0.39592857675237308  1.1396181170917816 222.27272727272728 1.75 0.30010840958631502  1.1764956337318184 222.27272727272728 3.5 0.040289256198347126  1.2097922431015196 222.27272727272728 5.25 -0.21952989718962079  1.2391429792989432 222.27272727272728 7 -0.31535006435567886  1.2642714922268004 
222.72727272727272 0 0.39592857675237314  1.1599973010720674 222.72727272727272 1.75 0.30488113685904233  1.1965883629503311 222.72727272727272 3.5 0.049834710743801663  1.2292238390096197 222.72727272727272 5.25 -0.20521171537143901  1.2576301718090788 222.72727272727272 7 -0.29625915526476987  1.2816287813479785 
223.18181818181819 0 0.36385279814180738  1.1765626618587659 223.18181818181819 1.75 0.28722079744869766  1.2124826261082327 223.18181818181819 3.5 0.059876033057851254  1.2441666144864501 223.18181818181819 5.25 -0.16746873133299517  1.2714389987468497 223.18181818181819 7 -0.24410073202610488  1.2942232257604946 
223.63636363636363 0 0.30229982974170333  1.1889193343088085 223.63636363636363 1.75 0.24896487113214513  1.2238808166885415 223.63636363636363 3.5 0.07041322314049589  1.254426905241887 223.63636363636363 5.25 -0.10813842485115338  1.2804840873314305 223.63636363636363 7 -0.16147338346071161  1.3020796614814263 
224.09090909090909 0 0.21625632698223898  1.1967727749288375 224.09090909090909 1.75 0.19363945577950431  1.230592500143814 224.09090909090909 3.5 0.081446280991735551  1.2599226624237825 224.09090909090909 5.25 -0.030746893796033223  1.2847936170463017 224.09090909090909 7 -0.053363764998767903  1.3053358634794348 
224.54545454545453 0 0.11269302273657203  1.1999357828486796 224.54545454545453 1.75 0.12617360387522497  1.2325389532458002 224.54545454545453 3.5 0.092975206611570244  1.2606854083998003 224.54545454545453 5.25 0.059776809347915509  1.2845086479306211 224.54545454545453 7 0.073257390486568458  1.3042392615607996 
225 0 4.8985871965894131e-17  1.1983329620904937 225 1.75 0.052500000000000033  1.2297550405950601 225 3.5 0.105  1.2568594853651363 225 5.25 0.15749999999999997  1.2798797581596997 225 7 0.20999999999999994  1.299141042435344 

0 9
0.37 2
0.70999999999999996 1
1 9

0 3
0.37 1
0.70999999999999996 1
1 3

8 0 0 3 3 240 0 0  240 2.333333333333333 0  240 4.6666666666666661 0  240 7 0  
241.66666666666666 0 0.34641016151377546  241.66666666666666 2.333333333333333 0.19209396964577663  241.66666666666666 4.6666666666666661 -0.13542730297910988  241.66666666666666 7 -0.28974349484710882  
243.33333333333334 0 0.34641016151377552  243.33333333333334 2.333333333333333 0.21542730297911  243.33333333333334 4.6666666666666661 -0.088760636312443242  243.33333333333334 7 -0.21974349484710887  
245 0 4.8985871965894131e-17  245 2.333333333333333 0.070000000000000021  245 4.6666666666666661 0.13999999999999996  245 7 0.20999999999999994  

9 0 0 0 0 3 3 4 4 2 2 260 0 0  260 2.333333333333333 0  260 4.6666666666666661 0  260 7 0  
261.66666666666669 0 0.34641016151377546  261.66666666666669 2.333333333333333 0.19209396964577663  261.66666666666669 4.6666666666666661 -0.13542730297910988  261.66666666666669 7 -0.28974349484710882  
263.33333333333331 0 0.34641016151377552  263.33333333333331 2.333333333333333 0.21542730297911  263.33333333333331 4.6666666666666661 -0.088760636312443242  263.33333333333331 7 -0.21974349484710887  
265 0 4.8985871965894131e-17  265 2.333333333333333 0.070000000000000021  265 4.6666666666666661 0.13999999999999996  265 7 0.20999999999999994  

0 4
1 4

0 4
1 4

9 0 0 0 0 3 3 7 7 4 4 280 0 0  280 1.1666666666666665 0  280 2.333333333333333 0  280 3.5 0  280 4.6666666666666661 0  280 5.8333333333333339 0  280 7 0  
280.83333333333331 0 0.19999999999999998  280.83333333333331 1.1666666666666665 0.17764952520133215  280.83333333333331 2.333333333333333 0.10888888888888891  280.83333333333331 3.5 0.013333333333333345  280.83333333333331 4.6666666666666661 -0.082222222222222183  280.83333333333331 5.8333333333333339 -0.1509828585346655  280.83333333333331 7 -0.17333333333333331  
281.66666666666669 0 0.34641016151377546  281.66666666666669 1.1666666666666665 0.30944444444444447  281.66666666666669 2.333333333333333 0.19209396964577663  281.66666666666669 3.5 0.028333333333333353  281.66666666666669 4.6666666666666661 -0.13542730297910988  281.66666666666669 5.8333333333333339 -0.25277777777777782  281.66666666666669 7 -0.28974349484710882  
282.5 0 0.40000000000000002  282.5 1.1666666666666665 0.36141016151377553  282.5 2.333333333333333 0.23000000000000007  282.5 3.5 0.045000000000000026  282.5 4.6666666666666661 -0.13999999999999993  282.5 5.8333333333333339 -0.27141016151377551  282.5 7 -0.31  
283.33333333333331 0 0.34641016151377552  283.33333333333331 1.1666666666666665 0.32111111111111112  283.33333333333331 2.333333333333333 0.21542730297911  283.33333333333331 3.5 0.063333333333333353  283.33333333333331 4.6666666666666661 -0.088760636312443242  283.33333333333331 5.8333333333333339 -0.1944444444444445  283.33333333333331 7 -0.21974349484710887  
284.16666666666669 0 0.19999999999999998  284.16666666666669 1.1666666666666665 0.20098285853466552  284.16666666666669 2.333333333333333 0.15555555555555559  284.16666666666669 3.5 0.083333333333333343  284.16666666666669 4.6666666666666661 0.011111111111111158  284.16666666666669 5.8333333333333339 -0.034316191867998828  284.16666666666669 7 -0.033333333333333312  
285 0 4.8985871965894131e-17  285 1.1666666666666665 0.035000000000000038  285 2.333333333333333 0.070000000000000021  285 3.5 0.105  285 4.6666666666666661 0.13999999999999996  285 5.8333333333333339 0.17499999999999996  285 7 0.20999999999999994  

0 4
0.37 2
0.70999999999999996 1
1 4

0 4
0.37 2
0.70999999999999996 1
1 4

8 1 1 3 3 300 0 0  1 300 2.333333333333333 0  1.0397338661590123 300 4.6666666666666661 0  1.0778836684617301 300 7 0  1.112928494679007 
301.66666666666669 0 0.34641016151377546  1.1073645438787922 301.66666666666669 2.333333333333333 0.19209396964577663  1.1554143346824908 301.66666666666669 4.6666666666666661 -0.13542730297910988  1.197932693805984 301.66666666666669 7 -0.28974349484710882  1.2338889958507511 
303.33333333333331 0 0.34641016151377552  1.1811658723194762 303.33333333333331 2.333333333333333 0.21542730297911  1.2277209136059959 303.33333333333331 4.6666666666666661 -0.088760636312443242  1.2665263354925265 303.33333333333331 7 -0.21974349484710887  1.2973639830766261 
305 0 4.8985871965894131e-17  1.1983329620904937 305 2.333333333333333 0.070000000000000021  1.239260017537483 305 4.6666666666666661 0.13999999999999996  1.2726418733297749 305 7 0.20999999999999994  1.299141042435344 

9 1 1 0 0 3 3 4 4 2 2 320 0 0  1 320 2.333333333333333 0  1.0397338661590123 320 4.6666666666666661 0  1.0778836684617301 320 7 0  1.112928494679007 
321.66666666666669 0 0.34641016151377546  1.1073645438787922 321.66666666666669 2.333333333333333 0.19209396964577663  1.1554143346824908 321.66666666666669 4.6666666666666661 -0.13542730297910988  1.197932693805984 321.66666666666669 7 -0.28974349484710882  1.2338889958507511 
323.33333333333331 0 0.34641016151377552  1.1811658723194762 323.33333333333331 2.333333333333333 0.21542730297911  1.2277209136059959 323.33333333333331 4.6666666666666661 -0.088760636312443242  1.2665263354925265 323.33333333333331 7 -0.21974349484710887  1.2973639830766261 
325 0 4.8985871965894131e-17  1.1983329620904937 325 2.333333333333333 0.070000000000000021  1.239260017537483 325 4.6666666666666661 0.13999999999999996  1.2726418733297749 325 7 0.20999999999999994  1.299141042435344 

0 4
1 4

0 4
1 4

9 1 1 0 0 3 3 7 7 4 4 340 0 0  1 340 1.1666666666666665 0  1.0199666833293657 340 2.333333333333333 0  1.0397338661590123 340 3.5 0  1.0591040413322679 340 4.6666666666666661 0  1.0778836684617301 340 5.8333333333333339 0  1.0958851077208407 340 7 0  1.112928494679007 
340.83333333333331 0 0.19999999999999998  1.0559115250903284 340.83333333333331 1.1666666666666665 0.17764952520133215  1.0789694570263419 340.83333333333331 2.333333333333333 0.10888888888888891  1.1012799842075969 340.83333333333331 3.5 0.013333333333333345  1.1226618191773938 340.83333333333331 4.6666666666666661 -0.082222222222222183  1.1429429536646265 340.83333333333331 5.8333333333333339 -0.1509828585346655  1.1619623772335663 340.83333333333331 7 -0.17333333333333331  1.1795716860469145 
341.66666666666669 0 0.34641016151377546  1.1073645438787922 341.66666666666669 1.1666666666666665 0.30944444444444447  1.1320072939472807 341.66666666666669 2.333333333333333 0.19209396964577663  1.1554143346824908 341.66666666666669 3.5 0.028333333333333353  1.1774350545827679 341.66666666666669 4.6666666666666661 -0.13542730297910988  1.197932693805984 341.66666666666669 5.8333333333333339 -0.25277777777777782  1.2167857106286719 341.66666666666669 7 -0.28974349484710882  1.2338889958507511 
342.5 0 0.40000000000000002  1.1502560810280587 342.5 1.1666666666666665 0.36141016151377553  1.1751831009578748 342.5 2.333333333333333 0.23000000000000007  1.1984846451188034 342.5 3.5 0.045000000000000026  1.2200527880521044 342.5 4.6666666666666661 -0.13999999999999993  1.2397969238711173 342.5 5.8333333333333339 -0.27141016151377551  1.2576446715653318 342.5 7 -0.31  1.2735425982075177 
343.33333333333331 0 0.34641016151377552  1.1811658723194762 343.33333333333331 1.1666666666666665 0.32111111111111112  1.2053862045829733 343.33333333333331 2.333333333333333 0.21542730297911  1.2277209136059959 343.33333333333331 3.5 0.063333333333333353  1.2481133661829251 343.33333333333331 4.6666666666666661 -0.088760636312443242  1.2665263354925265 343.33333333333331 5.8333333333333339 -0.1944444444444445  1.282942373056043 343.33333333333331 7 -0.21974349484710887  1.2973639830766261 
344.16666666666669 0 0.19999999999999998  1.1976291039415914 344.16666666666669 1.1666666666666665 0.20098285853466552  1.2205404028576017 344.16666666666669 2.333333333333333 0.15555555555555559  1.2414562947493062 344.16666666666669 3.5 0.083333333333333343  1.2603759547188793 344.16666666666669 4.6666666666666661 0.011111111111111158  1.2773185035579957 344.16666666666669 5.8333333333333339 -0.034316191867998828  1.2923228166991994 344.16666666666669 7 -0.033333333333333312  1.3054471357854318 
345 0 4.8985871965894131e-17  1.1983329620904937 345 1.1666666666666665 0.035000000000000038  1.2197695261756389 345 2.333333333333333 0.070000000000000021  1.239260017537483 345 3.5 0.105  1.2568594853651363 345 4.6666666666666661 0.13999999999999996  1.2726418733297749 345 5.8333333333333339 0.17499999999999996  1.2866992807639179 345 7 0.20999999999999994  1.299141042435344 

0 4
0.37 2
0.70999999999999996 1
1 4

0 4
0.37 2
0.70999999999999996 1
1 4

9 0 0 1 0 3 2 8 3 9 2 364 0 0  364 0 2.5  364 0 5  
362.82842712474621 2.8284271247461898 -0.10000000000000001  362.82842712474621 2.8284271247461898 2.5  362.82842712474621 2.8284271247461898 5.0999999999999996  
360 4 -1.2246467991473533e-17  360 4 2.5  360 4 5  
357.17157287525379 2.8284271247461903 0.10000000000000001  357.17157287525379 2.8284271247461903 2.5  357.17157287525379 2.8284271247461903 4.9000000000000004  
356 4.8985871965894128e-16 2.4492935982947065e-17  356 4.8985871965894128e-16 2.5  356 4.8985871965894128e-16 5  
357.17157287525379 -2.8284271247461898 -0.10000000000000001  357.17157287525379 -2.8284271247461898 2.5  357.17157287525379 -2.8284271247461898 5.0999999999999996  
360 -4 -3.6739403974420595e-17  360 -4 2.5  360 -4 5  
362.82842712474621 -2.8284271247461907 0.10000000000000001  362.82842712474621 -2.8284271247461907 2.5  362.82842712474621 -2.8284271247461907 4.9000000000000004  

0 1
1 1
2 1
3 1
4 1
5 1
6 1
7 1
8 1

0 3
1 3

9 1 1 1 0 3 2 8 3 9 2 384 0 0  1 384 0 2.5  1.0591040413322679 384 0 5  1.112928494679007 
382.82842712474621 2.8284271247461898 -0.10000000000000001  1.0421808646298214 382.82842712474621 2.8284271247461898 2.5  1.1074465160652296 382.82842712474621 2.8284271247461898 5.0999999999999996  1.1639517310521426 
380 4 -1.2246467991473533e-17  1.082464156348685 380 4 2.5  1.15137708853267 380 4 5  1.2084428378948187 
377.17157287525379 2.8284271247461903 0.10000000000000001  1.1190376675643379 377.17157287525379 2.8284271247461903 2.5  1.1893412216521386 377.17157287525379 2.8284271247461903 4.9000000000000004  1.2452438108021613 
376 4.8985871965894128e-16 2.4492935982947065e-17  1.1502560810280587 376 4.8985871965894128e-16 2.5  1.2200527880521044 376 4.8985871965894128e-16 5  1.2735425982075177 
377.17157287525379 -2.8284271247461898 -0.10000000000000001  1.1747149870334141 377.17157287525379 -2.8284271247461898 2.5  1.2425519285459723 377.17157287525379 -2.8284271247461898 5.0999999999999996  1.2929096328065683 
380 -4 -3.6739403974420595e-17  1.1913140630081971 380 -4 2.5  1.2562482329157605 380 -4 5  1.3033171563219388 
382.82842712474621 -2.8284271247461907 0.10000000000000001  1.1993065732656665 382.82842712474621 -2.8284271247461907 2.5  1.2609473004495806 382.82842712474621 -2.8284271247461907 4.9000000000000004  1.3051404682532119 

0 1
1 1
2 1
3 1
4 1
5 1
6 1
7 1
8 1

0 3
1 3

Triangulations 0

TShapes 195
Ve
1e-07
0 0 0
0 0

0101101
*
Ve
1e-07
0 7 0
0 0

0101101
*
Ed
 1e-07 1 1 0
1  1 0 0 1
2  1 1 0 0 1
0

0101000
+195 0 -194 0 *
Ve
1e-07
5 0 4.89858719658941e-17
0 0

0101101
*
Ed
 1e-07 1 1 0
1  2 0 0 1
2  2 1 0 0 1
0

0101000
+195 0 -192 0 *
Ve
1e-07
5 7 0.21
0 0

0101101
*
Ed
 1e-07 1 1 0
1  3 0 0 1
2  3 1 0 0 1
0

0101000
+192 0 -190 0 *
Ed
 1e-07 1 1 0
1  4 0 0 1
2  4 1 0 0 1
0

0101000
+194 0 -190 0 *
Wi

0101100
-193 0 +191 0 +189 0 -188 0 *
Fa
1  1e-07 1 0

0101000
+187 0 *
Ve
1e-07
20 0 0
0 0

0101101
*
Ve
1e-07
20 7 0
0 0

0101101
*
Ed
 1e-07 1 1 0
1  5 0 0 1
2  5 2 0 0 1
0

0101000
+185 0 -184 0 *
Ve
1e-07
25 0 4.89858719658941e-17
0 0

0101101
*
Ed
 1e-07 1 1 0
1  6 0 0 1
2  6 2 0 0 1
0

0101000
+185 0 -182 0 *
Ve
1e-07
25 7 0.21
0 0

0101101
*
Ed
 1e-07 1 1 0
1  7 0 0 1
2  7 2 0 0 1
0

0101000
+182 0 -180 0 *
Ed
 1e-07 1 1 0
1  8 0 0 1
2  8 2 0 0 1
0

0101000
+184 0 -180 0 *
Wi

0101100
-183 0 +181 0 +179 0 -178 0 *
Fa
1  1e-07 2 0

0101000
+177 0 *
Ve
1e-07
40 0 0
0 0

0101101
*
Ve
1e-07
40 7 0
0 0

0101101
*
Ed
 1e-07 1 1 0
1  9 0 0 1
2  9 3 0 0 1
0

0101000
+175 0 -174 0 *
Ve
1e-07
45 0 4.89858719658941e-17
0 0

0101101
*
Ed
 1e-07 1 1 0
1  10 0 0 1
2  10 3 0 0 1
0

0101000
+175 0 -172 0 *
Ve
1e-07
45 7 0.21
0 0

0101101
*
Ed
 1e-07 1 1 0
1  11 0 0 1
2  11 3 0 0 1
0

0101000
+172 0 -170 0 *
Ed
 1e-07 1 1 0
1  12 0 0 1
2  12 3 0 0 1
0

0101000
+174 0 -170 0 *
Wi

0101100
-173 0 +171 0 +169 0 -168 0 *
Fa
1  1e-07 3 0

0101000
+167 0 *
Ve
1e-07
60 0 0
0 0

0101101
*
Ve
1e-07
60 7 0
0 0

0101101
*
Ed
 1e-07 1 1 0
1  13 0 0 1
2  13 4 0 0 1
0

0101000
+165 0 -164 0 *
Ve
1e-07
65 0 4.89858719658941e-17
0 0

0101101
*
Ed
 1e-07 1 1 0
1  14 0 0 1
2  14 4 0 0 1
0

0101000
+165 0 -162 0 *
Ve
1e-07
65 7 0.21
0 0

0101101
*
Ed
 1e-07 1 1 0
1  15 0 0 1
2  15 4 0 0 1
0

0101000
+162 0 -160 0 *
Ed
 1e-07 1 1 0
1  16 0 0 1
2  16 4 0 0 1
0

0101000
+164 0 -160 0 *
Wi

0101100
-163 0 +161 0 +159 0 -158 0 *
Fa
1  1e-07 4 0

0101000
+157 0 *
Ve
1e-07
80 0 0
0 0

0101101
*
Ve
1e-07
80 7 0
0 0

0101101
*
Ed
 1e-07 1 1 0
1  17 0 0 1
2  17 5 0 0 1
0

0101000
+155 0 -154 0 *
Ve
1e-07
85 0 4.89858719658941e-17
0 0

0101101
*
Ed
 1e-07 1 1 0
1  18 0 0 1
2  18 5 0 0 1
0

0101000
+155 0 -152 0 *
Ve
1e-07
85 7 0.21
0 0

0101101
*
Ed
 1e-07 1 1 0
1  19 0 0 1
2  19 5 0 0 1
0

0101000
+152 0 -150 0 *
Ed
 1e-07 1 1 0
1  20 0 0 1
2  20 5 0 0 1
0

0101000
+154 0 -150 0 *
Wi

0101100
-153 0 +151 0 +149 0 -148 0 *
Fa
1  1e-07 5 0

0101000
+147 0 *
Ve
1e-07
100 0 0
0 0

0101101
*
Ve
1e-07
100 7 0
0 0

0101101
*
Ed
 1e-07 1 1 0
1  21 0 0 1
2  21 6 0 0 1
0

0101000
+145 0 -144 0 *
Ve
1e-07
105 0 4.89858719658941e-17
0 0

0101101
*
Ed
 1e-07 1 1 0
1  22 0 0 1
2  22 6 0 0 1
0

0101000
+145 0 -142 0 *
Ve
1e-07
105 7 0.21
0 0

0101101
*
Ed
 1e-07 1 1 0
1  23 0 0 1
2  23 6 0 0 1
0

0101000
+142 0 -140 0 *
Ed
 1e-07 1 1 0
1  24 0 0 1
2  24 6 0 0 1
0

0101000
+144 0 -140 0 *
Wi

0101100
-143 0 +141 0 +139 0 -138 0 *
Fa
1  1e-07 6 0

0101000
+137 0 *
Ve
1e-07
120 0 0
0 0

0101101
*
Ve
1e-07
120 7 0
0 0

0101101
*
Ed
 1e-07 1 1 0
1  25 0 0 1
2  25 7 0 0 1
0

0101000
+135 0 -134 0 *
Ve
1e-07
125 0 4.89858719658941e-17
0 0

0101101
*
Ed
 1e-07 1 1 0
1  26 0 0 1
2  26 7 0 0 1
0

0101000
+135 0 -132 0 *
Ve
1e-07
125 7 0.21
0 0

0101101
*
Ed
 1e-07 1 1 0
1  27 0 0 1
2  27 7 0 0 1
0

0101000
+132 0 -130 0 *
Ed
 1e-07 1 1 0
1  28 0 0 1
2  28 7 0 0 1
0

0101000
+134 0 -130 0 *
Wi

0101100
-133 0 +131 0 +129 0 -128 0 *
Fa
1  1e-07 7 0

0101000
+127 0 *
Ve
1e-07
140 0 0
0 0

0101101
*
Ve
1e-07
140 7 0
0 0

0101101
*
Ed
 1e-07 1 1 0
1  29 0 0 1
2  29 8 0 0 1
0

0101000
+125 0 -124 0 *
Ve
1e-07
145 0 4.89858719658941e-17
0 0

0101101
*
Ed
 1e-07 1 1 0
1  30 0 0 1
2  30 8 0 0 1
0

0101000
+125 0 -122 0 *
Ve
1e-07
145 7 0.21
0 0

0101101
*
Ed
 1e-07 1 1 0
1  31 0 0 1
2  31 8 0 0 1
0

0101000
+122 0 -120 0 *
Ed
 1e-07 1 1 0
1  32 0 0 1
2  32 8 0 0 1
0

0101000
+124 0 -120 0 *
Wi

0101100
-123 0 +121 0 +119 0 -118 0 *
Fa
1  1e-07 8 0

0101000
+117 0 *
Ve
1e-07
160 0 0
0 0

0101101
*
Ve
1e-07
160 7 0
0 0

0101101
*
Ed
 1e-07 1 1 0
1  33 0 0 1
2  33 9 0 0 1
0

0101000
+115 0 -114 0 *
Ve
1e-07
165 0 4.89858719658941e-17
0 0

0101101
*
Ed
 1e-07 1 1 0
1  34 0 0 1
2  34 9 0 0 1
0

0101000
+115 0 -112 0 *
Ve
1e-07
165 7 0.21
0 0

0101101
*
Ed
 1e-07 1 1 0
1  35 0 0 1
2  35 9 0 0 1
0

0101000
+112 0 -110 0 *
Ed
 1e-07 1 1 0
1  36 0 0 1
2  36 9 0 0 1
0

0101000
+114 0 -110 0 *
Wi

0101100
-113 0 +111 0 +109 0 -108 0 *
Fa
1  1e-07 9 0

0101000
+107 0 *
Ve
1e-07
180 0 0
0 0

0101101
*
Ve
1e-07
180 7 0
0 0

0101101
*
Ed
 1e-07 1 1 0
1  37 0 0 1
2  37 10 0 0 1
0

0101000
+105 0 -104 0 *
Ve
1e-07
185 0 4.89858719658941e-17
0 0

0101101
*
Ed
 1e-07 1 1 0
1  38 0 0 1
2  38 10 0 0 1
0

0101000
+105 0 -102 0 *
Ve
1e-07
185 7 0.21
0 0

0101101
*
Ed
 1e-07 1 1 0
1  39 0 0 1
2  39 10 0 0 1
0

0101000
+102 0 -100 0 *
Ed
 1e-07 1 1 0
1  40 0 0 1
2  40 10 0 0 1
0

0101000
+104 0 -100 0 *
Wi

0101100
-103 0 +101 0 +99 0 -98 0 *
Fa
1  1e-07 10 0

0101000
+97 0 *
Ve
1e-07
200 0 0
0 0

0101101
*
Ve
1e-07
200 7 0
0 0

0101101
*
Ed
 1e-07 1 1 0
1  41 0 0 1
2  41 11 0 0 1
0

0101000
+95 0 -94 0 *
Ve
1e-07
205 0 4.89858719658941e-17
0 0

0101101
*
Ed
 1e-07 1 1 0
1  42 0 0 1
2  42 11 0 0 1
0

0101000
+95 0 -92 0 *
Ve
1e-07
205 7 0.21
0 0

0101101
*
Ed
 1e-07 1 1 0
1  43 0 0 1
2  43 11 0 0 1
0

0101000
+92 0 -90 0 *
Ed
 1e-07 1 1 0
1  44 0 0 1
2  44 11 0 0 1
0

0101000
+94 0 -90 0 *
Wi

0101100
-93 0 +91 0 +89 0 -88 0 *
Fa
1  1e-07 11 0

0101000
+87 0 *
Ve
1e-07
220 0 0
0 0

0101101
*
Ve
1e-07
220 7 0
0 0

0101101
*
Ed
 1e-07 1 1 0
1  45 0 0 1
2  45 12 0 0 1
0

0101000
+85 0 -84 0 *
Ve
1e-07
225 0 4.89858719658941e-17
0 0

0101101
*
Ed
 1e-07 1 1 0
1  46 0 0 1
2  46 12 0 0 1
0

0101000
+85 0 -82 0 *
Ve
1e-07
225 7 0.21
0 0

0101101
*
Ed
 1e-07 1 1 0
1  47 0 0 1
2  47 12 0 0 1
0

0101000
+82 0 -80 0 *
Ed
 1e-07 1 1 0
1  48 0 0 1
2  48 12 0 0 1
0

0101000
+84 0 -80 0 *
Wi

0101100
-83 0 +81 0 +79 0 -78 0 *
Fa
1  1e-07 12 0

0101000
+77 0 *
Ve
1e-07
240 0 0
0 0

0101101
*
Ve
1e-07
240 7 0
0 0

0101101
*
Ed
 1e-07 1 1 0
1  49 0 0 1
2  49 13 0 0 1
0

0101000
+75 0 -74 0 *
Ve
1e-07
245 0 4.89858719658941e-17
0 0

0101101
*
Ed
 1e-07 1 1 0
1  50 0 0 1
2  50 13 0 0 1
0

0101000
+75 0 -72 0 *
Ve
1e-07
245 7 0.21
0 0

0101101
*
Ed
 1e-07 1 1 0
1  51 0 0 1
2  51 13 0 0 1
0

0101000
+72 0 -70 0 *
Ed
 1e-07 1 1 0
1  52 0 0 1
2  52 13 0 0 1
0

0101000
+74 0 -70 0 *
Wi

0101100
-73 0 +71 0 +69 0 -68 0 *
Fa
1  1e-07 13 0

0101000
+67 0 *
Ve
1e-07
260 0 0
0 0

0101101
*
Ve
1e-07
260 7 0
0 0

0101101
*
Ed
 1e-07 1 1 0
1  53 0 0 1
2  53 14 0 0 1
0

0101000
+65 0 -64 0 *
Ve
1e-07
265 0 4.89858719658941e-17
0 0

0101101
*
Ed
 1e-07 1 1 0
1  54 0 0 1
2  54 14 0 0 1
0

0101000
+65 0 -62 0 *
Ve
1e-07
265 7 0.21
0 0

0101101
*
Ed
 1e-07 1 1 0
1  55 0 0 1
2  55 14 0 0 1
0

0101000
+62 0 -60 0 *
Ed
 1e-07 1 1 0
1  56 0 0 1
2  56 14 0 0 1
0

0101000
+64 0 -60 0 *
Wi

0101100
-63 0 +61 0 +59 0 -58 0 *
Fa
1  1e-07 14 0

0101000
+57 0 *
Ve
1e-07
280 0 0
0 0

0101101
*
Ve
1e-07
280 7 0
0 0

0101101
*
Ed
 1e-07 1 1 0
1  57 0 0 1
2  57 15 0 0 1
0

0101000
+55 0 -54 0 *
Ve
1e-07
285 0 4.89858719658941e-17
0 0

0101101
*
Ed
 1e-07 1 1 0
1  58 0 0 1
2  58 15 0 0 1
0

0101000
+55 0 -52 0 *
Ve
1e-07
285 7 0.21
0 0

0101101
*
Ed
 1e-07 1 1 0
1  59 0 0 1
2  59 15 0 0 1
0

0101000
+52 0 -50 0 *
Ed
 1e-07 1 1 0
1  60 0 0 1
2  60 15 0 0 1
0

0101000
+54 0 -50 0 *
Wi

0101100
-53 0 +51 0 +49 0 -48 0 *
Fa
1  1e-07 15 0

0101000
+47 0 *
Ve
1e-07
300 0 0
0 0

0101101
*
Ve
1e-07
300 7 0
0 0

0101101
*
Ed
 1e-07 1 1 0
1  61 0 0 1
2  61 16 0 0 1
0

0101000
+45 0 -44 0 *
Ve
1e-07
305 0 4.89858719658941e-17
0 0

0101101
*
Ed
 1e-07 1 1 0
1  62 0 0 1
2  62 16 0 0 1
0

0101000
+45 0 -42 0 *
Ve
1e-07
305 7 0.21
0 0

0101101
*
Ed
 1e-07 1 1 0
1  63 0 0 1
2  63 16 0 0 1
0

0101000
+42 0 -40 0 *
Ed
 1e-07 1 1 0
1  64 0 0 1
2  64 16 0 0 1
0

0101000
+44 0 -40 0 *
Wi

0101100
-43 0 +41 0 +39 0 -38 0 *
Fa
1  1e-07 16 0

0101000
+37 0 *
Ve
1e-07
320 0 0
0 0

0101101
*
Ve
1e-07
320 7 0
0 0

0101101
*
Ed
 1e-07 1 1 0
1  65 0 0 1
2  65 17 0 0 1
0

0101000
+35 0 -34 0 *
Ve
1e-07
325 0 4.89858719658941e-17
0 0

0101101
*
Ed
 1e-07 1 1 0
1  66 0 0 1
2  66 17 0 0 1
0

0101000
+35 0 -32 0 *
Ve
1e-07
325 7 0.21
0 0

0101101
*
Ed
 1e-07 1 1 0
1  67 0 0 1
2  67 17 0 0 1
0

0101000
+32 0 -30 0 *
Ed
 1e-07 1 1 0
1  68 0 0 1
2  68 17 0 0 1
0

0101000
+34 0 -30 0 *
Wi

0101100
-33 0 +31 0 +29 0 -28 0 *
Fa
1  1e-07 17 0

0101000
+27 0 *
Ve
1e-07
340 0 0
0 0

0101101
*
Ve
1e-07
340 7 0
0 0

0101101
*
Ed
 1e-07 1 1 0
1  69 0 0 1
2  69 18 0 0 1
0

0101000
+25 0 -24 0 *
Ve
1e-07
345 0 4.89858719658941e-17
0 0

0101101
*
Ed
 1e-07 1 1 0
1  70 0 0 1
2  70 18 0 0 1
0

0101000
+25 0 -22 0 *
Ve
1e-07
345 7 0.21
0 0

0101101
*
Ed
 1e-07 1 1 0
1  71 0 0 1
2  71 18 0 0 1
0

0101000
+22 0 -20 0 *
Ed
 1e-07 1 1 0
1  72 0 0 1
2  72 18 0 0 1
0

0101000
+24 0 -20 0 *
Wi

0101100
-23 0 +21 0 +19 0 -18 0 *
Fa
1  1e-07 18 0

0101000
+17 0 *
Ve
1e-07
362.552284749831 2.55228474983079 -0.0666666666666667
0 0

0101101
*
Ve
1e-07
362.552284749831 2.55228474983079 5.06666666666667
0 0

0101101
*
Ed
 1e-07 1 1 0
1  73 0 0 1
3  73 74C0 19 0 0 1
0

0101000
+15 0 -14 0 *
Ed
 1e-07 1 1 0
1  74 0 0 8
2  75 19 0 0 8
0

0101000
+15 0 -15 0 *
Ed
 1e-07 1 1 0
1  75 0 0 8
2  76 19 0 0 8
0

0101000
+14 0 -14 0 *
Wi

0101100
-13 0 +12 0 +13 0 -11 0 *
Fa
1  1e-07 19 0

0101000
+10 0 *
Ve
1e-07
382.526068881389 2.57883591474592 -0.0666869035989945
0 0

0101101
*
Ve
1e-07
382.525422731403 2.58018088130286 5.06672908091008
0 0

0101101
*
Ed
 1e-07 1 1 0
1  76 0 0 1
3  77 78C0 20 0 0 1
0

0101000
+8 0 -7 0 *
Ed
 1e-07 1 1 0
1  77 0 0 8
2  79 20 0 0 8
0

0101000
+8 0 -8 0 *
Ed
 1e-07 1 1 0
1  78 0 0 8
2  80 20 0 0 8
0

0101000
+7 0 -7 0 *
Wi

0101100
-6 0 +5 0 +6 0 -4 0 *
Fa
1  1e-07 20 0

0101000
+3 0 *
Co

1100000
+186 0 +176 0 +166 0 +156 0 +146 0 +136 0 +126 0 +116 0 +106 0 +96 0 
+86 0 +76 0 +66 0 +56 0 +46 0 +36 0 +26 0 +16 0 +9 0 +2 0 
*

+1 0 