
CASCADE Topology V3, (c) Open Cascade
Locations 0
Curve2ds 4
1 0 0 1 0 
1 1 0 0 1 
1 0 0 0 1 
1 0 1 1 0 
Curves 3
7 1 0  2 7 4  10 0 0  1.2727272727272727 10 17.320508075688767 0  0.63636363636363646 -4.9999999999999982 8.6602540378443873 0  1.2727272727272727 -19.999999999999996 2.4492935982947061e-15 0  0.63636363636363646 -5.0000000000000044 -8.6602540378443837 0  1.2727272727272727 9.999999999999984 -17.320508075688778 0  0.63636363636363646 10 0 0  1.2727272727272727
 0 3 0.33333333333333331 2 0.66666666666666663 2 1 3
7 1 0  8 9 2  10 0 0  1.2727272727272727 9.9999999033387574 -0.98174759465479922 2.4999999999995461  1.2727272727276469 10.220304184583208 -1.9634960063891409 5.000000000004901  1.272727272725676 10.660909455507817 -2.8875658592087148 7.4999999999832099  1.2727272727306782 11.303706160728028 -3.6962938393167968 10.000000000029631  1.2727272727229124 12.112434140756477 -4.3390905444561776 12.499999999969871  1.2727272727307488 13.036503993627086 -4.7796958154340903 15.000000000017462  1.272727272725616 14.018252405341441 -5.0000000966571223 17.499999999995158  1.2727272727276628 15 -5 20  1.2727272727272727
 0 9 1 9
7 1 0  2 7 4  15 -5 20  1.2727272727272727 15 12.320508075688767 20  0.63636363636363646 8.8817841970012523e-16 3.6602540378443869 20  1.2727272727272727 -14.999999999999996 -4.9999999999999973 20  0.63636363636363646 -5.3290705182007514e-15 -13.660254037844384 20  1.2727272727272727 14.999999999999982 -22.320508075688778 20  0.63636363636363646 15 -5 20  1.2727272727272727
 0 3 0.33333333333333331 2 0.66666666666666663 2 1 3
Polygon3D 0
PolygonOnTriangulations 0
Surfaces 3
9 1 1 0 0 2 8 7 9 4 2 10 0 0  1.2727272727272727 9.9999999033387574 -0.98174759465479922 2.4999999999995461  1.2727272727276469 10.220304184583208 -1.9634960063891409 5.000000000004901  1.272727272725676 10.660909455507817 -2.8875658592087148 7.4999999999832099  1.2727272727306782 11.303706160728028 -3.6962938393167968 10.000000000029631  1.2727272727229124 12.112434140756477 -4.3390905444561776 12.499999999969871  1.2727272727307488 13.036503993627086 -4.7796958154340903 15.000000000017462  1.272727272725616 14.018252405341441 -5.0000000966571223 17.499999999995158  1.2727272727276628 15 -5 20  1.2727272727272727 
10 17.320508075688767 0  0.63636363636363646 9.999999903345504 16.338760481036601 2.5000000000019607  0.63636363636368209 10.220304184554511 15.357012069289363 4.9999999999926326  0.63636363636343807 10.660909455569046 14.432942216499573 7.5000000000131672  0.63636363636407345 11.303706160649144 13.624214236349854 9.9999999999869313  0.63636363636305182 12.112434140820115 12.98141753124828 12.500000000006924  0.63636363636412785 13.03650399359625 12.540812260247883 14.999999999998598  0.636363636363388 14.018252405348861 12.320507979033154 17.499999999999837  0.63636363636369864 15 12.320508075688767 20  0.63636363636363646 
-4.9999999999999982 8.6602540378443873 0  1.2727272727272727 -5.0000000966571134 7.6785064431876568 2.4999999999995461  1.2727272727276469 -4.7796958154343345 6.6967580314634398 5.000000000004901  1.272727272725676 -4.3390905444549164 5.7726881786181519 7.4999999999832099  1.2727272727306782 -3.6962938393194693 4.9639601985502049 10.000000000029631  1.2727272727229124 -2.8875658592057762 4.3211634933699523 12.499999999969871  1.2727272727307488 -1.9634960063908593 3.880558222419126 15.000000000017462  1.272727272725616 -0.98174759465433759 3.6602539411851573 17.499999999995158  1.2727272727276628 8.8817841970012523e-16 3.6602540378443869 20  1.2727272727272727 
-19.999999999999996 2.4492935982947061e-15 0  0.63636363636363646 -20.000000096657317 -0.98174759465463102 2.5000000000019607  0.63636363636368209 -19.779695815433012 -1.9634960063888189 4.9999999999926326  0.63636363636343807 -19.339090544458099 -2.8875658592114442 7.5000000000131672  0.63636363636407345 -18.696293839315683 -3.6962938393110614 9.9999999999869313  0.63636363636305182 -17.887565859207957 -4.3390905444620955 12.500000000006924  0.63636363636412785 -16.963496006390475 -4.7796958154308733 14.999999999998598  0.636363636363388 -15.981747594654221 -5.0000000966579083 17.499999999999837  0.63636363636369864 -14.999999999999996 -4.9999999999999973 20  0.63636363636363646 
-5.0000000000000044 -8.6602540378443837 0  1.2727272727272727 -5.0000000966570406 -9.6420016324968092 2.4999999999995461  1.2727272727276469 -4.7796958154346436 -10.623750044243415 5.000000000004901  1.272727272725676 -4.3390905444544821 -11.547819897032374 7.4999999999832099  1.2727272727306782 -3.696293839319623 -12.356547877187415 10.000000000029631  1.2727272727229124 -2.8875658592060742 -12.99934458227982 12.499999999969871  1.2727272727307488 -1.9634960063905258 -13.439949853288297 15.000000000017462  1.272727272725616 -0.98174759465446604 -13.66025413449921 17.499999999995158  1.2727272727276628 -5.3290705182007514e-15 -13.660254037844384 20  1.2727272727272727 
9.999999999999984 -17.320508075688778 0  0.63636363636363646 9.9999999033413012 -18.302255670343158 2.5000000000019607  0.63636363636368209 10.220304184572438 -19.28400408207786 4.9999999999926326  0.63636363636343807 10.660909455530518 -20.208073934901229 7.5000000000131672  0.63636363636407345 11.303706160698926 -21.01680191499678 9.9999999999869313  0.63636363636305182 12.112434140779857 -21.659598620154576 12.500000000006924  0.63636363636412785 13.036503993615785 -22.100203891117388 14.999999999998598  0.636363636363388 14.018252405344109 -22.320508172347299 17.499999999999837  0.63636363636369864 14.999999999999982 -22.320508075688778 20  0.63636363636363646 
10 0 0  1.2727272727272727 9.9999999033387574 -0.98174759465479922 2.4999999999995461  1.2727272727276469 10.220304184583208 -1.9634960063891409 5.000000000004901  1.272727272725676 10.660909455507817 -2.8875658592087148 7.4999999999832099  1.2727272727306782 11.303706160728028 -3.6962938393167968 10.000000000029631  1.2727272727229124 12.112434140756477 -4.3390905444561776 12.499999999969871  1.2727272727307488 13.036503993627086 -4.7796958154340903 15.000000000017462  1.272727272725616 14.018252405341441 -5.0000000966571223 17.499999999995158  1.2727272727276628 15 -5 20  1.2727272727272727 

0 3
0.33333333333333331 2
0.66666666666666663 2
1 3

0 9
1 9

1 10 0 0 0 0 -1 -1 2.3261815754050899e-17 0 2.3261815754050899e-17 1 0 
1 15 -5 20 1.7763568394002503e-16 3.0767402982136989e-16 1 -1 -4.4408920985006264e-17 1.7763568394002506e-16 4.440892098500632e-17 -1 3.0767402982136989e-16 
Triangulations 0

TShapes 13
Ve
1e-07
10 0 0
0 0

0101101
*
Ed
 1e-07 1 1 0
1  1 0 0 1
2  1 1 0 0 1
4 C0 1 0 2 0
0

0101000
+13 0 -13 0 *
Ve
1e-07
15 -5 20
0 0

0101101
*
Ed
 1e-07 1 1 0
1  2 0 0 1
3  2 3C2 1 0 0 1
0

0101000
+13 0 -11 0 *
Ed
 1e-07 1 1 0
1  3 0 0 1
2  4 1 0 0 1
4 C0 1 0 3 0
0

0101000
+11 0 -11 0 *
Wi

0101000
+12 0 +10 0 -9 0 -10 0 *
Fa
0  1e-07 1 0

0101000
+8 0 *
Wi

0101000
-12 0 *
Fa
0  1e-07 2 0

0101000
+6 0 *
Wi

0101000
+9 0 *
Fa
0  1e-07 3 0

0101000
+4 0 *
Sh

0101100
+7 0 +5 0 +3 0 *
So

1100100
+2 0 *

+1 0 